%TF.GenerationSoftware,KiCad,Pcbnew,(6.0.4)*%
%TF.CreationDate,2022-09-19T19:44:15-05:00*%
%TF.ProjectId,WaterGame,57617465-7247-4616-9d65-2e6b69636164,rev?*%
%TF.SameCoordinates,PX49e1930PY59a0560*%
%TF.FileFunction,Legend,Top*%
%TF.FilePolarity,Positive*%
%FSLAX46Y46*%
G04 Gerber Fmt 4.6, Leading zero omitted, Abs format (unit mm)*
G04 Created by KiCad (PCBNEW (6.0.4)) date 2022-09-19 19:44:15*
%MOMM*%
%LPD*%
G01*
G04 APERTURE LIST*
%ADD10C,0.150000*%
%ADD11C,0.120000*%
%ADD12C,0.254000*%
%ADD13C,0.152400*%
%ADD14C,0.100000*%
%ADD15R,1.727200X1.727200*%
%ADD16O,1.727200X1.727200*%
%ADD17C,1.400000*%
%ADD18O,1.400000X1.400000*%
%ADD19R,1.800000X1.800000*%
%ADD20C,1.800000*%
%ADD21R,1.700000X1.700000*%
%ADD22O,1.700000X1.700000*%
%ADD23R,1.600000X1.600000*%
%ADD24O,1.600000X1.600000*%
%ADD25C,1.600000*%
%ADD26O,3.500000X3.500000*%
%ADD27R,2.000000X1.905000*%
%ADD28O,2.000000X1.905000*%
G04 APERTURE END LIST*
D10*
X57602380Y20423334D02*
X57602380Y19851905D01*
X57602380Y20137620D02*
X56602380Y20137620D01*
X56745238Y20042381D01*
X56840476Y19947143D01*
X56888095Y19851905D01*
X56602380Y21042381D02*
X56602380Y21137620D01*
X56650000Y21232858D01*
X56697619Y21280477D01*
X56792857Y21328096D01*
X56983333Y21375715D01*
X57221428Y21375715D01*
X57411904Y21328096D01*
X57507142Y21280477D01*
X57554761Y21232858D01*
X57602380Y21137620D01*
X57602380Y21042381D01*
X57554761Y20947143D01*
X57507142Y20899524D01*
X57411904Y20851905D01*
X57221428Y20804286D01*
X56983333Y20804286D01*
X56792857Y20851905D01*
X56697619Y20899524D01*
X56650000Y20947143D01*
X56602380Y21042381D01*
X56602380Y21994762D02*
X56602380Y22090000D01*
X56650000Y22185239D01*
X56697619Y22232858D01*
X56792857Y22280477D01*
X56983333Y22328096D01*
X57221428Y22328096D01*
X57411904Y22280477D01*
X57507142Y22232858D01*
X57554761Y22185239D01*
X57602380Y22090000D01*
X57602380Y21994762D01*
X57554761Y21899524D01*
X57507142Y21851905D01*
X57411904Y21804286D01*
X57221428Y21756667D01*
X56983333Y21756667D01*
X56792857Y21804286D01*
X56697619Y21851905D01*
X56650000Y21899524D01*
X56602380Y21994762D01*
X57602380Y22756667D02*
X56602380Y22756667D01*
X57602380Y23328096D02*
X57030952Y22899524D01*
X56602380Y23328096D02*
X57173809Y22756667D01*
X47442380Y21375715D02*
X47442380Y20804286D01*
X47442380Y21090000D02*
X46442380Y21090000D01*
X46585238Y20994762D01*
X46680476Y20899524D01*
X46728095Y20804286D01*
X47442380Y21804286D02*
X46442380Y21804286D01*
X47442380Y22375715D02*
X46870952Y21947143D01*
X46442380Y22375715D02*
X47013809Y21804286D01*
X8342380Y4842381D02*
X8342380Y5461429D01*
X8723333Y5128096D01*
X8723333Y5270953D01*
X8770952Y5366191D01*
X8818571Y5413810D01*
X8913809Y5461429D01*
X9151904Y5461429D01*
X9247142Y5413810D01*
X9294761Y5366191D01*
X9342380Y5270953D01*
X9342380Y4985239D01*
X9294761Y4890000D01*
X9247142Y4842381D01*
X8437619Y7366191D02*
X8390000Y7413810D01*
X8342380Y7509048D01*
X8342380Y7747143D01*
X8390000Y7842381D01*
X8437619Y7890000D01*
X8532857Y7937620D01*
X8628095Y7937620D01*
X8770952Y7890000D01*
X9342380Y7318572D01*
X9342380Y7937620D01*
X9342380Y10413810D02*
X9342380Y9842381D01*
X9342380Y10128096D02*
X8342380Y10128096D01*
X8485238Y10032858D01*
X8580476Y9937620D01*
X8628095Y9842381D01*
X8342380Y12556667D02*
X8342380Y12651905D01*
X8390000Y12747143D01*
X8437619Y12794762D01*
X8532857Y12842381D01*
X8723333Y12890000D01*
X8961428Y12890000D01*
X9151904Y12842381D01*
X9247142Y12794762D01*
X9294761Y12747143D01*
X9342380Y12651905D01*
X9342380Y12556667D01*
X9294761Y12461429D01*
X9247142Y12413810D01*
X9151904Y12366191D01*
X8961428Y12318572D01*
X8723333Y12318572D01*
X8532857Y12366191D01*
X8437619Y12413810D01*
X8390000Y12461429D01*
X8342380Y12556667D01*
X56602380Y28083810D02*
X56602380Y28179048D01*
X56650000Y28274286D01*
X56697619Y28321905D01*
X56792857Y28369524D01*
X56983333Y28417143D01*
X57221428Y28417143D01*
X57411904Y28369524D01*
X57507142Y28321905D01*
X57554761Y28274286D01*
X57602380Y28179048D01*
X57602380Y28083810D01*
X57554761Y27988572D01*
X57507142Y27940953D01*
X57411904Y27893334D01*
X57221428Y27845715D01*
X56983333Y27845715D01*
X56792857Y27893334D01*
X56697619Y27940953D01*
X56650000Y27988572D01*
X56602380Y28083810D01*
X57602380Y30893334D02*
X57602380Y30321905D01*
X57602380Y30607620D02*
X56602380Y30607620D01*
X56745238Y30512381D01*
X56840476Y30417143D01*
X56888095Y30321905D01*
X56697619Y32798096D02*
X56650000Y32845715D01*
X56602380Y32940953D01*
X56602380Y33179048D01*
X56650000Y33274286D01*
X56697619Y33321905D01*
X56792857Y33369524D01*
X56888095Y33369524D01*
X57030952Y33321905D01*
X57602380Y32750477D01*
X57602380Y33369524D01*
X56602380Y35226667D02*
X56602380Y35845715D01*
X56983333Y35512381D01*
X56983333Y35655239D01*
X57030952Y35750477D01*
X57078571Y35798096D01*
X57173809Y35845715D01*
X57411904Y35845715D01*
X57507142Y35798096D01*
X57554761Y35750477D01*
X57602380Y35655239D01*
X57602380Y35369524D01*
X57554761Y35274286D01*
X57507142Y35226667D01*
X56935714Y38226667D02*
X57602380Y38226667D01*
X56554761Y37988572D02*
X57269047Y37750477D01*
X57269047Y38369524D01*
X56602380Y40750477D02*
X56602380Y40274286D01*
X57078571Y40226667D01*
X57030952Y40274286D01*
X56983333Y40369524D01*
X56983333Y40607620D01*
X57030952Y40702858D01*
X57078571Y40750477D01*
X57173809Y40798096D01*
X57411904Y40798096D01*
X57507142Y40750477D01*
X57554761Y40702858D01*
X57602380Y40607620D01*
X57602380Y40369524D01*
X57554761Y40274286D01*
X57507142Y40226667D01*
X56602380Y43179048D02*
X56602380Y42988572D01*
X56650000Y42893334D01*
X56697619Y42845715D01*
X56840476Y42750477D01*
X57030952Y42702858D01*
X57411904Y42702858D01*
X57507142Y42750477D01*
X57554761Y42798096D01*
X57602380Y42893334D01*
X57602380Y43083810D01*
X57554761Y43179048D01*
X57507142Y43226667D01*
X57411904Y43274286D01*
X57173809Y43274286D01*
X57078571Y43226667D01*
X57030952Y43179048D01*
X56983333Y43083810D01*
X56983333Y42893334D01*
X57030952Y42798096D01*
X57078571Y42750477D01*
X57173809Y42702858D01*
X48175000Y31790000D02*
X55795000Y31790000D01*
X55795000Y31790000D02*
X55795000Y26670000D01*
X55795000Y26670000D02*
X48175000Y26670000D01*
X48175000Y26670000D02*
X48175000Y31790000D01*
G36*
X48175000Y31790000D02*
G01*
X55795000Y31790000D01*
X55795000Y26670000D01*
X48175000Y26670000D01*
X48175000Y31790000D01*
G37*
X3699047Y2468572D02*
X4460952Y2468572D01*
X5699047Y2468572D02*
X6460952Y2468572D01*
X6080000Y2087620D02*
X6080000Y2849524D01*
X16050000Y8167620D02*
X16669047Y8167620D01*
X16335714Y7786667D01*
X16478571Y7786667D01*
X16573809Y7739048D01*
X16621428Y7691429D01*
X16669047Y7596191D01*
X16669047Y7358096D01*
X16621428Y7262858D01*
X16573809Y7215239D01*
X16478571Y7167620D01*
X16192857Y7167620D01*
X16097619Y7215239D01*
X16050000Y7262858D01*
X16954761Y8167620D02*
X17288095Y7167620D01*
X17621428Y8167620D01*
X17859523Y8167620D02*
X18478571Y8167620D01*
X18145238Y7786667D01*
X18288095Y7786667D01*
X18383333Y7739048D01*
X18430952Y7691429D01*
X18478571Y7596191D01*
X18478571Y7358096D01*
X18430952Y7262858D01*
X18383333Y7215239D01*
X18288095Y7167620D01*
X18002380Y7167620D01*
X17907142Y7215239D01*
X17859523Y7262858D01*
X20240476Y7167620D02*
X19907142Y7643810D01*
X19669047Y7167620D02*
X19669047Y8167620D01*
X20050000Y8167620D01*
X20145238Y8120000D01*
X20192857Y8072381D01*
X20240476Y7977143D01*
X20240476Y7834286D01*
X20192857Y7739048D01*
X20145238Y7691429D01*
X20050000Y7643810D01*
X19669047Y7643810D01*
X21050000Y7215239D02*
X20954761Y7167620D01*
X20764285Y7167620D01*
X20669047Y7215239D01*
X20621428Y7310477D01*
X20621428Y7691429D01*
X20669047Y7786667D01*
X20764285Y7834286D01*
X20954761Y7834286D01*
X21050000Y7786667D01*
X21097619Y7691429D01*
X21097619Y7596191D01*
X20621428Y7500953D01*
X21954761Y7834286D02*
X21954761Y7024762D01*
X21907142Y6929524D01*
X21859523Y6881905D01*
X21764285Y6834286D01*
X21621428Y6834286D01*
X21526190Y6881905D01*
X21954761Y7215239D02*
X21859523Y7167620D01*
X21669047Y7167620D01*
X21573809Y7215239D01*
X21526190Y7262858D01*
X21478571Y7358096D01*
X21478571Y7643810D01*
X21526190Y7739048D01*
X21573809Y7786667D01*
X21669047Y7834286D01*
X21859523Y7834286D01*
X21954761Y7786667D01*
X47442380Y27825239D02*
X46442380Y27825239D01*
X46442380Y28206191D01*
X46490000Y28301429D01*
X46537619Y28349048D01*
X46632857Y28396667D01*
X46775714Y28396667D01*
X46870952Y28349048D01*
X46918571Y28301429D01*
X46966190Y28206191D01*
X46966190Y27825239D01*
X46442380Y28730000D02*
X47442380Y28968096D01*
X46728095Y29158572D01*
X47442380Y29349048D01*
X46442380Y29587143D01*
X47442380Y29968096D02*
X46442380Y29968096D01*
X47156666Y30301429D01*
X46442380Y30634762D01*
X47442380Y30634762D01*
X36377619Y9120000D02*
X36377619Y8929524D01*
X36425238Y8834286D01*
X36472857Y8786667D01*
X36615714Y8691429D01*
X36806190Y8643810D01*
X37187142Y8643810D01*
X37282380Y8691429D01*
X37330000Y8739048D01*
X37377619Y8834286D01*
X37377619Y9024762D01*
X37330000Y9120000D01*
X37282380Y9167620D01*
X37187142Y9215239D01*
X36949047Y9215239D01*
X36853809Y9167620D01*
X36806190Y9120000D01*
X36758571Y9024762D01*
X36758571Y8834286D01*
X36806190Y8739048D01*
X36853809Y8691429D01*
X36949047Y8643810D01*
X37377619Y8358096D02*
X36377619Y8024762D01*
X37377619Y7691429D01*
X37330000Y6072381D02*
X37377619Y6167620D01*
X37377619Y6310477D01*
X37330000Y6453334D01*
X37234761Y6548572D01*
X37139523Y6596191D01*
X36949047Y6643810D01*
X36806190Y6643810D01*
X36615714Y6596191D01*
X36520476Y6548572D01*
X36425238Y6453334D01*
X36377619Y6310477D01*
X36377619Y6215239D01*
X36425238Y6072381D01*
X36472857Y6024762D01*
X36806190Y6024762D01*
X36806190Y6215239D01*
X2841904Y14787620D02*
X2841904Y15787620D01*
X3175238Y15073334D01*
X3508571Y15787620D01*
X3508571Y14787620D01*
X4127619Y14787620D02*
X4032380Y14835239D01*
X3984761Y14882858D01*
X3937142Y14978096D01*
X3937142Y15263810D01*
X3984761Y15359048D01*
X4032380Y15406667D01*
X4127619Y15454286D01*
X4270476Y15454286D01*
X4365714Y15406667D01*
X4413333Y15359048D01*
X4460952Y15263810D01*
X4460952Y14978096D01*
X4413333Y14882858D01*
X4365714Y14835239D01*
X4270476Y14787620D01*
X4127619Y14787620D01*
X4746666Y15454286D02*
X5127619Y15454286D01*
X4889523Y15787620D02*
X4889523Y14930477D01*
X4937142Y14835239D01*
X5032380Y14787620D01*
X5127619Y14787620D01*
X5603809Y14787620D02*
X5508571Y14835239D01*
X5460952Y14882858D01*
X5413333Y14978096D01*
X5413333Y15263810D01*
X5460952Y15359048D01*
X5508571Y15406667D01*
X5603809Y15454286D01*
X5746666Y15454286D01*
X5841904Y15406667D01*
X5889523Y15359048D01*
X5937142Y15263810D01*
X5937142Y14978096D01*
X5889523Y14882858D01*
X5841904Y14835239D01*
X5746666Y14787620D01*
X5603809Y14787620D01*
X6365714Y14787620D02*
X6365714Y15454286D01*
X6365714Y15263810D02*
X6413333Y15359048D01*
X6460952Y15406667D01*
X6556190Y15454286D01*
X6651428Y15454286D01*
X6937142Y14835239D02*
X7032380Y14787620D01*
X7222857Y14787620D01*
X7318095Y14835239D01*
X7365714Y14930477D01*
X7365714Y14978096D01*
X7318095Y15073334D01*
X7222857Y15120953D01*
X7080000Y15120953D01*
X6984761Y15168572D01*
X6937142Y15263810D01*
X6937142Y15311429D01*
X6984761Y15406667D01*
X7080000Y15454286D01*
X7222857Y15454286D01*
X7318095Y15406667D01*
X66976666Y17057620D02*
X66976666Y16343334D01*
X66929047Y16200477D01*
X66833809Y16105239D01*
X66690952Y16057620D01*
X66595714Y16057620D01*
X67929047Y17057620D02*
X67452857Y17057620D01*
X67405238Y16581429D01*
X67452857Y16629048D01*
X67548095Y16676667D01*
X67786190Y16676667D01*
X67881428Y16629048D01*
X67929047Y16581429D01*
X67976666Y16486191D01*
X67976666Y16248096D01*
X67929047Y16152858D01*
X67881428Y16105239D01*
X67786190Y16057620D01*
X67548095Y16057620D01*
X67452857Y16105239D01*
X67405238Y16152858D01*
X46442380Y39036667D02*
X47156666Y39036667D01*
X47299523Y38989048D01*
X47394761Y38893810D01*
X47442380Y38750953D01*
X47442380Y38655715D01*
X47442380Y40036667D02*
X47442380Y39465239D01*
X47442380Y39750953D02*
X46442380Y39750953D01*
X46585238Y39655715D01*
X46680476Y39560477D01*
X46728095Y39465239D01*
X47577619Y8167620D02*
X47101428Y8167620D01*
X47053809Y7691429D01*
X47101428Y7739048D01*
X47196666Y7786667D01*
X47434761Y7786667D01*
X47530000Y7739048D01*
X47577619Y7691429D01*
X47625238Y7596191D01*
X47625238Y7358096D01*
X47577619Y7262858D01*
X47530000Y7215239D01*
X47434761Y7167620D01*
X47196666Y7167620D01*
X47101428Y7215239D01*
X47053809Y7262858D01*
X47910952Y8167620D02*
X48244285Y7167620D01*
X48577619Y8167620D01*
X50244285Y7167620D02*
X49910952Y7643810D01*
X49672857Y7167620D02*
X49672857Y8167620D01*
X50053809Y8167620D01*
X50149047Y8120000D01*
X50196666Y8072381D01*
X50244285Y7977143D01*
X50244285Y7834286D01*
X50196666Y7739048D01*
X50149047Y7691429D01*
X50053809Y7643810D01*
X49672857Y7643810D01*
X51053809Y7215239D02*
X50958571Y7167620D01*
X50768095Y7167620D01*
X50672857Y7215239D01*
X50625238Y7310477D01*
X50625238Y7691429D01*
X50672857Y7786667D01*
X50768095Y7834286D01*
X50958571Y7834286D01*
X51053809Y7786667D01*
X51101428Y7691429D01*
X51101428Y7596191D01*
X50625238Y7500953D01*
X51958571Y7834286D02*
X51958571Y7024762D01*
X51910952Y6929524D01*
X51863333Y6881905D01*
X51768095Y6834286D01*
X51625238Y6834286D01*
X51530000Y6881905D01*
X51958571Y7215239D02*
X51863333Y7167620D01*
X51672857Y7167620D01*
X51577619Y7215239D01*
X51530000Y7262858D01*
X51482380Y7358096D01*
X51482380Y7643810D01*
X51530000Y7739048D01*
X51577619Y7786667D01*
X51672857Y7834286D01*
X51863333Y7834286D01*
X51958571Y7786667D01*
X48855714Y24995239D02*
X48998571Y24947620D01*
X49236666Y24947620D01*
X49331904Y24995239D01*
X49379523Y25042858D01*
X49427142Y25138096D01*
X49427142Y25233334D01*
X49379523Y25328572D01*
X49331904Y25376191D01*
X49236666Y25423810D01*
X49046190Y25471429D01*
X48950952Y25519048D01*
X48903333Y25566667D01*
X48855714Y25661905D01*
X48855714Y25757143D01*
X48903333Y25852381D01*
X48950952Y25900000D01*
X49046190Y25947620D01*
X49284285Y25947620D01*
X49427142Y25900000D01*
X51855714Y25947620D02*
X51379523Y25947620D01*
X51331904Y25471429D01*
X51379523Y25519048D01*
X51474761Y25566667D01*
X51712857Y25566667D01*
X51808095Y25519048D01*
X51855714Y25471429D01*
X51903333Y25376191D01*
X51903333Y25138096D01*
X51855714Y25042858D01*
X51808095Y24995239D01*
X51712857Y24947620D01*
X51474761Y24947620D01*
X51379523Y24995239D01*
X51331904Y25042858D01*
X52189047Y25947620D02*
X52522380Y24947620D01*
X52855714Y25947620D01*
X55236666Y25900000D02*
X55141428Y25947620D01*
X54998571Y25947620D01*
X54855714Y25900000D01*
X54760476Y25804762D01*
X54712857Y25709524D01*
X54665238Y25519048D01*
X54665238Y25376191D01*
X54712857Y25185715D01*
X54760476Y25090477D01*
X54855714Y24995239D01*
X54998571Y24947620D01*
X55093809Y24947620D01*
X55236666Y24995239D01*
X55284285Y25042858D01*
X55284285Y25376191D01*
X55093809Y25376191D01*
X31980476Y10977620D02*
X31980476Y11977620D01*
X32361428Y11977620D01*
X32456666Y11930000D01*
X32504285Y11882381D01*
X32551904Y11787143D01*
X32551904Y11644286D01*
X32504285Y11549048D01*
X32456666Y11501429D01*
X32361428Y11453810D01*
X31980476Y11453810D01*
X33170952Y11977620D02*
X33361428Y11977620D01*
X33456666Y11930000D01*
X33551904Y11834762D01*
X33599523Y11644286D01*
X33599523Y11310953D01*
X33551904Y11120477D01*
X33456666Y11025239D01*
X33361428Y10977620D01*
X33170952Y10977620D01*
X33075714Y11025239D01*
X32980476Y11120477D01*
X32932857Y11310953D01*
X32932857Y11644286D01*
X32980476Y11834762D01*
X33075714Y11930000D01*
X33170952Y11977620D01*
X33932857Y11977620D02*
X34170952Y10977620D01*
X34361428Y11691905D01*
X34551904Y10977620D01*
X34790000Y11977620D01*
X35170952Y11501429D02*
X35504285Y11501429D01*
X35647142Y10977620D02*
X35170952Y10977620D01*
X35170952Y11977620D01*
X35647142Y11977620D01*
X36647142Y10977620D02*
X36313809Y11453810D01*
X36075714Y10977620D02*
X36075714Y11977620D01*
X36456666Y11977620D01*
X36551904Y11930000D01*
X36599523Y11882381D01*
X36647142Y11787143D01*
X36647142Y11644286D01*
X36599523Y11549048D01*
X36551904Y11501429D01*
X36456666Y11453810D01*
X36075714Y11453810D01*
X23415714Y43394286D02*
X23653809Y42727620D01*
X23891904Y43394286D01*
X24796666Y42727620D02*
X24225238Y42727620D01*
X24510952Y42727620D02*
X24510952Y43727620D01*
X24415714Y43584762D01*
X24320476Y43489524D01*
X24225238Y43441905D01*
X55816666Y16592620D02*
X56054761Y15592620D01*
X56245238Y16306905D01*
X56435714Y15592620D01*
X56673809Y16592620D01*
X57054761Y15592620D02*
X57054761Y16259286D01*
X57054761Y16592620D02*
X57007142Y16545000D01*
X57054761Y16497381D01*
X57102380Y16545000D01*
X57054761Y16592620D01*
X57054761Y16497381D01*
X57864285Y16116429D02*
X57530952Y16116429D01*
X57530952Y15592620D02*
X57530952Y16592620D01*
X58007142Y16592620D01*
X58388095Y15592620D02*
X58388095Y16259286D01*
X58388095Y16592620D02*
X58340476Y16545000D01*
X58388095Y16497381D01*
X58435714Y16545000D01*
X58388095Y16592620D01*
X58388095Y16497381D01*
X55888095Y13982620D02*
X55888095Y14982620D01*
X56269047Y14982620D01*
X56364285Y14935000D01*
X56411904Y14887381D01*
X56459523Y14792143D01*
X56459523Y14649286D01*
X56411904Y14554048D01*
X56364285Y14506429D01*
X56269047Y14458810D01*
X55888095Y14458810D01*
X57459523Y13982620D02*
X57126190Y14458810D01*
X56888095Y13982620D02*
X56888095Y14982620D01*
X57269047Y14982620D01*
X57364285Y14935000D01*
X57411904Y14887381D01*
X57459523Y14792143D01*
X57459523Y14649286D01*
X57411904Y14554048D01*
X57364285Y14506429D01*
X57269047Y14458810D01*
X56888095Y14458810D01*
X58411904Y14935000D02*
X58316666Y14982620D01*
X58173809Y14982620D01*
X58030952Y14935000D01*
X57935714Y14839762D01*
X57888095Y14744524D01*
X57840476Y14554048D01*
X57840476Y14411191D01*
X57888095Y14220715D01*
X57935714Y14125477D01*
X58030952Y14030239D01*
X58173809Y13982620D01*
X58269047Y13982620D01*
X58411904Y14030239D01*
X58459523Y14077858D01*
X58459523Y14411191D01*
X58269047Y14411191D01*
X46490000Y34560000D02*
X46442380Y34464762D01*
X46442380Y34321905D01*
X46490000Y34179048D01*
X46585238Y34083810D01*
X46680476Y34036191D01*
X46870952Y33988572D01*
X47013809Y33988572D01*
X47204285Y34036191D01*
X47299523Y34083810D01*
X47394761Y34179048D01*
X47442380Y34321905D01*
X47442380Y34417143D01*
X47394761Y34560000D01*
X47347142Y34607620D01*
X47013809Y34607620D01*
X47013809Y34417143D01*
X47442380Y35036191D02*
X46442380Y35036191D01*
X46442380Y35417143D01*
X46490000Y35512381D01*
X46537619Y35560000D01*
X46632857Y35607620D01*
X46775714Y35607620D01*
X46870952Y35560000D01*
X46918571Y35512381D01*
X46966190Y35417143D01*
X46966190Y35036191D01*
X47442380Y36036191D02*
X46442380Y36036191D01*
X46442380Y36702858D02*
X46442380Y36893334D01*
X46490000Y36988572D01*
X46585238Y37083810D01*
X46775714Y37131429D01*
X47109047Y37131429D01*
X47299523Y37083810D01*
X47394761Y36988572D01*
X47442380Y36893334D01*
X47442380Y36702858D01*
X47394761Y36607620D01*
X47299523Y36512381D01*
X47109047Y36464762D01*
X46775714Y36464762D01*
X46585238Y36512381D01*
X46490000Y36607620D01*
X46442380Y36702858D01*
X17145238Y44532620D02*
X17383333Y43532620D01*
X17573809Y44246905D01*
X17764285Y43532620D01*
X18002380Y44532620D01*
X18811904Y43532620D02*
X18811904Y44056429D01*
X18764285Y44151667D01*
X18669047Y44199286D01*
X18478571Y44199286D01*
X18383333Y44151667D01*
X18811904Y43580239D02*
X18716666Y43532620D01*
X18478571Y43532620D01*
X18383333Y43580239D01*
X18335714Y43675477D01*
X18335714Y43770715D01*
X18383333Y43865953D01*
X18478571Y43913572D01*
X18716666Y43913572D01*
X18811904Y43961191D01*
X19145238Y44199286D02*
X19526190Y44199286D01*
X19288095Y44532620D02*
X19288095Y43675477D01*
X19335714Y43580239D01*
X19430952Y43532620D01*
X19526190Y43532620D01*
X20240476Y43580239D02*
X20145238Y43532620D01*
X19954761Y43532620D01*
X19859523Y43580239D01*
X19811904Y43675477D01*
X19811904Y44056429D01*
X19859523Y44151667D01*
X19954761Y44199286D01*
X20145238Y44199286D01*
X20240476Y44151667D01*
X20288095Y44056429D01*
X20288095Y43961191D01*
X19811904Y43865953D01*
X20716666Y43532620D02*
X20716666Y44199286D01*
X20716666Y44008810D02*
X20764285Y44104048D01*
X20811904Y44151667D01*
X20907142Y44199286D01*
X21002380Y44199286D01*
X17764285Y42875000D02*
X17669047Y42922620D01*
X17526190Y42922620D01*
X17383333Y42875000D01*
X17288095Y42779762D01*
X17240476Y42684524D01*
X17192857Y42494048D01*
X17192857Y42351191D01*
X17240476Y42160715D01*
X17288095Y42065477D01*
X17383333Y41970239D01*
X17526190Y41922620D01*
X17621428Y41922620D01*
X17764285Y41970239D01*
X17811904Y42017858D01*
X17811904Y42351191D01*
X17621428Y42351191D01*
X18669047Y41922620D02*
X18669047Y42446429D01*
X18621428Y42541667D01*
X18526190Y42589286D01*
X18335714Y42589286D01*
X18240476Y42541667D01*
X18669047Y41970239D02*
X18573809Y41922620D01*
X18335714Y41922620D01*
X18240476Y41970239D01*
X18192857Y42065477D01*
X18192857Y42160715D01*
X18240476Y42255953D01*
X18335714Y42303572D01*
X18573809Y42303572D01*
X18669047Y42351191D01*
X19145238Y41922620D02*
X19145238Y42589286D01*
X19145238Y42494048D02*
X19192857Y42541667D01*
X19288095Y42589286D01*
X19430952Y42589286D01*
X19526190Y42541667D01*
X19573809Y42446429D01*
X19573809Y41922620D01*
X19573809Y42446429D02*
X19621428Y42541667D01*
X19716666Y42589286D01*
X19859523Y42589286D01*
X19954761Y42541667D01*
X20002380Y42446429D01*
X20002380Y41922620D01*
X20859523Y41970239D02*
X20764285Y41922620D01*
X20573809Y41922620D01*
X20478571Y41970239D01*
X20430952Y42065477D01*
X20430952Y42446429D01*
X20478571Y42541667D01*
X20573809Y42589286D01*
X20764285Y42589286D01*
X20859523Y42541667D01*
X20907142Y42446429D01*
X20907142Y42351191D01*
X20430952Y42255953D01*
X33956666Y4357620D02*
X33956666Y3643334D01*
X33909047Y3500477D01*
X33813809Y3405239D01*
X33670952Y3357620D01*
X33575714Y3357620D01*
X34337619Y4357620D02*
X34956666Y4357620D01*
X34623333Y3976667D01*
X34766190Y3976667D01*
X34861428Y3929048D01*
X34909047Y3881429D01*
X34956666Y3786191D01*
X34956666Y3548096D01*
X34909047Y3452858D01*
X34861428Y3405239D01*
X34766190Y3357620D01*
X34480476Y3357620D01*
X34385238Y3405239D01*
X34337619Y3452858D01*
X67762380Y6183810D02*
X67762380Y5707620D01*
X66762380Y5707620D01*
X67714761Y6898096D02*
X67762380Y6802858D01*
X67762380Y6612381D01*
X67714761Y6517143D01*
X67619523Y6469524D01*
X67238571Y6469524D01*
X67143333Y6517143D01*
X67095714Y6612381D01*
X67095714Y6802858D01*
X67143333Y6898096D01*
X67238571Y6945715D01*
X67333809Y6945715D01*
X67429047Y6469524D01*
X67095714Y7279048D02*
X67762380Y7517143D01*
X67095714Y7755239D01*
X67714761Y8517143D02*
X67762380Y8421905D01*
X67762380Y8231429D01*
X67714761Y8136191D01*
X67619523Y8088572D01*
X67238571Y8088572D01*
X67143333Y8136191D01*
X67095714Y8231429D01*
X67095714Y8421905D01*
X67143333Y8517143D01*
X67238571Y8564762D01*
X67333809Y8564762D01*
X67429047Y8088572D01*
X67762380Y9136191D02*
X67714761Y9040953D01*
X67619523Y8993334D01*
X66762380Y8993334D01*
X67714761Y10231429D02*
X67762380Y10326667D01*
X67762380Y10517143D01*
X67714761Y10612381D01*
X67619523Y10660000D01*
X67571904Y10660000D01*
X67476666Y10612381D01*
X67429047Y10517143D01*
X67429047Y10374286D01*
X67381428Y10279048D01*
X67286190Y10231429D01*
X67238571Y10231429D01*
X67143333Y10279048D01*
X67095714Y10374286D01*
X67095714Y10517143D01*
X67143333Y10612381D01*
X67762380Y11088572D02*
X66762380Y11088572D01*
X67762380Y11517143D02*
X67238571Y11517143D01*
X67143333Y11469524D01*
X67095714Y11374286D01*
X67095714Y11231429D01*
X67143333Y11136191D01*
X67190952Y11088572D01*
X67762380Y11993334D02*
X67095714Y11993334D01*
X66762380Y11993334D02*
X66810000Y11945715D01*
X66857619Y11993334D01*
X66810000Y12040953D01*
X66762380Y11993334D01*
X66857619Y11993334D01*
X67095714Y12326667D02*
X67095714Y12707620D01*
X67762380Y12469524D02*
X66905238Y12469524D01*
X66810000Y12517143D01*
X66762380Y12612381D01*
X66762380Y12707620D01*
X67095714Y12898096D02*
X67095714Y13279048D01*
X66762380Y13040953D02*
X67619523Y13040953D01*
X67714761Y13088572D01*
X67762380Y13183810D01*
X67762380Y13279048D01*
X67714761Y13993334D02*
X67762380Y13898096D01*
X67762380Y13707620D01*
X67714761Y13612381D01*
X67619523Y13564762D01*
X67238571Y13564762D01*
X67143333Y13612381D01*
X67095714Y13707620D01*
X67095714Y13898096D01*
X67143333Y13993334D01*
X67238571Y14040953D01*
X67333809Y14040953D01*
X67429047Y13564762D01*
X67762380Y14469524D02*
X67095714Y14469524D01*
X67286190Y14469524D02*
X67190952Y14517143D01*
X67143333Y14564762D01*
X67095714Y14660000D01*
X67095714Y14755239D01*
X62944761Y35631429D02*
X63278095Y35631429D01*
X63420952Y35107620D02*
X62944761Y35107620D01*
X62944761Y36107620D01*
X63420952Y36107620D01*
X63801904Y35155239D02*
X63944761Y35107620D01*
X64182857Y35107620D01*
X64278095Y35155239D01*
X64325714Y35202858D01*
X64373333Y35298096D01*
X64373333Y35393334D01*
X64325714Y35488572D01*
X64278095Y35536191D01*
X64182857Y35583810D01*
X63992380Y35631429D01*
X63897142Y35679048D01*
X63849523Y35726667D01*
X63801904Y35821905D01*
X63801904Y35917143D01*
X63849523Y36012381D01*
X63897142Y36060000D01*
X63992380Y36107620D01*
X64230476Y36107620D01*
X64373333Y36060000D01*
X64801904Y35107620D02*
X64801904Y36107620D01*
X65182857Y36107620D01*
X65278095Y36060000D01*
X65325714Y36012381D01*
X65373333Y35917143D01*
X65373333Y35774286D01*
X65325714Y35679048D01*
X65278095Y35631429D01*
X65182857Y35583810D01*
X64801904Y35583810D01*
X65944761Y35679048D02*
X65849523Y35726667D01*
X65801904Y35774286D01*
X65754285Y35869524D01*
X65754285Y35917143D01*
X65801904Y36012381D01*
X65849523Y36060000D01*
X65944761Y36107620D01*
X66135238Y36107620D01*
X66230476Y36060000D01*
X66278095Y36012381D01*
X66325714Y35917143D01*
X66325714Y35869524D01*
X66278095Y35774286D01*
X66230476Y35726667D01*
X66135238Y35679048D01*
X65944761Y35679048D01*
X65849523Y35631429D01*
X65801904Y35583810D01*
X65754285Y35488572D01*
X65754285Y35298096D01*
X65801904Y35202858D01*
X65849523Y35155239D01*
X65944761Y35107620D01*
X66135238Y35107620D01*
X66230476Y35155239D01*
X66278095Y35202858D01*
X66325714Y35298096D01*
X66325714Y35488572D01*
X66278095Y35583810D01*
X66230476Y35631429D01*
X66135238Y35679048D01*
X66706666Y36012381D02*
X66754285Y36060000D01*
X66849523Y36107620D01*
X67087619Y36107620D01*
X67182857Y36060000D01*
X67230476Y36012381D01*
X67278095Y35917143D01*
X67278095Y35821905D01*
X67230476Y35679048D01*
X66659047Y35107620D01*
X67278095Y35107620D01*
X68135238Y36107620D02*
X67944761Y36107620D01*
X67849523Y36060000D01*
X67801904Y36012381D01*
X67706666Y35869524D01*
X67659047Y35679048D01*
X67659047Y35298096D01*
X67706666Y35202858D01*
X67754285Y35155239D01*
X67849523Y35107620D01*
X68040000Y35107620D01*
X68135238Y35155239D01*
X68182857Y35202858D01*
X68230476Y35298096D01*
X68230476Y35536191D01*
X68182857Y35631429D01*
X68135238Y35679048D01*
X68040000Y35726667D01*
X67849523Y35726667D01*
X67754285Y35679048D01*
X67706666Y35631429D01*
X67659047Y35536191D01*
X69087619Y36107620D02*
X68897142Y36107620D01*
X68801904Y36060000D01*
X68754285Y36012381D01*
X68659047Y35869524D01*
X68611428Y35679048D01*
X68611428Y35298096D01*
X68659047Y35202858D01*
X68706666Y35155239D01*
X68801904Y35107620D01*
X68992380Y35107620D01*
X69087619Y35155239D01*
X69135238Y35202858D01*
X69182857Y35298096D01*
X69182857Y35536191D01*
X69135238Y35631429D01*
X69087619Y35679048D01*
X68992380Y35726667D01*
X68801904Y35726667D01*
X68706666Y35679048D01*
X68659047Y35631429D01*
X68611428Y35536191D01*
%TO.C,R2*%
X49362380Y21423334D02*
X48886190Y21090000D01*
X49362380Y20851905D02*
X48362380Y20851905D01*
X48362380Y21232858D01*
X48410000Y21328096D01*
X48457619Y21375715D01*
X48552857Y21423334D01*
X48695714Y21423334D01*
X48790952Y21375715D01*
X48838571Y21328096D01*
X48886190Y21232858D01*
X48886190Y20851905D01*
X48457619Y21804286D02*
X48410000Y21851905D01*
X48362380Y21947143D01*
X48362380Y22185239D01*
X48410000Y22280477D01*
X48457619Y22328096D01*
X48552857Y22375715D01*
X48648095Y22375715D01*
X48790952Y22328096D01*
X49362380Y21756667D01*
X49362380Y22375715D01*
%TO.C,D1*%
X51331904Y17177620D02*
X51331904Y18177620D01*
X51570000Y18177620D01*
X51712857Y18130000D01*
X51808095Y18034762D01*
X51855714Y17939524D01*
X51903333Y17749048D01*
X51903333Y17606191D01*
X51855714Y17415715D01*
X51808095Y17320477D01*
X51712857Y17225239D01*
X51570000Y17177620D01*
X51331904Y17177620D01*
X52855714Y17177620D02*
X52284285Y17177620D01*
X52570000Y17177620D02*
X52570000Y18177620D01*
X52474761Y18034762D01*
X52379523Y17939524D01*
X52284285Y17891905D01*
%TO.C,J4*%
X47712380Y14906667D02*
X48426666Y14906667D01*
X48569523Y14859048D01*
X48664761Y14763810D01*
X48712380Y14620953D01*
X48712380Y14525715D01*
X48045714Y15811429D02*
X48712380Y15811429D01*
X47664761Y15573334D02*
X48379047Y15335239D01*
X48379047Y15954286D01*
%TO.C,J2*%
X8556666Y15787620D02*
X8556666Y15073334D01*
X8509047Y14930477D01*
X8413809Y14835239D01*
X8270952Y14787620D01*
X8175714Y14787620D01*
X8985238Y15692381D02*
X9032857Y15740000D01*
X9128095Y15787620D01*
X9366190Y15787620D01*
X9461428Y15740000D01*
X9509047Y15692381D01*
X9556666Y15597143D01*
X9556666Y15501905D01*
X9509047Y15359048D01*
X8937619Y14787620D01*
X9556666Y14787620D01*
%TO.C,R1*%
X60142380Y19503334D02*
X59666190Y19170000D01*
X60142380Y18931905D02*
X59142380Y18931905D01*
X59142380Y19312858D01*
X59190000Y19408096D01*
X59237619Y19455715D01*
X59332857Y19503334D01*
X59475714Y19503334D01*
X59570952Y19455715D01*
X59618571Y19408096D01*
X59666190Y19312858D01*
X59666190Y18931905D01*
X60142380Y20455715D02*
X60142380Y19884286D01*
X60142380Y20170000D02*
X59142380Y20170000D01*
X59285238Y20074762D01*
X59380476Y19979524D01*
X59428095Y19884286D01*
%TO.C,U5*%
X23357380Y34788096D02*
X24166904Y34788096D01*
X24262142Y34835715D01*
X24309761Y34883334D01*
X24357380Y34978572D01*
X24357380Y35169048D01*
X24309761Y35264286D01*
X24262142Y35311905D01*
X24166904Y35359524D01*
X23357380Y35359524D01*
X23357380Y36311905D02*
X23357380Y35835715D01*
X23833571Y35788096D01*
X23785952Y35835715D01*
X23738333Y35930953D01*
X23738333Y36169048D01*
X23785952Y36264286D01*
X23833571Y36311905D01*
X23928809Y36359524D01*
X24166904Y36359524D01*
X24262142Y36311905D01*
X24309761Y36264286D01*
X24357380Y36169048D01*
X24357380Y35930953D01*
X24309761Y35835715D01*
X24262142Y35788096D01*
%TO.C,U4*%
X65492380Y28448096D02*
X66301904Y28448096D01*
X66397142Y28495715D01*
X66444761Y28543334D01*
X66492380Y28638572D01*
X66492380Y28829048D01*
X66444761Y28924286D01*
X66397142Y28971905D01*
X66301904Y29019524D01*
X65492380Y29019524D01*
X65825714Y29924286D02*
X66492380Y29924286D01*
X65444761Y29686191D02*
X66159047Y29448096D01*
X66159047Y30067143D01*
%TO.C,U3*%
X45172380Y41148096D02*
X45981904Y41148096D01*
X46077142Y41195715D01*
X46124761Y41243334D01*
X46172380Y41338572D01*
X46172380Y41529048D01*
X46124761Y41624286D01*
X46077142Y41671905D01*
X45981904Y41719524D01*
X45172380Y41719524D01*
X45172380Y42100477D02*
X45172380Y42719524D01*
X45553333Y42386191D01*
X45553333Y42529048D01*
X45600952Y42624286D01*
X45648571Y42671905D01*
X45743809Y42719524D01*
X45981904Y42719524D01*
X46077142Y42671905D01*
X46124761Y42624286D01*
X46172380Y42529048D01*
X46172380Y42243334D01*
X46124761Y42148096D01*
X46077142Y42100477D01*
X34733666Y24103334D02*
X34033666Y24103334D01*
X34533666Y24336667D01*
X34033666Y24570000D01*
X34733666Y24570000D01*
X34367000Y24903334D02*
X34367000Y25136667D01*
X34733666Y25236667D02*
X34733666Y24903334D01*
X34033666Y24903334D01*
X34033666Y25236667D01*
X34067000Y25903334D02*
X34033666Y25836667D01*
X34033666Y25736667D01*
X34067000Y25636667D01*
X34133666Y25570000D01*
X34200333Y25536667D01*
X34333666Y25503334D01*
X34433666Y25503334D01*
X34567000Y25536667D01*
X34633666Y25570000D01*
X34700333Y25636667D01*
X34733666Y25736667D01*
X34733666Y25803334D01*
X34700333Y25903334D01*
X34667000Y25936667D01*
X34433666Y25936667D01*
X34433666Y25803334D01*
X34533666Y26203334D02*
X34533666Y26536667D01*
X34733666Y26136667D02*
X34033666Y26370000D01*
X34733666Y26603334D01*
X34033666Y26770000D02*
X34033666Y27203334D01*
X34300333Y26970000D01*
X34300333Y27070000D01*
X34333666Y27136667D01*
X34367000Y27170000D01*
X34433666Y27203334D01*
X34600333Y27203334D01*
X34667000Y27170000D01*
X34700333Y27136667D01*
X34733666Y27070000D01*
X34733666Y26870000D01*
X34700333Y26803334D01*
X34667000Y26770000D01*
X34100333Y27470000D02*
X34067000Y27503334D01*
X34033666Y27570000D01*
X34033666Y27736667D01*
X34067000Y27803334D01*
X34100333Y27836667D01*
X34167000Y27870000D01*
X34233666Y27870000D01*
X34333666Y27836667D01*
X34733666Y27436667D01*
X34733666Y27870000D01*
X34033666Y28170000D02*
X34600333Y28170000D01*
X34667000Y28203334D01*
X34700333Y28236667D01*
X34733666Y28303334D01*
X34733666Y28436667D01*
X34700333Y28503334D01*
X34667000Y28536667D01*
X34600333Y28570000D01*
X34033666Y28570000D01*
X34267000Y29203334D02*
X34733666Y29203334D01*
X34000333Y29036667D02*
X34500333Y28870000D01*
X34500333Y29303334D01*
%TO.C,U1*%
X59062380Y6858096D02*
X59871904Y6858096D01*
X59967142Y6905715D01*
X60014761Y6953334D01*
X60062380Y7048572D01*
X60062380Y7239048D01*
X60014761Y7334286D01*
X59967142Y7381905D01*
X59871904Y7429524D01*
X59062380Y7429524D01*
X60062380Y8429524D02*
X60062380Y7858096D01*
X60062380Y8143810D02*
X59062380Y8143810D01*
X59205238Y8048572D01*
X59300476Y7953334D01*
X59348095Y7858096D01*
%TO.C,U6*%
X23357380Y20828096D02*
X24166904Y20828096D01*
X24262142Y20875715D01*
X24309761Y20923334D01*
X24357380Y21018572D01*
X24357380Y21209048D01*
X24309761Y21304286D01*
X24262142Y21351905D01*
X24166904Y21399524D01*
X23357380Y21399524D01*
X23357380Y22304286D02*
X23357380Y22113810D01*
X23405000Y22018572D01*
X23452619Y21970953D01*
X23595476Y21875715D01*
X23785952Y21828096D01*
X24166904Y21828096D01*
X24262142Y21875715D01*
X24309761Y21923334D01*
X24357380Y22018572D01*
X24357380Y22209048D01*
X24309761Y22304286D01*
X24262142Y22351905D01*
X24166904Y22399524D01*
X23928809Y22399524D01*
X23833571Y22351905D01*
X23785952Y22304286D01*
X23738333Y22209048D01*
X23738333Y22018572D01*
X23785952Y21923334D01*
X23833571Y21875715D01*
X23928809Y21828096D01*
%TO.C,U2*%
X19558095Y14517620D02*
X19558095Y13708096D01*
X19605714Y13612858D01*
X19653333Y13565239D01*
X19748571Y13517620D01*
X19939047Y13517620D01*
X20034285Y13565239D01*
X20081904Y13612858D01*
X20129523Y13708096D01*
X20129523Y14517620D01*
X20558095Y14422381D02*
X20605714Y14470000D01*
X20700952Y14517620D01*
X20939047Y14517620D01*
X21034285Y14470000D01*
X21081904Y14422381D01*
X21129523Y14327143D01*
X21129523Y14231905D01*
X21081904Y14089048D01*
X20510476Y13517620D01*
X21129523Y13517620D01*
D11*
%TO.C,R2*%
X46070000Y19670000D02*
X47910000Y19670000D01*
X47910000Y19670000D02*
X47910000Y23510000D01*
X46070000Y23510000D02*
X46070000Y19670000D01*
X46990000Y18720000D02*
X46990000Y19670000D01*
X47910000Y23510000D02*
X46070000Y23510000D01*
X46990000Y24460000D02*
X46990000Y23510000D01*
%TO.C,D1*%
X54630000Y20045000D02*
X54630000Y23135000D01*
X54630000Y23134830D02*
G75*
G03*
X49080000Y21589538I-2560000J-1544830D01*
G01*
X49080000Y21590462D02*
G75*
G03*
X54630000Y20045170I2990000J-462D01*
G01*
X54570000Y21590000D02*
G75*
G03*
X54570000Y21590000I-2500000J0D01*
G01*
%TO.C,J4*%
X52070000Y16570000D02*
X49470000Y16570000D01*
X52070000Y16570000D02*
X52070000Y13910000D01*
X54670000Y13910000D02*
X53340000Y13910000D01*
X52070000Y13910000D02*
X49470000Y13910000D01*
X49470000Y16570000D02*
X49470000Y13910000D01*
X54670000Y15240000D02*
X54670000Y13910000D01*
%TO.C,J1B1*%
X53375000Y29230000D02*
X53375000Y44530000D01*
X53375000Y29230000D02*
X50715000Y29230000D01*
X50715000Y26630000D02*
X50715000Y27960000D01*
X50715000Y29230000D02*
X50715000Y44530000D01*
X52045000Y26630000D02*
X50715000Y26630000D01*
X53375000Y44530000D02*
X50715000Y44530000D01*
%TO.C,J3*%
X32960000Y7620000D02*
X35620000Y7620000D01*
X34290000Y10220000D02*
X35620000Y10220000D01*
X32960000Y7620000D02*
X32960000Y5020000D01*
X32960000Y5020000D02*
X35620000Y5020000D01*
X35620000Y7620000D02*
X35620000Y5020000D01*
X35620000Y10220000D02*
X35620000Y8890000D01*
%TO.C,J2*%
X7700000Y14030000D02*
X7700000Y12700000D01*
X6370000Y14030000D02*
X7700000Y14030000D01*
X5100000Y14030000D02*
X5100000Y11430000D01*
X7700000Y11430000D02*
X7700000Y3750000D01*
X2500000Y3750000D02*
X7700000Y3750000D01*
X2500000Y14030000D02*
X5100000Y14030000D01*
X5100000Y11430000D02*
X7700000Y11430000D01*
X2500000Y14030000D02*
X2500000Y3750000D01*
%TO.C,J5A2*%
X71085000Y15215000D02*
X71085000Y2455000D01*
X71085000Y15215000D02*
X73745000Y15215000D01*
X73745000Y17815000D02*
X73745000Y16485000D01*
X73745000Y15215000D02*
X73745000Y2455000D01*
X71085000Y2455000D02*
X73745000Y2455000D01*
X72415000Y17815000D02*
X73745000Y17815000D01*
%TO.C,J1C1*%
X55940000Y44530000D02*
X53280000Y44530000D01*
X55940000Y29230000D02*
X53280000Y29230000D01*
X53280000Y29230000D02*
X53280000Y44530000D01*
X54610000Y26630000D02*
X53280000Y26630000D01*
X55940000Y29230000D02*
X55940000Y44530000D01*
X53280000Y26630000D02*
X53280000Y27960000D01*
%TO.C,J5A1*%
X63560000Y15240000D02*
X63560000Y2480000D01*
X60900000Y2480000D02*
X63560000Y2480000D01*
X62230000Y17840000D02*
X63560000Y17840000D01*
X60900000Y15240000D02*
X60900000Y2480000D01*
X63560000Y17840000D02*
X63560000Y16510000D01*
X60900000Y15240000D02*
X63560000Y15240000D01*
%TO.C,G\u002A\u002A\u002A*%
G36*
X13309954Y42374587D02*
G01*
X13123677Y42374587D01*
X13121049Y42131489D01*
X13118422Y41888392D01*
X13054162Y41885534D01*
X13020219Y41885058D01*
X12994453Y41886615D01*
X12982952Y41889626D01*
X12981021Y41900994D01*
X12979297Y41929235D01*
X12977857Y41971581D01*
X12976780Y42025260D01*
X12976143Y42087502D01*
X12976002Y42135582D01*
X12976002Y42374587D01*
X12789381Y42374587D01*
X12789381Y42492452D01*
X13309954Y42492452D01*
X13309954Y42374587D01*
G37*
G36*
X4806344Y44769444D02*
G01*
X4795474Y44747148D01*
X4778803Y44716431D01*
X4758719Y44681359D01*
X4737609Y44645998D01*
X4717861Y44614416D01*
X4701864Y44590678D01*
X4692005Y44578850D01*
X4690996Y44578277D01*
X4676564Y44580936D01*
X4655119Y44591469D01*
X4654211Y44592027D01*
X4635614Y44605252D01*
X4627238Y44614579D01*
X4627200Y44614928D01*
X4633933Y44623883D01*
X4651881Y44642213D01*
X4677672Y44666868D01*
X4707933Y44694800D01*
X4739289Y44722960D01*
X4768368Y44748299D01*
X4791796Y44767769D01*
X4806201Y44778321D01*
X4809024Y44779254D01*
X4806344Y44769444D01*
G37*
G36*
X12111509Y42288533D02*
G01*
X12119983Y42322238D01*
X12134757Y42351730D01*
X12157508Y42382141D01*
X12177887Y42405403D01*
X12232694Y42452079D01*
X12297633Y42484517D01*
X12369153Y42502577D01*
X12443705Y42506118D01*
X12517739Y42494998D01*
X12587705Y42469076D01*
X12650053Y42428211D01*
X12654546Y42424343D01*
X12696829Y42374807D01*
X12727266Y42313017D01*
X12744884Y42243080D01*
X12748711Y42169102D01*
X12737774Y42095190D01*
X12734960Y42084912D01*
X12710214Y42030116D01*
X12670825Y41977762D01*
X12621639Y41932751D01*
X12567503Y41899991D01*
X12542965Y41890597D01*
X12481691Y41877893D01*
X12414950Y41874271D01*
X12350324Y41879612D01*
X12295396Y41893792D01*
X12293364Y41894599D01*
X12233952Y41924535D01*
X12186728Y41963149D01*
X12145307Y42015743D01*
X12142714Y42019693D01*
X12106744Y42075012D01*
X12106744Y42187966D01*
X12244254Y42187966D01*
X12248462Y42129286D01*
X12262554Y42084745D01*
X12288731Y42050403D01*
X12329193Y42022320D01*
X12339865Y42016772D01*
X12394238Y41996609D01*
X12444597Y41993787D01*
X12495782Y42008112D01*
X12500769Y42010315D01*
X12546675Y42041004D01*
X12580086Y42083254D01*
X12600791Y42133300D01*
X12608577Y42187372D01*
X12603236Y42241704D01*
X12584556Y42292528D01*
X12552325Y42336078D01*
X12520397Y42360943D01*
X12483991Y42374618D01*
X12437957Y42380522D01*
X12389668Y42378794D01*
X12346499Y42369570D01*
X12321068Y42357222D01*
X12282405Y42322067D01*
X12258032Y42280156D01*
X12246145Y42227516D01*
X12244254Y42187966D01*
X12106744Y42187966D01*
X12107655Y42245486D01*
X12111509Y42288533D01*
G37*
G36*
X11493256Y42092876D02*
G01*
X11492894Y42165367D01*
X11492862Y42195087D01*
X11492862Y42237077D01*
X11630371Y42237077D01*
X11706493Y42237631D01*
X11748537Y42239442D01*
X11787508Y42243686D01*
X11815405Y42249470D01*
X11816735Y42249909D01*
X11849827Y42269683D01*
X11867350Y42299319D01*
X11868251Y42331724D01*
X11855981Y42354796D01*
X11828574Y42370991D01*
X11784853Y42380711D01*
X11723640Y42384359D01*
X11714175Y42384409D01*
X11630371Y42384409D01*
X11630371Y42237077D01*
X11492862Y42237077D01*
X11492862Y42493597D01*
X11686848Y42490569D01*
X11754128Y42489376D01*
X11804998Y42487952D01*
X11842694Y42485947D01*
X11870450Y42483009D01*
X11891503Y42478787D01*
X11909085Y42472930D01*
X11926433Y42465086D01*
X11927819Y42464406D01*
X11971133Y42433408D01*
X11999409Y42392581D01*
X12012111Y42345348D01*
X12008701Y42295130D01*
X11988644Y42245350D01*
X11966860Y42215344D01*
X11959040Y42203315D01*
X11962272Y42192175D01*
X11978742Y42176152D01*
X11983130Y42172430D01*
X12020227Y42131390D01*
X12039355Y42084586D01*
X12042864Y42048489D01*
X12034172Y41996934D01*
X12008469Y41954835D01*
X11966164Y41922570D01*
X11907667Y41900518D01*
X11875691Y41893949D01*
X11846138Y41890604D01*
X11804802Y41887863D01*
X11755448Y41885768D01*
X11701838Y41884356D01*
X11647737Y41883667D01*
X11596909Y41883740D01*
X11553118Y41884615D01*
X11520127Y41886331D01*
X11501701Y41888926D01*
X11499410Y41890029D01*
X11497776Y41901132D01*
X11496291Y41929424D01*
X11495007Y41972449D01*
X11494652Y41991524D01*
X11630371Y41991524D01*
X11726137Y41991539D01*
X11779006Y41992712D01*
X11816932Y41996616D01*
X11844502Y42003861D01*
X11855448Y42008728D01*
X11886497Y42032071D01*
X11898682Y42060537D01*
X11894446Y42087726D01*
X11877697Y42110170D01*
X11845925Y42125921D01*
X11797901Y42135349D01*
X11732396Y42138822D01*
X11723997Y42138856D01*
X11630371Y42138856D01*
X11630371Y41991524D01*
X11494652Y41991524D01*
X11493978Y42027752D01*
X11493256Y42092876D01*
G37*
G36*
X3997014Y44256675D02*
G01*
X4026075Y44234153D01*
X4051043Y44212771D01*
X4061671Y44202338D01*
X4081135Y44187352D01*
X4105772Y44182856D01*
X4140056Y44188644D01*
X4168567Y44197460D01*
X4197706Y44205833D01*
X4220053Y44209493D01*
X4226453Y44209033D01*
X4223502Y44202708D01*
X4207731Y44188690D01*
X4182996Y44169667D01*
X4153155Y44148325D01*
X4122063Y44127354D01*
X4093578Y44109442D01*
X4071556Y44097276D01*
X4060629Y44093457D01*
X4046489Y44098921D01*
X4025293Y44112315D01*
X4022009Y44114731D01*
X3996588Y44135214D01*
X3967625Y44160446D01*
X3959296Y44168091D01*
X3924919Y44200178D01*
X3875808Y44186564D01*
X3842706Y44177313D01*
X3814264Y44169239D01*
X3804598Y44166436D01*
X3786165Y44163258D01*
X3784663Y44169479D01*
X3799893Y44184882D01*
X3831654Y44209252D01*
X3866875Y44233738D01*
X3950893Y44290531D01*
X3997014Y44256675D01*
G37*
G36*
X3652341Y44403101D02*
G01*
X3668842Y44392331D01*
X3674685Y44386560D01*
X3679068Y44380758D01*
X3682224Y44372243D01*
X3684383Y44358332D01*
X3685777Y44336341D01*
X3686639Y44303589D01*
X3687199Y44257392D01*
X3687690Y44195066D01*
X3687865Y44172034D01*
X3688497Y44109371D01*
X3689565Y44062812D01*
X3691484Y44028816D01*
X3694672Y44003842D01*
X3699544Y43984349D01*
X3706518Y43966798D01*
X3713739Y43952071D01*
X3749102Y43899967D01*
X3796023Y43860777D01*
X3855758Y43833927D01*
X3929560Y43818842D01*
X4013318Y43814879D01*
X4099758Y43820896D01*
X4170721Y43837582D01*
X4227635Y43865601D01*
X4271929Y43905616D01*
X4299969Y43948108D01*
X4309548Y43966942D01*
X4316529Y43983591D01*
X4321282Y44001475D01*
X4324181Y44024015D01*
X4325596Y44054632D01*
X4325900Y44096747D01*
X4325463Y44153782D01*
X4325180Y44180129D01*
X4324754Y44252878D01*
X4325745Y44308310D01*
X4328867Y44348740D01*
X4334831Y44376482D01*
X4344350Y44393851D01*
X4358138Y44403161D01*
X4376908Y44406727D01*
X4395055Y44407018D01*
X4446050Y44400673D01*
X4492333Y44381956D01*
X4539980Y44348293D01*
X4546386Y44342862D01*
X4586320Y44302647D01*
X4615742Y44258148D01*
X4636381Y44205317D01*
X4649968Y44140107D01*
X4656105Y44086122D01*
X4660991Y44037147D01*
X4666659Y43991449D01*
X4672312Y43954967D01*
X4676053Y43937260D01*
X4696349Y43887916D01*
X4729742Y43835203D01*
X4771939Y43784889D01*
X4818645Y43742739D01*
X4823670Y43738997D01*
X4852732Y43718157D01*
X4878971Y43700411D01*
X4906643Y43683192D01*
X4940006Y43663931D01*
X4983316Y43640059D01*
X5024996Y43617526D01*
X5114403Y43568161D01*
X5189135Y43523852D01*
X5252669Y43482149D01*
X5308484Y43440603D01*
X5360058Y43396765D01*
X5410868Y43348184D01*
X5418777Y43340196D01*
X5508756Y43240976D01*
X5579741Y43145389D01*
X5631959Y43053011D01*
X5665636Y42963417D01*
X5680999Y42876182D01*
X5682091Y42846048D01*
X5680244Y42798920D01*
X5673831Y42763708D01*
X5661448Y42732938D01*
X5660430Y42730967D01*
X5642872Y42701850D01*
X5623832Y42682072D01*
X5600911Y42671732D01*
X5571711Y42670931D01*
X5533835Y42679770D01*
X5484885Y42698349D01*
X5422462Y42726769D01*
X5390383Y42742283D01*
X5283064Y42792304D01*
X5188048Y42830716D01*
X5102219Y42858087D01*
X5022464Y42874982D01*
X4945666Y42881967D01*
X4868713Y42879609D01*
X4788488Y42868474D01*
X4745215Y42859577D01*
X4621612Y42824002D01*
X4512882Y42775983D01*
X4418339Y42715068D01*
X4337297Y42640807D01*
X4269070Y42552748D01*
X4261918Y42541563D01*
X4217727Y42462167D01*
X4182103Y42377589D01*
X4154377Y42285097D01*
X4133881Y42181958D01*
X4119946Y42065440D01*
X4111903Y41932810D01*
X4111715Y41927680D01*
X4106843Y41820003D01*
X4100298Y41717540D01*
X4092324Y41622257D01*
X4083165Y41536117D01*
X4073066Y41461086D01*
X4062272Y41399127D01*
X4051026Y41352204D01*
X4039574Y41322282D01*
X4035614Y41316253D01*
X4017728Y41305438D01*
X4008407Y41303976D01*
X3987837Y41310475D01*
X3981019Y41316253D01*
X3968113Y41336028D01*
X3956934Y41362990D01*
X3947228Y41398872D01*
X3938740Y41445405D01*
X3931217Y41504323D01*
X3924402Y41577358D01*
X3918043Y41666243D01*
X3911885Y41772710D01*
X3910716Y41795082D01*
X3906333Y41878126D01*
X3902480Y41945226D01*
X3898843Y42000064D01*
X3895108Y42046321D01*
X3890963Y42087680D01*
X3886093Y42127822D01*
X3880186Y42170429D01*
X3876838Y42193194D01*
X3849986Y42318251D01*
X3808640Y42433192D01*
X3753652Y42536732D01*
X3685875Y42627586D01*
X3606163Y42704467D01*
X3515369Y42766091D01*
X3486652Y42781139D01*
X3366733Y42831588D01*
X3248981Y42863635D01*
X3130767Y42877928D01*
X3090039Y42878858D01*
X3028484Y42877246D01*
X2971966Y42871886D01*
X2917025Y42861757D01*
X2860200Y42845842D01*
X2798028Y42823122D01*
X2727049Y42792579D01*
X2643802Y42753192D01*
X2614957Y42739025D01*
X2549784Y42707717D01*
X2498981Y42685903D01*
X2459970Y42673148D01*
X2430171Y42669015D01*
X2407005Y42673069D01*
X2387893Y42684875D01*
X2374741Y42698467D01*
X2348891Y42737754D01*
X2334389Y42782897D01*
X2330090Y42838573D01*
X2331609Y42874669D01*
X2346693Y42958913D01*
X2379192Y43046805D01*
X2427669Y43136480D01*
X2490685Y43226071D01*
X2566803Y43313710D01*
X2654585Y43397532D01*
X2752592Y43475668D01*
X2839763Y43534303D01*
X2874201Y43555353D01*
X2902018Y43571776D01*
X2919266Y43581271D01*
X2922783Y43582707D01*
X2935836Y43587581D01*
X2961848Y43600774D01*
X2997150Y43620147D01*
X3038072Y43643561D01*
X3080946Y43668875D01*
X3122102Y43693950D01*
X3157871Y43716646D01*
X3184585Y43734822D01*
X3188260Y43737533D01*
X3242720Y43783461D01*
X3284558Y43831437D01*
X3315566Y43885113D01*
X3337534Y43948145D01*
X3352252Y44024186D01*
X3359120Y44086179D01*
X3366366Y44151477D01*
X3376479Y44202193D01*
X3391376Y44243365D01*
X3412973Y44280033D01*
X3443186Y44317235D01*
X3449692Y44324383D01*
X3488738Y44359042D01*
X3532507Y44385478D01*
X3577017Y44402455D01*
X3618289Y44408741D01*
X3652341Y44403101D01*
G37*
G36*
X8244034Y42347964D02*
G01*
X8261533Y42292298D01*
X8278455Y42238280D01*
X8293217Y42190976D01*
X8304237Y42155447D01*
X8307073Y42146222D01*
X8317034Y42116382D01*
X8325449Y42095913D01*
X8329804Y42089745D01*
X8334299Y42098652D01*
X8343795Y42123560D01*
X8357336Y42161751D01*
X8373965Y42210506D01*
X8392726Y42267108D01*
X8399741Y42288643D01*
X8464236Y42487541D01*
X8521320Y42490527D01*
X8562205Y42492024D01*
X8586120Y42489090D01*
X8595706Y42478469D01*
X8593601Y42456910D01*
X8582445Y42421158D01*
X8581021Y42416936D01*
X8571169Y42387219D01*
X8556658Y42342734D01*
X8538767Y42287438D01*
X8518774Y42225286D01*
X8497959Y42160237D01*
X8492707Y42143767D01*
X8468391Y42066865D01*
X8449332Y42006543D01*
X8434302Y41960836D01*
X8422074Y41927782D01*
X8411420Y41905416D01*
X8401111Y41891774D01*
X8389920Y41884893D01*
X8376619Y41882810D01*
X8359981Y41883561D01*
X8338776Y41885181D01*
X8331242Y41885547D01*
X8256473Y41888392D01*
X8230466Y41966969D01*
X8216066Y42010928D01*
X8198483Y42065275D01*
X8180411Y42121653D01*
X8170402Y42153148D01*
X8156212Y42195947D01*
X8143316Y42231166D01*
X8133207Y42254956D01*
X8127654Y42263437D01*
X8122091Y42255400D01*
X8111748Y42231425D01*
X8097689Y42194326D01*
X8080977Y42146920D01*
X8062675Y42092023D01*
X8061073Y42087080D01*
X8042484Y42030465D01*
X8025346Y41979908D01*
X8010766Y41938545D01*
X7999851Y41909511D01*
X7993707Y41895941D01*
X7993571Y41895758D01*
X7977495Y41888450D01*
X7944868Y41884284D01*
X7916164Y41883481D01*
X7880243Y41883957D01*
X7858934Y41886542D01*
X7847211Y41892967D01*
X7840046Y41904967D01*
X7837807Y41910491D01*
X7829475Y41933359D01*
X7816798Y41970130D01*
X7800695Y42017970D01*
X7782085Y42074044D01*
X7761885Y42135520D01*
X7741013Y42199563D01*
X7720389Y42263338D01*
X7700931Y42324012D01*
X7683556Y42378752D01*
X7669184Y42424722D01*
X7658732Y42459089D01*
X7653119Y42479018D01*
X7652413Y42482633D01*
X7661545Y42487590D01*
X7686230Y42491043D01*
X7722398Y42492445D01*
X7725417Y42492452D01*
X7763078Y42491964D01*
X7785618Y42489663D01*
X7797552Y42484289D01*
X7803397Y42474584D01*
X7804720Y42470352D01*
X7809717Y42453687D01*
X7819426Y42422019D01*
X7832689Y42379096D01*
X7848351Y42328663D01*
X7858527Y42296010D01*
X7875090Y42242845D01*
X7889971Y42194920D01*
X7902011Y42155980D01*
X7910049Y42129772D01*
X7912484Y42121667D01*
X7920369Y42104524D01*
X7926707Y42099567D01*
X7931985Y42108454D01*
X7942294Y42133283D01*
X7956608Y42171309D01*
X7973904Y42219787D01*
X7993158Y42275970D01*
X7999042Y42293554D01*
X8063604Y42487541D01*
X8130943Y42490385D01*
X8198283Y42493229D01*
X8244034Y42347964D01*
G37*
G36*
X5042395Y44117868D02*
G01*
X5090245Y44108865D01*
X5131740Y44100948D01*
X5170967Y44093725D01*
X5199339Y44088776D01*
X5222967Y44083193D01*
X5235542Y44076880D01*
X5236172Y44075430D01*
X5227046Y44071485D01*
X5202265Y44066297D01*
X5165720Y44060567D01*
X5125673Y44055493D01*
X5079012Y44049929D01*
X5037798Y44044588D01*
X5007024Y44040141D01*
X4993074Y44037633D01*
X4979609Y44036134D01*
X4973120Y44043103D01*
X4971097Y44063089D01*
X4970974Y44077659D01*
X4971730Y44100137D01*
X4976096Y44114571D01*
X4987228Y44121788D01*
X5008277Y44122612D01*
X5042395Y44117868D01*
G37*
G36*
X5098415Y44463870D02*
G01*
X5082951Y44450907D01*
X5079293Y44448436D01*
X5060185Y44434694D01*
X5031375Y44412764D01*
X4998387Y44386868D01*
X4990894Y44380879D01*
X4960840Y44357312D01*
X4936695Y44339392D01*
X4922429Y44330030D01*
X4920538Y44329313D01*
X4911289Y44336538D01*
X4898438Y44353398D01*
X4886858Y44375103D01*
X4882592Y44390231D01*
X4891434Y44398569D01*
X4915739Y44411148D01*
X4952199Y44426419D01*
X4987614Y44439435D01*
X5040463Y44456913D01*
X5076796Y44466837D01*
X5096238Y44469168D01*
X5098415Y44463870D01*
G37*
G36*
X4419220Y44942572D02*
G01*
X4417877Y44916396D01*
X4414483Y44880669D01*
X4409644Y44840302D01*
X4403969Y44800204D01*
X4398064Y44765285D01*
X4392537Y44740456D01*
X4390771Y44734970D01*
X4381545Y44718133D01*
X4374524Y44713413D01*
X4360254Y44716133D01*
X4337448Y44720876D01*
X4316899Y44728079D01*
X4308227Y44736711D01*
X4308226Y44736903D01*
X4312404Y44750475D01*
X4323279Y44775895D01*
X4338835Y44809169D01*
X4357057Y44846303D01*
X4375931Y44883304D01*
X4393441Y44916178D01*
X4407572Y44940930D01*
X4416310Y44953569D01*
X4417904Y44954288D01*
X4419220Y44942572D01*
G37*
G36*
X3038745Y44120790D02*
G01*
X3044362Y44110853D01*
X3044394Y44087809D01*
X3043948Y44081265D01*
X3038718Y44051131D01*
X3028399Y44038838D01*
X3026195Y44038439D01*
X3011044Y44039212D01*
X2980886Y44042187D01*
X2940175Y44046883D01*
X2896052Y44052467D01*
X2838762Y44060929D01*
X2801040Y44068663D01*
X2782825Y44075692D01*
X2784053Y44082039D01*
X2802742Y44087378D01*
X2867010Y44099051D01*
X2924725Y44108961D01*
X2972637Y44116586D01*
X3007493Y44121409D01*
X3025151Y44122924D01*
X3038745Y44120790D01*
G37*
G36*
X5197552Y42013260D02*
G01*
X5230834Y42074270D01*
X5275903Y42121998D01*
X5329904Y42156260D01*
X5389983Y42176872D01*
X5453288Y42183651D01*
X5516965Y42176413D01*
X5578160Y42154975D01*
X5634020Y42119152D01*
X5681691Y42068762D01*
X5697274Y42045409D01*
X5716629Y42010343D01*
X5726898Y41981105D01*
X5730841Y41947850D01*
X5731314Y41924038D01*
X5729266Y41879926D01*
X5721124Y41844326D01*
X5704374Y41806431D01*
X5703587Y41804904D01*
X5687363Y41777609D01*
X5660640Y41737526D01*
X5625234Y41687174D01*
X5582960Y41629070D01*
X5535632Y41565733D01*
X5485066Y41499683D01*
X5465909Y41475073D01*
X5455468Y41468509D01*
X5434410Y41464224D01*
X5399788Y41461879D01*
X5348656Y41461131D01*
X5345588Y41461130D01*
X5301874Y41461565D01*
X5266465Y41462745D01*
X5243300Y41464483D01*
X5236172Y41466322D01*
X5241727Y41476032D01*
X5256454Y41497111D01*
X5277447Y41525438D01*
X5282915Y41532622D01*
X5309943Y41568087D01*
X5336368Y41602979D01*
X5356588Y41629902D01*
X5357025Y41630488D01*
X5384392Y41667249D01*
X5332382Y41690675D01*
X5271332Y41727826D01*
X5224833Y41776335D01*
X5193959Y41833627D01*
X5179788Y41897128D01*
X5181502Y41929020D01*
X5366485Y41929020D01*
X5371554Y41889540D01*
X5377517Y41875739D01*
X5391732Y41852949D01*
X5408515Y41840865D01*
X5434530Y41836003D01*
X5455160Y41835146D01*
X5490061Y41840247D01*
X5516549Y41858479D01*
X5537584Y41891869D01*
X5541563Y41929146D01*
X5528743Y41964919D01*
X5510437Y41985740D01*
X5477865Y42006149D01*
X5446304Y42008991D01*
X5410539Y41994574D01*
X5406136Y41991956D01*
X5378391Y41964696D01*
X5366485Y41929020D01*
X5181502Y41929020D01*
X5183395Y41964260D01*
X5197552Y42013260D01*
G37*
G36*
X14563782Y42501918D02*
G01*
X14610391Y42493796D01*
X14651587Y42482699D01*
X14683372Y42469611D01*
X14701750Y42455517D01*
X14704695Y42447575D01*
X14701043Y42430094D01*
X14691944Y42405417D01*
X14680181Y42379513D01*
X14668539Y42358348D01*
X14659801Y42347888D01*
X14658119Y42347751D01*
X14608115Y42370914D01*
X14563778Y42383660D01*
X14515931Y42388441D01*
X14504952Y42388659D01*
X14468358Y42388310D01*
X14445296Y42385166D01*
X14429679Y42377426D01*
X14415418Y42363288D01*
X14414097Y42361761D01*
X14398393Y42340313D01*
X14390580Y42323378D01*
X14390387Y42321540D01*
X14397780Y42303327D01*
X14420797Y42285627D01*
X14460693Y42267756D01*
X14518726Y42249031D01*
X14528793Y42246184D01*
X14598575Y42224066D01*
X14650937Y42200998D01*
X14688102Y42175656D01*
X14712291Y42146719D01*
X14719326Y42132673D01*
X14733885Y42075456D01*
X14729924Y42021070D01*
X14708558Y41971725D01*
X14670903Y41929634D01*
X14618073Y41897008D01*
X14596065Y41888185D01*
X14556167Y41879325D01*
X14504525Y41874999D01*
X14448500Y41875170D01*
X14395453Y41879803D01*
X14352746Y41888860D01*
X14351098Y41889400D01*
X14307324Y41905830D01*
X14272565Y41922315D01*
X14250250Y41937015D01*
X14243635Y41947103D01*
X14248559Y41965068D01*
X14259625Y41989375D01*
X14273496Y42014148D01*
X14286837Y42033510D01*
X14296309Y42041585D01*
X14297208Y42041452D01*
X14311313Y42035227D01*
X14336222Y42024028D01*
X14351098Y42017290D01*
X14396108Y42003034D01*
X14452889Y41994550D01*
X14468964Y41993460D01*
X14508773Y41992216D01*
X14534995Y41994135D01*
X14553570Y42000253D01*
X14569640Y42010967D01*
X14592051Y42034409D01*
X14596937Y42056235D01*
X14583833Y42076975D01*
X14552275Y42097162D01*
X14501798Y42117327D01*
X14467236Y42128181D01*
X14422444Y42142065D01*
X14380301Y42156399D01*
X14347479Y42168867D01*
X14337661Y42173187D01*
X14296837Y42202487D01*
X14269435Y42242583D01*
X14255803Y42289610D01*
X14256287Y42339701D01*
X14271238Y42388990D01*
X14301002Y42433612D01*
X14313125Y42445742D01*
X14350336Y42473796D01*
X14391899Y42491960D01*
X14443942Y42502554D01*
X14470313Y42505298D01*
X14515757Y42506080D01*
X14563782Y42501918D01*
G37*
G36*
X4703156Y42179854D02*
G01*
X4764335Y42157381D01*
X4819255Y42123338D01*
X4863018Y42080521D01*
X4882914Y42049793D01*
X4896174Y42008982D01*
X4902000Y41958220D01*
X4900039Y41905882D01*
X4890820Y41862847D01*
X4875438Y41830268D01*
X4849953Y41789175D01*
X4818176Y41744924D01*
X4783915Y41702869D01*
X4755601Y41672767D01*
X4733788Y41650376D01*
X4719259Y41633126D01*
X4715599Y41626456D01*
X4724736Y41623095D01*
X4749409Y41619932D01*
X4785512Y41617386D01*
X4816276Y41616172D01*
X4916953Y41613372D01*
X4916953Y41466041D01*
X4371825Y41460819D01*
X4371825Y41483281D01*
X4379358Y41503609D01*
X4400803Y41533356D01*
X4428931Y41564469D01*
X4490842Y41629311D01*
X4547869Y41691318D01*
X4598302Y41748482D01*
X4640430Y41798795D01*
X4672542Y41840250D01*
X4692928Y41870840D01*
X4697371Y41879483D01*
X4710625Y41924937D01*
X4707751Y41963102D01*
X4689009Y41991846D01*
X4683170Y41996423D01*
X4649488Y42010834D01*
X4618599Y42007155D01*
X4593055Y41986939D01*
X4575410Y41951738D01*
X4570153Y41927680D01*
X4563161Y41878570D01*
X4477861Y41875740D01*
X4436412Y41874741D01*
X4410186Y41875663D01*
X4394793Y41879357D01*
X4385842Y41886673D01*
X4381010Y41894493D01*
X4372168Y41929934D01*
X4376250Y41973673D01*
X4391428Y42021033D01*
X4415873Y42067342D01*
X4447756Y42107924D01*
X4473213Y42130198D01*
X4516406Y42154965D01*
X4567488Y42174667D01*
X4617495Y42186212D01*
X4640616Y42187966D01*
X4703156Y42179854D01*
G37*
G36*
X9232740Y44211323D02*
G01*
X9321432Y44210723D01*
X9393378Y44208572D01*
X9451447Y44204346D01*
X9498510Y44197519D01*
X9537437Y44187568D01*
X9571100Y44173966D01*
X9602367Y44156190D01*
X9626659Y44139297D01*
X9671736Y44094439D01*
X9705592Y44037074D01*
X9726964Y43971626D01*
X9734590Y43902522D01*
X9727210Y43834186D01*
X9720501Y43810218D01*
X9700868Y43768256D01*
X9671501Y43725286D01*
X9637556Y43687828D01*
X9604186Y43662405D01*
X9603288Y43661918D01*
X9584876Y43648819D01*
X9577548Y43637430D01*
X9582854Y43625758D01*
X9597381Y43601356D01*
X9619039Y43567559D01*
X9645742Y43527700D01*
X9651865Y43518769D01*
X9688068Y43466642D01*
X9713776Y43428945D01*
X9728785Y43403374D01*
X9732890Y43387625D01*
X9725889Y43379395D01*
X9707576Y43376379D01*
X9677748Y43376274D01*
X9639282Y43376771D01*
X9533349Y43377099D01*
X9459683Y43487269D01*
X9386017Y43597440D01*
X9295162Y43600265D01*
X9204308Y43603089D01*
X9204308Y43377995D01*
X9133097Y43374763D01*
X9093481Y43373561D01*
X9058168Y43373518D01*
X9034876Y43374640D01*
X9007865Y43377748D01*
X9007865Y43769328D01*
X9204308Y43769328D01*
X9317908Y43769328D01*
X9367774Y43770285D01*
X9410191Y43772916D01*
X9440706Y43776856D01*
X9452962Y43780377D01*
X9493048Y43810047D01*
X9519245Y43848033D01*
X9531873Y43890627D01*
X9531251Y43934121D01*
X9517696Y43974806D01*
X9491528Y44008975D01*
X9453066Y44032919D01*
X9430679Y44039619D01*
X9408781Y44042185D01*
X9373164Y44044271D01*
X9329748Y44045732D01*
X9284456Y44046424D01*
X9243210Y44046206D01*
X9211932Y44044934D01*
X9211674Y44044914D01*
X9209026Y44035466D01*
X9206800Y44009909D01*
X9205185Y43971776D01*
X9204369Y43924600D01*
X9204308Y43906837D01*
X9204308Y43769328D01*
X9007865Y43769328D01*
X9007865Y44211323D01*
X9232740Y44211323D01*
G37*
G36*
X7257769Y44209215D02*
G01*
X7352838Y44206412D01*
X7355990Y43975592D01*
X7356526Y43890745D01*
X7355797Y43813484D01*
X7353887Y43746996D01*
X7350880Y43694464D01*
X7347831Y43665252D01*
X7327418Y43580105D01*
X7292348Y43507891D01*
X7242819Y43448858D01*
X7179030Y43403255D01*
X7117656Y43376538D01*
X7057953Y43362972D01*
X6987963Y43357434D01*
X6915322Y43359908D01*
X6847664Y43370377D01*
X6822444Y43377194D01*
X6749334Y43409911D01*
X6687939Y43457742D01*
X6640036Y43519249D01*
X6633877Y43530016D01*
X6618729Y43559742D01*
X6608174Y43587194D01*
X6600776Y43618102D01*
X6595095Y43658195D01*
X6590700Y43702063D01*
X6587558Y43748925D01*
X6585163Y43809769D01*
X6583646Y43878946D01*
X6583136Y43950802D01*
X6583598Y44010129D01*
X6586713Y44206412D01*
X6686835Y44209205D01*
X6786956Y44211998D01*
X6789967Y43929274D01*
X6791002Y43841538D01*
X6792343Y43771121D01*
X6794443Y43715696D01*
X6797759Y43672940D01*
X6802744Y43640526D01*
X6809855Y43616129D01*
X6819546Y43597425D01*
X6832272Y43582088D01*
X6848488Y43567793D01*
X6862901Y43556595D01*
X6884882Y43541830D01*
X6906709Y43533539D01*
X6935413Y43529889D01*
X6968499Y43529076D01*
X7025576Y43532914D01*
X7068635Y43546621D01*
X7101744Y43572396D01*
X7128971Y43612435D01*
X7131412Y43617086D01*
X7138763Y43631808D01*
X7144539Y43645776D01*
X7148961Y43661526D01*
X7152253Y43681598D01*
X7154635Y43708531D01*
X7156329Y43744863D01*
X7157559Y43793132D01*
X7158546Y43855878D01*
X7159511Y43935638D01*
X7159547Y43938807D01*
X7162699Y44212017D01*
X7257769Y44209215D01*
G37*
G36*
X4010781Y45017256D02*
G01*
X4016588Y44996406D01*
X4023488Y44961877D01*
X4030943Y44916594D01*
X4038416Y44863478D01*
X4043988Y44817839D01*
X4050424Y44761362D01*
X4009771Y44761362D01*
X3984366Y44762954D01*
X3969508Y44766944D01*
X3968031Y44768728D01*
X3968169Y44787721D01*
X3971199Y44820253D01*
X3976366Y44861376D01*
X3982915Y44906138D01*
X3990091Y44949590D01*
X3997138Y44986783D01*
X4003301Y45012765D01*
X4006601Y45021505D01*
X4010781Y45017256D01*
G37*
G36*
X3215739Y44774201D02*
G01*
X3235713Y44758691D01*
X3264202Y44734502D01*
X3298303Y44704018D01*
X3301374Y44701206D01*
X3390904Y44619103D01*
X3363248Y44596971D01*
X3340840Y44580404D01*
X3326427Y44576966D01*
X3313025Y44587073D01*
X3301927Y44600621D01*
X3287974Y44620732D01*
X3281609Y44634589D01*
X3281570Y44635176D01*
X3276780Y44647187D01*
X3264100Y44671121D01*
X3246063Y44702251D01*
X3242042Y44708915D01*
X3223941Y44740181D01*
X3211503Y44764555D01*
X3206905Y44777680D01*
X3207180Y44778644D01*
X3215739Y44774201D01*
G37*
G36*
X11875902Y43791427D02*
G01*
X11875879Y43371532D01*
X11793941Y43371532D01*
X11753954Y43371898D01*
X11720293Y43372873D01*
X11698796Y43374266D01*
X11695743Y43374707D01*
X11691769Y43376821D01*
X11688496Y43382617D01*
X11685856Y43393823D01*
X11683782Y43412168D01*
X11682207Y43439381D01*
X11681065Y43477188D01*
X11680289Y43527320D01*
X11679811Y43591505D01*
X11679565Y43671470D01*
X11679484Y43768944D01*
X11679482Y43794603D01*
X11679482Y44211323D01*
X11875924Y44211323D01*
X11875902Y43791427D01*
G37*
G36*
X13290309Y43533597D02*
G01*
X13712660Y43533597D01*
X13712660Y43455020D01*
X13711812Y43418505D01*
X13709558Y43390977D01*
X13706333Y43377098D01*
X13705294Y43376291D01*
X13665327Y43375641D01*
X13613840Y43375062D01*
X13553768Y43374563D01*
X13488042Y43374151D01*
X13419594Y43373834D01*
X13351358Y43373620D01*
X13286267Y43373518D01*
X13227251Y43373533D01*
X13177246Y43373675D01*
X13139182Y43373951D01*
X13115992Y43374370D01*
X13110352Y43374707D01*
X13106326Y43376743D01*
X13103010Y43382306D01*
X13100336Y43393130D01*
X13098235Y43410947D01*
X13096641Y43437489D01*
X13095483Y43474488D01*
X13094696Y43523677D01*
X13094210Y43586787D01*
X13093958Y43665551D01*
X13093871Y43761700D01*
X13093867Y43794603D01*
X13093867Y44211323D01*
X13290309Y44211323D01*
X13290309Y43533597D01*
G37*
G36*
X9678164Y42499772D02*
G01*
X9740351Y42483377D01*
X9756391Y42476797D01*
X9781649Y42462024D01*
X9792148Y42444290D01*
X9789251Y42418700D01*
X9779768Y42392975D01*
X9766878Y42365291D01*
X9754549Y42353491D01*
X9736495Y42355046D01*
X9711074Y42365366D01*
X9659181Y42382933D01*
X9608844Y42390370D01*
X9563442Y42388185D01*
X9526352Y42376886D01*
X9500953Y42356983D01*
X9490895Y42332249D01*
X9489520Y42315214D01*
X9491522Y42301960D01*
X9499414Y42290996D01*
X9515709Y42280831D01*
X9542918Y42269975D01*
X9583554Y42256938D01*
X9640129Y42240228D01*
X9651621Y42236883D01*
X9717561Y42213815D01*
X9765797Y42187216D01*
X9798203Y42155178D01*
X9816653Y42115791D01*
X9823020Y42067148D01*
X9823065Y42062247D01*
X9816461Y42006451D01*
X9795495Y41961441D01*
X9758562Y41924989D01*
X9704059Y41894866D01*
X9701966Y41893964D01*
X9648454Y41878941D01*
X9584269Y41873134D01*
X9516037Y41876449D01*
X9450383Y41888790D01*
X9421489Y41897982D01*
X9379483Y41914482D01*
X9353914Y41928472D01*
X9342523Y41943476D01*
X9343053Y41963015D01*
X9353243Y41990613D01*
X9356858Y41998787D01*
X9379903Y42050250D01*
X9432071Y42023758D01*
X9487134Y42002694D01*
X9549552Y41993347D01*
X9550714Y41993276D01*
X9609493Y41993944D01*
X9651163Y42004066D01*
X9675862Y42023688D01*
X9682105Y42037900D01*
X9680799Y42063015D01*
X9662846Y42085335D01*
X9627321Y42105534D01*
X9573300Y42124288D01*
X9558035Y42128502D01*
X9486462Y42150291D01*
X9432311Y42173634D01*
X9393358Y42200084D01*
X9367381Y42231191D01*
X9352157Y42268507D01*
X9351066Y42272961D01*
X9346968Y42331135D01*
X9360704Y42386146D01*
X9390683Y42434073D01*
X9430124Y42467839D01*
X9480532Y42490134D01*
X9542506Y42502993D01*
X9610300Y42506258D01*
X9678164Y42499772D01*
G37*
G36*
X8821245Y42256721D02*
G01*
X9096265Y42256721D01*
X9096265Y42492452D01*
X9234058Y42492452D01*
X9231461Y42190422D01*
X9228863Y41888392D01*
X9101176Y41888392D01*
X9096265Y42011168D01*
X9091353Y42133945D01*
X8956299Y42136677D01*
X8821245Y42139410D01*
X8821245Y41883481D01*
X8759038Y41883481D01*
X8725696Y41884444D01*
X8700687Y41886955D01*
X8690284Y41890029D01*
X8688648Y41901134D01*
X8687162Y41929424D01*
X8685878Y41972443D01*
X8684849Y42027732D01*
X8684127Y42092832D01*
X8683767Y42165287D01*
X8683736Y42194514D01*
X8683736Y42492452D01*
X8821245Y42492452D01*
X8821245Y42256721D01*
G37*
G36*
X13995245Y42503468D02*
G01*
X14062762Y42487134D01*
X14122909Y42456894D01*
X14163828Y42422132D01*
X14179564Y42401397D01*
X14181408Y42383987D01*
X14168246Y42365248D01*
X14145520Y42345664D01*
X14106918Y42315091D01*
X14061193Y42347294D01*
X14033747Y42365032D01*
X14009922Y42374744D01*
X13981528Y42378768D01*
X13948418Y42379460D01*
X13910635Y42378479D01*
X13885078Y42374154D01*
X13864362Y42364335D01*
X13843669Y42348953D01*
X13803727Y42310216D01*
X13780081Y42269283D01*
X13769774Y42220068D01*
X13768705Y42194763D01*
X13776420Y42130465D01*
X13799563Y42076383D01*
X13836724Y42034299D01*
X13886490Y42005995D01*
X13926438Y41995586D01*
X13970408Y41995672D01*
X14016105Y42006997D01*
X14055396Y42027018D01*
X14071487Y42040988D01*
X14088532Y42055541D01*
X14100163Y42060279D01*
X14115694Y42053206D01*
X14136169Y42035519D01*
X14156976Y42012514D01*
X14173505Y41989485D01*
X14181145Y41971730D01*
X14180826Y41967634D01*
X14167977Y41952103D01*
X14142548Y41932416D01*
X14110060Y41912045D01*
X14076035Y41894466D01*
X14046952Y41883413D01*
X14005889Y41876456D01*
X13955317Y41874202D01*
X13902686Y41876383D01*
X13855445Y41882730D01*
X13824622Y41891396D01*
X13757481Y41926620D01*
X13705510Y41971847D01*
X13665413Y42030372D01*
X13647617Y42068474D01*
X13628806Y42136744D01*
X13625302Y42208519D01*
X13636189Y42279496D01*
X13660551Y42345376D01*
X13697472Y42401856D01*
X13724339Y42428663D01*
X13784904Y42468494D01*
X13852673Y42494202D01*
X13924000Y42505842D01*
X13995245Y42503468D01*
G37*
G36*
X10152142Y42487541D02*
G01*
X10315672Y42490230D01*
X10378210Y42491001D01*
X10424977Y42490752D01*
X10459837Y42489169D01*
X10486649Y42485944D01*
X10509275Y42480764D01*
X10531577Y42473319D01*
X10533201Y42472714D01*
X10592533Y42442394D01*
X10635527Y42401478D01*
X10662989Y42348962D01*
X10674456Y42296766D01*
X10672950Y42235770D01*
X10655143Y42178583D01*
X10622864Y42130189D01*
X10608123Y42115939D01*
X10586181Y42095457D01*
X10572222Y42079159D01*
X10569582Y42073456D01*
X10574823Y42061851D01*
X10588980Y42037969D01*
X10609710Y42005628D01*
X10627804Y41978641D01*
X10653457Y41940652D01*
X10669085Y41915727D01*
X10675905Y41900820D01*
X10675133Y41892886D01*
X10667987Y41888881D01*
X10664112Y41887820D01*
X10641845Y41885217D01*
X10609181Y41884641D01*
X10589060Y41885356D01*
X10535922Y41888392D01*
X10481169Y41966969D01*
X10426417Y42045546D01*
X10360894Y42048441D01*
X10295372Y42051336D01*
X10289652Y41888392D01*
X10230719Y41885852D01*
X10197170Y41885715D01*
X10170925Y41887973D01*
X10159909Y41891095D01*
X10156330Y41898623D01*
X10153571Y41916987D01*
X10151583Y41947735D01*
X10150316Y41992415D01*
X10149718Y42052577D01*
X10149741Y42129768D01*
X10149951Y42168322D01*
X10294563Y42168322D01*
X10357179Y42168322D01*
X10395865Y42169296D01*
X10431203Y42171817D01*
X10450350Y42174433D01*
X10489663Y42191112D01*
X10517310Y42220872D01*
X10529886Y42259706D01*
X10530294Y42268528D01*
X10525467Y42309852D01*
X10509714Y42339828D01*
X10481128Y42359746D01*
X10437800Y42370898D01*
X10377824Y42374575D01*
X10373628Y42374587D01*
X10294563Y42374587D01*
X10294563Y42168322D01*
X10149951Y42168322D01*
X10150087Y42193210D01*
X10152142Y42487541D01*
G37*
G36*
X8899822Y44133797D02*
G01*
X8898940Y44092455D01*
X8895856Y44067053D01*
X8889917Y44053949D01*
X8884869Y44050533D01*
X8869516Y44048447D01*
X8839059Y44047099D01*
X8798026Y44046610D01*
X8754726Y44047026D01*
X8639536Y44049258D01*
X8636952Y43712850D01*
X8634367Y43376443D01*
X8428360Y43376443D01*
X8428360Y43709576D01*
X8428200Y43803918D01*
X8427681Y43880193D01*
X8426745Y43939975D01*
X8425336Y43984840D01*
X8423396Y44016361D01*
X8420868Y44036114D01*
X8417695Y44045674D01*
X8416083Y44047056D01*
X8400015Y44048654D01*
X8371655Y44048164D01*
X8348440Y44046611D01*
X8307092Y44045130D01*
X8259081Y44046378D01*
X8228119Y44048776D01*
X8163163Y44055733D01*
X8163163Y44211323D01*
X8899822Y44211323D01*
X8899822Y44133797D01*
G37*
G36*
X13523727Y42190422D02*
G01*
X13521129Y41888392D01*
X13461793Y41885521D01*
X13429192Y41885067D01*
X13404892Y41886807D01*
X13395494Y41889613D01*
X13393755Y41900825D01*
X13392174Y41929218D01*
X13390808Y41972330D01*
X13389714Y42027699D01*
X13388947Y42092861D01*
X13388564Y42165355D01*
X13388531Y42194514D01*
X13388531Y42492452D01*
X13526324Y42492452D01*
X13523727Y42190422D01*
G37*
G36*
X11020772Y43928937D02*
G01*
X11050704Y43859094D01*
X11078392Y43795037D01*
X11102844Y43739016D01*
X11123071Y43693278D01*
X11138083Y43660070D01*
X11146888Y43641640D01*
X11148606Y43638718D01*
X11154406Y43645007D01*
X11166606Y43666962D01*
X11184012Y43702132D01*
X11205432Y43748065D01*
X11229673Y43802310D01*
X11241817Y43830249D01*
X11269917Y43895395D01*
X11298199Y43960838D01*
X11324762Y44022188D01*
X11347703Y44075054D01*
X11365122Y44115045D01*
X11367494Y44120468D01*
X11407268Y44211323D01*
X11504087Y44211323D01*
X11549861Y44210781D01*
X11579140Y44208849D01*
X11595051Y44205071D01*
X11600720Y44198990D01*
X11600905Y44197169D01*
X11595621Y44180908D01*
X11592171Y44177618D01*
X11583299Y44164784D01*
X11577348Y44147960D01*
X11570592Y44128478D01*
X11557629Y44096737D01*
X11540733Y44058195D01*
X11532060Y44039243D01*
X11515112Y44002212D01*
X11501852Y43972261D01*
X11494107Y43953570D01*
X11492862Y43949588D01*
X11489052Y43938689D01*
X11479065Y43915105D01*
X11465060Y43883936D01*
X11465029Y43883871D01*
X11453211Y43857589D01*
X11435130Y43816641D01*
X11412269Y43764416D01*
X11386107Y43704301D01*
X11358124Y43639685D01*
X11340961Y43599896D01*
X11244725Y43376443D01*
X11043221Y43376443D01*
X10869259Y43781605D01*
X10833153Y43865711D01*
X10799363Y43944453D01*
X10768692Y44015953D01*
X10741946Y44078335D01*
X10719929Y44129722D01*
X10703444Y44168238D01*
X10693298Y44192004D01*
X10690322Y44199045D01*
X10692761Y44204683D01*
X10707106Y44208413D01*
X10735761Y44210523D01*
X10781132Y44211302D01*
X10792795Y44211323D01*
X10900245Y44211323D01*
X11020772Y43928937D01*
G37*
G36*
X3556589Y41461130D02*
G01*
X3369969Y41461130D01*
X3368419Y41507785D01*
X3368070Y41532466D01*
X3368042Y41572719D01*
X3368315Y41624478D01*
X3368866Y41683673D01*
X3369633Y41743358D01*
X3370560Y41812557D01*
X3370508Y41864280D01*
X3368682Y41900697D01*
X3364289Y41923976D01*
X3356533Y41936284D01*
X3344621Y41939790D01*
X3327757Y41936663D01*
X3305149Y41929070D01*
X3301998Y41927957D01*
X3276006Y41919019D01*
X3259110Y41913646D01*
X3256125Y41912947D01*
X3248842Y41921587D01*
X3238547Y41943973D01*
X3227040Y41974805D01*
X3216117Y42008784D01*
X3207578Y42040608D01*
X3203220Y42064978D01*
X3202993Y42069564D01*
X3211859Y42076332D01*
X3235933Y42086928D01*
X3271435Y42100162D01*
X3314582Y42114839D01*
X3361590Y42129769D01*
X3408679Y42143758D01*
X3452065Y42155615D01*
X3487966Y42164147D01*
X3512600Y42168163D01*
X3516310Y42168322D01*
X3556589Y42168322D01*
X3556589Y41461130D01*
G37*
G36*
X15252747Y44139228D02*
G01*
X15253830Y44102290D01*
X15251450Y44076274D01*
X15242777Y44059348D01*
X15224981Y44049677D01*
X15195234Y44045426D01*
X15150704Y44044762D01*
X15108113Y44045471D01*
X14984625Y44047901D01*
X14979459Y43378635D01*
X14952575Y43375083D01*
X14929243Y43373689D01*
X14893951Y43373451D01*
X14854482Y43374418D01*
X14783271Y43377303D01*
X14783271Y44044347D01*
X14682595Y44045442D01*
X14627730Y44046242D01*
X14587151Y44047413D01*
X14555500Y44049192D01*
X14527419Y44051818D01*
X14520117Y44052660D01*
X14513470Y44059136D01*
X14510141Y44078441D01*
X14509774Y44113400D01*
X14510295Y44130290D01*
X14513163Y44206412D01*
X15249822Y44206412D01*
X15252747Y44139228D01*
G37*
G36*
X12035564Y43889301D02*
G01*
X12064066Y43973873D01*
X12101665Y44041759D01*
X12155428Y44105517D01*
X12220752Y44155791D01*
X12294952Y44192622D01*
X12375341Y44216050D01*
X12459232Y44226117D01*
X12543941Y44222861D01*
X12626779Y44206325D01*
X12705062Y44176547D01*
X12776103Y44133570D01*
X12837216Y44077432D01*
X12872764Y44030147D01*
X12909570Y43960397D01*
X12931077Y43888596D01*
X12939005Y43808492D01*
X12939097Y43788993D01*
X12929597Y43694102D01*
X12903293Y43609217D01*
X12860574Y43534836D01*
X12801826Y43471459D01*
X12727436Y43419584D01*
X12637792Y43379709D01*
X12615649Y43372469D01*
X12564942Y43362304D01*
X12503174Y43357963D01*
X12438015Y43359354D01*
X12377138Y43366389D01*
X12337564Y43375734D01*
X12265684Y43403141D01*
X12206473Y43436953D01*
X12153104Y43481186D01*
X12145360Y43488789D01*
X12090467Y43556959D01*
X12051829Y43633782D01*
X12029657Y43716570D01*
X12025934Y43774908D01*
X12223082Y43774908D01*
X12235045Y43708783D01*
X12262563Y43648464D01*
X12304737Y43597157D01*
X12346101Y43566127D01*
X12378635Y43548427D01*
X12408417Y43535137D01*
X12424616Y43530140D01*
X12466133Y43527362D01*
X12514691Y43530644D01*
X12561672Y43538909D01*
X12598461Y43551082D01*
X12600555Y43552116D01*
X12657071Y43591720D01*
X12702678Y43646348D01*
X12714247Y43666067D01*
X12728153Y43706307D01*
X12735442Y43758084D01*
X12736134Y43814448D01*
X12730251Y43868448D01*
X12717816Y43913134D01*
X12713444Y43922500D01*
X12673747Y43978341D01*
X12621892Y44019292D01*
X12559440Y44044525D01*
X12487950Y44053213D01*
X12468222Y44052668D01*
X12395377Y44040737D01*
X12335022Y44013725D01*
X12286759Y43971377D01*
X12250187Y43913432D01*
X12249404Y43911748D01*
X12227569Y43843632D01*
X12223082Y43774908D01*
X12025934Y43774908D01*
X12024165Y43802638D01*
X12035564Y43889301D01*
G37*
G36*
X9940170Y43772891D02*
G01*
X9942992Y43779150D01*
X9957694Y43812045D01*
X9978293Y43858542D01*
X10002844Y43914229D01*
X10029403Y43974697D01*
X10054356Y44031716D01*
X10132498Y44210617D01*
X10231515Y44210970D01*
X10276678Y44210847D01*
X10306178Y44209568D01*
X10323994Y44206343D01*
X10334103Y44200384D01*
X10340483Y44190905D01*
X10341319Y44189223D01*
X10352771Y44165126D01*
X10367686Y44132892D01*
X10383994Y44097111D01*
X10399625Y44062375D01*
X10412508Y44033274D01*
X10420573Y44014399D01*
X10422251Y44009779D01*
X10426060Y43999878D01*
X10436074Y43977023D01*
X10450170Y43946055D01*
X10450955Y43944355D01*
X10462605Y43918805D01*
X10480842Y43878365D01*
X10504290Y43826103D01*
X10531575Y43765089D01*
X10561323Y43698390D01*
X10592032Y43629362D01*
X10704406Y43376443D01*
X10495143Y43376443D01*
X10460850Y43457475D01*
X10426558Y43538508D01*
X10236925Y43543419D01*
X10164195Y43544779D01*
X10107100Y43544727D01*
X10066765Y43543290D01*
X10044317Y43540496D01*
X10040081Y43538508D01*
X10033084Y43525387D01*
X10020788Y43499080D01*
X10005474Y43464524D01*
X10000325Y43452564D01*
X9967781Y43376443D01*
X9765900Y43376443D01*
X9822887Y43507735D01*
X9844564Y43557596D01*
X9864684Y43603724D01*
X9881358Y43641800D01*
X9892697Y43667501D01*
X9894821Y43672256D01*
X9906129Y43697368D01*
X9907573Y43700573D01*
X10108814Y43700573D01*
X10231155Y43700573D01*
X10277576Y43701234D01*
X10315906Y43703039D01*
X10342422Y43705721D01*
X10353396Y43709011D01*
X10353496Y43709366D01*
X10349816Y43722122D01*
X10339796Y43749054D01*
X10324969Y43786339D01*
X10306866Y43830156D01*
X10287017Y43876681D01*
X10280289Y43892104D01*
X10267992Y43922116D01*
X10255418Y43955613D01*
X10254432Y43958403D01*
X10242509Y43985598D01*
X10231924Y43993567D01*
X10221608Y43982580D01*
X10215540Y43968225D01*
X10204878Y43940790D01*
X10196579Y43921570D01*
X10184639Y43894466D01*
X10168502Y43855880D01*
X10150959Y43812689D01*
X10134798Y43771771D01*
X10122809Y43740004D01*
X10121880Y43737406D01*
X10108814Y43700573D01*
X9907573Y43700573D01*
X9922312Y43733281D01*
X9940170Y43772891D01*
G37*
G36*
X7708204Y43003346D02*
G01*
X7850434Y43003239D01*
X8006931Y43003052D01*
X8176731Y43002791D01*
X8358873Y43002457D01*
X8552393Y43002055D01*
X8756328Y43001589D01*
X8969716Y43001061D01*
X9191594Y43000477D01*
X9421000Y42999838D01*
X9656970Y42999150D01*
X9898542Y42998415D01*
X10144754Y42997638D01*
X10394641Y42996822D01*
X10647242Y42995970D01*
X10901595Y42995086D01*
X11156735Y42994175D01*
X11411701Y42993238D01*
X11665529Y42992281D01*
X11917258Y42991307D01*
X12165923Y42990319D01*
X12410563Y42989321D01*
X12650215Y42988317D01*
X12883916Y42987310D01*
X13110703Y42986304D01*
X13329614Y42985303D01*
X13539685Y42984310D01*
X13739954Y42983329D01*
X13929459Y42982363D01*
X14107236Y42981417D01*
X14272324Y42980494D01*
X14423758Y42979597D01*
X14560576Y42978730D01*
X14681816Y42977896D01*
X14786516Y42977101D01*
X14873711Y42976346D01*
X14942439Y42975636D01*
X14955159Y42975484D01*
X15495375Y42968825D01*
X15501363Y42875515D01*
X13799142Y42876654D01*
X13617612Y42876794D01*
X13441296Y42876964D01*
X13271205Y42877164D01*
X13108348Y42877390D01*
X12953736Y42877639D01*
X12808380Y42877910D01*
X12673290Y42878199D01*
X12549477Y42878504D01*
X12437951Y42878822D01*
X12339723Y42879152D01*
X12255802Y42879490D01*
X12187200Y42879834D01*
X12134926Y42880181D01*
X12099992Y42880529D01*
X12083408Y42880875D01*
X12082189Y42880972D01*
X12070895Y42881355D01*
X12041004Y42881793D01*
X11993560Y42882277D01*
X11929610Y42882805D01*
X11850200Y42883368D01*
X11756375Y42883963D01*
X11649182Y42884583D01*
X11529666Y42885222D01*
X11398873Y42885876D01*
X11257850Y42886538D01*
X11107642Y42887202D01*
X10949295Y42887864D01*
X10783856Y42888517D01*
X10612369Y42889155D01*
X10476272Y42889636D01*
X10275669Y42890343D01*
X10064811Y42891117D01*
X9846093Y42891945D01*
X9621909Y42892820D01*
X9394654Y42893729D01*
X9166723Y42894665D01*
X8940510Y42895615D01*
X8718410Y42896570D01*
X8502817Y42897520D01*
X8296126Y42898455D01*
X8100731Y42899365D01*
X7919028Y42900240D01*
X7753409Y42901069D01*
X7679424Y42901452D01*
X6473759Y42907782D01*
X6473759Y43003202D01*
X7581203Y43003371D01*
X7708204Y43003346D01*
G37*
G36*
X14449319Y44054545D02*
G01*
X14230777Y44051901D01*
X14012235Y44049258D01*
X14009400Y43963523D01*
X14006565Y43877789D01*
X14200932Y43875124D01*
X14395298Y43872460D01*
X14398163Y43796547D01*
X14401028Y43720635D01*
X14206631Y43717970D01*
X14012235Y43715306D01*
X14009413Y43624633D01*
X14006592Y43533961D01*
X14235322Y43531323D01*
X14464053Y43528686D01*
X14466921Y43452564D01*
X14469790Y43376443D01*
X13810882Y43376443D01*
X13810882Y44211323D01*
X14449319Y44211323D01*
X14449319Y44054545D01*
G37*
G36*
X2714382Y42180010D02*
G01*
X2785886Y42158349D01*
X2843708Y42123725D01*
X2886888Y42078147D01*
X2914463Y42023621D01*
X2925471Y41962158D01*
X2918950Y41895764D01*
X2893937Y41826448D01*
X2888687Y41816216D01*
X2867166Y41782001D01*
X2836968Y41741708D01*
X2803725Y41702717D01*
X2794978Y41693392D01*
X2766087Y41661640D01*
X2748046Y41638115D01*
X2742385Y41624921D01*
X2743841Y41623038D01*
X2758546Y41620847D01*
X2787849Y41618638D01*
X2826704Y41616748D01*
X2849397Y41615992D01*
X2942707Y41613372D01*
X2945576Y41537251D01*
X2948444Y41461130D01*
X2397579Y41461130D01*
X2397579Y41483820D01*
X2404214Y41504775D01*
X2420802Y41529660D01*
X2427691Y41537310D01*
X2467139Y41578524D01*
X2510037Y41624808D01*
X2554138Y41673579D01*
X2597193Y41722251D01*
X2636957Y41768242D01*
X2671182Y41808966D01*
X2697620Y41841842D01*
X2714025Y41864284D01*
X2717807Y41870888D01*
X2731134Y41917421D01*
X2728961Y41957116D01*
X2712049Y41987490D01*
X2681157Y42006058D01*
X2675968Y42007522D01*
X2644228Y42006713D01*
X2618183Y41988988D01*
X2600333Y41956810D01*
X2594022Y41926702D01*
X2589111Y41878570D01*
X2515560Y41875637D01*
X2465860Y41874220D01*
X2432509Y41875788D01*
X2412259Y41882017D01*
X2401857Y41894581D01*
X2398055Y41915156D01*
X2397579Y41936441D01*
X2406673Y42001328D01*
X2432258Y42059407D01*
X2471790Y42108721D01*
X2522726Y42147315D01*
X2582520Y42173232D01*
X2648629Y42184516D01*
X2714382Y42180010D01*
G37*
G36*
X3604807Y44949503D02*
G01*
X3617145Y44927383D01*
X3633388Y44895620D01*
X3651548Y44858389D01*
X3669638Y44819867D01*
X3685669Y44784227D01*
X3697655Y44755647D01*
X3703606Y44738302D01*
X3703921Y44736063D01*
X3695863Y44724162D01*
X3686732Y44721939D01*
X3662714Y44719263D01*
X3648874Y44716256D01*
X3637013Y44715176D01*
X3629026Y44722417D01*
X3622504Y44741943D01*
X3616695Y44769205D01*
X3609897Y44808290D01*
X3604019Y44850259D01*
X3599493Y44890655D01*
X3596755Y44925016D01*
X3596236Y44948886D01*
X3598362Y44957804D01*
X3604807Y44949503D01*
G37*
G36*
X7732380Y43899471D02*
G01*
X7732755Y43822044D01*
X7733159Y43750072D01*
X7733574Y43686139D01*
X7733981Y43632829D01*
X7734361Y43592728D01*
X7734695Y43568421D01*
X7734836Y43563063D01*
X7735901Y43538508D01*
X7943791Y43535859D01*
X8151682Y43533211D01*
X8154967Y43470679D01*
X8156872Y43443952D01*
X8158119Y43422818D01*
X8156692Y43406606D01*
X8150577Y43394645D01*
X8137757Y43386265D01*
X8116219Y43380794D01*
X8083948Y43377562D01*
X8038927Y43375897D01*
X7979142Y43375130D01*
X7902578Y43374588D01*
X7865379Y43374271D01*
X7791276Y43373675D01*
X7722765Y43373336D01*
X7662535Y43373252D01*
X7613276Y43373419D01*
X7577680Y43373833D01*
X7558436Y43374491D01*
X7556647Y43374670D01*
X7534548Y43377809D01*
X7534548Y44211323D01*
X7730990Y44211323D01*
X7732380Y43899471D01*
G37*
G36*
X7449770Y42500342D02*
G01*
X7510164Y42486702D01*
X7544618Y42472681D01*
X7583288Y42452953D01*
X7563007Y42401492D01*
X7551526Y42373004D01*
X7543077Y42353230D01*
X7540154Y42347457D01*
X7530531Y42349520D01*
X7508915Y42357654D01*
X7494321Y42363834D01*
X7440942Y42382134D01*
X7390391Y42390266D01*
X7345424Y42388883D01*
X7308797Y42378635D01*
X7283265Y42360176D01*
X7271582Y42334156D01*
X7273191Y42311512D01*
X7281101Y42295886D01*
X7298165Y42282183D01*
X7327223Y42268986D01*
X7371118Y42254877D01*
X7405753Y42245386D01*
X7478340Y42222541D01*
X7532955Y42196313D01*
X7571170Y42165302D01*
X7594555Y42128109D01*
X7604684Y42083334D01*
X7605379Y42067643D01*
X7598608Y42009979D01*
X7576375Y41962628D01*
X7537502Y41923891D01*
X7485437Y41894128D01*
X7442568Y41881449D01*
X7387695Y41874837D01*
X7327506Y41874321D01*
X7268689Y41879927D01*
X7217932Y41891685D01*
X7214167Y41892983D01*
X7168542Y41910171D01*
X7139652Y41925019D01*
X7125417Y41940831D01*
X7123754Y41960909D01*
X7132585Y41988556D01*
X7141338Y42008579D01*
X7160227Y42050189D01*
X7212333Y42023550D01*
X7248445Y42007834D01*
X7285669Y41998616D01*
X7332411Y41993958D01*
X7343016Y41993431D01*
X7383659Y41992259D01*
X7410015Y41993739D01*
X7427367Y41998779D01*
X7440995Y42008289D01*
X7443693Y42010764D01*
X7463104Y42037420D01*
X7462966Y42062381D01*
X7443303Y42085619D01*
X7404140Y42107107D01*
X7345502Y42126818D01*
X7338105Y42128813D01*
X7266622Y42150465D01*
X7212549Y42173670D01*
X7173651Y42199986D01*
X7147694Y42230969D01*
X7132443Y42268176D01*
X7131267Y42272961D01*
X7127150Y42331477D01*
X7141107Y42386637D01*
X7171611Y42434719D01*
X7211436Y42468540D01*
X7258917Y42489300D01*
X7318338Y42501569D01*
X7383892Y42505274D01*
X7449770Y42500342D01*
G37*
G36*
X10736210Y42249113D02*
G01*
X10752958Y42312191D01*
X10777101Y42362183D01*
X10811783Y42405181D01*
X10821670Y42414805D01*
X10871562Y42455776D01*
X10920973Y42482537D01*
X10977368Y42498844D01*
X10994982Y42501977D01*
X11077595Y42506847D01*
X11154334Y42495196D01*
X11223174Y42468307D01*
X11282090Y42427463D01*
X11329058Y42373948D01*
X11362053Y42309044D01*
X11375108Y42261038D01*
X11381907Y42179462D01*
X11371530Y42103146D01*
X11345080Y42034216D01*
X11303663Y41974800D01*
X11248380Y41927024D01*
X11185055Y41894741D01*
X11122441Y41878944D01*
X11052674Y41873741D01*
X10983810Y41879158D01*
X10927346Y41893862D01*
X10860503Y41929507D01*
X10805904Y41978888D01*
X10764985Y42039340D01*
X10739180Y42108197D01*
X10731897Y42166879D01*
X10875226Y42166879D01*
X10887556Y42110066D01*
X10896887Y42088972D01*
X10929647Y42046578D01*
X10974718Y42014985D01*
X11026556Y41997130D01*
X11073914Y41995176D01*
X11109935Y42002430D01*
X11143329Y42014079D01*
X11152458Y42018715D01*
X11194783Y42054031D01*
X11224060Y42100414D01*
X11239775Y42153806D01*
X11241418Y42210151D01*
X11228475Y42265391D01*
X11200435Y42315469D01*
X11191301Y42326381D01*
X11148231Y42360837D01*
X11098335Y42379716D01*
X11045565Y42383601D01*
X10993871Y42373074D01*
X10947207Y42348717D01*
X10909523Y42311112D01*
X10892859Y42282417D01*
X10876941Y42226863D01*
X10875226Y42166879D01*
X10731897Y42166879D01*
X10729922Y42182795D01*
X10736210Y42249113D01*
G37*
G36*
X2929201Y44473651D02*
G01*
X2943878Y44468360D01*
X2972438Y44458431D01*
X3010150Y44445501D01*
X3036017Y44436707D01*
X3075778Y44423005D01*
X3108057Y44411449D01*
X3128656Y44403568D01*
X3133807Y44401128D01*
X3132621Y44390919D01*
X3124204Y44371572D01*
X3112391Y44350185D01*
X3101011Y44333853D01*
X3094963Y44329188D01*
X3084919Y44334879D01*
X3062986Y44350272D01*
X3032655Y44372848D01*
X3005655Y44393635D01*
X2963922Y44427213D01*
X2934897Y44452753D01*
X2919428Y44469366D01*
X2918364Y44476165D01*
X2929201Y44473651D01*
G37*
%TO.C,R1*%
X58070000Y19670000D02*
X58070000Y23510000D01*
X57150000Y18720000D02*
X57150000Y19670000D01*
X56230000Y19670000D02*
X58070000Y19670000D01*
X57150000Y24460000D02*
X57150000Y23510000D01*
X58070000Y23510000D02*
X56230000Y23510000D01*
X56230000Y23510000D02*
X56230000Y19670000D01*
%TO.C,J1A1*%
X49505000Y26630000D02*
X48175000Y26630000D01*
X50835000Y44530000D02*
X48175000Y44530000D01*
X50835000Y29230000D02*
X48175000Y29230000D01*
X50835000Y29230000D02*
X50835000Y44530000D01*
X48175000Y29230000D02*
X48175000Y44530000D01*
X48175000Y26630000D02*
X48175000Y27960000D01*
%TO.C,U5*%
X22905000Y36550000D02*
X22905000Y38200000D01*
X22905000Y38200000D02*
X2465000Y38200000D01*
X2465000Y38200000D02*
X2465000Y32900000D01*
X2465000Y32900000D02*
X22905000Y32900000D01*
X22905000Y32900000D02*
X22905000Y34550000D01*
X22905000Y36550000D02*
G75*
G03*
X22905000Y34550000I0J-1000000D01*
G01*
D12*
%TO.C,U4*%
X73162000Y45339000D02*
X73162000Y20701000D01*
D13*
X60970000Y26289000D02*
X60970000Y23749000D01*
X60970000Y21209000D02*
X63510000Y21209000D01*
D12*
X58938000Y45339000D02*
X73162000Y45339000D01*
D13*
X63510000Y21209000D02*
X71130000Y21209000D01*
D12*
X73162000Y20701000D02*
X58938000Y20701000D01*
X58938000Y20701000D02*
X58938000Y45339000D01*
D13*
X60970000Y23749000D02*
X60970000Y21209000D01*
X71130000Y26289000D02*
X60970000Y26289000D01*
X71130000Y21209000D02*
X71130000Y26289000D01*
D10*
%TO.C,U3*%
X31750000Y36830000D02*
X31750000Y45720000D01*
X26670000Y13970000D02*
X26670000Y44450000D01*
X31750000Y22860000D02*
X39370000Y22860000D01*
X26670000Y44450000D02*
X44450000Y44450000D01*
X33020000Y16510000D02*
X33020000Y20320000D01*
X33020000Y20320000D02*
X30480000Y20320000D01*
X30480000Y16510000D02*
X33020000Y16510000D01*
X44450000Y13970000D02*
X26670000Y13970000D01*
X38100000Y20320000D02*
X35560000Y20320000D01*
X39370000Y45720000D02*
X39370000Y36830000D01*
X30480000Y20320000D02*
X30480000Y16510000D01*
X34290000Y16510000D02*
X38100000Y16510000D01*
X38100000Y16510000D02*
X38100000Y20320000D01*
X35560000Y20320000D02*
X34290000Y20320000D01*
X31750000Y45720000D02*
X39370000Y45720000D01*
X34290000Y20320000D02*
X34290000Y16510000D01*
X44450000Y44450000D02*
X44450000Y13970000D01*
X39370000Y30480000D02*
X31750000Y30480000D01*
X31750000Y30480000D02*
X31750000Y22860000D01*
X39370000Y22860000D02*
X39370000Y30480000D01*
X39370000Y36830000D02*
X31750000Y36830000D01*
G36*
X37846000Y28067000D02*
G01*
X37846000Y25146000D01*
X37592000Y25146000D01*
X37592000Y27432000D01*
X36449000Y27432000D01*
X36449000Y27686000D01*
X37592000Y27686000D01*
X37592000Y28194000D01*
X37846000Y28067000D01*
G37*
D14*
X37846000Y28067000D02*
X37846000Y25146000D01*
X37592000Y25146000D01*
X37592000Y27432000D01*
X36449000Y27432000D01*
X36449000Y27686000D01*
X37592000Y27686000D01*
X37592000Y28194000D01*
X37846000Y28067000D01*
G36*
X37465000Y26289000D02*
G01*
X36449000Y26289000D01*
X36449000Y26543000D01*
X37211000Y26543000D01*
X37211000Y26670000D01*
X36449000Y26670000D01*
X36449000Y26924000D01*
X37211000Y26924000D01*
X37211000Y27051000D01*
X36449000Y27051000D01*
X36449000Y27305000D01*
X37465000Y27305000D01*
X37465000Y26289000D01*
G37*
X37465000Y26289000D02*
X36449000Y26289000D01*
X36449000Y26543000D01*
X37211000Y26543000D01*
X37211000Y26670000D01*
X36449000Y26670000D01*
X36449000Y26924000D01*
X37211000Y26924000D01*
X37211000Y27051000D01*
X36449000Y27051000D01*
X36449000Y27305000D01*
X37465000Y27305000D01*
X37465000Y26289000D01*
G36*
X37465000Y25527000D02*
G01*
X37211000Y25527000D01*
X37211000Y25908000D01*
X37084000Y25908000D01*
X37084000Y25527000D01*
X36830000Y25527000D01*
X36830000Y25908000D01*
X36703000Y25908000D01*
X36703000Y25527000D01*
X36449000Y25527000D01*
X36449000Y26162000D01*
X37465000Y26162000D01*
X37465000Y25527000D01*
G37*
X37465000Y25527000D02*
X37211000Y25527000D01*
X37211000Y25908000D01*
X37084000Y25908000D01*
X37084000Y25527000D01*
X36830000Y25527000D01*
X36830000Y25908000D01*
X36703000Y25908000D01*
X36703000Y25527000D01*
X36449000Y25527000D01*
X36449000Y26162000D01*
X37465000Y26162000D01*
X37465000Y25527000D01*
G36*
X36322000Y24765000D02*
G01*
X36068000Y24892000D01*
X36068000Y28575000D01*
X36322000Y28575000D01*
X36322000Y24765000D01*
G37*
X36322000Y24765000D02*
X36068000Y24892000D01*
X36068000Y28575000D01*
X36322000Y28575000D01*
X36322000Y24765000D01*
G36*
X37465000Y28194000D02*
G01*
X37465000Y27813000D01*
X36449000Y27813000D01*
X36449000Y28067000D01*
X37211000Y28067000D01*
X36449000Y28321000D01*
X36449000Y28575000D01*
X37465000Y28194000D01*
G37*
X37465000Y28194000D02*
X37465000Y27813000D01*
X36449000Y27813000D01*
X36449000Y28067000D01*
X37211000Y28067000D01*
X36449000Y28321000D01*
X36449000Y28575000D01*
X37465000Y28194000D01*
G36*
X37465000Y25146000D02*
G01*
X36703000Y25146000D01*
X36703000Y24638000D01*
X36449000Y24765000D01*
X36449000Y25400000D01*
X37465000Y25400000D01*
X37465000Y25146000D01*
G37*
X37465000Y25146000D02*
X36703000Y25146000D01*
X36703000Y24638000D01*
X36449000Y24765000D01*
X36449000Y25400000D01*
X37465000Y25400000D01*
X37465000Y25146000D01*
D11*
%TO.C,U1*%
X58610000Y12740000D02*
X58610000Y2500000D01*
X42720000Y12740000D02*
X42720000Y2500000D01*
X42720000Y7620000D02*
X40180000Y7620000D01*
X42720000Y10160000D02*
X40180000Y10160000D01*
X42720000Y5080000D02*
X40180000Y5080000D01*
X58610000Y12740000D02*
X42720000Y12740000D01*
X58610000Y2500000D02*
X42720000Y2500000D01*
%TO.C,U6*%
X2465000Y24240000D02*
X2465000Y18940000D01*
X22905000Y18940000D02*
X22905000Y20590000D01*
X22905000Y24240000D02*
X2465000Y24240000D01*
X22905000Y22590000D02*
X22905000Y24240000D01*
X2465000Y18940000D02*
X22905000Y18940000D01*
X22905000Y22590000D02*
G75*
G03*
X22905000Y20590000I0J-1000000D01*
G01*
%TO.C,U2*%
X9970000Y12740000D02*
X25860000Y12740000D01*
X25860000Y10160000D02*
X28400000Y10160000D01*
X25860000Y5080000D02*
X28400000Y5080000D01*
X9970000Y2500000D02*
X25860000Y2500000D01*
X9970000Y2500000D02*
X9970000Y12740000D01*
X25860000Y2500000D02*
X25860000Y12740000D01*
X25860000Y7620000D02*
X28400000Y7620000D01*
%TD*%
D15*
%TO.C,U4*%
X62240000Y22479000D03*
D16*
X62240000Y25019000D03*
X64780000Y22479000D03*
X64780000Y25019000D03*
X67320000Y22479000D03*
X67320000Y25019000D03*
X69860000Y22479000D03*
X69860000Y25019000D03*
%TD*%
%LPC*%
D17*
%TO.C,R2*%
X46990000Y25400000D03*
D18*
X46990000Y17780000D03*
%TD*%
D19*
%TO.C,D1*%
X53340000Y21590000D03*
D20*
X50800000Y21590000D03*
%TD*%
D21*
%TO.C,J4*%
X53340000Y15240000D03*
D22*
X50800000Y15240000D03*
%TD*%
D21*
%TO.C,J1B1*%
X52045000Y27960000D03*
D22*
X52045000Y30500000D03*
X52045000Y33040000D03*
X52045000Y35580000D03*
X52045000Y38120000D03*
X52045000Y40660000D03*
X52045000Y43200000D03*
%TD*%
D21*
%TO.C,J3*%
X34290000Y8890000D03*
D22*
X34290000Y6350000D03*
%TD*%
D21*
%TO.C,J2*%
X6370000Y12700000D03*
D22*
X3830000Y12700000D03*
X6370000Y10160000D03*
X3830000Y10160000D03*
X6370000Y7620000D03*
X3830000Y7620000D03*
X6370000Y5080000D03*
X3830000Y5080000D03*
%TD*%
D21*
%TO.C,J5A2*%
X72415000Y16485000D03*
D22*
X72415000Y13945000D03*
X72415000Y11405000D03*
X72415000Y8865000D03*
X72415000Y6325000D03*
X72415000Y3785000D03*
%TD*%
D21*
%TO.C,J1C1*%
X54610000Y27960000D03*
D22*
X54610000Y30500000D03*
X54610000Y33040000D03*
X54610000Y35580000D03*
X54610000Y38120000D03*
X54610000Y40660000D03*
X54610000Y43200000D03*
%TD*%
D21*
%TO.C,J5A1*%
X62230000Y16510000D03*
D22*
X62230000Y13970000D03*
X62230000Y11430000D03*
X62230000Y8890000D03*
X62230000Y6350000D03*
X62230000Y3810000D03*
%TD*%
D17*
%TO.C,R1*%
X57150000Y25400000D03*
D18*
X57150000Y17780000D03*
%TD*%
D22*
%TO.C,J1A1*%
X49505000Y43200000D03*
X49505000Y40660000D03*
X49505000Y38120000D03*
X49505000Y35580000D03*
X49505000Y33040000D03*
X49505000Y30500000D03*
D21*
X49505000Y27960000D03*
%TD*%
D23*
%TO.C,U5*%
X21575000Y39360000D03*
D24*
X19035000Y39360000D03*
X16495000Y39360000D03*
X13955000Y39360000D03*
X11415000Y39360000D03*
X8875000Y39360000D03*
X6335000Y39360000D03*
X3795000Y39360000D03*
X3795000Y31740000D03*
X6335000Y31740000D03*
X8875000Y31740000D03*
X11415000Y31740000D03*
X13955000Y31740000D03*
X16495000Y31740000D03*
X19035000Y31740000D03*
X21575000Y31740000D03*
%TD*%
D15*
%TO.C,U4*%
X62240000Y22479000D03*
D16*
X62240000Y25019000D03*
X64780000Y22479000D03*
X64780000Y25019000D03*
X67320000Y22479000D03*
X67320000Y25019000D03*
X69860000Y22479000D03*
X69860000Y25019000D03*
%TD*%
D23*
%TO.C,U3*%
X27940000Y43180000D03*
D25*
X27940000Y40640000D03*
X27940000Y38100000D03*
X27940000Y35560000D03*
X27940000Y33020000D03*
X27940000Y30480000D03*
X27940000Y27940000D03*
X27940000Y25400000D03*
X27940000Y22860000D03*
X27940000Y20320000D03*
X27940000Y17780000D03*
X27940000Y15240000D03*
X30480000Y15240000D03*
X33020000Y15240000D03*
X35560000Y15240000D03*
X38100000Y15240000D03*
X40640000Y15240000D03*
X43180000Y15240000D03*
X43180000Y17780000D03*
X43180000Y20320000D03*
X43180000Y22860000D03*
X43180000Y25400000D03*
X43180000Y27940000D03*
X43180000Y30480000D03*
X43180000Y33020000D03*
X43180000Y35560000D03*
X43180000Y38100000D03*
X43180000Y40640000D03*
X43180000Y43180000D03*
X30480000Y33020000D03*
X40640000Y33020000D03*
%TD*%
D26*
%TO.C,U1*%
X55690000Y7620000D03*
D27*
X39030000Y10160000D03*
D28*
X39030000Y7620000D03*
X39030000Y5080000D03*
%TD*%
D23*
%TO.C,U6*%
X21575000Y25400000D03*
D24*
X19035000Y25400000D03*
X16495000Y25400000D03*
X13955000Y25400000D03*
X11415000Y25400000D03*
X8875000Y25400000D03*
X6335000Y25400000D03*
X3795000Y25400000D03*
X3795000Y17780000D03*
X6335000Y17780000D03*
X8875000Y17780000D03*
X11415000Y17780000D03*
X13955000Y17780000D03*
X16495000Y17780000D03*
X19035000Y17780000D03*
X21575000Y17780000D03*
%TD*%
D26*
%TO.C,U2*%
X12890000Y7620000D03*
D27*
X29550000Y5080000D03*
D28*
X29550000Y7620000D03*
X29550000Y10160000D03*
%TD*%
M02*
