%TF.GenerationSoftware,KiCad,Pcbnew,(6.0.4)*%
%TF.CreationDate,2022-09-17T12:53:16-05:00*%
%TF.ProjectId,WaterGame,57617465-7247-4616-9d65-2e6b69636164,rev?*%
%TF.SameCoordinates,PX49e1930PY59a0560*%
%TF.FileFunction,Soldermask,Bot*%
%TF.FilePolarity,Negative*%
%FSLAX46Y46*%
G04 Gerber Fmt 4.6, Leading zero omitted, Abs format (unit mm)*
G04 Created by KiCad (PCBNEW (6.0.4)) date 2022-09-17 12:53:16*
%MOMM*%
%LPD*%
G01*
G04 APERTURE LIST*
%ADD10R,1.727200X1.727200*%
%ADD11O,1.727200X1.727200*%
%ADD12R,1.600000X1.600000*%
%ADD13O,1.600000X1.600000*%
%ADD14C,1.600000*%
%ADD15O,3.500000X3.500000*%
%ADD16R,2.000000X1.905000*%
%ADD17O,2.000000X1.905000*%
%ADD18C,1.400000*%
%ADD19O,1.400000X1.400000*%
%ADD20R,1.700000X1.700000*%
%ADD21O,1.700000X1.700000*%
G04 APERTURE END LIST*
D10*
%TO.C,U4*%
X62240000Y22479000D03*
D11*
X62240000Y25019000D03*
X64780000Y22479000D03*
X64780000Y25019000D03*
X67320000Y22479000D03*
X67320000Y25019000D03*
X69860000Y22479000D03*
X69860000Y25019000D03*
%TD*%
D12*
%TO.C,U6*%
X21575000Y25400000D03*
D13*
X19035000Y25400000D03*
X16495000Y25400000D03*
X13955000Y25400000D03*
X11415000Y25400000D03*
X8875000Y25400000D03*
X6335000Y25400000D03*
X3795000Y25400000D03*
X3795000Y17780000D03*
X6335000Y17780000D03*
X8875000Y17780000D03*
X11415000Y17780000D03*
X13955000Y17780000D03*
X16495000Y17780000D03*
X19035000Y17780000D03*
X21575000Y17780000D03*
%TD*%
D12*
%TO.C,U5*%
X21575000Y39360000D03*
D13*
X19035000Y39360000D03*
X16495000Y39360000D03*
X13955000Y39360000D03*
X11415000Y39360000D03*
X8875000Y39360000D03*
X6335000Y39360000D03*
X3795000Y39360000D03*
X3795000Y31740000D03*
X6335000Y31740000D03*
X8875000Y31740000D03*
X11415000Y31740000D03*
X13955000Y31740000D03*
X16495000Y31740000D03*
X19035000Y31740000D03*
X21575000Y31740000D03*
%TD*%
D14*
%TO.C,U3*%
X40640000Y33020000D03*
X30480000Y33020000D03*
X43180000Y43180000D03*
X43180000Y40640000D03*
X43180000Y38100000D03*
X43180000Y35560000D03*
X43180000Y33020000D03*
X43180000Y30480000D03*
X43180000Y27940000D03*
X43180000Y25400000D03*
X43180000Y22860000D03*
X43180000Y20320000D03*
X43180000Y17780000D03*
X43180000Y15240000D03*
X40640000Y15240000D03*
X38100000Y15240000D03*
X33020000Y15240000D03*
X30480000Y15240000D03*
X27940000Y15240000D03*
X27940000Y17780000D03*
X27940000Y20320000D03*
X27940000Y22860000D03*
X27940000Y25400000D03*
X27940000Y27940000D03*
X27940000Y30480000D03*
X27940000Y33020000D03*
X27940000Y35560000D03*
X27940000Y38100000D03*
X27940000Y40640000D03*
D12*
X27940000Y43180000D03*
D14*
X35560000Y15240000D03*
%TD*%
D15*
%TO.C,U2*%
X12890000Y7620000D03*
D16*
X29550000Y5080000D03*
D17*
X29550000Y7620000D03*
X29550000Y10160000D03*
%TD*%
D15*
%TO.C,U1*%
X55690000Y7620000D03*
D16*
X39030000Y10160000D03*
D17*
X39030000Y7620000D03*
X39030000Y5080000D03*
%TD*%
D18*
%TO.C,R1*%
X55880000Y19050000D03*
D19*
X48260000Y19050000D03*
%TD*%
D20*
%TO.C,J5A2*%
X72415000Y16485000D03*
D21*
X72415000Y13945000D03*
X72415000Y11405000D03*
X72415000Y8865000D03*
X72415000Y6325000D03*
X72415000Y3785000D03*
%TD*%
%TO.C,J5A1*%
X62230000Y3810000D03*
X62230000Y6350000D03*
X62230000Y8890000D03*
X62230000Y11430000D03*
X62230000Y13970000D03*
D20*
X62230000Y16510000D03*
%TD*%
%TO.C,J4*%
X53340000Y15240000D03*
D21*
X50800000Y15240000D03*
%TD*%
%TO.C,J3*%
X34290000Y6350000D03*
D20*
X34290000Y8890000D03*
%TD*%
%TO.C,J2*%
X6370000Y12700000D03*
D21*
X3830000Y12700000D03*
X6370000Y10160000D03*
X3830000Y10160000D03*
X6370000Y7620000D03*
X3830000Y7620000D03*
X6370000Y5080000D03*
X3830000Y5080000D03*
%TD*%
D20*
%TO.C,J1C1*%
X54585000Y22880000D03*
D21*
X54585000Y25420000D03*
X54585000Y27960000D03*
X54585000Y30500000D03*
X54585000Y33040000D03*
X54585000Y35580000D03*
X54585000Y38120000D03*
%TD*%
%TO.C,J1B1*%
X52070000Y38100000D03*
X52070000Y35560000D03*
X52070000Y33020000D03*
X52070000Y30480000D03*
X52070000Y27940000D03*
X52070000Y25400000D03*
D20*
X52070000Y22860000D03*
%TD*%
%TO.C,J1A1*%
X49530000Y22860000D03*
D21*
X49530000Y25400000D03*
X49530000Y27940000D03*
X49530000Y30480000D03*
X49530000Y33020000D03*
X49530000Y35560000D03*
X49530000Y38100000D03*
%TD*%
M02*
