%TF.GenerationSoftware,KiCad,Pcbnew,(6.0.4)*%
%TF.CreationDate,2022-09-17T12:00:04-05:00*%
%TF.ProjectId,WaterGame,57617465-7247-4616-9d65-2e6b69636164,rev?*%
%TF.SameCoordinates,Original*%
%TF.FileFunction,Copper,L1,Top*%
%TF.FilePolarity,Positive*%
%FSLAX46Y46*%
G04 Gerber Fmt 4.6, Leading zero omitted, Abs format (unit mm)*
G04 Created by KiCad (PCBNEW (6.0.4)) date 2022-09-17 12:00:04*
%MOMM*%
%LPD*%
G01*
G04 APERTURE LIST*
%TA.AperFunction,ComponentPad*%
%ADD10R,1.727200X1.727200*%
%TD*%
%TA.AperFunction,ComponentPad*%
%ADD11O,1.727200X1.727200*%
%TD*%
%TA.AperFunction,ComponentPad*%
%ADD12R,1.600000X1.600000*%
%TD*%
%TA.AperFunction,ComponentPad*%
%ADD13O,1.600000X1.600000*%
%TD*%
%TA.AperFunction,ComponentPad*%
%ADD14C,1.600000*%
%TD*%
%TA.AperFunction,ComponentPad*%
%ADD15R,2.000000X1.905000*%
%TD*%
%TA.AperFunction,ComponentPad*%
%ADD16O,2.000000X1.905000*%
%TD*%
%TA.AperFunction,ComponentPad*%
%ADD17C,1.400000*%
%TD*%
%TA.AperFunction,ComponentPad*%
%ADD18O,1.400000X1.400000*%
%TD*%
%TA.AperFunction,ComponentPad*%
%ADD19R,1.700000X1.700000*%
%TD*%
%TA.AperFunction,ComponentPad*%
%ADD20O,1.700000X1.700000*%
%TD*%
%TA.AperFunction,ViaPad*%
%ADD21C,0.800000*%
%TD*%
%TA.AperFunction,Conductor*%
%ADD22C,0.250000*%
%TD*%
%TA.AperFunction,Conductor*%
%ADD23C,0.500000*%
%TD*%
G04 APERTURE END LIST*
D10*
%TO.P,U4,1,UTXD*%
%TO.N,Net-(J5A2-Pad6)*%
X139710000Y-71501000D03*
D11*
%TO.P,U4,2,GND*%
%TO.N,Net-(J1C1-Pad7)*%
X139710000Y-68961000D03*
%TO.P,U4,3,CH_PD*%
%TO.N,Net-(J5A2-Pad4)*%
X142250000Y-71501000D03*
%TO.P,U4,4,GPIO2*%
%TO.N,unconnected-(U4-Pad4)*%
X142250000Y-68961000D03*
%TO.P,U4,5,RST*%
%TO.N,Net-(J5A2-Pad4)*%
X144790000Y-71501000D03*
%TO.P,U4,6,GPIO0*%
%TO.N,Net-(J4-Pad1)*%
X144790000Y-68961000D03*
%TO.P,U4,7,VCC*%
%TO.N,Net-(J5A2-Pad4)*%
X147330000Y-71501000D03*
%TO.P,U4,8,URXD*%
%TO.N,Net-(J5A2-Pad5)*%
X147330000Y-68961000D03*
%TD*%
D12*
%TO.P,U6,1,EN1\u002C2*%
%TO.N,Net-(U3-Pad19)*%
X99045000Y-68580000D03*
D13*
%TO.P,U6,2,1A*%
%TO.N,Net-(U3-Pad11)*%
X96505000Y-68580000D03*
%TO.P,U6,3,1Y*%
%TO.N,Net-(U6-Pad3)*%
X93965000Y-68580000D03*
%TO.P,U6,4,GND*%
%TO.N,Net-(J1C1-Pad7)*%
X91425000Y-68580000D03*
%TO.P,U6,5,GND*%
X88885000Y-68580000D03*
%TO.P,U6,6,2Y*%
%TO.N,Net-(U6-Pad6)*%
X86345000Y-68580000D03*
%TO.P,U6,7,2A*%
%TO.N,Net-(U3-Pad8)*%
X83805000Y-68580000D03*
%TO.P,U6,8,VCC2*%
%TO.N,Net-(J3-Pad1)*%
X81265000Y-68580000D03*
%TO.P,U6,9,EN3\u002C4*%
%TO.N,Net-(U3-Pad28)*%
X81265000Y-76200000D03*
%TO.P,U6,10,3A*%
%TO.N,Net-(U3-Pad12)*%
X83805000Y-76200000D03*
%TO.P,U6,11,3Y*%
%TO.N,Net-(U6-Pad11)*%
X86345000Y-76200000D03*
%TO.P,U6,12,GND*%
%TO.N,Net-(J1C1-Pad7)*%
X88885000Y-76200000D03*
%TO.P,U6,13,GND*%
X91425000Y-76200000D03*
%TO.P,U6,14,4Y*%
%TO.N,Net-(U6-Pad14)*%
X93965000Y-76200000D03*
%TO.P,U6,15,4A*%
%TO.N,Net-(U3-Pad20)*%
X96505000Y-76200000D03*
%TO.P,U6,16,VCC1*%
%TO.N,Net-(J1B1-Pad1)*%
X99045000Y-76200000D03*
%TD*%
D12*
%TO.P,U5,1,EN1\u002C2*%
%TO.N,Net-(U3-Pad2)*%
X99045000Y-54620000D03*
D13*
%TO.P,U5,2,1A*%
%TO.N,Net-(U3-Pad6)*%
X96505000Y-54620000D03*
%TO.P,U5,3,1Y*%
%TO.N,Net-(J2-Pad5)*%
X93965000Y-54620000D03*
%TO.P,U5,4,GND*%
%TO.N,Net-(J1C1-Pad7)*%
X91425000Y-54620000D03*
%TO.P,U5,5,GND*%
X88885000Y-54620000D03*
%TO.P,U5,6,2Y*%
%TO.N,Net-(U5-Pad6)*%
X86345000Y-54620000D03*
%TO.P,U5,7,2A*%
%TO.N,Net-(U3-Pad4)*%
X83805000Y-54620000D03*
%TO.P,U5,8,VCC2*%
%TO.N,Net-(J3-Pad1)*%
X81265000Y-54620000D03*
%TO.P,U5,9,EN3\u002C4*%
%TO.N,Net-(U3-Pad3)*%
X81265000Y-62240000D03*
%TO.P,U5,10,3A*%
%TO.N,Net-(U3-Pad7)*%
X83805000Y-62240000D03*
%TO.P,U5,11,3Y*%
%TO.N,Net-(J2-Pad7)*%
X86345000Y-62240000D03*
%TO.P,U5,12,GND*%
%TO.N,Net-(J1C1-Pad7)*%
X88885000Y-62240000D03*
%TO.P,U5,13,GND*%
X91425000Y-62240000D03*
%TO.P,U5,14,4Y*%
%TO.N,Net-(J2-Pad8)*%
X93965000Y-62240000D03*
%TO.P,U5,15,4A*%
%TO.N,Net-(U3-Pad5)*%
X96505000Y-62240000D03*
%TO.P,U5,16,VCC1*%
%TO.N,Net-(J1B1-Pad1)*%
X99045000Y-62240000D03*
%TD*%
D14*
%TO.P,U3,31,AREF*%
%TO.N,unconnected-(U3-Pad31)*%
X118110000Y-60960000D03*
%TO.P,U3,30,24*%
%TO.N,unconnected-(U3-Pad30)*%
X107950000Y-60960000D03*
%TO.P,U3,29,+5V*%
%TO.N,Net-(J1B1-Pad1)*%
X120650000Y-50800000D03*
%TO.P,U3,28,21_A0*%
%TO.N,Net-(U3-Pad28)*%
X120650000Y-53340000D03*
%TO.P,U3,27,20_A1*%
%TO.N,Net-(J1A1-Pad7)*%
X120650000Y-55880000D03*
%TO.P,U3,26,19_A2*%
%TO.N,Net-(J1A1-Pad6)*%
X120650000Y-58420000D03*
%TO.P,U3,25,18_A3*%
%TO.N,Net-(J1A1-Pad5)*%
X120650000Y-60960000D03*
%TO.P,U3,24,17_A4*%
%TO.N,Net-(J1A1-Pad4)*%
X120650000Y-63500000D03*
%TO.P,U3,23,16_A5*%
%TO.N,Net-(J1A1-Pad3)*%
X120650000Y-66040000D03*
%TO.P,U3,22,15_A6_PWM*%
%TO.N,Net-(J1A1-Pad2)*%
X120650000Y-68580000D03*
%TO.P,U3,21,14_A7_PWM*%
%TO.N,Net-(J1A1-Pad1)*%
X120650000Y-71120000D03*
%TO.P,U3,20,13_A8*%
%TO.N,Net-(U3-Pad20)*%
X120650000Y-73660000D03*
%TO.P,U3,19,12_A9_PWM*%
%TO.N,Net-(U3-Pad19)*%
X120650000Y-76200000D03*
%TO.P,U3,18,11_A10_LED*%
%TO.N,unconnected-(U3-Pad18)*%
X120650000Y-78740000D03*
%TO.P,U3,17,22_A11*%
%TO.N,unconnected-(U3-Pad17)*%
X118110000Y-78740000D03*
%TO.P,U3,16,RST*%
%TO.N,unconnected-(U3-Pad16)*%
X115570000Y-78740000D03*
%TO.P,U3,14,+5V*%
%TO.N,unconnected-(U3-Pad14)*%
X110490000Y-78740000D03*
%TO.P,U3,13,23*%
%TO.N,unconnected-(U3-Pad13)*%
X107950000Y-78740000D03*
%TO.P,U3,12,10_PWM*%
%TO.N,Net-(U3-Pad12)*%
X105410000Y-78740000D03*
%TO.P,U3,11,9_PWM*%
%TO.N,Net-(U3-Pad11)*%
X105410000Y-76200000D03*
%TO.P,U3,10,8_INT3_TX*%
%TO.N,Net-(J5A1-Pad5)*%
X105410000Y-73660000D03*
%TO.P,U3,9,7_INT2_RX*%
%TO.N,Net-(J5A1-Pad6)*%
X105410000Y-71120000D03*
%TO.P,U3,8,6_INT1*%
%TO.N,Net-(U3-Pad8)*%
X105410000Y-68580000D03*
%TO.P,U3,7,5_INT0_PWM*%
%TO.N,Net-(U3-Pad7)*%
X105410000Y-66040000D03*
%TO.P,U3,6,4_PWM*%
%TO.N,Net-(U3-Pad6)*%
X105410000Y-63500000D03*
%TO.P,U3,5,3*%
%TO.N,Net-(U3-Pad5)*%
X105410000Y-60960000D03*
%TO.P,U3,4,2*%
%TO.N,Net-(U3-Pad4)*%
X105410000Y-58420000D03*
%TO.P,U3,3,1*%
%TO.N,Net-(U3-Pad3)*%
X105410000Y-55880000D03*
%TO.P,U3,2,0*%
%TO.N,Net-(U3-Pad2)*%
X105410000Y-53340000D03*
D12*
%TO.P,U3,1,GND*%
%TO.N,Net-(J1C1-Pad7)*%
X105410000Y-50800000D03*
D14*
%TO.P,U3,15,GND*%
%TO.N,unconnected-(U3-Pad15)*%
X113030000Y-78740000D03*
%TD*%
D15*
%TO.P,U2,1,VI*%
%TO.N,Net-(J1C1-Pad7)*%
X107020000Y-88900000D03*
D16*
%TO.P,U2,2,GND*%
%TO.N,Net-(J5A2-Pad4)*%
X107020000Y-86360000D03*
%TO.P,U2,3,VO*%
%TO.N,Net-(J3-Pad1)*%
X107020000Y-83820000D03*
%TD*%
D15*
%TO.P,U1,1,VI*%
%TO.N,Net-(J3-Pad1)*%
X116500000Y-83820000D03*
D16*
%TO.P,U1,2,GND*%
%TO.N,Net-(J1C1-Pad7)*%
X116500000Y-86360000D03*
%TO.P,U1,3,VO*%
%TO.N,Net-(J1B1-Pad1)*%
X116500000Y-88900000D03*
%TD*%
D17*
%TO.P,R1,1*%
%TO.N,Net-(J5A2-Pad5)*%
X133350000Y-74930000D03*
D18*
%TO.P,R1,2*%
%TO.N,Net-(J5A2-Pad4)*%
X125730000Y-74930000D03*
%TD*%
D19*
%TO.P,J5A2,1,Pin_1*%
%TO.N,unconnected-(J5A2-Pad1)*%
X149885000Y-77495000D03*
D20*
%TO.P,J5A2,2,Pin_2*%
%TO.N,unconnected-(J5A2-Pad2)*%
X149885000Y-80035000D03*
%TO.P,J5A2,3,Pin_3*%
%TO.N,Net-(J1C1-Pad7)*%
X149885000Y-82575000D03*
%TO.P,J5A2,4,Pin_4*%
%TO.N,Net-(J5A2-Pad4)*%
X149885000Y-85115000D03*
%TO.P,J5A2,5,Pin_5*%
%TO.N,Net-(J5A2-Pad5)*%
X149885000Y-87655000D03*
%TO.P,J5A2,6,Pin_6*%
%TO.N,Net-(J5A2-Pad6)*%
X149885000Y-90195000D03*
%TD*%
%TO.P,J5A1,6,Pin_6*%
%TO.N,Net-(J5A1-Pad6)*%
X139700000Y-90170000D03*
%TO.P,J5A1,5,Pin_5*%
%TO.N,Net-(J5A1-Pad5)*%
X139700000Y-87630000D03*
%TO.P,J5A1,4,Pin_4*%
%TO.N,Net-(J1B1-Pad1)*%
X139700000Y-85090000D03*
%TO.P,J5A1,3,Pin_3*%
%TO.N,Net-(J1C1-Pad7)*%
X139700000Y-82550000D03*
%TO.P,J5A1,2,Pin_2*%
%TO.N,unconnected-(J5A1-Pad2)*%
X139700000Y-80010000D03*
D19*
%TO.P,J5A1,1,Pin_1*%
%TO.N,unconnected-(J5A1-Pad1)*%
X139700000Y-77470000D03*
%TD*%
%TO.P,J4,1,Pin_1*%
%TO.N,Net-(J4-Pad1)*%
X130810000Y-78740000D03*
D20*
%TO.P,J4,2,Pin_2*%
%TO.N,Net-(J1C1-Pad7)*%
X128270000Y-78740000D03*
%TD*%
%TO.P,J3,2,Pin_2*%
%TO.N,Net-(J1C1-Pad7)*%
X111760000Y-87630000D03*
D19*
%TO.P,J3,1,Pin_1*%
%TO.N,Net-(J3-Pad1)*%
X111760000Y-85090000D03*
%TD*%
%TO.P,J2,1,Pin_1*%
%TO.N,Net-(U6-Pad3)*%
X83840000Y-81280000D03*
D20*
%TO.P,J2,2,Pin_2*%
%TO.N,Net-(U6-Pad6)*%
X81300000Y-81280000D03*
%TO.P,J2,3,Pin_3*%
%TO.N,Net-(U6-Pad11)*%
X83840000Y-83820000D03*
%TO.P,J2,4,Pin_4*%
%TO.N,Net-(U6-Pad14)*%
X81300000Y-83820000D03*
%TO.P,J2,5,Pin_5*%
%TO.N,Net-(J2-Pad5)*%
X83840000Y-86360000D03*
%TO.P,J2,6,Pin_6*%
%TO.N,Net-(U5-Pad6)*%
X81300000Y-86360000D03*
%TO.P,J2,7,Pin_7*%
%TO.N,Net-(J2-Pad7)*%
X83840000Y-88900000D03*
%TO.P,J2,8,Pin_8*%
%TO.N,Net-(J2-Pad8)*%
X81300000Y-88900000D03*
%TD*%
D19*
%TO.P,J1C1,1,Pin_1*%
%TO.N,Net-(J1C1-Pad7)*%
X132055000Y-71100000D03*
D20*
%TO.P,J1C1,2,Pin_2*%
X132055000Y-68560000D03*
%TO.P,J1C1,3,Pin_3*%
X132055000Y-66020000D03*
%TO.P,J1C1,4,Pin_4*%
X132055000Y-63480000D03*
%TO.P,J1C1,5,Pin_5*%
X132055000Y-60940000D03*
%TO.P,J1C1,6,Pin_6*%
X132055000Y-58400000D03*
%TO.P,J1C1,7,Pin_7*%
X132055000Y-55860000D03*
%TD*%
%TO.P,J1B1,7,Pin_7*%
%TO.N,Net-(J1B1-Pad1)*%
X129540000Y-55880000D03*
%TO.P,J1B1,6,Pin_6*%
X129540000Y-58420000D03*
%TO.P,J1B1,5,Pin_5*%
X129540000Y-60960000D03*
%TO.P,J1B1,4,Pin_4*%
X129540000Y-63500000D03*
%TO.P,J1B1,3,Pin_3*%
X129540000Y-66040000D03*
%TO.P,J1B1,2,Pin_2*%
X129540000Y-68580000D03*
D19*
%TO.P,J1B1,1,Pin_1*%
X129540000Y-71120000D03*
%TD*%
%TO.P,J1A1,1,Pin_1*%
%TO.N,Net-(J1A1-Pad1)*%
X127000000Y-71120000D03*
D20*
%TO.P,J1A1,2,Pin_2*%
%TO.N,Net-(J1A1-Pad2)*%
X127000000Y-68580000D03*
%TO.P,J1A1,3,Pin_3*%
%TO.N,Net-(J1A1-Pad3)*%
X127000000Y-66040000D03*
%TO.P,J1A1,4,Pin_4*%
%TO.N,Net-(J1A1-Pad4)*%
X127000000Y-63500000D03*
%TO.P,J1A1,5,Pin_5*%
%TO.N,Net-(J1A1-Pad5)*%
X127000000Y-60960000D03*
%TO.P,J1A1,6,Pin_6*%
%TO.N,Net-(J1A1-Pad6)*%
X127000000Y-58420000D03*
%TO.P,J1A1,7,Pin_7*%
%TO.N,Net-(J1A1-Pad7)*%
X127000000Y-55880000D03*
%TD*%
D21*
%TO.N,Net-(J5A1-Pad6)*%
X121920000Y-81280000D03*
%TO.N,Net-(J5A1-Pad5)*%
X121872701Y-82502701D03*
%TD*%
D22*
%TO.N,Net-(U3-Pad2)*%
X100325000Y-53340000D02*
X99045000Y-54620000D01*
X105410000Y-53340000D02*
X100325000Y-53340000D01*
D23*
%TO.N,Net-(J3-Pad1)*%
X109220000Y-87630000D02*
X111760000Y-85090000D01*
X109220000Y-89551522D02*
X109220000Y-87630000D01*
X80142011Y-90302011D02*
X108469511Y-90302011D01*
X108469511Y-90302011D02*
X109220000Y-89551522D01*
X79300969Y-89460969D02*
X80142011Y-90302011D01*
X81265000Y-68580000D02*
X79300969Y-70544031D01*
X79300969Y-70544031D02*
X79300969Y-89460969D01*
%TO.N,Net-(J2-Pad7)*%
X87594511Y-63489511D02*
X87594511Y-85145489D01*
X87594511Y-85145489D02*
X83840000Y-88900000D01*
X86345000Y-62240000D02*
X87594511Y-63489511D01*
%TO.N,Net-(U6-Pad11)*%
X86345000Y-81315000D02*
X83840000Y-83820000D01*
X86345000Y-76200000D02*
X86345000Y-81315000D01*
%TO.N,Net-(U6-Pad6)*%
X82550000Y-75687924D02*
X82550000Y-80030000D01*
X82550000Y-80030000D02*
X81300000Y-81280000D01*
X86345000Y-71892924D02*
X82550000Y-75687924D01*
X86345000Y-68580000D02*
X86345000Y-71892924D01*
%TO.N,Net-(U5-Pad6)*%
X80000489Y-74939511D02*
X80000489Y-85060489D01*
X82514511Y-72425489D02*
X80000489Y-74939511D01*
X82514511Y-58450489D02*
X82514511Y-72425489D01*
X80000489Y-85060489D02*
X81300000Y-86360000D01*
X86345000Y-54620000D02*
X82514511Y-58450489D01*
%TO.N,Net-(J1C1-Pad7)*%
X91425000Y-76200000D02*
X91425000Y-68580000D01*
X95245000Y-50800000D02*
X91425000Y-54620000D01*
X105410000Y-50800000D02*
X95245000Y-50800000D01*
%TO.N,Net-(J3-Pad1)*%
X81265000Y-66025000D02*
X81265000Y-68580000D01*
X80010000Y-64770000D02*
X81265000Y-66025000D01*
X80010000Y-55875000D02*
X80010000Y-64770000D01*
X81265000Y-54620000D02*
X80010000Y-55875000D01*
%TO.N,Net-(U3-Pad2)*%
X99045000Y-54595000D02*
X99045000Y-54620000D01*
%TO.N,Net-(J1C1-Pad7)*%
X91425000Y-54620000D02*
X88885000Y-54620000D01*
X91425000Y-55865000D02*
X91425000Y-54620000D01*
X91440000Y-55880000D02*
X91425000Y-55865000D01*
X91425000Y-55895000D02*
X91440000Y-55880000D01*
X91425000Y-62240000D02*
X91425000Y-55895000D01*
X91425000Y-62240000D02*
X88885000Y-62240000D01*
X91425000Y-68580000D02*
X91425000Y-62240000D01*
X91425000Y-68580000D02*
X88885000Y-68580000D01*
X91425000Y-76200000D02*
X88885000Y-76200000D01*
X104125000Y-88900000D02*
X91425000Y-76200000D01*
X107020000Y-88900000D02*
X104125000Y-88900000D01*
%TO.N,Net-(J1B1-Pad1)*%
X100294511Y-63489511D02*
X99045000Y-62240000D01*
X100294511Y-74950489D02*
X100294511Y-63489511D01*
X99045000Y-76200000D02*
X100294511Y-74950489D01*
X102855000Y-80010000D02*
X99045000Y-76200000D01*
X109279022Y-80010000D02*
X102855000Y-80010000D01*
X115050480Y-85781458D02*
X109279022Y-80010000D01*
X115050480Y-87450480D02*
X115050480Y-85781458D01*
X116500000Y-88900000D02*
X115050480Y-87450480D01*
%TO.N,Net-(J1C1-Pad7)*%
X132080000Y-82550000D02*
X128270000Y-78740000D01*
X139700000Y-82550000D02*
X132080000Y-82550000D01*
X149885000Y-82575000D02*
X139725000Y-82575000D01*
X139725000Y-82575000D02*
X139700000Y-82550000D01*
%TO.N,Net-(J5A2-Pad4)*%
X144790000Y-71501000D02*
X147330000Y-71501000D01*
X142250000Y-71501000D02*
X144790000Y-71501000D01*
%TO.N,Net-(J1C1-Pad7)*%
X132055000Y-58400000D02*
X132055000Y-55860000D01*
X132055000Y-60940000D02*
X132055000Y-58400000D01*
X132055000Y-63480000D02*
X132055000Y-60940000D01*
X132055000Y-66020000D02*
X132055000Y-63480000D01*
X132055000Y-68560000D02*
X132055000Y-66020000D01*
X139309000Y-68560000D02*
X139710000Y-68961000D01*
X132055000Y-68560000D02*
X139309000Y-68560000D01*
X132055000Y-71100000D02*
X132055000Y-68560000D01*
X128270000Y-74885000D02*
X132055000Y-71100000D01*
X128270000Y-78740000D02*
X128270000Y-74885000D01*
%TO.N,Net-(J1B1-Pad1)*%
X124460000Y-50800000D02*
X129540000Y-55880000D01*
X120650000Y-50800000D02*
X124460000Y-50800000D01*
X129540000Y-63500000D02*
X129540000Y-60960000D01*
X129540000Y-58420000D02*
X129540000Y-60960000D01*
X129540000Y-55880000D02*
X129540000Y-58420000D01*
X129540000Y-66040000D02*
X129540000Y-63500000D01*
X129540000Y-68580000D02*
X129540000Y-66040000D01*
X129540000Y-71120000D02*
X129540000Y-68580000D01*
X138225000Y-83615000D02*
X123190000Y-83615000D01*
X139700000Y-85090000D02*
X138225000Y-83615000D01*
X128240489Y-72419511D02*
X129540000Y-71120000D01*
X125700489Y-72419511D02*
X128240489Y-72419511D01*
X123190000Y-74930000D02*
X125700489Y-72419511D01*
X123190000Y-83615000D02*
X123190000Y-74930000D01*
X117905000Y-88900000D02*
X123190000Y-83615000D01*
X116500000Y-88900000D02*
X117905000Y-88900000D01*
D22*
%TO.N,Net-(J5A1-Pad6)*%
X121920000Y-78049011D02*
X121920000Y-81280000D01*
X121195500Y-77324511D02*
X121920000Y-78049011D01*
X120184211Y-77324511D02*
X121195500Y-77324511D01*
X113979700Y-71120000D02*
X120184211Y-77324511D01*
X105410000Y-71120000D02*
X113979700Y-71120000D01*
%TO.N,Net-(J5A1-Pad5)*%
X119234511Y-79864511D02*
X121872701Y-82502701D01*
X119234511Y-78274211D02*
X119234511Y-79864511D01*
X114620300Y-73660000D02*
X119234511Y-78274211D01*
X105410000Y-73660000D02*
X114620300Y-73660000D01*
%TO.N,Net-(J5A2-Pad5)*%
X149860000Y-74930000D02*
X151059511Y-73730489D01*
X133350000Y-74930000D02*
X149860000Y-74930000D01*
X151059511Y-73730489D02*
X151059511Y-86480489D01*
X151059511Y-72690511D02*
X151059511Y-73730489D01*
%TO.N,Net-(J4-Pad1)*%
X136682011Y-70149111D02*
X130810000Y-76021122D01*
X130810000Y-76021122D02*
X130810000Y-78740000D01*
X143601889Y-70149111D02*
X136682011Y-70149111D01*
X144790000Y-68961000D02*
X143601889Y-70149111D01*
%TO.N,Net-(J5A2-Pad5)*%
X151059511Y-86480489D02*
X149885000Y-87655000D01*
X147330000Y-68961000D02*
X151059511Y-72690511D01*
%TO.N,Net-(U3-Pad5)*%
X99510789Y-61115489D02*
X97629511Y-61115489D01*
X103165300Y-64770000D02*
X99510789Y-61115489D01*
X105730300Y-64770000D02*
X103165300Y-64770000D01*
X106534511Y-63965789D02*
X105730300Y-64770000D01*
X97629511Y-61115489D02*
X96505000Y-62240000D01*
X105410000Y-60960000D02*
X106534511Y-62084511D01*
X106534511Y-62084511D02*
X106534511Y-63965789D01*
%TO.N,Net-(U3-Pad6)*%
X105385000Y-63500000D02*
X105410000Y-63500000D01*
X96505000Y-54620000D02*
X105385000Y-63500000D01*
%TO.N,Net-(J1A1-Pad1)*%
X120650000Y-71120000D02*
X127000000Y-71120000D01*
%TO.N,Net-(J1A1-Pad2)*%
X127000000Y-68580000D02*
X120650000Y-68580000D01*
%TO.N,Net-(J1A1-Pad3)*%
X120650000Y-66040000D02*
X127000000Y-66040000D01*
%TO.N,Net-(J1A1-Pad4)*%
X127000000Y-63500000D02*
X120650000Y-63500000D01*
%TO.N,Net-(J1A1-Pad5)*%
X120650000Y-60960000D02*
X127000000Y-60960000D01*
%TO.N,Net-(J1A1-Pad6)*%
X127000000Y-58420000D02*
X120650000Y-58420000D01*
%TO.N,Net-(J1A1-Pad7)*%
X120650000Y-55880000D02*
X127000000Y-55880000D01*
%TD*%
M02*
