%TF.GenerationSoftware,KiCad,Pcbnew,(6.0.4)*%
%TF.CreationDate,2022-09-17T12:53:16-05:00*%
%TF.ProjectId,WaterGame,57617465-7247-4616-9d65-2e6b69636164,rev?*%
%TF.SameCoordinates,PX49e1930PY59a0560*%
%TF.FileFunction,Copper,L2,Bot*%
%TF.FilePolarity,Positive*%
%FSLAX46Y46*%
G04 Gerber Fmt 4.6, Leading zero omitted, Abs format (unit mm)*
G04 Created by KiCad (PCBNEW (6.0.4)) date 2022-09-17 12:53:16*
%MOMM*%
%LPD*%
G01*
G04 APERTURE LIST*
%TA.AperFunction,ComponentPad*%
%ADD10R,1.727200X1.727200*%
%TD*%
%TA.AperFunction,ComponentPad*%
%ADD11O,1.727200X1.727200*%
%TD*%
%TA.AperFunction,ComponentPad*%
%ADD12R,1.600000X1.600000*%
%TD*%
%TA.AperFunction,ComponentPad*%
%ADD13O,1.600000X1.600000*%
%TD*%
%TA.AperFunction,ComponentPad*%
%ADD14C,1.600000*%
%TD*%
%TA.AperFunction,ComponentPad*%
%ADD15R,2.000000X1.905000*%
%TD*%
%TA.AperFunction,ComponentPad*%
%ADD16O,2.000000X1.905000*%
%TD*%
%TA.AperFunction,ComponentPad*%
%ADD17C,1.400000*%
%TD*%
%TA.AperFunction,ComponentPad*%
%ADD18O,1.400000X1.400000*%
%TD*%
%TA.AperFunction,ComponentPad*%
%ADD19R,1.700000X1.700000*%
%TD*%
%TA.AperFunction,ComponentPad*%
%ADD20O,1.700000X1.700000*%
%TD*%
%TA.AperFunction,ViaPad*%
%ADD21C,0.800000*%
%TD*%
%TA.AperFunction,Conductor*%
%ADD22C,0.400000*%
%TD*%
%TA.AperFunction,Conductor*%
%ADD23C,0.500000*%
%TD*%
%TA.AperFunction,Conductor*%
%ADD24C,0.250000*%
%TD*%
G04 APERTURE END LIST*
D10*
%TO.P,U4,1,UTXD*%
%TO.N,Net-(J5A2-Pad6)*%
X62240000Y22479000D03*
D11*
%TO.P,U4,2,GND*%
%TO.N,Net-(J1C1-Pad7)*%
X62240000Y25019000D03*
%TO.P,U4,3,CH_PD*%
%TO.N,Net-(J5A2-Pad4)*%
X64780000Y22479000D03*
%TO.P,U4,4,GPIO2*%
%TO.N,unconnected-(U4-Pad4)*%
X64780000Y25019000D03*
%TO.P,U4,5,RST*%
%TO.N,Net-(J5A2-Pad4)*%
X67320000Y22479000D03*
%TO.P,U4,6,GPIO0*%
%TO.N,Net-(J4-Pad1)*%
X67320000Y25019000D03*
%TO.P,U4,7,VCC*%
%TO.N,Net-(J5A2-Pad4)*%
X69860000Y22479000D03*
%TO.P,U4,8,URXD*%
%TO.N,Net-(J5A2-Pad5)*%
X69860000Y25019000D03*
%TD*%
D12*
%TO.P,U6,1,EN1\u002C2*%
%TO.N,Net-(U3-Pad19)*%
X21575000Y25400000D03*
D13*
%TO.P,U6,2,1A*%
%TO.N,Net-(U3-Pad11)*%
X19035000Y25400000D03*
%TO.P,U6,3,1Y*%
%TO.N,Net-(U6-Pad3)*%
X16495000Y25400000D03*
%TO.P,U6,4,GND*%
%TO.N,Net-(J1C1-Pad7)*%
X13955000Y25400000D03*
%TO.P,U6,5,GND*%
X11415000Y25400000D03*
%TO.P,U6,6,2Y*%
%TO.N,Net-(U6-Pad6)*%
X8875000Y25400000D03*
%TO.P,U6,7,2A*%
%TO.N,Net-(U3-Pad8)*%
X6335000Y25400000D03*
%TO.P,U6,8,VCC2*%
%TO.N,Net-(J3-Pad1)*%
X3795000Y25400000D03*
%TO.P,U6,9,EN3\u002C4*%
%TO.N,Net-(U3-Pad28)*%
X3795000Y17780000D03*
%TO.P,U6,10,3A*%
%TO.N,Net-(U3-Pad12)*%
X6335000Y17780000D03*
%TO.P,U6,11,3Y*%
%TO.N,Net-(U6-Pad11)*%
X8875000Y17780000D03*
%TO.P,U6,12,GND*%
%TO.N,Net-(J1C1-Pad7)*%
X11415000Y17780000D03*
%TO.P,U6,13,GND*%
X13955000Y17780000D03*
%TO.P,U6,14,4Y*%
%TO.N,Net-(U6-Pad14)*%
X16495000Y17780000D03*
%TO.P,U6,15,4A*%
%TO.N,Net-(U3-Pad20)*%
X19035000Y17780000D03*
%TO.P,U6,16,VCC1*%
%TO.N,Net-(J1B1-Pad1)*%
X21575000Y17780000D03*
%TD*%
D12*
%TO.P,U5,1,EN1\u002C2*%
%TO.N,Net-(U3-Pad2)*%
X21575000Y39360000D03*
D13*
%TO.P,U5,2,1A*%
%TO.N,Net-(U3-Pad6)*%
X19035000Y39360000D03*
%TO.P,U5,3,1Y*%
%TO.N,Net-(J2-Pad5)*%
X16495000Y39360000D03*
%TO.P,U5,4,GND*%
%TO.N,Net-(J1C1-Pad7)*%
X13955000Y39360000D03*
%TO.P,U5,5,GND*%
X11415000Y39360000D03*
%TO.P,U5,6,2Y*%
%TO.N,Net-(U5-Pad6)*%
X8875000Y39360000D03*
%TO.P,U5,7,2A*%
%TO.N,Net-(U3-Pad4)*%
X6335000Y39360000D03*
%TO.P,U5,8,VCC2*%
%TO.N,Net-(J3-Pad1)*%
X3795000Y39360000D03*
%TO.P,U5,9,EN3\u002C4*%
%TO.N,Net-(U3-Pad3)*%
X3795000Y31740000D03*
%TO.P,U5,10,3A*%
%TO.N,Net-(U3-Pad7)*%
X6335000Y31740000D03*
%TO.P,U5,11,3Y*%
%TO.N,Net-(J2-Pad7)*%
X8875000Y31740000D03*
%TO.P,U5,12,GND*%
%TO.N,Net-(J1C1-Pad7)*%
X11415000Y31740000D03*
%TO.P,U5,13,GND*%
X13955000Y31740000D03*
%TO.P,U5,14,4Y*%
%TO.N,Net-(J2-Pad8)*%
X16495000Y31740000D03*
%TO.P,U5,15,4A*%
%TO.N,Net-(U3-Pad5)*%
X19035000Y31740000D03*
%TO.P,U5,16,VCC1*%
%TO.N,Net-(J1B1-Pad1)*%
X21575000Y31740000D03*
%TD*%
D14*
%TO.P,U3,31,AREF*%
%TO.N,unconnected-(U3-Pad31)*%
X40640000Y33020000D03*
%TO.P,U3,30,24*%
%TO.N,unconnected-(U3-Pad30)*%
X30480000Y33020000D03*
%TO.P,U3,29,+5V*%
%TO.N,Net-(J1B1-Pad1)*%
X43180000Y43180000D03*
%TO.P,U3,28,21_A0*%
%TO.N,Net-(U3-Pad28)*%
X43180000Y40640000D03*
%TO.P,U3,27,20_A1*%
%TO.N,Net-(J1A1-Pad7)*%
X43180000Y38100000D03*
%TO.P,U3,26,19_A2*%
%TO.N,Net-(J1A1-Pad6)*%
X43180000Y35560000D03*
%TO.P,U3,25,18_A3*%
%TO.N,Net-(J1A1-Pad5)*%
X43180000Y33020000D03*
%TO.P,U3,24,17_A4*%
%TO.N,Net-(J1A1-Pad4)*%
X43180000Y30480000D03*
%TO.P,U3,23,16_A5*%
%TO.N,Net-(J1A1-Pad3)*%
X43180000Y27940000D03*
%TO.P,U3,22,15_A6_PWM*%
%TO.N,Net-(J1A1-Pad2)*%
X43180000Y25400000D03*
%TO.P,U3,21,14_A7_PWM*%
%TO.N,Net-(J1A1-Pad1)*%
X43180000Y22860000D03*
%TO.P,U3,20,13_A8*%
%TO.N,Net-(U3-Pad20)*%
X43180000Y20320000D03*
%TO.P,U3,19,12_A9_PWM*%
%TO.N,Net-(U3-Pad19)*%
X43180000Y17780000D03*
%TO.P,U3,18,11_A10_LED*%
%TO.N,unconnected-(U3-Pad18)*%
X43180000Y15240000D03*
%TO.P,U3,17,22_A11*%
%TO.N,unconnected-(U3-Pad17)*%
X40640000Y15240000D03*
%TO.P,U3,16,RST*%
%TO.N,unconnected-(U3-Pad16)*%
X38100000Y15240000D03*
%TO.P,U3,14,+5V*%
%TO.N,unconnected-(U3-Pad14)*%
X33020000Y15240000D03*
%TO.P,U3,13,23*%
%TO.N,unconnected-(U3-Pad13)*%
X30480000Y15240000D03*
%TO.P,U3,12,10_PWM*%
%TO.N,Net-(U3-Pad12)*%
X27940000Y15240000D03*
%TO.P,U3,11,9_PWM*%
%TO.N,Net-(U3-Pad11)*%
X27940000Y17780000D03*
%TO.P,U3,10,8_INT3_TX*%
%TO.N,Net-(J5A1-Pad5)*%
X27940000Y20320000D03*
%TO.P,U3,9,7_INT2_RX*%
%TO.N,Net-(J5A1-Pad6)*%
X27940000Y22860000D03*
%TO.P,U3,8,6_INT1*%
%TO.N,Net-(U3-Pad8)*%
X27940000Y25400000D03*
%TO.P,U3,7,5_INT0_PWM*%
%TO.N,Net-(U3-Pad7)*%
X27940000Y27940000D03*
%TO.P,U3,6,4_PWM*%
%TO.N,Net-(U3-Pad6)*%
X27940000Y30480000D03*
%TO.P,U3,5,3*%
%TO.N,Net-(U3-Pad5)*%
X27940000Y33020000D03*
%TO.P,U3,4,2*%
%TO.N,Net-(U3-Pad4)*%
X27940000Y35560000D03*
%TO.P,U3,3,1*%
%TO.N,Net-(U3-Pad3)*%
X27940000Y38100000D03*
%TO.P,U3,2,0*%
%TO.N,Net-(U3-Pad2)*%
X27940000Y40640000D03*
D12*
%TO.P,U3,1,GND*%
%TO.N,Net-(J1C1-Pad7)*%
X27940000Y43180000D03*
D14*
%TO.P,U3,15,GND*%
%TO.N,unconnected-(U3-Pad15)*%
X35560000Y15240000D03*
%TD*%
D15*
%TO.P,U2,1,VI*%
%TO.N,Net-(J1C1-Pad7)*%
X29550000Y5080000D03*
D16*
%TO.P,U2,2,GND*%
%TO.N,Net-(J5A2-Pad4)*%
X29550000Y7620000D03*
%TO.P,U2,3,VO*%
%TO.N,Net-(J3-Pad1)*%
X29550000Y10160000D03*
%TD*%
D15*
%TO.P,U1,1,VI*%
%TO.N,Net-(J3-Pad1)*%
X39030000Y10160000D03*
D16*
%TO.P,U1,2,GND*%
%TO.N,Net-(J1C1-Pad7)*%
X39030000Y7620000D03*
%TO.P,U1,3,VO*%
%TO.N,Net-(J1B1-Pad1)*%
X39030000Y5080000D03*
%TD*%
D17*
%TO.P,R1,1*%
%TO.N,Net-(J4-Pad1)*%
X55880000Y19050000D03*
D18*
%TO.P,R1,2*%
%TO.N,Net-(J5A2-Pad4)*%
X48260000Y19050000D03*
%TD*%
D19*
%TO.P,J5A2,1,Pin_1*%
%TO.N,unconnected-(J5A2-Pad1)*%
X72415000Y16485000D03*
D20*
%TO.P,J5A2,2,Pin_2*%
%TO.N,unconnected-(J5A2-Pad2)*%
X72415000Y13945000D03*
%TO.P,J5A2,3,Pin_3*%
%TO.N,Net-(J1C1-Pad7)*%
X72415000Y11405000D03*
%TO.P,J5A2,4,Pin_4*%
%TO.N,Net-(J5A2-Pad4)*%
X72415000Y8865000D03*
%TO.P,J5A2,5,Pin_5*%
%TO.N,Net-(J5A2-Pad5)*%
X72415000Y6325000D03*
%TO.P,J5A2,6,Pin_6*%
%TO.N,Net-(J5A2-Pad6)*%
X72415000Y3785000D03*
%TD*%
%TO.P,J5A1,6,Pin_6*%
%TO.N,Net-(J5A1-Pad6)*%
X62230000Y3810000D03*
%TO.P,J5A1,5,Pin_5*%
%TO.N,Net-(J5A1-Pad5)*%
X62230000Y6350000D03*
%TO.P,J5A1,4,Pin_4*%
%TO.N,Net-(J1B1-Pad1)*%
X62230000Y8890000D03*
%TO.P,J5A1,3,Pin_3*%
%TO.N,Net-(J1C1-Pad7)*%
X62230000Y11430000D03*
%TO.P,J5A1,2,Pin_2*%
%TO.N,unconnected-(J5A1-Pad2)*%
X62230000Y13970000D03*
D19*
%TO.P,J5A1,1,Pin_1*%
%TO.N,unconnected-(J5A1-Pad1)*%
X62230000Y16510000D03*
%TD*%
%TO.P,J4,1,Pin_1*%
%TO.N,Net-(J4-Pad1)*%
X53340000Y15240000D03*
D20*
%TO.P,J4,2,Pin_2*%
%TO.N,Net-(J1C1-Pad7)*%
X50800000Y15240000D03*
%TD*%
%TO.P,J3,2,Pin_2*%
%TO.N,Net-(J1C1-Pad7)*%
X34290000Y6350000D03*
D19*
%TO.P,J3,1,Pin_1*%
%TO.N,Net-(J3-Pad1)*%
X34290000Y8890000D03*
%TD*%
%TO.P,J2,1,Pin_1*%
%TO.N,Net-(U6-Pad3)*%
X6370000Y12700000D03*
D20*
%TO.P,J2,2,Pin_2*%
%TO.N,Net-(U6-Pad6)*%
X3830000Y12700000D03*
%TO.P,J2,3,Pin_3*%
%TO.N,Net-(U6-Pad11)*%
X6370000Y10160000D03*
%TO.P,J2,4,Pin_4*%
%TO.N,Net-(U6-Pad14)*%
X3830000Y10160000D03*
%TO.P,J2,5,Pin_5*%
%TO.N,Net-(J2-Pad5)*%
X6370000Y7620000D03*
%TO.P,J2,6,Pin_6*%
%TO.N,Net-(U5-Pad6)*%
X3830000Y7620000D03*
%TO.P,J2,7,Pin_7*%
%TO.N,Net-(J2-Pad7)*%
X6370000Y5080000D03*
%TO.P,J2,8,Pin_8*%
%TO.N,Net-(J2-Pad8)*%
X3830000Y5080000D03*
%TD*%
D19*
%TO.P,J1C1,1,Pin_1*%
%TO.N,Net-(J1C1-Pad7)*%
X54585000Y22880000D03*
D20*
%TO.P,J1C1,2,Pin_2*%
X54585000Y25420000D03*
%TO.P,J1C1,3,Pin_3*%
X54585000Y27960000D03*
%TO.P,J1C1,4,Pin_4*%
X54585000Y30500000D03*
%TO.P,J1C1,5,Pin_5*%
X54585000Y33040000D03*
%TO.P,J1C1,6,Pin_6*%
X54585000Y35580000D03*
%TO.P,J1C1,7,Pin_7*%
X54585000Y38120000D03*
%TD*%
%TO.P,J1B1,7,Pin_7*%
%TO.N,Net-(J1B1-Pad1)*%
X52070000Y38100000D03*
%TO.P,J1B1,6,Pin_6*%
X52070000Y35560000D03*
%TO.P,J1B1,5,Pin_5*%
X52070000Y33020000D03*
%TO.P,J1B1,4,Pin_4*%
X52070000Y30480000D03*
%TO.P,J1B1,3,Pin_3*%
X52070000Y27940000D03*
%TO.P,J1B1,2,Pin_2*%
X52070000Y25400000D03*
D19*
%TO.P,J1B1,1,Pin_1*%
X52070000Y22860000D03*
%TD*%
%TO.P,J1A1,1,Pin_1*%
%TO.N,Net-(J1A1-Pad1)*%
X49530000Y22860000D03*
D20*
%TO.P,J1A1,2,Pin_2*%
%TO.N,Net-(J1A1-Pad2)*%
X49530000Y25400000D03*
%TO.P,J1A1,3,Pin_3*%
%TO.N,Net-(J1A1-Pad3)*%
X49530000Y27940000D03*
%TO.P,J1A1,4,Pin_4*%
%TO.N,Net-(J1A1-Pad4)*%
X49530000Y30480000D03*
%TO.P,J1A1,5,Pin_5*%
%TO.N,Net-(J1A1-Pad5)*%
X49530000Y33020000D03*
%TO.P,J1A1,6,Pin_6*%
%TO.N,Net-(J1A1-Pad6)*%
X49530000Y35560000D03*
%TO.P,J1A1,7,Pin_7*%
%TO.N,Net-(J1A1-Pad7)*%
X49530000Y38100000D03*
%TD*%
D21*
%TO.N,Net-(J5A1-Pad6)*%
X44450000Y12700000D03*
%TO.N,Net-(J5A1-Pad5)*%
X44402701Y11477299D03*
%TD*%
D22*
%TO.N,Net-(U6-Pad14)*%
X10165489Y11450489D02*
X16495000Y17780000D01*
X3830000Y10160000D02*
X5120489Y11450489D01*
X5120489Y11450489D02*
X10165489Y11450489D01*
D23*
%TO.N,Net-(J2-Pad5)*%
X15245489Y40609511D02*
X16495000Y39360000D01*
X3277435Y40609511D02*
X15245489Y40609511D01*
X1830970Y39163046D02*
X3277435Y40609511D01*
X1830970Y5241243D02*
X1830970Y39163046D01*
X3291724Y3780489D02*
X1830970Y5241243D01*
X6908276Y3780489D02*
X3291724Y3780489D01*
X7669511Y4541724D02*
X6908276Y3780489D01*
X7669511Y6320489D02*
X7669511Y4541724D01*
X6370000Y7620000D02*
X7669511Y6320489D01*
%TO.N,Net-(J2-Pad8)*%
X2530489Y25902565D02*
X7118413Y30490489D01*
X2530489Y6379511D02*
X2530489Y25902565D01*
X3830000Y5080000D02*
X2530489Y6379511D01*
X7118413Y30490489D02*
X15245489Y30490489D01*
X15245489Y30490489D02*
X16495000Y31740000D01*
%TO.N,Net-(U6-Pad3)*%
X12664511Y21569511D02*
X12664511Y17262435D01*
X16495000Y25400000D02*
X12664511Y21569511D01*
X12664511Y17262435D02*
X8102076Y12700000D01*
X8102076Y12700000D02*
X6370000Y12700000D01*
D24*
%TO.N,Net-(J5A1-Pad6)*%
X63404511Y4984511D02*
X62230000Y3810000D01*
X63404511Y6836499D02*
X63404511Y4984511D01*
X62716499Y7524511D02*
X63404511Y6836499D01*
X58790016Y7524511D02*
X62716499Y7524511D01*
X53614527Y12700000D02*
X58790016Y7524511D01*
X44450000Y12700000D02*
X53614527Y12700000D01*
%TO.N,Net-(J5A2-Pad6)*%
X65968111Y22971133D02*
X65108355Y23830889D01*
X65108355Y23830889D02*
X63591889Y23830889D01*
X63591889Y23830889D02*
X62240000Y22479000D01*
X65968111Y10231889D02*
X65968111Y22971133D01*
X72415000Y3785000D02*
X65968111Y10231889D01*
D23*
%TO.N,Net-(J5A2-Pad4)*%
X50375889Y21165889D02*
X63466889Y21165889D01*
X63466889Y21165889D02*
X64780000Y22479000D01*
X48260000Y19050000D02*
X50375889Y21165889D01*
X69860000Y11420000D02*
X72415000Y8865000D01*
X69860000Y22479000D02*
X69860000Y11420000D01*
%TO.N,Net-(J1C1-Pad7)*%
X45720000Y15240000D02*
X50800000Y15240000D01*
X43553190Y13073190D02*
X45720000Y15240000D01*
X43553190Y11803190D02*
X43553190Y13073190D01*
X39370000Y7620000D02*
X43553190Y11803190D01*
X39030000Y7620000D02*
X39370000Y7620000D01*
%TO.N,Net-(J5A2-Pad4)*%
X45699511Y16489511D02*
X48260000Y19050000D01*
X42662435Y16489511D02*
X45699511Y16489511D01*
X41930489Y15757565D02*
X42662435Y16489511D01*
X41198543Y13990489D02*
X41930489Y14722435D01*
X31350234Y13990489D02*
X41198543Y13990489D01*
X28100480Y10740735D02*
X31350234Y13990489D01*
X41930489Y14722435D02*
X41930489Y15757565D01*
X28100480Y9069520D02*
X28100480Y10740735D01*
X29550000Y7620000D02*
X28100480Y9069520D01*
%TO.N,Net-(J1C1-Pad7)*%
X35560000Y7620000D02*
X39030000Y7620000D01*
X34290000Y6350000D02*
X35560000Y7620000D01*
X30820000Y6350000D02*
X29550000Y5080000D01*
X34290000Y6350000D02*
X30820000Y6350000D01*
%TO.N,Net-(J3-Pad1)*%
X37760000Y8890000D02*
X39030000Y10160000D01*
X34290000Y8890000D02*
X37760000Y8890000D01*
X33020000Y10160000D02*
X34290000Y8890000D01*
X29550000Y10160000D02*
X33020000Y10160000D01*
D24*
%TO.N,Net-(J5A1-Pad5)*%
X44402701Y11477299D02*
X50384521Y5495479D01*
X61375479Y5495479D02*
X62230000Y6350000D01*
X50384521Y5495479D02*
X61375479Y5495479D01*
%TO.N,Net-(U3-Pad19)*%
X43354811Y21735489D02*
X25239511Y21735489D01*
X25239511Y21735489D02*
X21575000Y25400000D01*
X44304511Y18904511D02*
X44304511Y20785789D01*
X43180000Y17780000D02*
X44304511Y18904511D01*
X44304511Y20785789D02*
X43354811Y21735489D01*
%TO.N,Net-(U3-Pad28)*%
X6655300Y19050000D02*
X5065000Y19050000D01*
X12700000Y25094700D02*
X6655300Y19050000D01*
X14084220Y27119520D02*
X12700000Y25735300D01*
X22104502Y27119520D02*
X14084220Y27119520D01*
X24948533Y24275489D02*
X22104502Y27119520D01*
X12700000Y25735300D02*
X12700000Y25094700D01*
X28405789Y24275489D02*
X24948533Y24275489D01*
X29064511Y24934211D02*
X28405789Y24275489D01*
X29064511Y26524511D02*
X29064511Y24934211D01*
X43180000Y40640000D02*
X29064511Y26524511D01*
X5065000Y19050000D02*
X3795000Y17780000D01*
%TO.N,Net-(U3-Pad20)*%
X39515489Y16655489D02*
X43180000Y20320000D01*
X20159511Y16655489D02*
X39515489Y16655489D01*
X19035000Y17780000D02*
X20159511Y16655489D01*
%TO.N,Net-(U3-Pad8)*%
X8875000Y27940000D02*
X6335000Y25400000D01*
X25400000Y27940000D02*
X8875000Y27940000D01*
X27940000Y25400000D02*
X25400000Y27940000D01*
%TO.N,Net-(U3-Pad7)*%
X23015489Y32864511D02*
X27940000Y27940000D01*
X7459511Y32864511D02*
X23015489Y32864511D01*
X6335000Y31740000D02*
X7459511Y32864511D01*
%TO.N,Net-(U3-Pad3)*%
X29210000Y36830000D02*
X27940000Y38100000D01*
X29210000Y35239700D02*
X29210000Y36830000D01*
X6490489Y34435489D02*
X28405789Y34435489D01*
X3795000Y31740000D02*
X6490489Y34435489D01*
X28405789Y34435489D02*
X29210000Y35239700D01*
%TO.N,Net-(U3-Pad4)*%
X6335000Y36845000D02*
X6335000Y39360000D01*
X7620000Y35560000D02*
X6335000Y36845000D01*
X27940000Y35560000D02*
X7620000Y35560000D01*
%TO.N,Net-(U3-Pad11)*%
X26655000Y17780000D02*
X19035000Y25400000D01*
X27940000Y17780000D02*
X26655000Y17780000D01*
%TO.N,Net-(U3-Pad12)*%
X7459511Y18904511D02*
X6335000Y17780000D01*
X9049811Y18904511D02*
X7459511Y18904511D01*
X16815300Y26670000D02*
X16174700Y26670000D01*
X16174700Y26670000D02*
X15240000Y25735300D01*
X17780000Y25705300D02*
X16815300Y26670000D01*
X17780000Y16510000D02*
X17780000Y25705300D01*
X19050000Y15240000D02*
X17780000Y16510000D01*
X27940000Y15240000D02*
X19050000Y15240000D01*
X15240000Y25735300D02*
X15240000Y25094700D01*
X15240000Y25094700D02*
X9049811Y18904511D01*
%TD*%
M02*
