%TF.GenerationSoftware,KiCad,Pcbnew,6.0.2+dfsg-1*%
%TF.CreationDate,2022-09-30T13:12:16-05:00*%
%TF.ProjectId,WaterGame,57617465-7247-4616-9d65-2e6b69636164,rev?*%
%TF.SameCoordinates,PX48ab840PY59a0560*%
%TF.FileFunction,Legend,Top*%
%TF.FilePolarity,Positive*%
%FSLAX46Y46*%
G04 Gerber Fmt 4.6, Leading zero omitted, Abs format (unit mm)*
G04 Created by KiCad (PCBNEW 6.0.2+dfsg-1) date 2022-09-30 13:12:16*
%MOMM*%
%LPD*%
G01*
G04 APERTURE LIST*
%ADD10C,0.150000*%
%ADD11C,0.120000*%
%ADD12C,0.254000*%
%ADD13C,0.152400*%
%ADD14C,0.100000*%
%ADD15R,1.727200X1.727200*%
%ADD16O,1.727200X1.727200*%
%ADD17R,1.700000X1.700000*%
%ADD18O,1.700000X1.700000*%
%ADD19C,1.400000*%
%ADD20O,1.400000X1.400000*%
%ADD21R,1.800000X1.800000*%
%ADD22C,1.800000*%
%ADD23R,1.600000X1.600000*%
%ADD24O,1.600000X1.600000*%
%ADD25C,1.600000*%
%ADD26O,3.500000X3.500000*%
%ADD27R,2.000000X1.905000*%
%ADD28O,2.000000X1.905000*%
G04 APERTURE END LIST*
D10*
X49445000Y31790000D02*
X57065000Y31790000D01*
X57065000Y31790000D02*
X57065000Y26670000D01*
X57065000Y26670000D02*
X49445000Y26670000D01*
X49445000Y26670000D02*
X49445000Y31790000D01*
G36*
X49445000Y31790000D02*
G01*
X57065000Y31790000D01*
X57065000Y26670000D01*
X49445000Y26670000D01*
X49445000Y31790000D01*
G37*
X46990000Y31750000D02*
X49445000Y31750000D01*
X49445000Y31750000D02*
X49445000Y26670000D01*
X49445000Y26670000D02*
X46990000Y26670000D01*
X46990000Y26670000D02*
X46990000Y31750000D01*
X4969047Y2468572D02*
X5730952Y2468572D01*
X6969047Y2468572D02*
X7730952Y2468572D01*
X7350000Y2087620D02*
X7350000Y2849524D01*
X17320000Y8167620D02*
X17939047Y8167620D01*
X17605714Y7786667D01*
X17748571Y7786667D01*
X17843809Y7739048D01*
X17891428Y7691429D01*
X17939047Y7596191D01*
X17939047Y7358096D01*
X17891428Y7262858D01*
X17843809Y7215239D01*
X17748571Y7167620D01*
X17462857Y7167620D01*
X17367619Y7215239D01*
X17320000Y7262858D01*
X18224761Y8167620D02*
X18558095Y7167620D01*
X18891428Y8167620D01*
X19129523Y8167620D02*
X19748571Y8167620D01*
X19415238Y7786667D01*
X19558095Y7786667D01*
X19653333Y7739048D01*
X19700952Y7691429D01*
X19748571Y7596191D01*
X19748571Y7358096D01*
X19700952Y7262858D01*
X19653333Y7215239D01*
X19558095Y7167620D01*
X19272380Y7167620D01*
X19177142Y7215239D01*
X19129523Y7262858D01*
X21510476Y7167620D02*
X21177142Y7643810D01*
X20939047Y7167620D02*
X20939047Y8167620D01*
X21320000Y8167620D01*
X21415238Y8120000D01*
X21462857Y8072381D01*
X21510476Y7977143D01*
X21510476Y7834286D01*
X21462857Y7739048D01*
X21415238Y7691429D01*
X21320000Y7643810D01*
X20939047Y7643810D01*
X22320000Y7215239D02*
X22224761Y7167620D01*
X22034285Y7167620D01*
X21939047Y7215239D01*
X21891428Y7310477D01*
X21891428Y7691429D01*
X21939047Y7786667D01*
X22034285Y7834286D01*
X22224761Y7834286D01*
X22320000Y7786667D01*
X22367619Y7691429D01*
X22367619Y7596191D01*
X21891428Y7500953D01*
X23224761Y7834286D02*
X23224761Y7024762D01*
X23177142Y6929524D01*
X23129523Y6881905D01*
X23034285Y6834286D01*
X22891428Y6834286D01*
X22796190Y6881905D01*
X23224761Y7215239D02*
X23129523Y7167620D01*
X22939047Y7167620D01*
X22843809Y7215239D01*
X22796190Y7262858D01*
X22748571Y7358096D01*
X22748571Y7643810D01*
X22796190Y7739048D01*
X22843809Y7786667D01*
X22939047Y7834286D01*
X23129523Y7834286D01*
X23224761Y7786667D01*
X48712380Y27825239D02*
X47712380Y27825239D01*
X47712380Y28206191D01*
X47760000Y28301429D01*
X47807619Y28349048D01*
X47902857Y28396667D01*
X48045714Y28396667D01*
X48140952Y28349048D01*
X48188571Y28301429D01*
X48236190Y28206191D01*
X48236190Y27825239D01*
X47712380Y28730000D02*
X48712380Y28968096D01*
X47998095Y29158572D01*
X48712380Y29349048D01*
X47712380Y29587143D01*
X48712380Y29968096D02*
X47712380Y29968096D01*
X48426666Y30301429D01*
X47712380Y30634762D01*
X48712380Y30634762D01*
X37647619Y9120000D02*
X37647619Y8929524D01*
X37695238Y8834286D01*
X37742857Y8786667D01*
X37885714Y8691429D01*
X38076190Y8643810D01*
X38457142Y8643810D01*
X38552380Y8691429D01*
X38600000Y8739048D01*
X38647619Y8834286D01*
X38647619Y9024762D01*
X38600000Y9120000D01*
X38552380Y9167620D01*
X38457142Y9215239D01*
X38219047Y9215239D01*
X38123809Y9167620D01*
X38076190Y9120000D01*
X38028571Y9024762D01*
X38028571Y8834286D01*
X38076190Y8739048D01*
X38123809Y8691429D01*
X38219047Y8643810D01*
X38647619Y8358096D02*
X37647619Y8024762D01*
X38647619Y7691429D01*
X38600000Y6072381D02*
X38647619Y6167620D01*
X38647619Y6310477D01*
X38600000Y6453334D01*
X38504761Y6548572D01*
X38409523Y6596191D01*
X38219047Y6643810D01*
X38076190Y6643810D01*
X37885714Y6596191D01*
X37790476Y6548572D01*
X37695238Y6453334D01*
X37647619Y6310477D01*
X37647619Y6215239D01*
X37695238Y6072381D01*
X37742857Y6024762D01*
X38076190Y6024762D01*
X38076190Y6215239D01*
X48712380Y21375715D02*
X48712380Y20804286D01*
X48712380Y21090000D02*
X47712380Y21090000D01*
X47855238Y20994762D01*
X47950476Y20899524D01*
X47998095Y20804286D01*
X48712380Y21804286D02*
X47712380Y21804286D01*
X48712380Y22375715D02*
X48140952Y21947143D01*
X47712380Y22375715D02*
X48283809Y21804286D01*
X4111904Y14787620D02*
X4111904Y15787620D01*
X4445238Y15073334D01*
X4778571Y15787620D01*
X4778571Y14787620D01*
X5397619Y14787620D02*
X5302380Y14835239D01*
X5254761Y14882858D01*
X5207142Y14978096D01*
X5207142Y15263810D01*
X5254761Y15359048D01*
X5302380Y15406667D01*
X5397619Y15454286D01*
X5540476Y15454286D01*
X5635714Y15406667D01*
X5683333Y15359048D01*
X5730952Y15263810D01*
X5730952Y14978096D01*
X5683333Y14882858D01*
X5635714Y14835239D01*
X5540476Y14787620D01*
X5397619Y14787620D01*
X6016666Y15454286D02*
X6397619Y15454286D01*
X6159523Y15787620D02*
X6159523Y14930477D01*
X6207142Y14835239D01*
X6302380Y14787620D01*
X6397619Y14787620D01*
X6873809Y14787620D02*
X6778571Y14835239D01*
X6730952Y14882858D01*
X6683333Y14978096D01*
X6683333Y15263810D01*
X6730952Y15359048D01*
X6778571Y15406667D01*
X6873809Y15454286D01*
X7016666Y15454286D01*
X7111904Y15406667D01*
X7159523Y15359048D01*
X7207142Y15263810D01*
X7207142Y14978096D01*
X7159523Y14882858D01*
X7111904Y14835239D01*
X7016666Y14787620D01*
X6873809Y14787620D01*
X7635714Y14787620D02*
X7635714Y15454286D01*
X7635714Y15263810D02*
X7683333Y15359048D01*
X7730952Y15406667D01*
X7826190Y15454286D01*
X7921428Y15454286D01*
X8207142Y14835239D02*
X8302380Y14787620D01*
X8492857Y14787620D01*
X8588095Y14835239D01*
X8635714Y14930477D01*
X8635714Y14978096D01*
X8588095Y15073334D01*
X8492857Y15120953D01*
X8350000Y15120953D01*
X8254761Y15168572D01*
X8207142Y15263810D01*
X8207142Y15311429D01*
X8254761Y15406667D01*
X8350000Y15454286D01*
X8492857Y15454286D01*
X8588095Y15406667D01*
X9612380Y4842381D02*
X9612380Y5461429D01*
X9993333Y5128096D01*
X9993333Y5270953D01*
X10040952Y5366191D01*
X10088571Y5413810D01*
X10183809Y5461429D01*
X10421904Y5461429D01*
X10517142Y5413810D01*
X10564761Y5366191D01*
X10612380Y5270953D01*
X10612380Y4985239D01*
X10564761Y4890000D01*
X10517142Y4842381D01*
X9707619Y7366191D02*
X9660000Y7413810D01*
X9612380Y7509048D01*
X9612380Y7747143D01*
X9660000Y7842381D01*
X9707619Y7890000D01*
X9802857Y7937620D01*
X9898095Y7937620D01*
X10040952Y7890000D01*
X10612380Y7318572D01*
X10612380Y7937620D01*
X10612380Y10413810D02*
X10612380Y9842381D01*
X10612380Y10128096D02*
X9612380Y10128096D01*
X9755238Y10032858D01*
X9850476Y9937620D01*
X9898095Y9842381D01*
X9612380Y12556667D02*
X9612380Y12651905D01*
X9660000Y12747143D01*
X9707619Y12794762D01*
X9802857Y12842381D01*
X9993333Y12890000D01*
X10231428Y12890000D01*
X10421904Y12842381D01*
X10517142Y12794762D01*
X10564761Y12747143D01*
X10612380Y12651905D01*
X10612380Y12556667D01*
X10564761Y12461429D01*
X10517142Y12413810D01*
X10421904Y12366191D01*
X10231428Y12318572D01*
X9993333Y12318572D01*
X9802857Y12366191D01*
X9707619Y12413810D01*
X9660000Y12461429D01*
X9612380Y12556667D01*
X57872380Y28083810D02*
X57872380Y28179048D01*
X57920000Y28274286D01*
X57967619Y28321905D01*
X58062857Y28369524D01*
X58253333Y28417143D01*
X58491428Y28417143D01*
X58681904Y28369524D01*
X58777142Y28321905D01*
X58824761Y28274286D01*
X58872380Y28179048D01*
X58872380Y28083810D01*
X58824761Y27988572D01*
X58777142Y27940953D01*
X58681904Y27893334D01*
X58491428Y27845715D01*
X58253333Y27845715D01*
X58062857Y27893334D01*
X57967619Y27940953D01*
X57920000Y27988572D01*
X57872380Y28083810D01*
X58872380Y30893334D02*
X58872380Y30321905D01*
X58872380Y30607620D02*
X57872380Y30607620D01*
X58015238Y30512381D01*
X58110476Y30417143D01*
X58158095Y30321905D01*
X57967619Y32798096D02*
X57920000Y32845715D01*
X57872380Y32940953D01*
X57872380Y33179048D01*
X57920000Y33274286D01*
X57967619Y33321905D01*
X58062857Y33369524D01*
X58158095Y33369524D01*
X58300952Y33321905D01*
X58872380Y32750477D01*
X58872380Y33369524D01*
X57872380Y35226667D02*
X57872380Y35845715D01*
X58253333Y35512381D01*
X58253333Y35655239D01*
X58300952Y35750477D01*
X58348571Y35798096D01*
X58443809Y35845715D01*
X58681904Y35845715D01*
X58777142Y35798096D01*
X58824761Y35750477D01*
X58872380Y35655239D01*
X58872380Y35369524D01*
X58824761Y35274286D01*
X58777142Y35226667D01*
X58205714Y38226667D02*
X58872380Y38226667D01*
X57824761Y37988572D02*
X58539047Y37750477D01*
X58539047Y38369524D01*
X57872380Y40750477D02*
X57872380Y40274286D01*
X58348571Y40226667D01*
X58300952Y40274286D01*
X58253333Y40369524D01*
X58253333Y40607620D01*
X58300952Y40702858D01*
X58348571Y40750477D01*
X58443809Y40798096D01*
X58681904Y40798096D01*
X58777142Y40750477D01*
X58824761Y40702858D01*
X58872380Y40607620D01*
X58872380Y40369524D01*
X58824761Y40274286D01*
X58777142Y40226667D01*
X57872380Y43179048D02*
X57872380Y42988572D01*
X57920000Y42893334D01*
X57967619Y42845715D01*
X58110476Y42750477D01*
X58300952Y42702858D01*
X58681904Y42702858D01*
X58777142Y42750477D01*
X58824761Y42798096D01*
X58872380Y42893334D01*
X58872380Y43083810D01*
X58824761Y43179048D01*
X58777142Y43226667D01*
X58681904Y43274286D01*
X58443809Y43274286D01*
X58348571Y43226667D01*
X58300952Y43179048D01*
X58253333Y43083810D01*
X58253333Y42893334D01*
X58300952Y42798096D01*
X58348571Y42750477D01*
X58443809Y42702858D01*
X68246666Y17057620D02*
X68246666Y16343334D01*
X68199047Y16200477D01*
X68103809Y16105239D01*
X67960952Y16057620D01*
X67865714Y16057620D01*
X69199047Y17057620D02*
X68722857Y17057620D01*
X68675238Y16581429D01*
X68722857Y16629048D01*
X68818095Y16676667D01*
X69056190Y16676667D01*
X69151428Y16629048D01*
X69199047Y16581429D01*
X69246666Y16486191D01*
X69246666Y16248096D01*
X69199047Y16152858D01*
X69151428Y16105239D01*
X69056190Y16057620D01*
X68818095Y16057620D01*
X68722857Y16105239D01*
X68675238Y16152858D01*
X58872380Y20423334D02*
X58872380Y19851905D01*
X58872380Y20137620D02*
X57872380Y20137620D01*
X58015238Y20042381D01*
X58110476Y19947143D01*
X58158095Y19851905D01*
X57872380Y21042381D02*
X57872380Y21137620D01*
X57920000Y21232858D01*
X57967619Y21280477D01*
X58062857Y21328096D01*
X58253333Y21375715D01*
X58491428Y21375715D01*
X58681904Y21328096D01*
X58777142Y21280477D01*
X58824761Y21232858D01*
X58872380Y21137620D01*
X58872380Y21042381D01*
X58824761Y20947143D01*
X58777142Y20899524D01*
X58681904Y20851905D01*
X58491428Y20804286D01*
X58253333Y20804286D01*
X58062857Y20851905D01*
X57967619Y20899524D01*
X57920000Y20947143D01*
X57872380Y21042381D01*
X57872380Y21994762D02*
X57872380Y22090000D01*
X57920000Y22185239D01*
X57967619Y22232858D01*
X58062857Y22280477D01*
X58253333Y22328096D01*
X58491428Y22328096D01*
X58681904Y22280477D01*
X58777142Y22232858D01*
X58824761Y22185239D01*
X58872380Y22090000D01*
X58872380Y21994762D01*
X58824761Y21899524D01*
X58777142Y21851905D01*
X58681904Y21804286D01*
X58491428Y21756667D01*
X58253333Y21756667D01*
X58062857Y21804286D01*
X57967619Y21851905D01*
X57920000Y21899524D01*
X57872380Y21994762D01*
X58872380Y22756667D02*
X57872380Y22756667D01*
X58872380Y23328096D02*
X58300952Y22899524D01*
X57872380Y23328096D02*
X58443809Y22756667D01*
X66492380Y8175715D02*
X65492380Y8175715D01*
X65968571Y8175715D02*
X65968571Y8747143D01*
X66492380Y8747143D02*
X65492380Y8747143D01*
X65492380Y9080477D02*
X66492380Y9413810D01*
X65492380Y9747143D01*
X47712380Y39036667D02*
X48426666Y39036667D01*
X48569523Y38989048D01*
X48664761Y38893810D01*
X48712380Y38750953D01*
X48712380Y38655715D01*
X48712380Y40036667D02*
X48712380Y39465239D01*
X48712380Y39750953D02*
X47712380Y39750953D01*
X47855238Y39655715D01*
X47950476Y39560477D01*
X47998095Y39465239D01*
X48847619Y8167620D02*
X48371428Y8167620D01*
X48323809Y7691429D01*
X48371428Y7739048D01*
X48466666Y7786667D01*
X48704761Y7786667D01*
X48800000Y7739048D01*
X48847619Y7691429D01*
X48895238Y7596191D01*
X48895238Y7358096D01*
X48847619Y7262858D01*
X48800000Y7215239D01*
X48704761Y7167620D01*
X48466666Y7167620D01*
X48371428Y7215239D01*
X48323809Y7262858D01*
X49180952Y8167620D02*
X49514285Y7167620D01*
X49847619Y8167620D01*
X51514285Y7167620D02*
X51180952Y7643810D01*
X50942857Y7167620D02*
X50942857Y8167620D01*
X51323809Y8167620D01*
X51419047Y8120000D01*
X51466666Y8072381D01*
X51514285Y7977143D01*
X51514285Y7834286D01*
X51466666Y7739048D01*
X51419047Y7691429D01*
X51323809Y7643810D01*
X50942857Y7643810D01*
X52323809Y7215239D02*
X52228571Y7167620D01*
X52038095Y7167620D01*
X51942857Y7215239D01*
X51895238Y7310477D01*
X51895238Y7691429D01*
X51942857Y7786667D01*
X52038095Y7834286D01*
X52228571Y7834286D01*
X52323809Y7786667D01*
X52371428Y7691429D01*
X52371428Y7596191D01*
X51895238Y7500953D01*
X53228571Y7834286D02*
X53228571Y7024762D01*
X53180952Y6929524D01*
X53133333Y6881905D01*
X53038095Y6834286D01*
X52895238Y6834286D01*
X52800000Y6881905D01*
X53228571Y7215239D02*
X53133333Y7167620D01*
X52942857Y7167620D01*
X52847619Y7215239D01*
X52800000Y7262858D01*
X52752380Y7358096D01*
X52752380Y7643810D01*
X52800000Y7739048D01*
X52847619Y7786667D01*
X52942857Y7834286D01*
X53133333Y7834286D01*
X53228571Y7786667D01*
X50125714Y24995239D02*
X50268571Y24947620D01*
X50506666Y24947620D01*
X50601904Y24995239D01*
X50649523Y25042858D01*
X50697142Y25138096D01*
X50697142Y25233334D01*
X50649523Y25328572D01*
X50601904Y25376191D01*
X50506666Y25423810D01*
X50316190Y25471429D01*
X50220952Y25519048D01*
X50173333Y25566667D01*
X50125714Y25661905D01*
X50125714Y25757143D01*
X50173333Y25852381D01*
X50220952Y25900000D01*
X50316190Y25947620D01*
X50554285Y25947620D01*
X50697142Y25900000D01*
X53125714Y25947620D02*
X52649523Y25947620D01*
X52601904Y25471429D01*
X52649523Y25519048D01*
X52744761Y25566667D01*
X52982857Y25566667D01*
X53078095Y25519048D01*
X53125714Y25471429D01*
X53173333Y25376191D01*
X53173333Y25138096D01*
X53125714Y25042858D01*
X53078095Y24995239D01*
X52982857Y24947620D01*
X52744761Y24947620D01*
X52649523Y24995239D01*
X52601904Y25042858D01*
X53459047Y25947620D02*
X53792380Y24947620D01*
X54125714Y25947620D01*
X56506666Y25900000D02*
X56411428Y25947620D01*
X56268571Y25947620D01*
X56125714Y25900000D01*
X56030476Y25804762D01*
X55982857Y25709524D01*
X55935238Y25519048D01*
X55935238Y25376191D01*
X55982857Y25185715D01*
X56030476Y25090477D01*
X56125714Y24995239D01*
X56268571Y24947620D01*
X56363809Y24947620D01*
X56506666Y24995239D01*
X56554285Y25042858D01*
X56554285Y25376191D01*
X56363809Y25376191D01*
X71572380Y8770953D02*
X71572380Y8294762D01*
X70572380Y8294762D01*
X70572380Y8961429D02*
X71572380Y9294762D01*
X70572380Y9628096D01*
X33250476Y10977620D02*
X33250476Y11977620D01*
X33631428Y11977620D01*
X33726666Y11930000D01*
X33774285Y11882381D01*
X33821904Y11787143D01*
X33821904Y11644286D01*
X33774285Y11549048D01*
X33726666Y11501429D01*
X33631428Y11453810D01*
X33250476Y11453810D01*
X34440952Y11977620D02*
X34631428Y11977620D01*
X34726666Y11930000D01*
X34821904Y11834762D01*
X34869523Y11644286D01*
X34869523Y11310953D01*
X34821904Y11120477D01*
X34726666Y11025239D01*
X34631428Y10977620D01*
X34440952Y10977620D01*
X34345714Y11025239D01*
X34250476Y11120477D01*
X34202857Y11310953D01*
X34202857Y11644286D01*
X34250476Y11834762D01*
X34345714Y11930000D01*
X34440952Y11977620D01*
X35202857Y11977620D02*
X35440952Y10977620D01*
X35631428Y11691905D01*
X35821904Y10977620D01*
X36060000Y11977620D01*
X36440952Y11501429D02*
X36774285Y11501429D01*
X36917142Y10977620D02*
X36440952Y10977620D01*
X36440952Y11977620D01*
X36917142Y11977620D01*
X37917142Y10977620D02*
X37583809Y11453810D01*
X37345714Y10977620D02*
X37345714Y11977620D01*
X37726666Y11977620D01*
X37821904Y11930000D01*
X37869523Y11882381D01*
X37917142Y11787143D01*
X37917142Y11644286D01*
X37869523Y11549048D01*
X37821904Y11501429D01*
X37726666Y11453810D01*
X37345714Y11453810D01*
X24685714Y43394286D02*
X24923809Y42727620D01*
X25161904Y43394286D01*
X26066666Y42727620D02*
X25495238Y42727620D01*
X25780952Y42727620D02*
X25780952Y43727620D01*
X25685714Y43584762D01*
X25590476Y43489524D01*
X25495238Y43441905D01*
X57086666Y16592620D02*
X57324761Y15592620D01*
X57515238Y16306905D01*
X57705714Y15592620D01*
X57943809Y16592620D01*
X58324761Y15592620D02*
X58324761Y16259286D01*
X58324761Y16592620D02*
X58277142Y16545000D01*
X58324761Y16497381D01*
X58372380Y16545000D01*
X58324761Y16592620D01*
X58324761Y16497381D01*
X59134285Y16116429D02*
X58800952Y16116429D01*
X58800952Y15592620D02*
X58800952Y16592620D01*
X59277142Y16592620D01*
X59658095Y15592620D02*
X59658095Y16259286D01*
X59658095Y16592620D02*
X59610476Y16545000D01*
X59658095Y16497381D01*
X59705714Y16545000D01*
X59658095Y16592620D01*
X59658095Y16497381D01*
X57158095Y13982620D02*
X57158095Y14982620D01*
X57539047Y14982620D01*
X57634285Y14935000D01*
X57681904Y14887381D01*
X57729523Y14792143D01*
X57729523Y14649286D01*
X57681904Y14554048D01*
X57634285Y14506429D01*
X57539047Y14458810D01*
X57158095Y14458810D01*
X58729523Y13982620D02*
X58396190Y14458810D01*
X58158095Y13982620D02*
X58158095Y14982620D01*
X58539047Y14982620D01*
X58634285Y14935000D01*
X58681904Y14887381D01*
X58729523Y14792143D01*
X58729523Y14649286D01*
X58681904Y14554048D01*
X58634285Y14506429D01*
X58539047Y14458810D01*
X58158095Y14458810D01*
X59681904Y14935000D02*
X59586666Y14982620D01*
X59443809Y14982620D01*
X59300952Y14935000D01*
X59205714Y14839762D01*
X59158095Y14744524D01*
X59110476Y14554048D01*
X59110476Y14411191D01*
X59158095Y14220715D01*
X59205714Y14125477D01*
X59300952Y14030239D01*
X59443809Y13982620D01*
X59539047Y13982620D01*
X59681904Y14030239D01*
X59729523Y14077858D01*
X59729523Y14411191D01*
X59539047Y14411191D01*
X47760000Y34560000D02*
X47712380Y34464762D01*
X47712380Y34321905D01*
X47760000Y34179048D01*
X47855238Y34083810D01*
X47950476Y34036191D01*
X48140952Y33988572D01*
X48283809Y33988572D01*
X48474285Y34036191D01*
X48569523Y34083810D01*
X48664761Y34179048D01*
X48712380Y34321905D01*
X48712380Y34417143D01*
X48664761Y34560000D01*
X48617142Y34607620D01*
X48283809Y34607620D01*
X48283809Y34417143D01*
X48712380Y35036191D02*
X47712380Y35036191D01*
X47712380Y35417143D01*
X47760000Y35512381D01*
X47807619Y35560000D01*
X47902857Y35607620D01*
X48045714Y35607620D01*
X48140952Y35560000D01*
X48188571Y35512381D01*
X48236190Y35417143D01*
X48236190Y35036191D01*
X48712380Y36036191D02*
X47712380Y36036191D01*
X47712380Y36702858D02*
X47712380Y36893334D01*
X47760000Y36988572D01*
X47855238Y37083810D01*
X48045714Y37131429D01*
X48379047Y37131429D01*
X48569523Y37083810D01*
X48664761Y36988572D01*
X48712380Y36893334D01*
X48712380Y36702858D01*
X48664761Y36607620D01*
X48569523Y36512381D01*
X48379047Y36464762D01*
X48045714Y36464762D01*
X47855238Y36512381D01*
X47760000Y36607620D01*
X47712380Y36702858D01*
X18415238Y44532620D02*
X18653333Y43532620D01*
X18843809Y44246905D01*
X19034285Y43532620D01*
X19272380Y44532620D01*
X20081904Y43532620D02*
X20081904Y44056429D01*
X20034285Y44151667D01*
X19939047Y44199286D01*
X19748571Y44199286D01*
X19653333Y44151667D01*
X20081904Y43580239D02*
X19986666Y43532620D01*
X19748571Y43532620D01*
X19653333Y43580239D01*
X19605714Y43675477D01*
X19605714Y43770715D01*
X19653333Y43865953D01*
X19748571Y43913572D01*
X19986666Y43913572D01*
X20081904Y43961191D01*
X20415238Y44199286D02*
X20796190Y44199286D01*
X20558095Y44532620D02*
X20558095Y43675477D01*
X20605714Y43580239D01*
X20700952Y43532620D01*
X20796190Y43532620D01*
X21510476Y43580239D02*
X21415238Y43532620D01*
X21224761Y43532620D01*
X21129523Y43580239D01*
X21081904Y43675477D01*
X21081904Y44056429D01*
X21129523Y44151667D01*
X21224761Y44199286D01*
X21415238Y44199286D01*
X21510476Y44151667D01*
X21558095Y44056429D01*
X21558095Y43961191D01*
X21081904Y43865953D01*
X21986666Y43532620D02*
X21986666Y44199286D01*
X21986666Y44008810D02*
X22034285Y44104048D01*
X22081904Y44151667D01*
X22177142Y44199286D01*
X22272380Y44199286D01*
X19034285Y42875000D02*
X18939047Y42922620D01*
X18796190Y42922620D01*
X18653333Y42875000D01*
X18558095Y42779762D01*
X18510476Y42684524D01*
X18462857Y42494048D01*
X18462857Y42351191D01*
X18510476Y42160715D01*
X18558095Y42065477D01*
X18653333Y41970239D01*
X18796190Y41922620D01*
X18891428Y41922620D01*
X19034285Y41970239D01*
X19081904Y42017858D01*
X19081904Y42351191D01*
X18891428Y42351191D01*
X19939047Y41922620D02*
X19939047Y42446429D01*
X19891428Y42541667D01*
X19796190Y42589286D01*
X19605714Y42589286D01*
X19510476Y42541667D01*
X19939047Y41970239D02*
X19843809Y41922620D01*
X19605714Y41922620D01*
X19510476Y41970239D01*
X19462857Y42065477D01*
X19462857Y42160715D01*
X19510476Y42255953D01*
X19605714Y42303572D01*
X19843809Y42303572D01*
X19939047Y42351191D01*
X20415238Y41922620D02*
X20415238Y42589286D01*
X20415238Y42494048D02*
X20462857Y42541667D01*
X20558095Y42589286D01*
X20700952Y42589286D01*
X20796190Y42541667D01*
X20843809Y42446429D01*
X20843809Y41922620D01*
X20843809Y42446429D02*
X20891428Y42541667D01*
X20986666Y42589286D01*
X21129523Y42589286D01*
X21224761Y42541667D01*
X21272380Y42446429D01*
X21272380Y41922620D01*
X22129523Y41970239D02*
X22034285Y41922620D01*
X21843809Y41922620D01*
X21748571Y41970239D01*
X21700952Y42065477D01*
X21700952Y42446429D01*
X21748571Y42541667D01*
X21843809Y42589286D01*
X22034285Y42589286D01*
X22129523Y42541667D01*
X22177142Y42446429D01*
X22177142Y42351191D01*
X21700952Y42255953D01*
X35226666Y4357620D02*
X35226666Y3643334D01*
X35179047Y3500477D01*
X35083809Y3405239D01*
X34940952Y3357620D01*
X34845714Y3357620D01*
X35607619Y4357620D02*
X36226666Y4357620D01*
X35893333Y3976667D01*
X36036190Y3976667D01*
X36131428Y3929048D01*
X36179047Y3881429D01*
X36226666Y3786191D01*
X36226666Y3548096D01*
X36179047Y3452858D01*
X36131428Y3405239D01*
X36036190Y3357620D01*
X35750476Y3357620D01*
X35655238Y3405239D01*
X35607619Y3452858D01*
X69032380Y6183810D02*
X69032380Y5707620D01*
X68032380Y5707620D01*
X68984761Y6898096D02*
X69032380Y6802858D01*
X69032380Y6612381D01*
X68984761Y6517143D01*
X68889523Y6469524D01*
X68508571Y6469524D01*
X68413333Y6517143D01*
X68365714Y6612381D01*
X68365714Y6802858D01*
X68413333Y6898096D01*
X68508571Y6945715D01*
X68603809Y6945715D01*
X68699047Y6469524D01*
X68365714Y7279048D02*
X69032380Y7517143D01*
X68365714Y7755239D01*
X68984761Y8517143D02*
X69032380Y8421905D01*
X69032380Y8231429D01*
X68984761Y8136191D01*
X68889523Y8088572D01*
X68508571Y8088572D01*
X68413333Y8136191D01*
X68365714Y8231429D01*
X68365714Y8421905D01*
X68413333Y8517143D01*
X68508571Y8564762D01*
X68603809Y8564762D01*
X68699047Y8088572D01*
X69032380Y9136191D02*
X68984761Y9040953D01*
X68889523Y8993334D01*
X68032380Y8993334D01*
X68984761Y10231429D02*
X69032380Y10326667D01*
X69032380Y10517143D01*
X68984761Y10612381D01*
X68889523Y10660000D01*
X68841904Y10660000D01*
X68746666Y10612381D01*
X68699047Y10517143D01*
X68699047Y10374286D01*
X68651428Y10279048D01*
X68556190Y10231429D01*
X68508571Y10231429D01*
X68413333Y10279048D01*
X68365714Y10374286D01*
X68365714Y10517143D01*
X68413333Y10612381D01*
X69032380Y11088572D02*
X68032380Y11088572D01*
X69032380Y11517143D02*
X68508571Y11517143D01*
X68413333Y11469524D01*
X68365714Y11374286D01*
X68365714Y11231429D01*
X68413333Y11136191D01*
X68460952Y11088572D01*
X69032380Y11993334D02*
X68365714Y11993334D01*
X68032380Y11993334D02*
X68080000Y11945715D01*
X68127619Y11993334D01*
X68080000Y12040953D01*
X68032380Y11993334D01*
X68127619Y11993334D01*
X68365714Y12326667D02*
X68365714Y12707620D01*
X69032380Y12469524D02*
X68175238Y12469524D01*
X68080000Y12517143D01*
X68032380Y12612381D01*
X68032380Y12707620D01*
X68365714Y12898096D02*
X68365714Y13279048D01*
X68032380Y13040953D02*
X68889523Y13040953D01*
X68984761Y13088572D01*
X69032380Y13183810D01*
X69032380Y13279048D01*
X68984761Y13993334D02*
X69032380Y13898096D01*
X69032380Y13707620D01*
X68984761Y13612381D01*
X68889523Y13564762D01*
X68508571Y13564762D01*
X68413333Y13612381D01*
X68365714Y13707620D01*
X68365714Y13898096D01*
X68413333Y13993334D01*
X68508571Y14040953D01*
X68603809Y14040953D01*
X68699047Y13564762D01*
X69032380Y14469524D02*
X68365714Y14469524D01*
X68556190Y14469524D02*
X68460952Y14517143D01*
X68413333Y14564762D01*
X68365714Y14660000D01*
X68365714Y14755239D01*
X64214761Y35631429D02*
X64548095Y35631429D01*
X64690952Y35107620D02*
X64214761Y35107620D01*
X64214761Y36107620D01*
X64690952Y36107620D01*
X65071904Y35155239D02*
X65214761Y35107620D01*
X65452857Y35107620D01*
X65548095Y35155239D01*
X65595714Y35202858D01*
X65643333Y35298096D01*
X65643333Y35393334D01*
X65595714Y35488572D01*
X65548095Y35536191D01*
X65452857Y35583810D01*
X65262380Y35631429D01*
X65167142Y35679048D01*
X65119523Y35726667D01*
X65071904Y35821905D01*
X65071904Y35917143D01*
X65119523Y36012381D01*
X65167142Y36060000D01*
X65262380Y36107620D01*
X65500476Y36107620D01*
X65643333Y36060000D01*
X66071904Y35107620D02*
X66071904Y36107620D01*
X66452857Y36107620D01*
X66548095Y36060000D01*
X66595714Y36012381D01*
X66643333Y35917143D01*
X66643333Y35774286D01*
X66595714Y35679048D01*
X66548095Y35631429D01*
X66452857Y35583810D01*
X66071904Y35583810D01*
X67214761Y35679048D02*
X67119523Y35726667D01*
X67071904Y35774286D01*
X67024285Y35869524D01*
X67024285Y35917143D01*
X67071904Y36012381D01*
X67119523Y36060000D01*
X67214761Y36107620D01*
X67405238Y36107620D01*
X67500476Y36060000D01*
X67548095Y36012381D01*
X67595714Y35917143D01*
X67595714Y35869524D01*
X67548095Y35774286D01*
X67500476Y35726667D01*
X67405238Y35679048D01*
X67214761Y35679048D01*
X67119523Y35631429D01*
X67071904Y35583810D01*
X67024285Y35488572D01*
X67024285Y35298096D01*
X67071904Y35202858D01*
X67119523Y35155239D01*
X67214761Y35107620D01*
X67405238Y35107620D01*
X67500476Y35155239D01*
X67548095Y35202858D01*
X67595714Y35298096D01*
X67595714Y35488572D01*
X67548095Y35583810D01*
X67500476Y35631429D01*
X67405238Y35679048D01*
X67976666Y36012381D02*
X68024285Y36060000D01*
X68119523Y36107620D01*
X68357619Y36107620D01*
X68452857Y36060000D01*
X68500476Y36012381D01*
X68548095Y35917143D01*
X68548095Y35821905D01*
X68500476Y35679048D01*
X67929047Y35107620D01*
X68548095Y35107620D01*
X69405238Y36107620D02*
X69214761Y36107620D01*
X69119523Y36060000D01*
X69071904Y36012381D01*
X68976666Y35869524D01*
X68929047Y35679048D01*
X68929047Y35298096D01*
X68976666Y35202858D01*
X69024285Y35155239D01*
X69119523Y35107620D01*
X69310000Y35107620D01*
X69405238Y35155239D01*
X69452857Y35202858D01*
X69500476Y35298096D01*
X69500476Y35536191D01*
X69452857Y35631429D01*
X69405238Y35679048D01*
X69310000Y35726667D01*
X69119523Y35726667D01*
X69024285Y35679048D01*
X68976666Y35631429D01*
X68929047Y35536191D01*
X70357619Y36107620D02*
X70167142Y36107620D01*
X70071904Y36060000D01*
X70024285Y36012381D01*
X69929047Y35869524D01*
X69881428Y35679048D01*
X69881428Y35298096D01*
X69929047Y35202858D01*
X69976666Y35155239D01*
X70071904Y35107620D01*
X70262380Y35107620D01*
X70357619Y35155239D01*
X70405238Y35202858D01*
X70452857Y35298096D01*
X70452857Y35536191D01*
X70405238Y35631429D01*
X70357619Y35679048D01*
X70262380Y35726667D01*
X70071904Y35726667D01*
X69976666Y35679048D01*
X69929047Y35631429D01*
X69881428Y35536191D01*
%TO.C,J4*%
X48982380Y14906667D02*
X49696666Y14906667D01*
X49839523Y14859048D01*
X49934761Y14763810D01*
X49982380Y14620953D01*
X49982380Y14525715D01*
X49315714Y15811429D02*
X49982380Y15811429D01*
X48934761Y15573334D02*
X49649047Y15335239D01*
X49649047Y15954286D01*
%TO.C,R2*%
X50632380Y21423334D02*
X50156190Y21090000D01*
X50632380Y20851905D02*
X49632380Y20851905D01*
X49632380Y21232858D01*
X49680000Y21328096D01*
X49727619Y21375715D01*
X49822857Y21423334D01*
X49965714Y21423334D01*
X50060952Y21375715D01*
X50108571Y21328096D01*
X50156190Y21232858D01*
X50156190Y20851905D01*
X49727619Y21804286D02*
X49680000Y21851905D01*
X49632380Y21947143D01*
X49632380Y22185239D01*
X49680000Y22280477D01*
X49727619Y22328096D01*
X49822857Y22375715D01*
X49918095Y22375715D01*
X50060952Y22328096D01*
X50632380Y21756667D01*
X50632380Y22375715D01*
%TO.C,D1*%
X52601904Y17177620D02*
X52601904Y18177620D01*
X52840000Y18177620D01*
X52982857Y18130000D01*
X53078095Y18034762D01*
X53125714Y17939524D01*
X53173333Y17749048D01*
X53173333Y17606191D01*
X53125714Y17415715D01*
X53078095Y17320477D01*
X52982857Y17225239D01*
X52840000Y17177620D01*
X52601904Y17177620D01*
X54125714Y17177620D02*
X53554285Y17177620D01*
X53840000Y17177620D02*
X53840000Y18177620D01*
X53744761Y18034762D01*
X53649523Y17939524D01*
X53554285Y17891905D01*
%TO.C,J2*%
X9826666Y15787620D02*
X9826666Y15073334D01*
X9779047Y14930477D01*
X9683809Y14835239D01*
X9540952Y14787620D01*
X9445714Y14787620D01*
X10255238Y15692381D02*
X10302857Y15740000D01*
X10398095Y15787620D01*
X10636190Y15787620D01*
X10731428Y15740000D01*
X10779047Y15692381D01*
X10826666Y15597143D01*
X10826666Y15501905D01*
X10779047Y15359048D01*
X10207619Y14787620D01*
X10826666Y14787620D01*
%TO.C,R1*%
X61412380Y19503334D02*
X60936190Y19170000D01*
X61412380Y18931905D02*
X60412380Y18931905D01*
X60412380Y19312858D01*
X60460000Y19408096D01*
X60507619Y19455715D01*
X60602857Y19503334D01*
X60745714Y19503334D01*
X60840952Y19455715D01*
X60888571Y19408096D01*
X60936190Y19312858D01*
X60936190Y18931905D01*
X61412380Y20455715D02*
X61412380Y19884286D01*
X61412380Y20170000D02*
X60412380Y20170000D01*
X60555238Y20074762D01*
X60650476Y19979524D01*
X60698095Y19884286D01*
%TO.C,U5*%
X24627380Y34788096D02*
X25436904Y34788096D01*
X25532142Y34835715D01*
X25579761Y34883334D01*
X25627380Y34978572D01*
X25627380Y35169048D01*
X25579761Y35264286D01*
X25532142Y35311905D01*
X25436904Y35359524D01*
X24627380Y35359524D01*
X24627380Y36311905D02*
X24627380Y35835715D01*
X25103571Y35788096D01*
X25055952Y35835715D01*
X25008333Y35930953D01*
X25008333Y36169048D01*
X25055952Y36264286D01*
X25103571Y36311905D01*
X25198809Y36359524D01*
X25436904Y36359524D01*
X25532142Y36311905D01*
X25579761Y36264286D01*
X25627380Y36169048D01*
X25627380Y35930953D01*
X25579761Y35835715D01*
X25532142Y35788096D01*
%TO.C,U4*%
X66762380Y28448096D02*
X67571904Y28448096D01*
X67667142Y28495715D01*
X67714761Y28543334D01*
X67762380Y28638572D01*
X67762380Y28829048D01*
X67714761Y28924286D01*
X67667142Y28971905D01*
X67571904Y29019524D01*
X66762380Y29019524D01*
X67095714Y29924286D02*
X67762380Y29924286D01*
X66714761Y29686191D02*
X67429047Y29448096D01*
X67429047Y30067143D01*
%TO.C,U3*%
X46442380Y41148096D02*
X47251904Y41148096D01*
X47347142Y41195715D01*
X47394761Y41243334D01*
X47442380Y41338572D01*
X47442380Y41529048D01*
X47394761Y41624286D01*
X47347142Y41671905D01*
X47251904Y41719524D01*
X46442380Y41719524D01*
X46442380Y42100477D02*
X46442380Y42719524D01*
X46823333Y42386191D01*
X46823333Y42529048D01*
X46870952Y42624286D01*
X46918571Y42671905D01*
X47013809Y42719524D01*
X47251904Y42719524D01*
X47347142Y42671905D01*
X47394761Y42624286D01*
X47442380Y42529048D01*
X47442380Y42243334D01*
X47394761Y42148096D01*
X47347142Y42100477D01*
X36003666Y24103334D02*
X35303666Y24103334D01*
X35803666Y24336667D01*
X35303666Y24570000D01*
X36003666Y24570000D01*
X35637000Y24903334D02*
X35637000Y25136667D01*
X36003666Y25236667D02*
X36003666Y24903334D01*
X35303666Y24903334D01*
X35303666Y25236667D01*
X35337000Y25903334D02*
X35303666Y25836667D01*
X35303666Y25736667D01*
X35337000Y25636667D01*
X35403666Y25570000D01*
X35470333Y25536667D01*
X35603666Y25503334D01*
X35703666Y25503334D01*
X35837000Y25536667D01*
X35903666Y25570000D01*
X35970333Y25636667D01*
X36003666Y25736667D01*
X36003666Y25803334D01*
X35970333Y25903334D01*
X35937000Y25936667D01*
X35703666Y25936667D01*
X35703666Y25803334D01*
X35803666Y26203334D02*
X35803666Y26536667D01*
X36003666Y26136667D02*
X35303666Y26370000D01*
X36003666Y26603334D01*
X35303666Y26770000D02*
X35303666Y27203334D01*
X35570333Y26970000D01*
X35570333Y27070000D01*
X35603666Y27136667D01*
X35637000Y27170000D01*
X35703666Y27203334D01*
X35870333Y27203334D01*
X35937000Y27170000D01*
X35970333Y27136667D01*
X36003666Y27070000D01*
X36003666Y26870000D01*
X35970333Y26803334D01*
X35937000Y26770000D01*
X35370333Y27470000D02*
X35337000Y27503334D01*
X35303666Y27570000D01*
X35303666Y27736667D01*
X35337000Y27803334D01*
X35370333Y27836667D01*
X35437000Y27870000D01*
X35503666Y27870000D01*
X35603666Y27836667D01*
X36003666Y27436667D01*
X36003666Y27870000D01*
X35303666Y28170000D02*
X35870333Y28170000D01*
X35937000Y28203334D01*
X35970333Y28236667D01*
X36003666Y28303334D01*
X36003666Y28436667D01*
X35970333Y28503334D01*
X35937000Y28536667D01*
X35870333Y28570000D01*
X35303666Y28570000D01*
X35537000Y29203334D02*
X36003666Y29203334D01*
X35270333Y29036667D02*
X35770333Y28870000D01*
X35770333Y29303334D01*
%TO.C,U1*%
X60332380Y6858096D02*
X61141904Y6858096D01*
X61237142Y6905715D01*
X61284761Y6953334D01*
X61332380Y7048572D01*
X61332380Y7239048D01*
X61284761Y7334286D01*
X61237142Y7381905D01*
X61141904Y7429524D01*
X60332380Y7429524D01*
X61332380Y8429524D02*
X61332380Y7858096D01*
X61332380Y8143810D02*
X60332380Y8143810D01*
X60475238Y8048572D01*
X60570476Y7953334D01*
X60618095Y7858096D01*
%TO.C,U6*%
X24627380Y20828096D02*
X25436904Y20828096D01*
X25532142Y20875715D01*
X25579761Y20923334D01*
X25627380Y21018572D01*
X25627380Y21209048D01*
X25579761Y21304286D01*
X25532142Y21351905D01*
X25436904Y21399524D01*
X24627380Y21399524D01*
X24627380Y22304286D02*
X24627380Y22113810D01*
X24675000Y22018572D01*
X24722619Y21970953D01*
X24865476Y21875715D01*
X25055952Y21828096D01*
X25436904Y21828096D01*
X25532142Y21875715D01*
X25579761Y21923334D01*
X25627380Y22018572D01*
X25627380Y22209048D01*
X25579761Y22304286D01*
X25532142Y22351905D01*
X25436904Y22399524D01*
X25198809Y22399524D01*
X25103571Y22351905D01*
X25055952Y22304286D01*
X25008333Y22209048D01*
X25008333Y22018572D01*
X25055952Y21923334D01*
X25103571Y21875715D01*
X25198809Y21828096D01*
%TO.C,U2*%
X20828095Y14517620D02*
X20828095Y13708096D01*
X20875714Y13612858D01*
X20923333Y13565239D01*
X21018571Y13517620D01*
X21209047Y13517620D01*
X21304285Y13565239D01*
X21351904Y13612858D01*
X21399523Y13708096D01*
X21399523Y14517620D01*
X21828095Y14422381D02*
X21875714Y14470000D01*
X21970952Y14517620D01*
X22209047Y14517620D01*
X22304285Y14470000D01*
X22351904Y14422381D01*
X22399523Y14327143D01*
X22399523Y14231905D01*
X22351904Y14089048D01*
X21780476Y13517620D01*
X22399523Y13517620D01*
D11*
%TO.C,J4*%
X53340000Y16570000D02*
X50740000Y16570000D01*
X53340000Y16570000D02*
X53340000Y13910000D01*
X55940000Y13910000D02*
X54610000Y13910000D01*
X53340000Y13910000D02*
X50740000Y13910000D01*
X50740000Y16570000D02*
X50740000Y13910000D01*
X55940000Y15240000D02*
X55940000Y13910000D01*
%TO.C,J1B1*%
X54645000Y29230000D02*
X54645000Y44530000D01*
X54645000Y29230000D02*
X51985000Y29230000D01*
X51985000Y26630000D02*
X51985000Y27960000D01*
X51985000Y29230000D02*
X51985000Y44530000D01*
X53315000Y26630000D02*
X51985000Y26630000D01*
X54645000Y44530000D02*
X51985000Y44530000D01*
%TO.C,R2*%
X47340000Y23510000D02*
X47340000Y19670000D01*
X48260000Y18720000D02*
X48260000Y19670000D01*
X49180000Y23510000D02*
X47340000Y23510000D01*
X49180000Y19670000D02*
X49180000Y23510000D01*
X48260000Y24460000D02*
X48260000Y23510000D01*
X47340000Y19670000D02*
X49180000Y19670000D01*
%TO.C,J3*%
X34230000Y7620000D02*
X36890000Y7620000D01*
X35560000Y10220000D02*
X36890000Y10220000D01*
X34230000Y7620000D02*
X34230000Y5020000D01*
X34230000Y5020000D02*
X36890000Y5020000D01*
X36890000Y7620000D02*
X36890000Y5020000D01*
X36890000Y10220000D02*
X36890000Y8890000D01*
%TO.C,D1*%
X55900000Y20045000D02*
X55900000Y23135000D01*
X50350000Y21590462D02*
G75*
G03*
X55900000Y20045170I2990000J-462D01*
G01*
X55900000Y23134830D02*
G75*
G03*
X50350000Y21589538I-2560000J-1544830D01*
G01*
X55840000Y21590000D02*
G75*
G03*
X55840000Y21590000I-2500000J0D01*
G01*
%TO.C,J2*%
X8970000Y14030000D02*
X8970000Y12700000D01*
X7640000Y14030000D02*
X8970000Y14030000D01*
X6370000Y14030000D02*
X6370000Y11430000D01*
X8970000Y11430000D02*
X8970000Y3750000D01*
X3770000Y3750000D02*
X8970000Y3750000D01*
X3770000Y14030000D02*
X6370000Y14030000D01*
X6370000Y11430000D02*
X8970000Y11430000D01*
X3770000Y14030000D02*
X3770000Y3750000D01*
%TO.C,J5A2*%
X72355000Y15215000D02*
X72355000Y2455000D01*
X72355000Y15215000D02*
X75015000Y15215000D01*
X75015000Y17815000D02*
X75015000Y16485000D01*
X75015000Y15215000D02*
X75015000Y2455000D01*
X72355000Y2455000D02*
X75015000Y2455000D01*
X73685000Y17815000D02*
X75015000Y17815000D01*
%TO.C,J1C1*%
X57210000Y44530000D02*
X54550000Y44530000D01*
X57210000Y29230000D02*
X54550000Y29230000D01*
X54550000Y29230000D02*
X54550000Y44530000D01*
X55880000Y26630000D02*
X54550000Y26630000D01*
X57210000Y29230000D02*
X57210000Y44530000D01*
X54550000Y26630000D02*
X54550000Y27960000D01*
%TO.C,J5A1*%
X64830000Y15240000D02*
X64830000Y2480000D01*
X62170000Y2480000D02*
X64830000Y2480000D01*
X63500000Y17840000D02*
X64830000Y17840000D01*
X62170000Y15240000D02*
X62170000Y2480000D01*
X64830000Y17840000D02*
X64830000Y16510000D01*
X62170000Y15240000D02*
X64830000Y15240000D01*
%TO.C,G\u002A\u002A\u002A*%
G36*
X14579954Y42374587D02*
G01*
X14393677Y42374587D01*
X14391049Y42131489D01*
X14388422Y41888392D01*
X14324162Y41885534D01*
X14290219Y41885058D01*
X14264453Y41886615D01*
X14252952Y41889626D01*
X14251021Y41900994D01*
X14249297Y41929235D01*
X14247857Y41971581D01*
X14246780Y42025260D01*
X14246143Y42087502D01*
X14246002Y42135582D01*
X14246002Y42374587D01*
X14059381Y42374587D01*
X14059381Y42492452D01*
X14579954Y42492452D01*
X14579954Y42374587D01*
G37*
G36*
X6076344Y44769444D02*
G01*
X6065474Y44747148D01*
X6048803Y44716431D01*
X6028719Y44681359D01*
X6007609Y44645998D01*
X5987861Y44614416D01*
X5971864Y44590678D01*
X5962005Y44578850D01*
X5960996Y44578277D01*
X5946564Y44580936D01*
X5925119Y44591469D01*
X5924211Y44592027D01*
X5905614Y44605252D01*
X5897238Y44614579D01*
X5897200Y44614928D01*
X5903933Y44623883D01*
X5921881Y44642213D01*
X5947672Y44666868D01*
X5977933Y44694800D01*
X6009289Y44722960D01*
X6038368Y44748299D01*
X6061796Y44767769D01*
X6076201Y44778321D01*
X6079024Y44779254D01*
X6076344Y44769444D01*
G37*
G36*
X13381509Y42288533D02*
G01*
X13389983Y42322238D01*
X13404757Y42351730D01*
X13427508Y42382141D01*
X13447887Y42405403D01*
X13502694Y42452079D01*
X13567633Y42484517D01*
X13639153Y42502577D01*
X13713705Y42506118D01*
X13787739Y42494998D01*
X13857705Y42469076D01*
X13920053Y42428211D01*
X13924546Y42424343D01*
X13966829Y42374807D01*
X13997266Y42313017D01*
X14014884Y42243080D01*
X14018711Y42169102D01*
X14007774Y42095190D01*
X14004960Y42084912D01*
X13980214Y42030116D01*
X13940825Y41977762D01*
X13891639Y41932751D01*
X13837503Y41899991D01*
X13812965Y41890597D01*
X13751691Y41877893D01*
X13684950Y41874271D01*
X13620324Y41879612D01*
X13565396Y41893792D01*
X13563364Y41894599D01*
X13503952Y41924535D01*
X13456728Y41963149D01*
X13415307Y42015743D01*
X13412714Y42019693D01*
X13376744Y42075012D01*
X13376744Y42187966D01*
X13514254Y42187966D01*
X13518462Y42129286D01*
X13532554Y42084745D01*
X13558731Y42050403D01*
X13599193Y42022320D01*
X13609865Y42016772D01*
X13664238Y41996609D01*
X13714597Y41993787D01*
X13765782Y42008112D01*
X13770769Y42010315D01*
X13816675Y42041004D01*
X13850086Y42083254D01*
X13870791Y42133300D01*
X13878577Y42187372D01*
X13873236Y42241704D01*
X13854556Y42292528D01*
X13822325Y42336078D01*
X13790397Y42360943D01*
X13753991Y42374618D01*
X13707957Y42380522D01*
X13659668Y42378794D01*
X13616499Y42369570D01*
X13591068Y42357222D01*
X13552405Y42322067D01*
X13528032Y42280156D01*
X13516145Y42227516D01*
X13514254Y42187966D01*
X13376744Y42187966D01*
X13377655Y42245486D01*
X13381509Y42288533D01*
G37*
G36*
X12763256Y42092876D02*
G01*
X12762894Y42165367D01*
X12762862Y42195087D01*
X12762862Y42237077D01*
X12900371Y42237077D01*
X12976493Y42237631D01*
X13018537Y42239442D01*
X13057508Y42243686D01*
X13085405Y42249470D01*
X13086735Y42249909D01*
X13119827Y42269683D01*
X13137350Y42299319D01*
X13138251Y42331724D01*
X13125981Y42354796D01*
X13098574Y42370991D01*
X13054853Y42380711D01*
X12993640Y42384359D01*
X12984175Y42384409D01*
X12900371Y42384409D01*
X12900371Y42237077D01*
X12762862Y42237077D01*
X12762862Y42493597D01*
X12956848Y42490569D01*
X13024128Y42489376D01*
X13074998Y42487952D01*
X13112694Y42485947D01*
X13140450Y42483009D01*
X13161503Y42478787D01*
X13179085Y42472930D01*
X13196433Y42465086D01*
X13197819Y42464406D01*
X13241133Y42433408D01*
X13269409Y42392581D01*
X13282111Y42345348D01*
X13278701Y42295130D01*
X13258644Y42245350D01*
X13236860Y42215344D01*
X13229040Y42203315D01*
X13232272Y42192175D01*
X13248742Y42176152D01*
X13253130Y42172430D01*
X13290227Y42131390D01*
X13309355Y42084586D01*
X13312864Y42048489D01*
X13304172Y41996934D01*
X13278469Y41954835D01*
X13236164Y41922570D01*
X13177667Y41900518D01*
X13145691Y41893949D01*
X13116138Y41890604D01*
X13074802Y41887863D01*
X13025448Y41885768D01*
X12971838Y41884356D01*
X12917737Y41883667D01*
X12866909Y41883740D01*
X12823118Y41884615D01*
X12790127Y41886331D01*
X12771701Y41888926D01*
X12769410Y41890029D01*
X12767776Y41901132D01*
X12766291Y41929424D01*
X12765007Y41972449D01*
X12764652Y41991524D01*
X12900371Y41991524D01*
X12996137Y41991539D01*
X13049006Y41992712D01*
X13086932Y41996616D01*
X13114502Y42003861D01*
X13125448Y42008728D01*
X13156497Y42032071D01*
X13168682Y42060537D01*
X13164446Y42087726D01*
X13147697Y42110170D01*
X13115925Y42125921D01*
X13067901Y42135349D01*
X13002396Y42138822D01*
X12993997Y42138856D01*
X12900371Y42138856D01*
X12900371Y41991524D01*
X12764652Y41991524D01*
X12763978Y42027752D01*
X12763256Y42092876D01*
G37*
G36*
X5267014Y44256675D02*
G01*
X5296075Y44234153D01*
X5321043Y44212771D01*
X5331671Y44202338D01*
X5351135Y44187352D01*
X5375772Y44182856D01*
X5410056Y44188644D01*
X5438567Y44197460D01*
X5467706Y44205833D01*
X5490053Y44209493D01*
X5496453Y44209033D01*
X5493502Y44202708D01*
X5477731Y44188690D01*
X5452996Y44169667D01*
X5423155Y44148325D01*
X5392063Y44127354D01*
X5363578Y44109442D01*
X5341556Y44097276D01*
X5330629Y44093457D01*
X5316489Y44098921D01*
X5295293Y44112315D01*
X5292009Y44114731D01*
X5266588Y44135214D01*
X5237625Y44160446D01*
X5229296Y44168091D01*
X5194919Y44200178D01*
X5145808Y44186564D01*
X5112706Y44177313D01*
X5084264Y44169239D01*
X5074598Y44166436D01*
X5056165Y44163258D01*
X5054663Y44169479D01*
X5069893Y44184882D01*
X5101654Y44209252D01*
X5136875Y44233738D01*
X5220893Y44290531D01*
X5267014Y44256675D01*
G37*
G36*
X4922341Y44403101D02*
G01*
X4938842Y44392331D01*
X4944685Y44386560D01*
X4949068Y44380758D01*
X4952224Y44372243D01*
X4954383Y44358332D01*
X4955777Y44336341D01*
X4956639Y44303589D01*
X4957199Y44257392D01*
X4957690Y44195066D01*
X4957865Y44172034D01*
X4958497Y44109371D01*
X4959565Y44062812D01*
X4961484Y44028816D01*
X4964672Y44003842D01*
X4969544Y43984349D01*
X4976518Y43966798D01*
X4983739Y43952071D01*
X5019102Y43899967D01*
X5066023Y43860777D01*
X5125758Y43833927D01*
X5199560Y43818842D01*
X5283318Y43814879D01*
X5369758Y43820896D01*
X5440721Y43837582D01*
X5497635Y43865601D01*
X5541929Y43905616D01*
X5569969Y43948108D01*
X5579548Y43966942D01*
X5586529Y43983591D01*
X5591282Y44001475D01*
X5594181Y44024015D01*
X5595596Y44054632D01*
X5595900Y44096747D01*
X5595463Y44153782D01*
X5595180Y44180129D01*
X5594754Y44252878D01*
X5595745Y44308310D01*
X5598867Y44348740D01*
X5604831Y44376482D01*
X5614350Y44393851D01*
X5628138Y44403161D01*
X5646908Y44406727D01*
X5665055Y44407018D01*
X5716050Y44400673D01*
X5762333Y44381956D01*
X5809980Y44348293D01*
X5816386Y44342862D01*
X5856320Y44302647D01*
X5885742Y44258148D01*
X5906381Y44205317D01*
X5919968Y44140107D01*
X5926105Y44086122D01*
X5930991Y44037147D01*
X5936659Y43991449D01*
X5942312Y43954967D01*
X5946053Y43937260D01*
X5966349Y43887916D01*
X5999742Y43835203D01*
X6041939Y43784889D01*
X6088645Y43742739D01*
X6093670Y43738997D01*
X6122732Y43718157D01*
X6148971Y43700411D01*
X6176643Y43683192D01*
X6210006Y43663931D01*
X6253316Y43640059D01*
X6294996Y43617526D01*
X6384403Y43568161D01*
X6459135Y43523852D01*
X6522669Y43482149D01*
X6578484Y43440603D01*
X6630058Y43396765D01*
X6680868Y43348184D01*
X6688777Y43340196D01*
X6778756Y43240976D01*
X6849741Y43145389D01*
X6901959Y43053011D01*
X6935636Y42963417D01*
X6950999Y42876182D01*
X6952091Y42846048D01*
X6950244Y42798920D01*
X6943831Y42763708D01*
X6931448Y42732938D01*
X6930430Y42730967D01*
X6912872Y42701850D01*
X6893832Y42682072D01*
X6870911Y42671732D01*
X6841711Y42670931D01*
X6803835Y42679770D01*
X6754885Y42698349D01*
X6692462Y42726769D01*
X6660383Y42742283D01*
X6553064Y42792304D01*
X6458048Y42830716D01*
X6372219Y42858087D01*
X6292464Y42874982D01*
X6215666Y42881967D01*
X6138713Y42879609D01*
X6058488Y42868474D01*
X6015215Y42859577D01*
X5891612Y42824002D01*
X5782882Y42775983D01*
X5688339Y42715068D01*
X5607297Y42640807D01*
X5539070Y42552748D01*
X5531918Y42541563D01*
X5487727Y42462167D01*
X5452103Y42377589D01*
X5424377Y42285097D01*
X5403881Y42181958D01*
X5389946Y42065440D01*
X5381903Y41932810D01*
X5381715Y41927680D01*
X5376843Y41820003D01*
X5370298Y41717540D01*
X5362324Y41622257D01*
X5353165Y41536117D01*
X5343066Y41461086D01*
X5332272Y41399127D01*
X5321026Y41352204D01*
X5309574Y41322282D01*
X5305614Y41316253D01*
X5287728Y41305438D01*
X5278407Y41303976D01*
X5257837Y41310475D01*
X5251019Y41316253D01*
X5238113Y41336028D01*
X5226934Y41362990D01*
X5217228Y41398872D01*
X5208740Y41445405D01*
X5201217Y41504323D01*
X5194402Y41577358D01*
X5188043Y41666243D01*
X5181885Y41772710D01*
X5180716Y41795082D01*
X5176333Y41878126D01*
X5172480Y41945226D01*
X5168843Y42000064D01*
X5165108Y42046321D01*
X5160963Y42087680D01*
X5156093Y42127822D01*
X5150186Y42170429D01*
X5146838Y42193194D01*
X5119986Y42318251D01*
X5078640Y42433192D01*
X5023652Y42536732D01*
X4955875Y42627586D01*
X4876163Y42704467D01*
X4785369Y42766091D01*
X4756652Y42781139D01*
X4636733Y42831588D01*
X4518981Y42863635D01*
X4400767Y42877928D01*
X4360039Y42878858D01*
X4298484Y42877246D01*
X4241966Y42871886D01*
X4187025Y42861757D01*
X4130200Y42845842D01*
X4068028Y42823122D01*
X3997049Y42792579D01*
X3913802Y42753192D01*
X3884957Y42739025D01*
X3819784Y42707717D01*
X3768981Y42685903D01*
X3729970Y42673148D01*
X3700171Y42669015D01*
X3677005Y42673069D01*
X3657893Y42684875D01*
X3644741Y42698467D01*
X3618891Y42737754D01*
X3604389Y42782897D01*
X3600090Y42838573D01*
X3601609Y42874669D01*
X3616693Y42958913D01*
X3649192Y43046805D01*
X3697669Y43136480D01*
X3760685Y43226071D01*
X3836803Y43313710D01*
X3924585Y43397532D01*
X4022592Y43475668D01*
X4109763Y43534303D01*
X4144201Y43555353D01*
X4172018Y43571776D01*
X4189266Y43581271D01*
X4192783Y43582707D01*
X4205836Y43587581D01*
X4231848Y43600774D01*
X4267150Y43620147D01*
X4308072Y43643561D01*
X4350946Y43668875D01*
X4392102Y43693950D01*
X4427871Y43716646D01*
X4454585Y43734822D01*
X4458260Y43737533D01*
X4512720Y43783461D01*
X4554558Y43831437D01*
X4585566Y43885113D01*
X4607534Y43948145D01*
X4622252Y44024186D01*
X4629120Y44086179D01*
X4636366Y44151477D01*
X4646479Y44202193D01*
X4661376Y44243365D01*
X4682973Y44280033D01*
X4713186Y44317235D01*
X4719692Y44324383D01*
X4758738Y44359042D01*
X4802507Y44385478D01*
X4847017Y44402455D01*
X4888289Y44408741D01*
X4922341Y44403101D01*
G37*
G36*
X9514034Y42347964D02*
G01*
X9531533Y42292298D01*
X9548455Y42238280D01*
X9563217Y42190976D01*
X9574237Y42155447D01*
X9577073Y42146222D01*
X9587034Y42116382D01*
X9595449Y42095913D01*
X9599804Y42089745D01*
X9604299Y42098652D01*
X9613795Y42123560D01*
X9627336Y42161751D01*
X9643965Y42210506D01*
X9662726Y42267108D01*
X9669741Y42288643D01*
X9734236Y42487541D01*
X9791320Y42490527D01*
X9832205Y42492024D01*
X9856120Y42489090D01*
X9865706Y42478469D01*
X9863601Y42456910D01*
X9852445Y42421158D01*
X9851021Y42416936D01*
X9841169Y42387219D01*
X9826658Y42342734D01*
X9808767Y42287438D01*
X9788774Y42225286D01*
X9767959Y42160237D01*
X9762707Y42143767D01*
X9738391Y42066865D01*
X9719332Y42006543D01*
X9704302Y41960836D01*
X9692074Y41927782D01*
X9681420Y41905416D01*
X9671111Y41891774D01*
X9659920Y41884893D01*
X9646619Y41882810D01*
X9629981Y41883561D01*
X9608776Y41885181D01*
X9601242Y41885547D01*
X9526473Y41888392D01*
X9500466Y41966969D01*
X9486066Y42010928D01*
X9468483Y42065275D01*
X9450411Y42121653D01*
X9440402Y42153148D01*
X9426212Y42195947D01*
X9413316Y42231166D01*
X9403207Y42254956D01*
X9397654Y42263437D01*
X9392091Y42255400D01*
X9381748Y42231425D01*
X9367689Y42194326D01*
X9350977Y42146920D01*
X9332675Y42092023D01*
X9331073Y42087080D01*
X9312484Y42030465D01*
X9295346Y41979908D01*
X9280766Y41938545D01*
X9269851Y41909511D01*
X9263707Y41895941D01*
X9263571Y41895758D01*
X9247495Y41888450D01*
X9214868Y41884284D01*
X9186164Y41883481D01*
X9150243Y41883957D01*
X9128934Y41886542D01*
X9117211Y41892967D01*
X9110046Y41904967D01*
X9107807Y41910491D01*
X9099475Y41933359D01*
X9086798Y41970130D01*
X9070695Y42017970D01*
X9052085Y42074044D01*
X9031885Y42135520D01*
X9011013Y42199563D01*
X8990389Y42263338D01*
X8970931Y42324012D01*
X8953556Y42378752D01*
X8939184Y42424722D01*
X8928732Y42459089D01*
X8923119Y42479018D01*
X8922413Y42482633D01*
X8931545Y42487590D01*
X8956230Y42491043D01*
X8992398Y42492445D01*
X8995417Y42492452D01*
X9033078Y42491964D01*
X9055618Y42489663D01*
X9067552Y42484289D01*
X9073397Y42474584D01*
X9074720Y42470352D01*
X9079717Y42453687D01*
X9089426Y42422019D01*
X9102689Y42379096D01*
X9118351Y42328663D01*
X9128527Y42296010D01*
X9145090Y42242845D01*
X9159971Y42194920D01*
X9172011Y42155980D01*
X9180049Y42129772D01*
X9182484Y42121667D01*
X9190369Y42104524D01*
X9196707Y42099567D01*
X9201985Y42108454D01*
X9212294Y42133283D01*
X9226608Y42171309D01*
X9243904Y42219787D01*
X9263158Y42275970D01*
X9269042Y42293554D01*
X9333604Y42487541D01*
X9400943Y42490385D01*
X9468283Y42493229D01*
X9514034Y42347964D01*
G37*
G36*
X6312395Y44117868D02*
G01*
X6360245Y44108865D01*
X6401740Y44100948D01*
X6440967Y44093725D01*
X6469339Y44088776D01*
X6492967Y44083193D01*
X6505542Y44076880D01*
X6506172Y44075430D01*
X6497046Y44071485D01*
X6472265Y44066297D01*
X6435720Y44060567D01*
X6395673Y44055493D01*
X6349012Y44049929D01*
X6307798Y44044588D01*
X6277024Y44040141D01*
X6263074Y44037633D01*
X6249609Y44036134D01*
X6243120Y44043103D01*
X6241097Y44063089D01*
X6240974Y44077659D01*
X6241730Y44100137D01*
X6246096Y44114571D01*
X6257228Y44121788D01*
X6278277Y44122612D01*
X6312395Y44117868D01*
G37*
G36*
X6368415Y44463870D02*
G01*
X6352951Y44450907D01*
X6349293Y44448436D01*
X6330185Y44434694D01*
X6301375Y44412764D01*
X6268387Y44386868D01*
X6260894Y44380879D01*
X6230840Y44357312D01*
X6206695Y44339392D01*
X6192429Y44330030D01*
X6190538Y44329313D01*
X6181289Y44336538D01*
X6168438Y44353398D01*
X6156858Y44375103D01*
X6152592Y44390231D01*
X6161434Y44398569D01*
X6185739Y44411148D01*
X6222199Y44426419D01*
X6257614Y44439435D01*
X6310463Y44456913D01*
X6346796Y44466837D01*
X6366238Y44469168D01*
X6368415Y44463870D01*
G37*
G36*
X5689220Y44942572D02*
G01*
X5687877Y44916396D01*
X5684483Y44880669D01*
X5679644Y44840302D01*
X5673969Y44800204D01*
X5668064Y44765285D01*
X5662537Y44740456D01*
X5660771Y44734970D01*
X5651545Y44718133D01*
X5644524Y44713413D01*
X5630254Y44716133D01*
X5607448Y44720876D01*
X5586899Y44728079D01*
X5578227Y44736711D01*
X5578226Y44736903D01*
X5582404Y44750475D01*
X5593279Y44775895D01*
X5608835Y44809169D01*
X5627057Y44846303D01*
X5645931Y44883304D01*
X5663441Y44916178D01*
X5677572Y44940930D01*
X5686310Y44953569D01*
X5687904Y44954288D01*
X5689220Y44942572D01*
G37*
G36*
X4308745Y44120790D02*
G01*
X4314362Y44110853D01*
X4314394Y44087809D01*
X4313948Y44081265D01*
X4308718Y44051131D01*
X4298399Y44038838D01*
X4296195Y44038439D01*
X4281044Y44039212D01*
X4250886Y44042187D01*
X4210175Y44046883D01*
X4166052Y44052467D01*
X4108762Y44060929D01*
X4071040Y44068663D01*
X4052825Y44075692D01*
X4054053Y44082039D01*
X4072742Y44087378D01*
X4137010Y44099051D01*
X4194725Y44108961D01*
X4242637Y44116586D01*
X4277493Y44121409D01*
X4295151Y44122924D01*
X4308745Y44120790D01*
G37*
G36*
X6467552Y42013260D02*
G01*
X6500834Y42074270D01*
X6545903Y42121998D01*
X6599904Y42156260D01*
X6659983Y42176872D01*
X6723288Y42183651D01*
X6786965Y42176413D01*
X6848160Y42154975D01*
X6904020Y42119152D01*
X6951691Y42068762D01*
X6967274Y42045409D01*
X6986629Y42010343D01*
X6996898Y41981105D01*
X7000841Y41947850D01*
X7001314Y41924038D01*
X6999266Y41879926D01*
X6991124Y41844326D01*
X6974374Y41806431D01*
X6973587Y41804904D01*
X6957363Y41777609D01*
X6930640Y41737526D01*
X6895234Y41687174D01*
X6852960Y41629070D01*
X6805632Y41565733D01*
X6755066Y41499683D01*
X6735909Y41475073D01*
X6725468Y41468509D01*
X6704410Y41464224D01*
X6669788Y41461879D01*
X6618656Y41461131D01*
X6615588Y41461130D01*
X6571874Y41461565D01*
X6536465Y41462745D01*
X6513300Y41464483D01*
X6506172Y41466322D01*
X6511727Y41476032D01*
X6526454Y41497111D01*
X6547447Y41525438D01*
X6552915Y41532622D01*
X6579943Y41568087D01*
X6606368Y41602979D01*
X6626588Y41629902D01*
X6627025Y41630488D01*
X6654392Y41667249D01*
X6602382Y41690675D01*
X6541332Y41727826D01*
X6494833Y41776335D01*
X6463959Y41833627D01*
X6449788Y41897128D01*
X6451502Y41929020D01*
X6636485Y41929020D01*
X6641554Y41889540D01*
X6647517Y41875739D01*
X6661732Y41852949D01*
X6678515Y41840865D01*
X6704530Y41836003D01*
X6725160Y41835146D01*
X6760061Y41840247D01*
X6786549Y41858479D01*
X6807584Y41891869D01*
X6811563Y41929146D01*
X6798743Y41964919D01*
X6780437Y41985740D01*
X6747865Y42006149D01*
X6716304Y42008991D01*
X6680539Y41994574D01*
X6676136Y41991956D01*
X6648391Y41964696D01*
X6636485Y41929020D01*
X6451502Y41929020D01*
X6453395Y41964260D01*
X6467552Y42013260D01*
G37*
G36*
X15833782Y42501918D02*
G01*
X15880391Y42493796D01*
X15921587Y42482699D01*
X15953372Y42469611D01*
X15971750Y42455517D01*
X15974695Y42447575D01*
X15971043Y42430094D01*
X15961944Y42405417D01*
X15950181Y42379513D01*
X15938539Y42358348D01*
X15929801Y42347888D01*
X15928119Y42347751D01*
X15878115Y42370914D01*
X15833778Y42383660D01*
X15785931Y42388441D01*
X15774952Y42388659D01*
X15738358Y42388310D01*
X15715296Y42385166D01*
X15699679Y42377426D01*
X15685418Y42363288D01*
X15684097Y42361761D01*
X15668393Y42340313D01*
X15660580Y42323378D01*
X15660387Y42321540D01*
X15667780Y42303327D01*
X15690797Y42285627D01*
X15730693Y42267756D01*
X15788726Y42249031D01*
X15798793Y42246184D01*
X15868575Y42224066D01*
X15920937Y42200998D01*
X15958102Y42175656D01*
X15982291Y42146719D01*
X15989326Y42132673D01*
X16003885Y42075456D01*
X15999924Y42021070D01*
X15978558Y41971725D01*
X15940903Y41929634D01*
X15888073Y41897008D01*
X15866065Y41888185D01*
X15826167Y41879325D01*
X15774525Y41874999D01*
X15718500Y41875170D01*
X15665453Y41879803D01*
X15622746Y41888860D01*
X15621098Y41889400D01*
X15577324Y41905830D01*
X15542565Y41922315D01*
X15520250Y41937015D01*
X15513635Y41947103D01*
X15518559Y41965068D01*
X15529625Y41989375D01*
X15543496Y42014148D01*
X15556837Y42033510D01*
X15566309Y42041585D01*
X15567208Y42041452D01*
X15581313Y42035227D01*
X15606222Y42024028D01*
X15621098Y42017290D01*
X15666108Y42003034D01*
X15722889Y41994550D01*
X15738964Y41993460D01*
X15778773Y41992216D01*
X15804995Y41994135D01*
X15823570Y42000253D01*
X15839640Y42010967D01*
X15862051Y42034409D01*
X15866937Y42056235D01*
X15853833Y42076975D01*
X15822275Y42097162D01*
X15771798Y42117327D01*
X15737236Y42128181D01*
X15692444Y42142065D01*
X15650301Y42156399D01*
X15617479Y42168867D01*
X15607661Y42173187D01*
X15566837Y42202487D01*
X15539435Y42242583D01*
X15525803Y42289610D01*
X15526287Y42339701D01*
X15541238Y42388990D01*
X15571002Y42433612D01*
X15583125Y42445742D01*
X15620336Y42473796D01*
X15661899Y42491960D01*
X15713942Y42502554D01*
X15740313Y42505298D01*
X15785757Y42506080D01*
X15833782Y42501918D01*
G37*
G36*
X5973156Y42179854D02*
G01*
X6034335Y42157381D01*
X6089255Y42123338D01*
X6133018Y42080521D01*
X6152914Y42049793D01*
X6166174Y42008982D01*
X6172000Y41958220D01*
X6170039Y41905882D01*
X6160820Y41862847D01*
X6145438Y41830268D01*
X6119953Y41789175D01*
X6088176Y41744924D01*
X6053915Y41702869D01*
X6025601Y41672767D01*
X6003788Y41650376D01*
X5989259Y41633126D01*
X5985599Y41626456D01*
X5994736Y41623095D01*
X6019409Y41619932D01*
X6055512Y41617386D01*
X6086276Y41616172D01*
X6186953Y41613372D01*
X6186953Y41466041D01*
X5641825Y41460819D01*
X5641825Y41483281D01*
X5649358Y41503609D01*
X5670803Y41533356D01*
X5698931Y41564469D01*
X5760842Y41629311D01*
X5817869Y41691318D01*
X5868302Y41748482D01*
X5910430Y41798795D01*
X5942542Y41840250D01*
X5962928Y41870840D01*
X5967371Y41879483D01*
X5980625Y41924937D01*
X5977751Y41963102D01*
X5959009Y41991846D01*
X5953170Y41996423D01*
X5919488Y42010834D01*
X5888599Y42007155D01*
X5863055Y41986939D01*
X5845410Y41951738D01*
X5840153Y41927680D01*
X5833161Y41878570D01*
X5747861Y41875740D01*
X5706412Y41874741D01*
X5680186Y41875663D01*
X5664793Y41879357D01*
X5655842Y41886673D01*
X5651010Y41894493D01*
X5642168Y41929934D01*
X5646250Y41973673D01*
X5661428Y42021033D01*
X5685873Y42067342D01*
X5717756Y42107924D01*
X5743213Y42130198D01*
X5786406Y42154965D01*
X5837488Y42174667D01*
X5887495Y42186212D01*
X5910616Y42187966D01*
X5973156Y42179854D01*
G37*
G36*
X10502740Y44211323D02*
G01*
X10591432Y44210723D01*
X10663378Y44208572D01*
X10721447Y44204346D01*
X10768510Y44197519D01*
X10807437Y44187568D01*
X10841100Y44173966D01*
X10872367Y44156190D01*
X10896659Y44139297D01*
X10941736Y44094439D01*
X10975592Y44037074D01*
X10996964Y43971626D01*
X11004590Y43902522D01*
X10997210Y43834186D01*
X10990501Y43810218D01*
X10970868Y43768256D01*
X10941501Y43725286D01*
X10907556Y43687828D01*
X10874186Y43662405D01*
X10873288Y43661918D01*
X10854876Y43648819D01*
X10847548Y43637430D01*
X10852854Y43625758D01*
X10867381Y43601356D01*
X10889039Y43567559D01*
X10915742Y43527700D01*
X10921865Y43518769D01*
X10958068Y43466642D01*
X10983776Y43428945D01*
X10998785Y43403374D01*
X11002890Y43387625D01*
X10995889Y43379395D01*
X10977576Y43376379D01*
X10947748Y43376274D01*
X10909282Y43376771D01*
X10803349Y43377099D01*
X10729683Y43487269D01*
X10656017Y43597440D01*
X10565162Y43600265D01*
X10474308Y43603089D01*
X10474308Y43377995D01*
X10403097Y43374763D01*
X10363481Y43373561D01*
X10328168Y43373518D01*
X10304876Y43374640D01*
X10277865Y43377748D01*
X10277865Y43769328D01*
X10474308Y43769328D01*
X10587908Y43769328D01*
X10637774Y43770285D01*
X10680191Y43772916D01*
X10710706Y43776856D01*
X10722962Y43780377D01*
X10763048Y43810047D01*
X10789245Y43848033D01*
X10801873Y43890627D01*
X10801251Y43934121D01*
X10787696Y43974806D01*
X10761528Y44008975D01*
X10723066Y44032919D01*
X10700679Y44039619D01*
X10678781Y44042185D01*
X10643164Y44044271D01*
X10599748Y44045732D01*
X10554456Y44046424D01*
X10513210Y44046206D01*
X10481932Y44044934D01*
X10481674Y44044914D01*
X10479026Y44035466D01*
X10476800Y44009909D01*
X10475185Y43971776D01*
X10474369Y43924600D01*
X10474308Y43906837D01*
X10474308Y43769328D01*
X10277865Y43769328D01*
X10277865Y44211323D01*
X10502740Y44211323D01*
G37*
G36*
X8527769Y44209215D02*
G01*
X8622838Y44206412D01*
X8625990Y43975592D01*
X8626526Y43890745D01*
X8625797Y43813484D01*
X8623887Y43746996D01*
X8620880Y43694464D01*
X8617831Y43665252D01*
X8597418Y43580105D01*
X8562348Y43507891D01*
X8512819Y43448858D01*
X8449030Y43403255D01*
X8387656Y43376538D01*
X8327953Y43362972D01*
X8257963Y43357434D01*
X8185322Y43359908D01*
X8117664Y43370377D01*
X8092444Y43377194D01*
X8019334Y43409911D01*
X7957939Y43457742D01*
X7910036Y43519249D01*
X7903877Y43530016D01*
X7888729Y43559742D01*
X7878174Y43587194D01*
X7870776Y43618102D01*
X7865095Y43658195D01*
X7860700Y43702063D01*
X7857558Y43748925D01*
X7855163Y43809769D01*
X7853646Y43878946D01*
X7853136Y43950802D01*
X7853598Y44010129D01*
X7856713Y44206412D01*
X7956835Y44209205D01*
X8056956Y44211998D01*
X8059967Y43929274D01*
X8061002Y43841538D01*
X8062343Y43771121D01*
X8064443Y43715696D01*
X8067759Y43672940D01*
X8072744Y43640526D01*
X8079855Y43616129D01*
X8089546Y43597425D01*
X8102272Y43582088D01*
X8118488Y43567793D01*
X8132901Y43556595D01*
X8154882Y43541830D01*
X8176709Y43533539D01*
X8205413Y43529889D01*
X8238499Y43529076D01*
X8295576Y43532914D01*
X8338635Y43546621D01*
X8371744Y43572396D01*
X8398971Y43612435D01*
X8401412Y43617086D01*
X8408763Y43631808D01*
X8414539Y43645776D01*
X8418961Y43661526D01*
X8422253Y43681598D01*
X8424635Y43708531D01*
X8426329Y43744863D01*
X8427559Y43793132D01*
X8428546Y43855878D01*
X8429511Y43935638D01*
X8429547Y43938807D01*
X8432699Y44212017D01*
X8527769Y44209215D01*
G37*
G36*
X5280781Y45017256D02*
G01*
X5286588Y44996406D01*
X5293488Y44961877D01*
X5300943Y44916594D01*
X5308416Y44863478D01*
X5313988Y44817839D01*
X5320424Y44761362D01*
X5279771Y44761362D01*
X5254366Y44762954D01*
X5239508Y44766944D01*
X5238031Y44768728D01*
X5238169Y44787721D01*
X5241199Y44820253D01*
X5246366Y44861376D01*
X5252915Y44906138D01*
X5260091Y44949590D01*
X5267138Y44986783D01*
X5273301Y45012765D01*
X5276601Y45021505D01*
X5280781Y45017256D01*
G37*
G36*
X4485739Y44774201D02*
G01*
X4505713Y44758691D01*
X4534202Y44734502D01*
X4568303Y44704018D01*
X4571374Y44701206D01*
X4660904Y44619103D01*
X4633248Y44596971D01*
X4610840Y44580404D01*
X4596427Y44576966D01*
X4583025Y44587073D01*
X4571927Y44600621D01*
X4557974Y44620732D01*
X4551609Y44634589D01*
X4551570Y44635176D01*
X4546780Y44647187D01*
X4534100Y44671121D01*
X4516063Y44702251D01*
X4512042Y44708915D01*
X4493941Y44740181D01*
X4481503Y44764555D01*
X4476905Y44777680D01*
X4477180Y44778644D01*
X4485739Y44774201D01*
G37*
G36*
X13145902Y43791427D02*
G01*
X13145879Y43371532D01*
X13063941Y43371532D01*
X13023954Y43371898D01*
X12990293Y43372873D01*
X12968796Y43374266D01*
X12965743Y43374707D01*
X12961769Y43376821D01*
X12958496Y43382617D01*
X12955856Y43393823D01*
X12953782Y43412168D01*
X12952207Y43439381D01*
X12951065Y43477188D01*
X12950289Y43527320D01*
X12949811Y43591505D01*
X12949565Y43671470D01*
X12949484Y43768944D01*
X12949482Y43794603D01*
X12949482Y44211323D01*
X13145924Y44211323D01*
X13145902Y43791427D01*
G37*
G36*
X14560309Y43533597D02*
G01*
X14982660Y43533597D01*
X14982660Y43455020D01*
X14981812Y43418505D01*
X14979558Y43390977D01*
X14976333Y43377098D01*
X14975294Y43376291D01*
X14935327Y43375641D01*
X14883840Y43375062D01*
X14823768Y43374563D01*
X14758042Y43374151D01*
X14689594Y43373834D01*
X14621358Y43373620D01*
X14556267Y43373518D01*
X14497251Y43373533D01*
X14447246Y43373675D01*
X14409182Y43373951D01*
X14385992Y43374370D01*
X14380352Y43374707D01*
X14376326Y43376743D01*
X14373010Y43382306D01*
X14370336Y43393130D01*
X14368235Y43410947D01*
X14366641Y43437489D01*
X14365483Y43474488D01*
X14364696Y43523677D01*
X14364210Y43586787D01*
X14363958Y43665551D01*
X14363871Y43761700D01*
X14363867Y43794603D01*
X14363867Y44211323D01*
X14560309Y44211323D01*
X14560309Y43533597D01*
G37*
G36*
X10948164Y42499772D02*
G01*
X11010351Y42483377D01*
X11026391Y42476797D01*
X11051649Y42462024D01*
X11062148Y42444290D01*
X11059251Y42418700D01*
X11049768Y42392975D01*
X11036878Y42365291D01*
X11024549Y42353491D01*
X11006495Y42355046D01*
X10981074Y42365366D01*
X10929181Y42382933D01*
X10878844Y42390370D01*
X10833442Y42388185D01*
X10796352Y42376886D01*
X10770953Y42356983D01*
X10760895Y42332249D01*
X10759520Y42315214D01*
X10761522Y42301960D01*
X10769414Y42290996D01*
X10785709Y42280831D01*
X10812918Y42269975D01*
X10853554Y42256938D01*
X10910129Y42240228D01*
X10921621Y42236883D01*
X10987561Y42213815D01*
X11035797Y42187216D01*
X11068203Y42155178D01*
X11086653Y42115791D01*
X11093020Y42067148D01*
X11093065Y42062247D01*
X11086461Y42006451D01*
X11065495Y41961441D01*
X11028562Y41924989D01*
X10974059Y41894866D01*
X10971966Y41893964D01*
X10918454Y41878941D01*
X10854269Y41873134D01*
X10786037Y41876449D01*
X10720383Y41888790D01*
X10691489Y41897982D01*
X10649483Y41914482D01*
X10623914Y41928472D01*
X10612523Y41943476D01*
X10613053Y41963015D01*
X10623243Y41990613D01*
X10626858Y41998787D01*
X10649903Y42050250D01*
X10702071Y42023758D01*
X10757134Y42002694D01*
X10819552Y41993347D01*
X10820714Y41993276D01*
X10879493Y41993944D01*
X10921163Y42004066D01*
X10945862Y42023688D01*
X10952105Y42037900D01*
X10950799Y42063015D01*
X10932846Y42085335D01*
X10897321Y42105534D01*
X10843300Y42124288D01*
X10828035Y42128502D01*
X10756462Y42150291D01*
X10702311Y42173634D01*
X10663358Y42200084D01*
X10637381Y42231191D01*
X10622157Y42268507D01*
X10621066Y42272961D01*
X10616968Y42331135D01*
X10630704Y42386146D01*
X10660683Y42434073D01*
X10700124Y42467839D01*
X10750532Y42490134D01*
X10812506Y42502993D01*
X10880300Y42506258D01*
X10948164Y42499772D01*
G37*
G36*
X10091245Y42256721D02*
G01*
X10366265Y42256721D01*
X10366265Y42492452D01*
X10504058Y42492452D01*
X10501461Y42190422D01*
X10498863Y41888392D01*
X10371176Y41888392D01*
X10366265Y42011168D01*
X10361353Y42133945D01*
X10226299Y42136677D01*
X10091245Y42139410D01*
X10091245Y41883481D01*
X10029038Y41883481D01*
X9995696Y41884444D01*
X9970687Y41886955D01*
X9960284Y41890029D01*
X9958648Y41901134D01*
X9957162Y41929424D01*
X9955878Y41972443D01*
X9954849Y42027732D01*
X9954127Y42092832D01*
X9953767Y42165287D01*
X9953736Y42194514D01*
X9953736Y42492452D01*
X10091245Y42492452D01*
X10091245Y42256721D01*
G37*
G36*
X15265245Y42503468D02*
G01*
X15332762Y42487134D01*
X15392909Y42456894D01*
X15433828Y42422132D01*
X15449564Y42401397D01*
X15451408Y42383987D01*
X15438246Y42365248D01*
X15415520Y42345664D01*
X15376918Y42315091D01*
X15331193Y42347294D01*
X15303747Y42365032D01*
X15279922Y42374744D01*
X15251528Y42378768D01*
X15218418Y42379460D01*
X15180635Y42378479D01*
X15155078Y42374154D01*
X15134362Y42364335D01*
X15113669Y42348953D01*
X15073727Y42310216D01*
X15050081Y42269283D01*
X15039774Y42220068D01*
X15038705Y42194763D01*
X15046420Y42130465D01*
X15069563Y42076383D01*
X15106724Y42034299D01*
X15156490Y42005995D01*
X15196438Y41995586D01*
X15240408Y41995672D01*
X15286105Y42006997D01*
X15325396Y42027018D01*
X15341487Y42040988D01*
X15358532Y42055541D01*
X15370163Y42060279D01*
X15385694Y42053206D01*
X15406169Y42035519D01*
X15426976Y42012514D01*
X15443505Y41989485D01*
X15451145Y41971730D01*
X15450826Y41967634D01*
X15437977Y41952103D01*
X15412548Y41932416D01*
X15380060Y41912045D01*
X15346035Y41894466D01*
X15316952Y41883413D01*
X15275889Y41876456D01*
X15225317Y41874202D01*
X15172686Y41876383D01*
X15125445Y41882730D01*
X15094622Y41891396D01*
X15027481Y41926620D01*
X14975510Y41971847D01*
X14935413Y42030372D01*
X14917617Y42068474D01*
X14898806Y42136744D01*
X14895302Y42208519D01*
X14906189Y42279496D01*
X14930551Y42345376D01*
X14967472Y42401856D01*
X14994339Y42428663D01*
X15054904Y42468494D01*
X15122673Y42494202D01*
X15194000Y42505842D01*
X15265245Y42503468D01*
G37*
G36*
X11422142Y42487541D02*
G01*
X11585672Y42490230D01*
X11648210Y42491001D01*
X11694977Y42490752D01*
X11729837Y42489169D01*
X11756649Y42485944D01*
X11779275Y42480764D01*
X11801577Y42473319D01*
X11803201Y42472714D01*
X11862533Y42442394D01*
X11905527Y42401478D01*
X11932989Y42348962D01*
X11944456Y42296766D01*
X11942950Y42235770D01*
X11925143Y42178583D01*
X11892864Y42130189D01*
X11878123Y42115939D01*
X11856181Y42095457D01*
X11842222Y42079159D01*
X11839582Y42073456D01*
X11844823Y42061851D01*
X11858980Y42037969D01*
X11879710Y42005628D01*
X11897804Y41978641D01*
X11923457Y41940652D01*
X11939085Y41915727D01*
X11945905Y41900820D01*
X11945133Y41892886D01*
X11937987Y41888881D01*
X11934112Y41887820D01*
X11911845Y41885217D01*
X11879181Y41884641D01*
X11859060Y41885356D01*
X11805922Y41888392D01*
X11751169Y41966969D01*
X11696417Y42045546D01*
X11630894Y42048441D01*
X11565372Y42051336D01*
X11559652Y41888392D01*
X11500719Y41885852D01*
X11467170Y41885715D01*
X11440925Y41887973D01*
X11429909Y41891095D01*
X11426330Y41898623D01*
X11423571Y41916987D01*
X11421583Y41947735D01*
X11420316Y41992415D01*
X11419718Y42052577D01*
X11419741Y42129768D01*
X11419951Y42168322D01*
X11564563Y42168322D01*
X11627179Y42168322D01*
X11665865Y42169296D01*
X11701203Y42171817D01*
X11720350Y42174433D01*
X11759663Y42191112D01*
X11787310Y42220872D01*
X11799886Y42259706D01*
X11800294Y42268528D01*
X11795467Y42309852D01*
X11779714Y42339828D01*
X11751128Y42359746D01*
X11707800Y42370898D01*
X11647824Y42374575D01*
X11643628Y42374587D01*
X11564563Y42374587D01*
X11564563Y42168322D01*
X11419951Y42168322D01*
X11420087Y42193210D01*
X11422142Y42487541D01*
G37*
G36*
X10169822Y44133797D02*
G01*
X10168940Y44092455D01*
X10165856Y44067053D01*
X10159917Y44053949D01*
X10154869Y44050533D01*
X10139516Y44048447D01*
X10109059Y44047099D01*
X10068026Y44046610D01*
X10024726Y44047026D01*
X9909536Y44049258D01*
X9906952Y43712850D01*
X9904367Y43376443D01*
X9698360Y43376443D01*
X9698360Y43709576D01*
X9698200Y43803918D01*
X9697681Y43880193D01*
X9696745Y43939975D01*
X9695336Y43984840D01*
X9693396Y44016361D01*
X9690868Y44036114D01*
X9687695Y44045674D01*
X9686083Y44047056D01*
X9670015Y44048654D01*
X9641655Y44048164D01*
X9618440Y44046611D01*
X9577092Y44045130D01*
X9529081Y44046378D01*
X9498119Y44048776D01*
X9433163Y44055733D01*
X9433163Y44211323D01*
X10169822Y44211323D01*
X10169822Y44133797D01*
G37*
G36*
X14793727Y42190422D02*
G01*
X14791129Y41888392D01*
X14731793Y41885521D01*
X14699192Y41885067D01*
X14674892Y41886807D01*
X14665494Y41889613D01*
X14663755Y41900825D01*
X14662174Y41929218D01*
X14660808Y41972330D01*
X14659714Y42027699D01*
X14658947Y42092861D01*
X14658564Y42165355D01*
X14658531Y42194514D01*
X14658531Y42492452D01*
X14796324Y42492452D01*
X14793727Y42190422D01*
G37*
G36*
X12290772Y43928937D02*
G01*
X12320704Y43859094D01*
X12348392Y43795037D01*
X12372844Y43739016D01*
X12393071Y43693278D01*
X12408083Y43660070D01*
X12416888Y43641640D01*
X12418606Y43638718D01*
X12424406Y43645007D01*
X12436606Y43666962D01*
X12454012Y43702132D01*
X12475432Y43748065D01*
X12499673Y43802310D01*
X12511817Y43830249D01*
X12539917Y43895395D01*
X12568199Y43960838D01*
X12594762Y44022188D01*
X12617703Y44075054D01*
X12635122Y44115045D01*
X12637494Y44120468D01*
X12677268Y44211323D01*
X12774087Y44211323D01*
X12819861Y44210781D01*
X12849140Y44208849D01*
X12865051Y44205071D01*
X12870720Y44198990D01*
X12870905Y44197169D01*
X12865621Y44180908D01*
X12862171Y44177618D01*
X12853299Y44164784D01*
X12847348Y44147960D01*
X12840592Y44128478D01*
X12827629Y44096737D01*
X12810733Y44058195D01*
X12802060Y44039243D01*
X12785112Y44002212D01*
X12771852Y43972261D01*
X12764107Y43953570D01*
X12762862Y43949588D01*
X12759052Y43938689D01*
X12749065Y43915105D01*
X12735060Y43883936D01*
X12735029Y43883871D01*
X12723211Y43857589D01*
X12705130Y43816641D01*
X12682269Y43764416D01*
X12656107Y43704301D01*
X12628124Y43639685D01*
X12610961Y43599896D01*
X12514725Y43376443D01*
X12313221Y43376443D01*
X12139259Y43781605D01*
X12103153Y43865711D01*
X12069363Y43944453D01*
X12038692Y44015953D01*
X12011946Y44078335D01*
X11989929Y44129722D01*
X11973444Y44168238D01*
X11963298Y44192004D01*
X11960322Y44199045D01*
X11962761Y44204683D01*
X11977106Y44208413D01*
X12005761Y44210523D01*
X12051132Y44211302D01*
X12062795Y44211323D01*
X12170245Y44211323D01*
X12290772Y43928937D01*
G37*
G36*
X4826589Y41461130D02*
G01*
X4639969Y41461130D01*
X4638419Y41507785D01*
X4638070Y41532466D01*
X4638042Y41572719D01*
X4638315Y41624478D01*
X4638866Y41683673D01*
X4639633Y41743358D01*
X4640560Y41812557D01*
X4640508Y41864280D01*
X4638682Y41900697D01*
X4634289Y41923976D01*
X4626533Y41936284D01*
X4614621Y41939790D01*
X4597757Y41936663D01*
X4575149Y41929070D01*
X4571998Y41927957D01*
X4546006Y41919019D01*
X4529110Y41913646D01*
X4526125Y41912947D01*
X4518842Y41921587D01*
X4508547Y41943973D01*
X4497040Y41974805D01*
X4486117Y42008784D01*
X4477578Y42040608D01*
X4473220Y42064978D01*
X4472993Y42069564D01*
X4481859Y42076332D01*
X4505933Y42086928D01*
X4541435Y42100162D01*
X4584582Y42114839D01*
X4631590Y42129769D01*
X4678679Y42143758D01*
X4722065Y42155615D01*
X4757966Y42164147D01*
X4782600Y42168163D01*
X4786310Y42168322D01*
X4826589Y42168322D01*
X4826589Y41461130D01*
G37*
G36*
X16522747Y44139228D02*
G01*
X16523830Y44102290D01*
X16521450Y44076274D01*
X16512777Y44059348D01*
X16494981Y44049677D01*
X16465234Y44045426D01*
X16420704Y44044762D01*
X16378113Y44045471D01*
X16254625Y44047901D01*
X16249459Y43378635D01*
X16222575Y43375083D01*
X16199243Y43373689D01*
X16163951Y43373451D01*
X16124482Y43374418D01*
X16053271Y43377303D01*
X16053271Y44044347D01*
X15952595Y44045442D01*
X15897730Y44046242D01*
X15857151Y44047413D01*
X15825500Y44049192D01*
X15797419Y44051818D01*
X15790117Y44052660D01*
X15783470Y44059136D01*
X15780141Y44078441D01*
X15779774Y44113400D01*
X15780295Y44130290D01*
X15783163Y44206412D01*
X16519822Y44206412D01*
X16522747Y44139228D01*
G37*
G36*
X13305564Y43889301D02*
G01*
X13334066Y43973873D01*
X13371665Y44041759D01*
X13425428Y44105517D01*
X13490752Y44155791D01*
X13564952Y44192622D01*
X13645341Y44216050D01*
X13729232Y44226117D01*
X13813941Y44222861D01*
X13896779Y44206325D01*
X13975062Y44176547D01*
X14046103Y44133570D01*
X14107216Y44077432D01*
X14142764Y44030147D01*
X14179570Y43960397D01*
X14201077Y43888596D01*
X14209005Y43808492D01*
X14209097Y43788993D01*
X14199597Y43694102D01*
X14173293Y43609217D01*
X14130574Y43534836D01*
X14071826Y43471459D01*
X13997436Y43419584D01*
X13907792Y43379709D01*
X13885649Y43372469D01*
X13834942Y43362304D01*
X13773174Y43357963D01*
X13708015Y43359354D01*
X13647138Y43366389D01*
X13607564Y43375734D01*
X13535684Y43403141D01*
X13476473Y43436953D01*
X13423104Y43481186D01*
X13415360Y43488789D01*
X13360467Y43556959D01*
X13321829Y43633782D01*
X13299657Y43716570D01*
X13295934Y43774908D01*
X13493082Y43774908D01*
X13505045Y43708783D01*
X13532563Y43648464D01*
X13574737Y43597157D01*
X13616101Y43566127D01*
X13648635Y43548427D01*
X13678417Y43535137D01*
X13694616Y43530140D01*
X13736133Y43527362D01*
X13784691Y43530644D01*
X13831672Y43538909D01*
X13868461Y43551082D01*
X13870555Y43552116D01*
X13927071Y43591720D01*
X13972678Y43646348D01*
X13984247Y43666067D01*
X13998153Y43706307D01*
X14005442Y43758084D01*
X14006134Y43814448D01*
X14000251Y43868448D01*
X13987816Y43913134D01*
X13983444Y43922500D01*
X13943747Y43978341D01*
X13891892Y44019292D01*
X13829440Y44044525D01*
X13757950Y44053213D01*
X13738222Y44052668D01*
X13665377Y44040737D01*
X13605022Y44013725D01*
X13556759Y43971377D01*
X13520187Y43913432D01*
X13519404Y43911748D01*
X13497569Y43843632D01*
X13493082Y43774908D01*
X13295934Y43774908D01*
X13294165Y43802638D01*
X13305564Y43889301D01*
G37*
G36*
X11210170Y43772891D02*
G01*
X11212992Y43779150D01*
X11227694Y43812045D01*
X11248293Y43858542D01*
X11272844Y43914229D01*
X11299403Y43974697D01*
X11324356Y44031716D01*
X11402498Y44210617D01*
X11501515Y44210970D01*
X11546678Y44210847D01*
X11576178Y44209568D01*
X11593994Y44206343D01*
X11604103Y44200384D01*
X11610483Y44190905D01*
X11611319Y44189223D01*
X11622771Y44165126D01*
X11637686Y44132892D01*
X11653994Y44097111D01*
X11669625Y44062375D01*
X11682508Y44033274D01*
X11690573Y44014399D01*
X11692251Y44009779D01*
X11696060Y43999878D01*
X11706074Y43977023D01*
X11720170Y43946055D01*
X11720955Y43944355D01*
X11732605Y43918805D01*
X11750842Y43878365D01*
X11774290Y43826103D01*
X11801575Y43765089D01*
X11831323Y43698390D01*
X11862032Y43629362D01*
X11974406Y43376443D01*
X11765143Y43376443D01*
X11730850Y43457475D01*
X11696558Y43538508D01*
X11506925Y43543419D01*
X11434195Y43544779D01*
X11377100Y43544727D01*
X11336765Y43543290D01*
X11314317Y43540496D01*
X11310081Y43538508D01*
X11303084Y43525387D01*
X11290788Y43499080D01*
X11275474Y43464524D01*
X11270325Y43452564D01*
X11237781Y43376443D01*
X11035900Y43376443D01*
X11092887Y43507735D01*
X11114564Y43557596D01*
X11134684Y43603724D01*
X11151358Y43641800D01*
X11162697Y43667501D01*
X11164821Y43672256D01*
X11176129Y43697368D01*
X11177573Y43700573D01*
X11378814Y43700573D01*
X11501155Y43700573D01*
X11547576Y43701234D01*
X11585906Y43703039D01*
X11612422Y43705721D01*
X11623396Y43709011D01*
X11623496Y43709366D01*
X11619816Y43722122D01*
X11609796Y43749054D01*
X11594969Y43786339D01*
X11576866Y43830156D01*
X11557017Y43876681D01*
X11550289Y43892104D01*
X11537992Y43922116D01*
X11525418Y43955613D01*
X11524432Y43958403D01*
X11512509Y43985598D01*
X11501924Y43993567D01*
X11491608Y43982580D01*
X11485540Y43968225D01*
X11474878Y43940790D01*
X11466579Y43921570D01*
X11454639Y43894466D01*
X11438502Y43855880D01*
X11420959Y43812689D01*
X11404798Y43771771D01*
X11392809Y43740004D01*
X11391880Y43737406D01*
X11378814Y43700573D01*
X11177573Y43700573D01*
X11192312Y43733281D01*
X11210170Y43772891D01*
G37*
G36*
X8978204Y43003346D02*
G01*
X9120434Y43003239D01*
X9276931Y43003052D01*
X9446731Y43002791D01*
X9628873Y43002457D01*
X9822393Y43002055D01*
X10026328Y43001589D01*
X10239716Y43001061D01*
X10461594Y43000477D01*
X10691000Y42999838D01*
X10926970Y42999150D01*
X11168542Y42998415D01*
X11414754Y42997638D01*
X11664641Y42996822D01*
X11917242Y42995970D01*
X12171595Y42995086D01*
X12426735Y42994175D01*
X12681701Y42993238D01*
X12935529Y42992281D01*
X13187258Y42991307D01*
X13435923Y42990319D01*
X13680563Y42989321D01*
X13920215Y42988317D01*
X14153916Y42987310D01*
X14380703Y42986304D01*
X14599614Y42985303D01*
X14809685Y42984310D01*
X15009954Y42983329D01*
X15199459Y42982363D01*
X15377236Y42981417D01*
X15542324Y42980494D01*
X15693758Y42979597D01*
X15830576Y42978730D01*
X15951816Y42977896D01*
X16056516Y42977101D01*
X16143711Y42976346D01*
X16212439Y42975636D01*
X16225159Y42975484D01*
X16765375Y42968825D01*
X16771363Y42875515D01*
X15069142Y42876654D01*
X14887612Y42876794D01*
X14711296Y42876964D01*
X14541205Y42877164D01*
X14378348Y42877390D01*
X14223736Y42877639D01*
X14078380Y42877910D01*
X13943290Y42878199D01*
X13819477Y42878504D01*
X13707951Y42878822D01*
X13609723Y42879152D01*
X13525802Y42879490D01*
X13457200Y42879834D01*
X13404926Y42880181D01*
X13369992Y42880529D01*
X13353408Y42880875D01*
X13352189Y42880972D01*
X13340895Y42881355D01*
X13311004Y42881793D01*
X13263560Y42882277D01*
X13199610Y42882805D01*
X13120200Y42883368D01*
X13026375Y42883963D01*
X12919182Y42884583D01*
X12799666Y42885222D01*
X12668873Y42885876D01*
X12527850Y42886538D01*
X12377642Y42887202D01*
X12219295Y42887864D01*
X12053856Y42888517D01*
X11882369Y42889155D01*
X11746272Y42889636D01*
X11545669Y42890343D01*
X11334811Y42891117D01*
X11116093Y42891945D01*
X10891909Y42892820D01*
X10664654Y42893729D01*
X10436723Y42894665D01*
X10210510Y42895615D01*
X9988410Y42896570D01*
X9772817Y42897520D01*
X9566126Y42898455D01*
X9370731Y42899365D01*
X9189028Y42900240D01*
X9023409Y42901069D01*
X8949424Y42901452D01*
X7743759Y42907782D01*
X7743759Y43003202D01*
X8851203Y43003371D01*
X8978204Y43003346D01*
G37*
G36*
X15719319Y44054545D02*
G01*
X15500777Y44051901D01*
X15282235Y44049258D01*
X15279400Y43963523D01*
X15276565Y43877789D01*
X15470932Y43875124D01*
X15665298Y43872460D01*
X15668163Y43796547D01*
X15671028Y43720635D01*
X15476631Y43717970D01*
X15282235Y43715306D01*
X15279413Y43624633D01*
X15276592Y43533961D01*
X15505322Y43531323D01*
X15734053Y43528686D01*
X15736921Y43452564D01*
X15739790Y43376443D01*
X15080882Y43376443D01*
X15080882Y44211323D01*
X15719319Y44211323D01*
X15719319Y44054545D01*
G37*
G36*
X3984382Y42180010D02*
G01*
X4055886Y42158349D01*
X4113708Y42123725D01*
X4156888Y42078147D01*
X4184463Y42023621D01*
X4195471Y41962158D01*
X4188950Y41895764D01*
X4163937Y41826448D01*
X4158687Y41816216D01*
X4137166Y41782001D01*
X4106968Y41741708D01*
X4073725Y41702717D01*
X4064978Y41693392D01*
X4036087Y41661640D01*
X4018046Y41638115D01*
X4012385Y41624921D01*
X4013841Y41623038D01*
X4028546Y41620847D01*
X4057849Y41618638D01*
X4096704Y41616748D01*
X4119397Y41615992D01*
X4212707Y41613372D01*
X4215576Y41537251D01*
X4218444Y41461130D01*
X3667579Y41461130D01*
X3667579Y41483820D01*
X3674214Y41504775D01*
X3690802Y41529660D01*
X3697691Y41537310D01*
X3737139Y41578524D01*
X3780037Y41624808D01*
X3824138Y41673579D01*
X3867193Y41722251D01*
X3906957Y41768242D01*
X3941182Y41808966D01*
X3967620Y41841842D01*
X3984025Y41864284D01*
X3987807Y41870888D01*
X4001134Y41917421D01*
X3998961Y41957116D01*
X3982049Y41987490D01*
X3951157Y42006058D01*
X3945968Y42007522D01*
X3914228Y42006713D01*
X3888183Y41988988D01*
X3870333Y41956810D01*
X3864022Y41926702D01*
X3859111Y41878570D01*
X3785560Y41875637D01*
X3735860Y41874220D01*
X3702509Y41875788D01*
X3682259Y41882017D01*
X3671857Y41894581D01*
X3668055Y41915156D01*
X3667579Y41936441D01*
X3676673Y42001328D01*
X3702258Y42059407D01*
X3741790Y42108721D01*
X3792726Y42147315D01*
X3852520Y42173232D01*
X3918629Y42184516D01*
X3984382Y42180010D01*
G37*
G36*
X4874807Y44949503D02*
G01*
X4887145Y44927383D01*
X4903388Y44895620D01*
X4921548Y44858389D01*
X4939638Y44819867D01*
X4955669Y44784227D01*
X4967655Y44755647D01*
X4973606Y44738302D01*
X4973921Y44736063D01*
X4965863Y44724162D01*
X4956732Y44721939D01*
X4932714Y44719263D01*
X4918874Y44716256D01*
X4907013Y44715176D01*
X4899026Y44722417D01*
X4892504Y44741943D01*
X4886695Y44769205D01*
X4879897Y44808290D01*
X4874019Y44850259D01*
X4869493Y44890655D01*
X4866755Y44925016D01*
X4866236Y44948886D01*
X4868362Y44957804D01*
X4874807Y44949503D01*
G37*
G36*
X9002380Y43899471D02*
G01*
X9002755Y43822044D01*
X9003159Y43750072D01*
X9003574Y43686139D01*
X9003981Y43632829D01*
X9004361Y43592728D01*
X9004695Y43568421D01*
X9004836Y43563063D01*
X9005901Y43538508D01*
X9213791Y43535859D01*
X9421682Y43533211D01*
X9424967Y43470679D01*
X9426872Y43443952D01*
X9428119Y43422818D01*
X9426692Y43406606D01*
X9420577Y43394645D01*
X9407757Y43386265D01*
X9386219Y43380794D01*
X9353948Y43377562D01*
X9308927Y43375897D01*
X9249142Y43375130D01*
X9172578Y43374588D01*
X9135379Y43374271D01*
X9061276Y43373675D01*
X8992765Y43373336D01*
X8932535Y43373252D01*
X8883276Y43373419D01*
X8847680Y43373833D01*
X8828436Y43374491D01*
X8826647Y43374670D01*
X8804548Y43377809D01*
X8804548Y44211323D01*
X9000990Y44211323D01*
X9002380Y43899471D01*
G37*
G36*
X8719770Y42500342D02*
G01*
X8780164Y42486702D01*
X8814618Y42472681D01*
X8853288Y42452953D01*
X8833007Y42401492D01*
X8821526Y42373004D01*
X8813077Y42353230D01*
X8810154Y42347457D01*
X8800531Y42349520D01*
X8778915Y42357654D01*
X8764321Y42363834D01*
X8710942Y42382134D01*
X8660391Y42390266D01*
X8615424Y42388883D01*
X8578797Y42378635D01*
X8553265Y42360176D01*
X8541582Y42334156D01*
X8543191Y42311512D01*
X8551101Y42295886D01*
X8568165Y42282183D01*
X8597223Y42268986D01*
X8641118Y42254877D01*
X8675753Y42245386D01*
X8748340Y42222541D01*
X8802955Y42196313D01*
X8841170Y42165302D01*
X8864555Y42128109D01*
X8874684Y42083334D01*
X8875379Y42067643D01*
X8868608Y42009979D01*
X8846375Y41962628D01*
X8807502Y41923891D01*
X8755437Y41894128D01*
X8712568Y41881449D01*
X8657695Y41874837D01*
X8597506Y41874321D01*
X8538689Y41879927D01*
X8487932Y41891685D01*
X8484167Y41892983D01*
X8438542Y41910171D01*
X8409652Y41925019D01*
X8395417Y41940831D01*
X8393754Y41960909D01*
X8402585Y41988556D01*
X8411338Y42008579D01*
X8430227Y42050189D01*
X8482333Y42023550D01*
X8518445Y42007834D01*
X8555669Y41998616D01*
X8602411Y41993958D01*
X8613016Y41993431D01*
X8653659Y41992259D01*
X8680015Y41993739D01*
X8697367Y41998779D01*
X8710995Y42008289D01*
X8713693Y42010764D01*
X8733104Y42037420D01*
X8732966Y42062381D01*
X8713303Y42085619D01*
X8674140Y42107107D01*
X8615502Y42126818D01*
X8608105Y42128813D01*
X8536622Y42150465D01*
X8482549Y42173670D01*
X8443651Y42199986D01*
X8417694Y42230969D01*
X8402443Y42268176D01*
X8401267Y42272961D01*
X8397150Y42331477D01*
X8411107Y42386637D01*
X8441611Y42434719D01*
X8481436Y42468540D01*
X8528917Y42489300D01*
X8588338Y42501569D01*
X8653892Y42505274D01*
X8719770Y42500342D01*
G37*
G36*
X12006210Y42249113D02*
G01*
X12022958Y42312191D01*
X12047101Y42362183D01*
X12081783Y42405181D01*
X12091670Y42414805D01*
X12141562Y42455776D01*
X12190973Y42482537D01*
X12247368Y42498844D01*
X12264982Y42501977D01*
X12347595Y42506847D01*
X12424334Y42495196D01*
X12493174Y42468307D01*
X12552090Y42427463D01*
X12599058Y42373948D01*
X12632053Y42309044D01*
X12645108Y42261038D01*
X12651907Y42179462D01*
X12641530Y42103146D01*
X12615080Y42034216D01*
X12573663Y41974800D01*
X12518380Y41927024D01*
X12455055Y41894741D01*
X12392441Y41878944D01*
X12322674Y41873741D01*
X12253810Y41879158D01*
X12197346Y41893862D01*
X12130503Y41929507D01*
X12075904Y41978888D01*
X12034985Y42039340D01*
X12009180Y42108197D01*
X12001897Y42166879D01*
X12145226Y42166879D01*
X12157556Y42110066D01*
X12166887Y42088972D01*
X12199647Y42046578D01*
X12244718Y42014985D01*
X12296556Y41997130D01*
X12343914Y41995176D01*
X12379935Y42002430D01*
X12413329Y42014079D01*
X12422458Y42018715D01*
X12464783Y42054031D01*
X12494060Y42100414D01*
X12509775Y42153806D01*
X12511418Y42210151D01*
X12498475Y42265391D01*
X12470435Y42315469D01*
X12461301Y42326381D01*
X12418231Y42360837D01*
X12368335Y42379716D01*
X12315565Y42383601D01*
X12263871Y42373074D01*
X12217207Y42348717D01*
X12179523Y42311112D01*
X12162859Y42282417D01*
X12146941Y42226863D01*
X12145226Y42166879D01*
X12001897Y42166879D01*
X11999922Y42182795D01*
X12006210Y42249113D01*
G37*
G36*
X4199201Y44473651D02*
G01*
X4213878Y44468360D01*
X4242438Y44458431D01*
X4280150Y44445501D01*
X4306017Y44436707D01*
X4345778Y44423005D01*
X4378057Y44411449D01*
X4398656Y44403568D01*
X4403807Y44401128D01*
X4402621Y44390919D01*
X4394204Y44371572D01*
X4382391Y44350185D01*
X4371011Y44333853D01*
X4364963Y44329188D01*
X4354919Y44334879D01*
X4332986Y44350272D01*
X4302655Y44372848D01*
X4275655Y44393635D01*
X4233922Y44427213D01*
X4204897Y44452753D01*
X4189428Y44469366D01*
X4188364Y44476165D01*
X4199201Y44473651D01*
G37*
%TO.C,R1*%
X59340000Y19670000D02*
X59340000Y23510000D01*
X58420000Y18720000D02*
X58420000Y19670000D01*
X57500000Y19670000D02*
X59340000Y19670000D01*
X58420000Y24460000D02*
X58420000Y23510000D01*
X59340000Y23510000D02*
X57500000Y23510000D01*
X57500000Y23510000D02*
X57500000Y19670000D01*
%TO.C,J1A1*%
X49445000Y26630000D02*
X49445000Y27960000D01*
X49445000Y29230000D02*
X49445000Y44530000D01*
X52105000Y29230000D02*
X52105000Y44530000D01*
X52105000Y29230000D02*
X49445000Y29230000D01*
X52105000Y44530000D02*
X49445000Y44530000D01*
X50775000Y26630000D02*
X49445000Y26630000D01*
%TO.C,U5*%
X24175000Y36550000D02*
X24175000Y38200000D01*
X24175000Y38200000D02*
X3735000Y38200000D01*
X3735000Y38200000D02*
X3735000Y32900000D01*
X3735000Y32900000D02*
X24175000Y32900000D01*
X24175000Y32900000D02*
X24175000Y34550000D01*
X24175000Y36550000D02*
G75*
G03*
X24175000Y34550000I0J-1000000D01*
G01*
D12*
%TO.C,U4*%
X74432000Y45339000D02*
X74432000Y20701000D01*
D13*
X62240000Y26289000D02*
X62240000Y23749000D01*
X62240000Y21209000D02*
X64780000Y21209000D01*
D12*
X60208000Y45339000D02*
X74432000Y45339000D01*
D13*
X64780000Y21209000D02*
X72400000Y21209000D01*
D12*
X74432000Y20701000D02*
X60208000Y20701000D01*
X60208000Y20701000D02*
X60208000Y45339000D01*
D13*
X62240000Y23749000D02*
X62240000Y21209000D01*
X72400000Y26289000D02*
X62240000Y26289000D01*
X72400000Y21209000D02*
X72400000Y26289000D01*
D10*
%TO.C,U3*%
X33020000Y36830000D02*
X33020000Y45720000D01*
X27940000Y13970000D02*
X27940000Y44450000D01*
X33020000Y22860000D02*
X40640000Y22860000D01*
X27940000Y44450000D02*
X45720000Y44450000D01*
X34290000Y16510000D02*
X34290000Y20320000D01*
X34290000Y20320000D02*
X31750000Y20320000D01*
X31750000Y16510000D02*
X34290000Y16510000D01*
X45720000Y13970000D02*
X27940000Y13970000D01*
X39370000Y20320000D02*
X36830000Y20320000D01*
X40640000Y45720000D02*
X40640000Y36830000D01*
X31750000Y20320000D02*
X31750000Y16510000D01*
X35560000Y16510000D02*
X39370000Y16510000D01*
X39370000Y16510000D02*
X39370000Y20320000D01*
X36830000Y20320000D02*
X35560000Y20320000D01*
X33020000Y45720000D02*
X40640000Y45720000D01*
X35560000Y20320000D02*
X35560000Y16510000D01*
X45720000Y44450000D02*
X45720000Y13970000D01*
X40640000Y30480000D02*
X33020000Y30480000D01*
X33020000Y30480000D02*
X33020000Y22860000D01*
X40640000Y22860000D02*
X40640000Y30480000D01*
X40640000Y36830000D02*
X33020000Y36830000D01*
D14*
X38862000Y25146000D02*
X38862000Y27432000D01*
X38862000Y27432000D02*
X37719000Y27432000D01*
X37719000Y27432000D02*
X37719000Y27686000D01*
X37719000Y27686000D02*
X38862000Y27686000D01*
X38862000Y27686000D02*
X38862000Y28194000D01*
X38862000Y28194000D02*
X39116000Y28067000D01*
X39116000Y28067000D02*
X39116000Y25146000D01*
X39116000Y25146000D02*
X38862000Y25146000D01*
G36*
X39116000Y28067000D02*
G01*
X39116000Y25146000D01*
X38862000Y25146000D01*
X38862000Y27432000D01*
X37719000Y27432000D01*
X37719000Y27686000D01*
X38862000Y27686000D01*
X38862000Y28194000D01*
X39116000Y28067000D01*
G37*
X39116000Y28067000D02*
X39116000Y25146000D01*
X38862000Y25146000D01*
X38862000Y27432000D01*
X37719000Y27432000D01*
X37719000Y27686000D01*
X38862000Y27686000D01*
X38862000Y28194000D01*
X39116000Y28067000D01*
X37719000Y26289000D02*
X38735000Y26289000D01*
X38735000Y26289000D02*
X38735000Y27305000D01*
X38735000Y27305000D02*
X37719000Y27305000D01*
X37719000Y27305000D02*
X37719000Y27051000D01*
X37719000Y27051000D02*
X38481000Y27051000D01*
X38481000Y27051000D02*
X38481000Y26924000D01*
X38481000Y26924000D02*
X37719000Y26924000D01*
X37719000Y26924000D02*
X37719000Y26670000D01*
X37719000Y26670000D02*
X38481000Y26670000D01*
X38481000Y26670000D02*
X38481000Y26543000D01*
X38481000Y26543000D02*
X37719000Y26543000D01*
X37719000Y26543000D02*
X37719000Y26289000D01*
G36*
X38735000Y26289000D02*
G01*
X37719000Y26289000D01*
X37719000Y26543000D01*
X38481000Y26543000D01*
X38481000Y26670000D01*
X37719000Y26670000D01*
X37719000Y26924000D01*
X38481000Y26924000D01*
X38481000Y27051000D01*
X37719000Y27051000D01*
X37719000Y27305000D01*
X38735000Y27305000D01*
X38735000Y26289000D01*
G37*
X38735000Y26289000D02*
X37719000Y26289000D01*
X37719000Y26543000D01*
X38481000Y26543000D01*
X38481000Y26670000D01*
X37719000Y26670000D01*
X37719000Y26924000D01*
X38481000Y26924000D01*
X38481000Y27051000D01*
X37719000Y27051000D01*
X37719000Y27305000D01*
X38735000Y27305000D01*
X38735000Y26289000D01*
X38735000Y26162000D02*
X38735000Y25527000D01*
X38735000Y25527000D02*
X38481000Y25527000D01*
X38481000Y25527000D02*
X38481000Y25908000D01*
X38481000Y25908000D02*
X38354000Y25908000D01*
X38354000Y25908000D02*
X38354000Y25527000D01*
X38354000Y25527000D02*
X38100000Y25527000D01*
X38100000Y25527000D02*
X38100000Y25908000D01*
X38100000Y25908000D02*
X37973000Y25908000D01*
X37973000Y25908000D02*
X37973000Y25527000D01*
X37973000Y25527000D02*
X37719000Y25527000D01*
X37719000Y25527000D02*
X37719000Y26162000D01*
X37719000Y26162000D02*
X38735000Y26162000D01*
G36*
X38735000Y25527000D02*
G01*
X38481000Y25527000D01*
X38481000Y25908000D01*
X38354000Y25908000D01*
X38354000Y25527000D01*
X38100000Y25527000D01*
X38100000Y25908000D01*
X37973000Y25908000D01*
X37973000Y25527000D01*
X37719000Y25527000D01*
X37719000Y26162000D01*
X38735000Y26162000D01*
X38735000Y25527000D01*
G37*
X38735000Y25527000D02*
X38481000Y25527000D01*
X38481000Y25908000D01*
X38354000Y25908000D01*
X38354000Y25527000D01*
X38100000Y25527000D01*
X38100000Y25908000D01*
X37973000Y25908000D01*
X37973000Y25527000D01*
X37719000Y25527000D01*
X37719000Y26162000D01*
X38735000Y26162000D01*
X38735000Y25527000D01*
X37592000Y28575000D02*
X37592000Y24765000D01*
X37592000Y24765000D02*
X37338000Y24892000D01*
X37338000Y24892000D02*
X37338000Y28575000D01*
X37338000Y28575000D02*
X37592000Y28575000D01*
G36*
X37592000Y24765000D02*
G01*
X37338000Y24892000D01*
X37338000Y28575000D01*
X37592000Y28575000D01*
X37592000Y24765000D01*
G37*
X37592000Y24765000D02*
X37338000Y24892000D01*
X37338000Y28575000D01*
X37592000Y28575000D01*
X37592000Y24765000D01*
X37719000Y27813000D02*
X38735000Y27813000D01*
X38735000Y27813000D02*
X38735000Y28194000D01*
X38735000Y28194000D02*
X37719000Y28575000D01*
X37719000Y28575000D02*
X37719000Y28321000D01*
X37719000Y28321000D02*
X38481000Y28067000D01*
X38481000Y28067000D02*
X37719000Y28067000D01*
X37719000Y28067000D02*
X37719000Y27813000D01*
G36*
X38735000Y28194000D02*
G01*
X38735000Y27813000D01*
X37719000Y27813000D01*
X37719000Y28067000D01*
X38481000Y28067000D01*
X37719000Y28321000D01*
X37719000Y28575000D01*
X38735000Y28194000D01*
G37*
X38735000Y28194000D02*
X38735000Y27813000D01*
X37719000Y27813000D01*
X37719000Y28067000D01*
X38481000Y28067000D01*
X37719000Y28321000D01*
X37719000Y28575000D01*
X38735000Y28194000D01*
X38735000Y25400000D02*
X37719000Y25400000D01*
X37719000Y25400000D02*
X37719000Y24765000D01*
X37719000Y24765000D02*
X37973000Y24638000D01*
X37973000Y24638000D02*
X37973000Y25146000D01*
X37973000Y25146000D02*
X38735000Y25146000D01*
X38735000Y25146000D02*
X38735000Y25400000D01*
G36*
X38735000Y25146000D02*
G01*
X37973000Y25146000D01*
X37973000Y24638000D01*
X37719000Y24765000D01*
X37719000Y25400000D01*
X38735000Y25400000D01*
X38735000Y25146000D01*
G37*
X38735000Y25146000D02*
X37973000Y25146000D01*
X37973000Y24638000D01*
X37719000Y24765000D01*
X37719000Y25400000D01*
X38735000Y25400000D01*
X38735000Y25146000D01*
D11*
%TO.C,U1*%
X59880000Y12740000D02*
X59880000Y2500000D01*
X43990000Y12740000D02*
X43990000Y2500000D01*
X43990000Y7620000D02*
X41450000Y7620000D01*
X43990000Y10160000D02*
X41450000Y10160000D01*
X43990000Y5080000D02*
X41450000Y5080000D01*
X59880000Y12740000D02*
X43990000Y12740000D01*
X59880000Y2500000D02*
X43990000Y2500000D01*
%TO.C,U6*%
X3735000Y24240000D02*
X3735000Y18940000D01*
X24175000Y18940000D02*
X24175000Y20590000D01*
X24175000Y24240000D02*
X3735000Y24240000D01*
X24175000Y22590000D02*
X24175000Y24240000D01*
X3735000Y18940000D02*
X24175000Y18940000D01*
X24175000Y22590000D02*
G75*
G03*
X24175000Y20590000I0J-1000000D01*
G01*
%TO.C,U2*%
X11240000Y12740000D02*
X27130000Y12740000D01*
X27130000Y10160000D02*
X29670000Y10160000D01*
X27130000Y5080000D02*
X29670000Y5080000D01*
X11240000Y2500000D02*
X27130000Y2500000D01*
X11240000Y2500000D02*
X11240000Y12740000D01*
X27130000Y2500000D02*
X27130000Y12740000D01*
X27130000Y7620000D02*
X29670000Y7620000D01*
%TD*%
D15*
%TO.C,U4*%
X63510000Y22479000D03*
D16*
X63510000Y25019000D03*
X66050000Y22479000D03*
X66050000Y25019000D03*
X68590000Y22479000D03*
X68590000Y25019000D03*
X71130000Y22479000D03*
X71130000Y25019000D03*
%TD*%
%LPC*%
D17*
%TO.C,J4*%
X54610000Y15240000D03*
D18*
X52070000Y15240000D03*
%TD*%
D17*
%TO.C,J1B1*%
X53315000Y27960000D03*
D18*
X53315000Y30500000D03*
X53315000Y33040000D03*
X53315000Y35580000D03*
X53315000Y38120000D03*
X53315000Y40660000D03*
X53315000Y43200000D03*
%TD*%
D19*
%TO.C,R2*%
X48260000Y25400000D03*
D20*
X48260000Y17780000D03*
%TD*%
D17*
%TO.C,J3*%
X35560000Y8890000D03*
D18*
X35560000Y6350000D03*
%TD*%
D21*
%TO.C,D1*%
X54610000Y21590000D03*
D22*
X52070000Y21590000D03*
%TD*%
D17*
%TO.C,J2*%
X7640000Y12700000D03*
D18*
X5100000Y12700000D03*
X7640000Y10160000D03*
X5100000Y10160000D03*
X7640000Y7620000D03*
X5100000Y7620000D03*
X7640000Y5080000D03*
X5100000Y5080000D03*
%TD*%
D17*
%TO.C,J5A2*%
X73685000Y16485000D03*
D18*
X73685000Y13945000D03*
X73685000Y11405000D03*
X73685000Y8865000D03*
X73685000Y6325000D03*
X73685000Y3785000D03*
%TD*%
D17*
%TO.C,J1C1*%
X55880000Y27960000D03*
D18*
X55880000Y30500000D03*
X55880000Y33040000D03*
X55880000Y35580000D03*
X55880000Y38120000D03*
X55880000Y40660000D03*
X55880000Y43200000D03*
%TD*%
D17*
%TO.C,J5A1*%
X63500000Y16510000D03*
D18*
X63500000Y13970000D03*
X63500000Y11430000D03*
X63500000Y8890000D03*
X63500000Y6350000D03*
X63500000Y3810000D03*
%TD*%
D19*
%TO.C,R1*%
X58420000Y25400000D03*
D20*
X58420000Y17780000D03*
%TD*%
D17*
%TO.C,J1A1*%
X50775000Y27960000D03*
D18*
X50775000Y30500000D03*
X50775000Y33040000D03*
X50775000Y35580000D03*
X50775000Y38120000D03*
X50775000Y40660000D03*
X50775000Y43200000D03*
%TD*%
D23*
%TO.C,U5*%
X22845000Y39360000D03*
D24*
X20305000Y39360000D03*
X17765000Y39360000D03*
X15225000Y39360000D03*
X12685000Y39360000D03*
X10145000Y39360000D03*
X7605000Y39360000D03*
X5065000Y39360000D03*
X5065000Y31740000D03*
X7605000Y31740000D03*
X10145000Y31740000D03*
X12685000Y31740000D03*
X15225000Y31740000D03*
X17765000Y31740000D03*
X20305000Y31740000D03*
X22845000Y31740000D03*
%TD*%
D15*
%TO.C,U4*%
X63510000Y22479000D03*
D16*
X63510000Y25019000D03*
X66050000Y22479000D03*
X66050000Y25019000D03*
X68590000Y22479000D03*
X68590000Y25019000D03*
X71130000Y22479000D03*
X71130000Y25019000D03*
%TD*%
D23*
%TO.C,U3*%
X29210000Y43180000D03*
D25*
X29210000Y40640000D03*
X29210000Y38100000D03*
X29210000Y35560000D03*
X29210000Y33020000D03*
X29210000Y30480000D03*
X29210000Y27940000D03*
X29210000Y25400000D03*
X29210000Y22860000D03*
X29210000Y20320000D03*
X29210000Y17780000D03*
X29210000Y15240000D03*
X31750000Y15240000D03*
X34290000Y15240000D03*
X36830000Y15240000D03*
X39370000Y15240000D03*
X41910000Y15240000D03*
X44450000Y15240000D03*
X44450000Y17780000D03*
X44450000Y20320000D03*
X44450000Y22860000D03*
X44450000Y25400000D03*
X44450000Y27940000D03*
X44450000Y30480000D03*
X44450000Y33020000D03*
X44450000Y35560000D03*
X44450000Y38100000D03*
X44450000Y40640000D03*
X44450000Y43180000D03*
X31750000Y33020000D03*
X41910000Y33020000D03*
%TD*%
D26*
%TO.C,U1*%
X56960000Y7620000D03*
D27*
X40300000Y10160000D03*
D28*
X40300000Y7620000D03*
X40300000Y5080000D03*
%TD*%
D23*
%TO.C,U6*%
X22845000Y25400000D03*
D24*
X20305000Y25400000D03*
X17765000Y25400000D03*
X15225000Y25400000D03*
X12685000Y25400000D03*
X10145000Y25400000D03*
X7605000Y25400000D03*
X5065000Y25400000D03*
X5065000Y17780000D03*
X7605000Y17780000D03*
X10145000Y17780000D03*
X12685000Y17780000D03*
X15225000Y17780000D03*
X17765000Y17780000D03*
X20305000Y17780000D03*
X22845000Y17780000D03*
%TD*%
D26*
%TO.C,U2*%
X14160000Y7620000D03*
D27*
X30820000Y5080000D03*
D28*
X30820000Y7620000D03*
X30820000Y10160000D03*
%TD*%
M02*
