%TF.GenerationSoftware,KiCad,Pcbnew,(6.0.4)*%
%TF.CreationDate,2022-09-17T12:00:04-05:00*%
%TF.ProjectId,WaterGame,57617465-7247-4616-9d65-2e6b69636164,rev?*%
%TF.SameCoordinates,Original*%
%TF.FileFunction,Legend,Top*%
%TF.FilePolarity,Positive*%
%FSLAX46Y46*%
G04 Gerber Fmt 4.6, Leading zero omitted, Abs format (unit mm)*
G04 Created by KiCad (PCBNEW (6.0.4)) date 2022-09-17 12:00:04*
%MOMM*%
%LPD*%
G01*
G04 APERTURE LIST*
%ADD10C,0.150000*%
%ADD11C,0.254000*%
%ADD12C,0.152400*%
%ADD13C,0.120000*%
%ADD14C,0.100000*%
%ADD15R,1.727200X1.727200*%
%ADD16O,1.727200X1.727200*%
%ADD17R,1.600000X1.600000*%
%ADD18O,1.600000X1.600000*%
%ADD19C,1.600000*%
%ADD20O,3.500000X3.500000*%
%ADD21R,2.000000X1.905000*%
%ADD22O,2.000000X1.905000*%
%ADD23C,1.400000*%
%ADD24O,1.400000X1.400000*%
%ADD25R,1.700000X1.700000*%
%ADD26O,1.700000X1.700000*%
G04 APERTURE END LIST*
D10*
X100885714Y-50585714D02*
X101123809Y-51252380D01*
X101361904Y-50585714D01*
X102266666Y-51252380D02*
X101695238Y-51252380D01*
X101980952Y-51252380D02*
X101980952Y-50252380D01*
X101885714Y-50395238D01*
X101790476Y-50490476D01*
X101695238Y-50538095D01*
X111426666Y-89622380D02*
X111426666Y-90336666D01*
X111379047Y-90479523D01*
X111283809Y-90574761D01*
X111140952Y-90622380D01*
X111045714Y-90622380D01*
X111807619Y-89622380D02*
X112426666Y-89622380D01*
X112093333Y-90003333D01*
X112236190Y-90003333D01*
X112331428Y-90050952D01*
X112379047Y-90098571D01*
X112426666Y-90193809D01*
X112426666Y-90431904D01*
X112379047Y-90527142D01*
X112331428Y-90574761D01*
X112236190Y-90622380D01*
X111950476Y-90622380D01*
X111855238Y-90574761D01*
X111807619Y-90527142D01*
X144446666Y-76922380D02*
X144446666Y-77636666D01*
X144399047Y-77779523D01*
X144303809Y-77874761D01*
X144160952Y-77922380D01*
X144065714Y-77922380D01*
X145399047Y-76922380D02*
X144922857Y-76922380D01*
X144875238Y-77398571D01*
X144922857Y-77350952D01*
X145018095Y-77303333D01*
X145256190Y-77303333D01*
X145351428Y-77350952D01*
X145399047Y-77398571D01*
X145446666Y-77493809D01*
X145446666Y-77731904D01*
X145399047Y-77827142D01*
X145351428Y-77874761D01*
X145256190Y-77922380D01*
X145018095Y-77922380D01*
X144922857Y-77874761D01*
X144875238Y-77827142D01*
X129206666Y-73112380D02*
X129206666Y-73826666D01*
X129159047Y-73969523D01*
X129063809Y-74064761D01*
X128920952Y-74112380D01*
X128825714Y-74112380D01*
X130206666Y-74112380D02*
X129635238Y-74112380D01*
X129920952Y-74112380D02*
X129920952Y-73112380D01*
X129825714Y-73255238D01*
X129730476Y-73350476D01*
X129635238Y-73398095D01*
X145232380Y-87796190D02*
X145232380Y-88272380D01*
X144232380Y-88272380D01*
X145184761Y-87081904D02*
X145232380Y-87177142D01*
X145232380Y-87367619D01*
X145184761Y-87462857D01*
X145089523Y-87510476D01*
X144708571Y-87510476D01*
X144613333Y-87462857D01*
X144565714Y-87367619D01*
X144565714Y-87177142D01*
X144613333Y-87081904D01*
X144708571Y-87034285D01*
X144803809Y-87034285D01*
X144899047Y-87510476D01*
X144565714Y-86700952D02*
X145232380Y-86462857D01*
X144565714Y-86224761D01*
X145184761Y-85462857D02*
X145232380Y-85558095D01*
X145232380Y-85748571D01*
X145184761Y-85843809D01*
X145089523Y-85891428D01*
X144708571Y-85891428D01*
X144613333Y-85843809D01*
X144565714Y-85748571D01*
X144565714Y-85558095D01*
X144613333Y-85462857D01*
X144708571Y-85415238D01*
X144803809Y-85415238D01*
X144899047Y-85891428D01*
X145232380Y-84843809D02*
X145184761Y-84939047D01*
X145089523Y-84986666D01*
X144232380Y-84986666D01*
X145184761Y-83748571D02*
X145232380Y-83653333D01*
X145232380Y-83462857D01*
X145184761Y-83367619D01*
X145089523Y-83320000D01*
X145041904Y-83320000D01*
X144946666Y-83367619D01*
X144899047Y-83462857D01*
X144899047Y-83605714D01*
X144851428Y-83700952D01*
X144756190Y-83748571D01*
X144708571Y-83748571D01*
X144613333Y-83700952D01*
X144565714Y-83605714D01*
X144565714Y-83462857D01*
X144613333Y-83367619D01*
X145232380Y-82891428D02*
X144232380Y-82891428D01*
X145232380Y-82462857D02*
X144708571Y-82462857D01*
X144613333Y-82510476D01*
X144565714Y-82605714D01*
X144565714Y-82748571D01*
X144613333Y-82843809D01*
X144660952Y-82891428D01*
X145232380Y-81986666D02*
X144565714Y-81986666D01*
X144232380Y-81986666D02*
X144280000Y-82034285D01*
X144327619Y-81986666D01*
X144280000Y-81939047D01*
X144232380Y-81986666D01*
X144327619Y-81986666D01*
X144565714Y-81653333D02*
X144565714Y-81272380D01*
X145232380Y-81510476D02*
X144375238Y-81510476D01*
X144280000Y-81462857D01*
X144232380Y-81367619D01*
X144232380Y-81272380D01*
X144565714Y-81081904D02*
X144565714Y-80700952D01*
X144232380Y-80939047D02*
X145089523Y-80939047D01*
X145184761Y-80891428D01*
X145232380Y-80796190D01*
X145232380Y-80700952D01*
X145184761Y-79986666D02*
X145232380Y-80081904D01*
X145232380Y-80272380D01*
X145184761Y-80367619D01*
X145089523Y-80415238D01*
X144708571Y-80415238D01*
X144613333Y-80367619D01*
X144565714Y-80272380D01*
X144565714Y-80081904D01*
X144613333Y-79986666D01*
X144708571Y-79939047D01*
X144803809Y-79939047D01*
X144899047Y-80415238D01*
X145232380Y-79510476D02*
X144565714Y-79510476D01*
X144756190Y-79510476D02*
X144660952Y-79462857D01*
X144613333Y-79415238D01*
X144565714Y-79320000D01*
X144565714Y-79224761D01*
X140414761Y-58348571D02*
X140748095Y-58348571D01*
X140890952Y-58872380D02*
X140414761Y-58872380D01*
X140414761Y-57872380D01*
X140890952Y-57872380D01*
X141271904Y-58824761D02*
X141414761Y-58872380D01*
X141652857Y-58872380D01*
X141748095Y-58824761D01*
X141795714Y-58777142D01*
X141843333Y-58681904D01*
X141843333Y-58586666D01*
X141795714Y-58491428D01*
X141748095Y-58443809D01*
X141652857Y-58396190D01*
X141462380Y-58348571D01*
X141367142Y-58300952D01*
X141319523Y-58253333D01*
X141271904Y-58158095D01*
X141271904Y-58062857D01*
X141319523Y-57967619D01*
X141367142Y-57920000D01*
X141462380Y-57872380D01*
X141700476Y-57872380D01*
X141843333Y-57920000D01*
X142271904Y-58872380D02*
X142271904Y-57872380D01*
X142652857Y-57872380D01*
X142748095Y-57920000D01*
X142795714Y-57967619D01*
X142843333Y-58062857D01*
X142843333Y-58205714D01*
X142795714Y-58300952D01*
X142748095Y-58348571D01*
X142652857Y-58396190D01*
X142271904Y-58396190D01*
X143414761Y-58300952D02*
X143319523Y-58253333D01*
X143271904Y-58205714D01*
X143224285Y-58110476D01*
X143224285Y-58062857D01*
X143271904Y-57967619D01*
X143319523Y-57920000D01*
X143414761Y-57872380D01*
X143605238Y-57872380D01*
X143700476Y-57920000D01*
X143748095Y-57967619D01*
X143795714Y-58062857D01*
X143795714Y-58110476D01*
X143748095Y-58205714D01*
X143700476Y-58253333D01*
X143605238Y-58300952D01*
X143414761Y-58300952D01*
X143319523Y-58348571D01*
X143271904Y-58396190D01*
X143224285Y-58491428D01*
X143224285Y-58681904D01*
X143271904Y-58777142D01*
X143319523Y-58824761D01*
X143414761Y-58872380D01*
X143605238Y-58872380D01*
X143700476Y-58824761D01*
X143748095Y-58777142D01*
X143795714Y-58681904D01*
X143795714Y-58491428D01*
X143748095Y-58396190D01*
X143700476Y-58348571D01*
X143605238Y-58300952D01*
X144176666Y-57967619D02*
X144224285Y-57920000D01*
X144319523Y-57872380D01*
X144557619Y-57872380D01*
X144652857Y-57920000D01*
X144700476Y-57967619D01*
X144748095Y-58062857D01*
X144748095Y-58158095D01*
X144700476Y-58300952D01*
X144129047Y-58872380D01*
X144748095Y-58872380D01*
X145605238Y-57872380D02*
X145414761Y-57872380D01*
X145319523Y-57920000D01*
X145271904Y-57967619D01*
X145176666Y-58110476D01*
X145129047Y-58300952D01*
X145129047Y-58681904D01*
X145176666Y-58777142D01*
X145224285Y-58824761D01*
X145319523Y-58872380D01*
X145510000Y-58872380D01*
X145605238Y-58824761D01*
X145652857Y-58777142D01*
X145700476Y-58681904D01*
X145700476Y-58443809D01*
X145652857Y-58348571D01*
X145605238Y-58300952D01*
X145510000Y-58253333D01*
X145319523Y-58253333D01*
X145224285Y-58300952D01*
X145176666Y-58348571D01*
X145129047Y-58443809D01*
X146557619Y-57872380D02*
X146367142Y-57872380D01*
X146271904Y-57920000D01*
X146224285Y-57967619D01*
X146129047Y-58110476D01*
X146081428Y-58300952D01*
X146081428Y-58681904D01*
X146129047Y-58777142D01*
X146176666Y-58824761D01*
X146271904Y-58872380D01*
X146462380Y-58872380D01*
X146557619Y-58824761D01*
X146605238Y-58777142D01*
X146652857Y-58681904D01*
X146652857Y-58443809D01*
X146605238Y-58348571D01*
X146557619Y-58300952D01*
X146462380Y-58253333D01*
X146271904Y-58253333D01*
X146176666Y-58300952D01*
X146129047Y-58348571D01*
X146081428Y-58443809D01*
X93520000Y-85812380D02*
X94139047Y-85812380D01*
X93805714Y-86193333D01*
X93948571Y-86193333D01*
X94043809Y-86240952D01*
X94091428Y-86288571D01*
X94139047Y-86383809D01*
X94139047Y-86621904D01*
X94091428Y-86717142D01*
X94043809Y-86764761D01*
X93948571Y-86812380D01*
X93662857Y-86812380D01*
X93567619Y-86764761D01*
X93520000Y-86717142D01*
X94424761Y-85812380D02*
X94758095Y-86812380D01*
X95091428Y-85812380D01*
X95329523Y-85812380D02*
X95948571Y-85812380D01*
X95615238Y-86193333D01*
X95758095Y-86193333D01*
X95853333Y-86240952D01*
X95900952Y-86288571D01*
X95948571Y-86383809D01*
X95948571Y-86621904D01*
X95900952Y-86717142D01*
X95853333Y-86764761D01*
X95758095Y-86812380D01*
X95472380Y-86812380D01*
X95377142Y-86764761D01*
X95329523Y-86717142D01*
X97710476Y-86812380D02*
X97377142Y-86336190D01*
X97139047Y-86812380D02*
X97139047Y-85812380D01*
X97520000Y-85812380D01*
X97615238Y-85860000D01*
X97662857Y-85907619D01*
X97710476Y-86002857D01*
X97710476Y-86145714D01*
X97662857Y-86240952D01*
X97615238Y-86288571D01*
X97520000Y-86336190D01*
X97139047Y-86336190D01*
X98520000Y-86764761D02*
X98424761Y-86812380D01*
X98234285Y-86812380D01*
X98139047Y-86764761D01*
X98091428Y-86669523D01*
X98091428Y-86288571D01*
X98139047Y-86193333D01*
X98234285Y-86145714D01*
X98424761Y-86145714D01*
X98520000Y-86193333D01*
X98567619Y-86288571D01*
X98567619Y-86383809D01*
X98091428Y-86479047D01*
X99424761Y-86145714D02*
X99424761Y-86955238D01*
X99377142Y-87050476D01*
X99329523Y-87098095D01*
X99234285Y-87145714D01*
X99091428Y-87145714D01*
X98996190Y-87098095D01*
X99424761Y-86764761D02*
X99329523Y-86812380D01*
X99139047Y-86812380D01*
X99043809Y-86764761D01*
X98996190Y-86717142D01*
X98948571Y-86621904D01*
X98948571Y-86336190D01*
X98996190Y-86240952D01*
X99043809Y-86193333D01*
X99139047Y-86145714D01*
X99329523Y-86145714D01*
X99424761Y-86193333D01*
X125047619Y-85812380D02*
X124571428Y-85812380D01*
X124523809Y-86288571D01*
X124571428Y-86240952D01*
X124666666Y-86193333D01*
X124904761Y-86193333D01*
X125000000Y-86240952D01*
X125047619Y-86288571D01*
X125095238Y-86383809D01*
X125095238Y-86621904D01*
X125047619Y-86717142D01*
X125000000Y-86764761D01*
X124904761Y-86812380D01*
X124666666Y-86812380D01*
X124571428Y-86764761D01*
X124523809Y-86717142D01*
X125380952Y-85812380D02*
X125714285Y-86812380D01*
X126047619Y-85812380D01*
X127714285Y-86812380D02*
X127380952Y-86336190D01*
X127142857Y-86812380D02*
X127142857Y-85812380D01*
X127523809Y-85812380D01*
X127619047Y-85860000D01*
X127666666Y-85907619D01*
X127714285Y-86002857D01*
X127714285Y-86145714D01*
X127666666Y-86240952D01*
X127619047Y-86288571D01*
X127523809Y-86336190D01*
X127142857Y-86336190D01*
X128523809Y-86764761D02*
X128428571Y-86812380D01*
X128238095Y-86812380D01*
X128142857Y-86764761D01*
X128095238Y-86669523D01*
X128095238Y-86288571D01*
X128142857Y-86193333D01*
X128238095Y-86145714D01*
X128428571Y-86145714D01*
X128523809Y-86193333D01*
X128571428Y-86288571D01*
X128571428Y-86383809D01*
X128095238Y-86479047D01*
X129428571Y-86145714D02*
X129428571Y-86955238D01*
X129380952Y-87050476D01*
X129333333Y-87098095D01*
X129238095Y-87145714D01*
X129095238Y-87145714D01*
X129000000Y-87098095D01*
X129428571Y-86764761D02*
X129333333Y-86812380D01*
X129142857Y-86812380D01*
X129047619Y-86764761D01*
X129000000Y-86717142D01*
X128952380Y-86621904D01*
X128952380Y-86336190D01*
X129000000Y-86240952D01*
X129047619Y-86193333D01*
X129142857Y-86145714D01*
X129333333Y-86145714D01*
X129428571Y-86193333D01*
X109450476Y-83002380D02*
X109450476Y-82002380D01*
X109831428Y-82002380D01*
X109926666Y-82050000D01*
X109974285Y-82097619D01*
X110021904Y-82192857D01*
X110021904Y-82335714D01*
X109974285Y-82430952D01*
X109926666Y-82478571D01*
X109831428Y-82526190D01*
X109450476Y-82526190D01*
X110640952Y-82002380D02*
X110831428Y-82002380D01*
X110926666Y-82050000D01*
X111021904Y-82145238D01*
X111069523Y-82335714D01*
X111069523Y-82669047D01*
X111021904Y-82859523D01*
X110926666Y-82954761D01*
X110831428Y-83002380D01*
X110640952Y-83002380D01*
X110545714Y-82954761D01*
X110450476Y-82859523D01*
X110402857Y-82669047D01*
X110402857Y-82335714D01*
X110450476Y-82145238D01*
X110545714Y-82050000D01*
X110640952Y-82002380D01*
X111402857Y-82002380D02*
X111640952Y-83002380D01*
X111831428Y-82288095D01*
X112021904Y-83002380D01*
X112260000Y-82002380D01*
X112640952Y-82478571D02*
X112974285Y-82478571D01*
X113117142Y-83002380D02*
X112640952Y-83002380D01*
X112640952Y-82002380D01*
X113117142Y-82002380D01*
X114117142Y-83002380D02*
X113783809Y-82526190D01*
X113545714Y-83002380D02*
X113545714Y-82002380D01*
X113926666Y-82002380D01*
X114021904Y-82050000D01*
X114069523Y-82097619D01*
X114117142Y-82192857D01*
X114117142Y-82335714D01*
X114069523Y-82430952D01*
X114021904Y-82478571D01*
X113926666Y-82526190D01*
X113545714Y-82526190D01*
X113847619Y-84860000D02*
X113847619Y-85050476D01*
X113895238Y-85145714D01*
X113942857Y-85193333D01*
X114085714Y-85288571D01*
X114276190Y-85336190D01*
X114657142Y-85336190D01*
X114752380Y-85288571D01*
X114800000Y-85240952D01*
X114847619Y-85145714D01*
X114847619Y-84955238D01*
X114800000Y-84860000D01*
X114752380Y-84812380D01*
X114657142Y-84764761D01*
X114419047Y-84764761D01*
X114323809Y-84812380D01*
X114276190Y-84860000D01*
X114228571Y-84955238D01*
X114228571Y-85145714D01*
X114276190Y-85240952D01*
X114323809Y-85288571D01*
X114419047Y-85336190D01*
X114847619Y-85621904D02*
X113847619Y-85955238D01*
X114847619Y-86288571D01*
X114800000Y-87907619D02*
X114847619Y-87812380D01*
X114847619Y-87669523D01*
X114800000Y-87526666D01*
X114704761Y-87431428D01*
X114609523Y-87383809D01*
X114419047Y-87336190D01*
X114276190Y-87336190D01*
X114085714Y-87383809D01*
X113990476Y-87431428D01*
X113895238Y-87526666D01*
X113847619Y-87669523D01*
X113847619Y-87764761D01*
X113895238Y-87907619D01*
X113942857Y-87955238D01*
X114276190Y-87955238D01*
X114276190Y-87764761D01*
X133286666Y-77387380D02*
X133524761Y-78387380D01*
X133715238Y-77673095D01*
X133905714Y-78387380D01*
X134143809Y-77387380D01*
X134524761Y-78387380D02*
X134524761Y-77720714D01*
X134524761Y-77387380D02*
X134477142Y-77435000D01*
X134524761Y-77482619D01*
X134572380Y-77435000D01*
X134524761Y-77387380D01*
X134524761Y-77482619D01*
X135334285Y-77863571D02*
X135000952Y-77863571D01*
X135000952Y-78387380D02*
X135000952Y-77387380D01*
X135477142Y-77387380D01*
X135858095Y-78387380D02*
X135858095Y-77720714D01*
X135858095Y-77387380D02*
X135810476Y-77435000D01*
X135858095Y-77482619D01*
X135905714Y-77435000D01*
X135858095Y-77387380D01*
X135858095Y-77482619D01*
X133358095Y-79997380D02*
X133358095Y-78997380D01*
X133739047Y-78997380D01*
X133834285Y-79045000D01*
X133881904Y-79092619D01*
X133929523Y-79187857D01*
X133929523Y-79330714D01*
X133881904Y-79425952D01*
X133834285Y-79473571D01*
X133739047Y-79521190D01*
X133358095Y-79521190D01*
X134929523Y-79997380D02*
X134596190Y-79521190D01*
X134358095Y-79997380D02*
X134358095Y-78997380D01*
X134739047Y-78997380D01*
X134834285Y-79045000D01*
X134881904Y-79092619D01*
X134929523Y-79187857D01*
X134929523Y-79330714D01*
X134881904Y-79425952D01*
X134834285Y-79473571D01*
X134739047Y-79521190D01*
X134358095Y-79521190D01*
X135881904Y-79045000D02*
X135786666Y-78997380D01*
X135643809Y-78997380D01*
X135500952Y-79045000D01*
X135405714Y-79140238D01*
X135358095Y-79235476D01*
X135310476Y-79425952D01*
X135310476Y-79568809D01*
X135358095Y-79759285D01*
X135405714Y-79854523D01*
X135500952Y-79949761D01*
X135643809Y-79997380D01*
X135739047Y-79997380D01*
X135881904Y-79949761D01*
X135929523Y-79902142D01*
X135929523Y-79568809D01*
X135739047Y-79568809D01*
X124912380Y-71254761D02*
X123912380Y-71254761D01*
X123912380Y-70873809D01*
X123960000Y-70778571D01*
X124007619Y-70730952D01*
X124102857Y-70683333D01*
X124245714Y-70683333D01*
X124340952Y-70730952D01*
X124388571Y-70778571D01*
X124436190Y-70873809D01*
X124436190Y-71254761D01*
X123912380Y-70350000D02*
X124912380Y-70111904D01*
X124198095Y-69921428D01*
X124912380Y-69730952D01*
X123912380Y-69492857D01*
X124912380Y-69111904D02*
X123912380Y-69111904D01*
X124626666Y-68778571D01*
X123912380Y-68445238D01*
X124912380Y-68445238D01*
X125730000Y-67310000D02*
X133350000Y-67310000D01*
X133350000Y-67310000D02*
X133350000Y-72430000D01*
X133350000Y-72430000D02*
X125730000Y-72430000D01*
X125730000Y-72430000D02*
X125730000Y-67310000D01*
G36*
X125730000Y-67310000D02*
G01*
X133350000Y-67310000D01*
X133350000Y-72430000D01*
X125730000Y-72430000D01*
X125730000Y-67310000D01*
G37*
X128540000Y-50300000D02*
X128444761Y-50252380D01*
X128301904Y-50252380D01*
X128159047Y-50300000D01*
X128063809Y-50395238D01*
X128016190Y-50490476D01*
X127968571Y-50680952D01*
X127968571Y-50823809D01*
X128016190Y-51014285D01*
X128063809Y-51109523D01*
X128159047Y-51204761D01*
X128301904Y-51252380D01*
X128397142Y-51252380D01*
X128540000Y-51204761D01*
X128587619Y-51157142D01*
X128587619Y-50823809D01*
X128397142Y-50823809D01*
X129016190Y-51252380D02*
X129016190Y-50252380D01*
X129397142Y-50252380D01*
X129492380Y-50300000D01*
X129540000Y-50347619D01*
X129587619Y-50442857D01*
X129587619Y-50585714D01*
X129540000Y-50680952D01*
X129492380Y-50728571D01*
X129397142Y-50776190D01*
X129016190Y-50776190D01*
X130016190Y-51252380D02*
X130016190Y-50252380D01*
X130682857Y-50252380D02*
X130873333Y-50252380D01*
X130968571Y-50300000D01*
X131063809Y-50395238D01*
X131111428Y-50585714D01*
X131111428Y-50919047D01*
X131063809Y-51109523D01*
X130968571Y-51204761D01*
X130873333Y-51252380D01*
X130682857Y-51252380D01*
X130587619Y-51204761D01*
X130492380Y-51109523D01*
X130444761Y-50919047D01*
X130444761Y-50585714D01*
X130492380Y-50395238D01*
X130587619Y-50300000D01*
X130682857Y-50252380D01*
X126325714Y-53744761D02*
X126468571Y-53792380D01*
X126706666Y-53792380D01*
X126801904Y-53744761D01*
X126849523Y-53697142D01*
X126897142Y-53601904D01*
X126897142Y-53506666D01*
X126849523Y-53411428D01*
X126801904Y-53363809D01*
X126706666Y-53316190D01*
X126516190Y-53268571D01*
X126420952Y-53220952D01*
X126373333Y-53173333D01*
X126325714Y-53078095D01*
X126325714Y-52982857D01*
X126373333Y-52887619D01*
X126420952Y-52840000D01*
X126516190Y-52792380D01*
X126754285Y-52792380D01*
X126897142Y-52840000D01*
X129325714Y-52792380D02*
X128849523Y-52792380D01*
X128801904Y-53268571D01*
X128849523Y-53220952D01*
X128944761Y-53173333D01*
X129182857Y-53173333D01*
X129278095Y-53220952D01*
X129325714Y-53268571D01*
X129373333Y-53363809D01*
X129373333Y-53601904D01*
X129325714Y-53697142D01*
X129278095Y-53744761D01*
X129182857Y-53792380D01*
X128944761Y-53792380D01*
X128849523Y-53744761D01*
X128801904Y-53697142D01*
X129659047Y-52792380D02*
X129992380Y-53792380D01*
X130325714Y-52792380D01*
X132706666Y-52840000D02*
X132611428Y-52792380D01*
X132468571Y-52792380D01*
X132325714Y-52840000D01*
X132230476Y-52935238D01*
X132182857Y-53030476D01*
X132135238Y-53220952D01*
X132135238Y-53363809D01*
X132182857Y-53554285D01*
X132230476Y-53649523D01*
X132325714Y-53744761D01*
X132468571Y-53792380D01*
X132563809Y-53792380D01*
X132706666Y-53744761D01*
X132754285Y-53697142D01*
X132754285Y-53363809D01*
X132563809Y-53363809D01*
X80311904Y-79192380D02*
X80311904Y-78192380D01*
X80645238Y-78906666D01*
X80978571Y-78192380D01*
X80978571Y-79192380D01*
X81597619Y-79192380D02*
X81502380Y-79144761D01*
X81454761Y-79097142D01*
X81407142Y-79001904D01*
X81407142Y-78716190D01*
X81454761Y-78620952D01*
X81502380Y-78573333D01*
X81597619Y-78525714D01*
X81740476Y-78525714D01*
X81835714Y-78573333D01*
X81883333Y-78620952D01*
X81930952Y-78716190D01*
X81930952Y-79001904D01*
X81883333Y-79097142D01*
X81835714Y-79144761D01*
X81740476Y-79192380D01*
X81597619Y-79192380D01*
X82216666Y-78525714D02*
X82597619Y-78525714D01*
X82359523Y-78192380D02*
X82359523Y-79049523D01*
X82407142Y-79144761D01*
X82502380Y-79192380D01*
X82597619Y-79192380D01*
X83073809Y-79192380D02*
X82978571Y-79144761D01*
X82930952Y-79097142D01*
X82883333Y-79001904D01*
X82883333Y-78716190D01*
X82930952Y-78620952D01*
X82978571Y-78573333D01*
X83073809Y-78525714D01*
X83216666Y-78525714D01*
X83311904Y-78573333D01*
X83359523Y-78620952D01*
X83407142Y-78716190D01*
X83407142Y-79001904D01*
X83359523Y-79097142D01*
X83311904Y-79144761D01*
X83216666Y-79192380D01*
X83073809Y-79192380D01*
X83835714Y-79192380D02*
X83835714Y-78525714D01*
X83835714Y-78716190D02*
X83883333Y-78620952D01*
X83930952Y-78573333D01*
X84026190Y-78525714D01*
X84121428Y-78525714D01*
X84407142Y-79144761D02*
X84502380Y-79192380D01*
X84692857Y-79192380D01*
X84788095Y-79144761D01*
X84835714Y-79049523D01*
X84835714Y-79001904D01*
X84788095Y-78906666D01*
X84692857Y-78859047D01*
X84550000Y-78859047D01*
X84454761Y-78811428D01*
X84407142Y-78716190D01*
X84407142Y-78668571D01*
X84454761Y-78573333D01*
X84550000Y-78525714D01*
X84692857Y-78525714D01*
X84788095Y-78573333D01*
X81169047Y-91511428D02*
X81930952Y-91511428D01*
X83169047Y-91511428D02*
X83930952Y-91511428D01*
X83550000Y-91892380D02*
X83550000Y-91130476D01*
X94615238Y-49447380D02*
X94853333Y-50447380D01*
X95043809Y-49733095D01*
X95234285Y-50447380D01*
X95472380Y-49447380D01*
X96281904Y-50447380D02*
X96281904Y-49923571D01*
X96234285Y-49828333D01*
X96139047Y-49780714D01*
X95948571Y-49780714D01*
X95853333Y-49828333D01*
X96281904Y-50399761D02*
X96186666Y-50447380D01*
X95948571Y-50447380D01*
X95853333Y-50399761D01*
X95805714Y-50304523D01*
X95805714Y-50209285D01*
X95853333Y-50114047D01*
X95948571Y-50066428D01*
X96186666Y-50066428D01*
X96281904Y-50018809D01*
X96615238Y-49780714D02*
X96996190Y-49780714D01*
X96758095Y-49447380D02*
X96758095Y-50304523D01*
X96805714Y-50399761D01*
X96900952Y-50447380D01*
X96996190Y-50447380D01*
X97710476Y-50399761D02*
X97615238Y-50447380D01*
X97424761Y-50447380D01*
X97329523Y-50399761D01*
X97281904Y-50304523D01*
X97281904Y-49923571D01*
X97329523Y-49828333D01*
X97424761Y-49780714D01*
X97615238Y-49780714D01*
X97710476Y-49828333D01*
X97758095Y-49923571D01*
X97758095Y-50018809D01*
X97281904Y-50114047D01*
X98186666Y-50447380D02*
X98186666Y-49780714D01*
X98186666Y-49971190D02*
X98234285Y-49875952D01*
X98281904Y-49828333D01*
X98377142Y-49780714D01*
X98472380Y-49780714D01*
X95234285Y-51105000D02*
X95139047Y-51057380D01*
X94996190Y-51057380D01*
X94853333Y-51105000D01*
X94758095Y-51200238D01*
X94710476Y-51295476D01*
X94662857Y-51485952D01*
X94662857Y-51628809D01*
X94710476Y-51819285D01*
X94758095Y-51914523D01*
X94853333Y-52009761D01*
X94996190Y-52057380D01*
X95091428Y-52057380D01*
X95234285Y-52009761D01*
X95281904Y-51962142D01*
X95281904Y-51628809D01*
X95091428Y-51628809D01*
X96139047Y-52057380D02*
X96139047Y-51533571D01*
X96091428Y-51438333D01*
X95996190Y-51390714D01*
X95805714Y-51390714D01*
X95710476Y-51438333D01*
X96139047Y-52009761D02*
X96043809Y-52057380D01*
X95805714Y-52057380D01*
X95710476Y-52009761D01*
X95662857Y-51914523D01*
X95662857Y-51819285D01*
X95710476Y-51724047D01*
X95805714Y-51676428D01*
X96043809Y-51676428D01*
X96139047Y-51628809D01*
X96615238Y-52057380D02*
X96615238Y-51390714D01*
X96615238Y-51485952D02*
X96662857Y-51438333D01*
X96758095Y-51390714D01*
X96900952Y-51390714D01*
X96996190Y-51438333D01*
X97043809Y-51533571D01*
X97043809Y-52057380D01*
X97043809Y-51533571D02*
X97091428Y-51438333D01*
X97186666Y-51390714D01*
X97329523Y-51390714D01*
X97424761Y-51438333D01*
X97472380Y-51533571D01*
X97472380Y-52057380D01*
X98329523Y-52009761D02*
X98234285Y-52057380D01*
X98043809Y-52057380D01*
X97948571Y-52009761D01*
X97900952Y-51914523D01*
X97900952Y-51533571D01*
X97948571Y-51438333D01*
X98043809Y-51390714D01*
X98234285Y-51390714D01*
X98329523Y-51438333D01*
X98377142Y-51533571D01*
X98377142Y-51628809D01*
X97900952Y-51724047D01*
%TO.C,U4*%
X134590380Y-72008904D02*
X135399904Y-72008904D01*
X135495142Y-71961285D01*
X135542761Y-71913666D01*
X135590380Y-71818428D01*
X135590380Y-71627952D01*
X135542761Y-71532714D01*
X135495142Y-71485095D01*
X135399904Y-71437476D01*
X134590380Y-71437476D01*
X134923714Y-70532714D02*
X135590380Y-70532714D01*
X134542761Y-70770809D02*
X135257047Y-71008904D01*
X135257047Y-70389857D01*
%TO.C,U6*%
X100827380Y-73151904D02*
X101636904Y-73151904D01*
X101732142Y-73104285D01*
X101779761Y-73056666D01*
X101827380Y-72961428D01*
X101827380Y-72770952D01*
X101779761Y-72675714D01*
X101732142Y-72628095D01*
X101636904Y-72580476D01*
X100827380Y-72580476D01*
X100827380Y-71675714D02*
X100827380Y-71866190D01*
X100875000Y-71961428D01*
X100922619Y-72009047D01*
X101065476Y-72104285D01*
X101255952Y-72151904D01*
X101636904Y-72151904D01*
X101732142Y-72104285D01*
X101779761Y-72056666D01*
X101827380Y-71961428D01*
X101827380Y-71770952D01*
X101779761Y-71675714D01*
X101732142Y-71628095D01*
X101636904Y-71580476D01*
X101398809Y-71580476D01*
X101303571Y-71628095D01*
X101255952Y-71675714D01*
X101208333Y-71770952D01*
X101208333Y-71961428D01*
X101255952Y-72056666D01*
X101303571Y-72104285D01*
X101398809Y-72151904D01*
%TO.C,U5*%
X100827380Y-59191904D02*
X101636904Y-59191904D01*
X101732142Y-59144285D01*
X101779761Y-59096666D01*
X101827380Y-59001428D01*
X101827380Y-58810952D01*
X101779761Y-58715714D01*
X101732142Y-58668095D01*
X101636904Y-58620476D01*
X100827380Y-58620476D01*
X100827380Y-57668095D02*
X100827380Y-58144285D01*
X101303571Y-58191904D01*
X101255952Y-58144285D01*
X101208333Y-58049047D01*
X101208333Y-57810952D01*
X101255952Y-57715714D01*
X101303571Y-57668095D01*
X101398809Y-57620476D01*
X101636904Y-57620476D01*
X101732142Y-57668095D01*
X101779761Y-57715714D01*
X101827380Y-57810952D01*
X101827380Y-58049047D01*
X101779761Y-58144285D01*
X101732142Y-58191904D01*
%TO.C,U3*%
X122642380Y-65531904D02*
X123451904Y-65531904D01*
X123547142Y-65484285D01*
X123594761Y-65436666D01*
X123642380Y-65341428D01*
X123642380Y-65150952D01*
X123594761Y-65055714D01*
X123547142Y-65008095D01*
X123451904Y-64960476D01*
X122642380Y-64960476D01*
X122642380Y-64579523D02*
X122642380Y-63960476D01*
X123023333Y-64293809D01*
X123023333Y-64150952D01*
X123070952Y-64055714D01*
X123118571Y-64008095D01*
X123213809Y-63960476D01*
X123451904Y-63960476D01*
X123547142Y-64008095D01*
X123594761Y-64055714D01*
X123642380Y-64150952D01*
X123642380Y-64436666D01*
X123594761Y-64531904D01*
X123547142Y-64579523D01*
X112203666Y-69876666D02*
X111503666Y-69876666D01*
X112003666Y-69643333D01*
X111503666Y-69410000D01*
X112203666Y-69410000D01*
X111837000Y-69076666D02*
X111837000Y-68843333D01*
X112203666Y-68743333D02*
X112203666Y-69076666D01*
X111503666Y-69076666D01*
X111503666Y-68743333D01*
X111537000Y-68076666D02*
X111503666Y-68143333D01*
X111503666Y-68243333D01*
X111537000Y-68343333D01*
X111603666Y-68410000D01*
X111670333Y-68443333D01*
X111803666Y-68476666D01*
X111903666Y-68476666D01*
X112037000Y-68443333D01*
X112103666Y-68410000D01*
X112170333Y-68343333D01*
X112203666Y-68243333D01*
X112203666Y-68176666D01*
X112170333Y-68076666D01*
X112137000Y-68043333D01*
X111903666Y-68043333D01*
X111903666Y-68176666D01*
X112003666Y-67776666D02*
X112003666Y-67443333D01*
X112203666Y-67843333D02*
X111503666Y-67610000D01*
X112203666Y-67376666D01*
X111503666Y-67210000D02*
X111503666Y-66776666D01*
X111770333Y-67010000D01*
X111770333Y-66910000D01*
X111803666Y-66843333D01*
X111837000Y-66810000D01*
X111903666Y-66776666D01*
X112070333Y-66776666D01*
X112137000Y-66810000D01*
X112170333Y-66843333D01*
X112203666Y-66910000D01*
X112203666Y-67110000D01*
X112170333Y-67176666D01*
X112137000Y-67210000D01*
X111570333Y-66510000D02*
X111537000Y-66476666D01*
X111503666Y-66410000D01*
X111503666Y-66243333D01*
X111537000Y-66176666D01*
X111570333Y-66143333D01*
X111637000Y-66110000D01*
X111703666Y-66110000D01*
X111803666Y-66143333D01*
X112203666Y-66543333D01*
X112203666Y-66110000D01*
X111503666Y-65810000D02*
X112070333Y-65810000D01*
X112137000Y-65776666D01*
X112170333Y-65743333D01*
X112203666Y-65676666D01*
X112203666Y-65543333D01*
X112170333Y-65476666D01*
X112137000Y-65443333D01*
X112070333Y-65410000D01*
X111503666Y-65410000D01*
X111737000Y-64776666D02*
X112203666Y-64776666D01*
X111470333Y-64943333D02*
X111970333Y-65110000D01*
X111970333Y-64676666D01*
%TO.C,U2*%
X85892380Y-87121904D02*
X86701904Y-87121904D01*
X86797142Y-87074285D01*
X86844761Y-87026666D01*
X86892380Y-86931428D01*
X86892380Y-86740952D01*
X86844761Y-86645714D01*
X86797142Y-86598095D01*
X86701904Y-86550476D01*
X85892380Y-86550476D01*
X85987619Y-86121904D02*
X85940000Y-86074285D01*
X85892380Y-85979047D01*
X85892380Y-85740952D01*
X85940000Y-85645714D01*
X85987619Y-85598095D01*
X86082857Y-85550476D01*
X86178095Y-85550476D01*
X86320952Y-85598095D01*
X86892380Y-86169523D01*
X86892380Y-85550476D01*
%TO.C,U1*%
X136532380Y-87121904D02*
X137341904Y-87121904D01*
X137437142Y-87074285D01*
X137484761Y-87026666D01*
X137532380Y-86931428D01*
X137532380Y-86740952D01*
X137484761Y-86645714D01*
X137437142Y-86598095D01*
X137341904Y-86550476D01*
X136532380Y-86550476D01*
X137532380Y-85550476D02*
X137532380Y-86121904D01*
X137532380Y-85836190D02*
X136532380Y-85836190D01*
X136675238Y-85931428D01*
X136770476Y-86026666D01*
X136818095Y-86121904D01*
%TO.C,R1*%
X129373333Y-77302380D02*
X129040000Y-76826190D01*
X128801904Y-77302380D02*
X128801904Y-76302380D01*
X129182857Y-76302380D01*
X129278095Y-76350000D01*
X129325714Y-76397619D01*
X129373333Y-76492857D01*
X129373333Y-76635714D01*
X129325714Y-76730952D01*
X129278095Y-76778571D01*
X129182857Y-76826190D01*
X128801904Y-76826190D01*
X130325714Y-77302380D02*
X129754285Y-77302380D01*
X130040000Y-77302380D02*
X130040000Y-76302380D01*
X129944761Y-76445238D01*
X129849523Y-76540476D01*
X129754285Y-76588095D01*
%TO.C,J4*%
X125182380Y-79073333D02*
X125896666Y-79073333D01*
X126039523Y-79120952D01*
X126134761Y-79216190D01*
X126182380Y-79359047D01*
X126182380Y-79454285D01*
X125515714Y-78168571D02*
X126182380Y-78168571D01*
X125134761Y-78406666D02*
X125849047Y-78644761D01*
X125849047Y-78025714D01*
%TO.C,J2*%
X85812380Y-82883333D02*
X86526666Y-82883333D01*
X86669523Y-82930952D01*
X86764761Y-83026190D01*
X86812380Y-83169047D01*
X86812380Y-83264285D01*
X85907619Y-82454761D02*
X85860000Y-82407142D01*
X85812380Y-82311904D01*
X85812380Y-82073809D01*
X85860000Y-81978571D01*
X85907619Y-81930952D01*
X86002857Y-81883333D01*
X86098095Y-81883333D01*
X86240952Y-81930952D01*
X86812380Y-82502380D01*
X86812380Y-81883333D01*
%TO.C,G\u002A\u002A\u002A*%
G36*
X81122341Y-49576899D02*
G01*
X81138842Y-49587669D01*
X81144685Y-49593440D01*
X81149068Y-49599242D01*
X81152224Y-49607757D01*
X81154383Y-49621668D01*
X81155777Y-49643659D01*
X81156639Y-49676411D01*
X81157199Y-49722608D01*
X81157690Y-49784934D01*
X81157865Y-49807966D01*
X81158497Y-49870629D01*
X81159565Y-49917188D01*
X81161484Y-49951184D01*
X81164672Y-49976158D01*
X81169544Y-49995651D01*
X81176518Y-50013202D01*
X81183739Y-50027929D01*
X81219102Y-50080033D01*
X81266023Y-50119223D01*
X81325758Y-50146073D01*
X81399560Y-50161158D01*
X81483318Y-50165121D01*
X81569758Y-50159104D01*
X81640721Y-50142418D01*
X81697635Y-50114399D01*
X81741929Y-50074384D01*
X81769969Y-50031892D01*
X81779548Y-50013058D01*
X81786529Y-49996409D01*
X81791282Y-49978525D01*
X81794181Y-49955985D01*
X81795596Y-49925368D01*
X81795900Y-49883253D01*
X81795463Y-49826218D01*
X81795180Y-49799871D01*
X81794754Y-49727122D01*
X81795745Y-49671690D01*
X81798867Y-49631260D01*
X81804831Y-49603518D01*
X81814350Y-49586149D01*
X81828138Y-49576839D01*
X81846908Y-49573273D01*
X81865055Y-49572982D01*
X81916050Y-49579327D01*
X81962333Y-49598044D01*
X82009980Y-49631707D01*
X82016386Y-49637138D01*
X82056320Y-49677353D01*
X82085742Y-49721852D01*
X82106381Y-49774683D01*
X82119968Y-49839893D01*
X82126105Y-49893878D01*
X82130991Y-49942853D01*
X82136659Y-49988551D01*
X82142312Y-50025033D01*
X82146053Y-50042740D01*
X82166349Y-50092084D01*
X82199742Y-50144797D01*
X82241939Y-50195111D01*
X82288645Y-50237261D01*
X82293670Y-50241003D01*
X82322732Y-50261843D01*
X82348971Y-50279589D01*
X82376643Y-50296808D01*
X82410006Y-50316069D01*
X82453316Y-50339941D01*
X82494996Y-50362474D01*
X82584403Y-50411839D01*
X82659135Y-50456148D01*
X82722669Y-50497851D01*
X82778484Y-50539397D01*
X82830058Y-50583235D01*
X82880868Y-50631816D01*
X82888777Y-50639804D01*
X82978756Y-50739024D01*
X83049741Y-50834611D01*
X83101959Y-50926989D01*
X83135636Y-51016583D01*
X83150999Y-51103818D01*
X83152091Y-51133952D01*
X83150244Y-51181080D01*
X83143831Y-51216292D01*
X83131448Y-51247062D01*
X83130430Y-51249033D01*
X83112872Y-51278150D01*
X83093832Y-51297928D01*
X83070911Y-51308268D01*
X83041711Y-51309069D01*
X83003835Y-51300230D01*
X82954885Y-51281651D01*
X82892462Y-51253231D01*
X82860383Y-51237717D01*
X82753064Y-51187696D01*
X82658048Y-51149284D01*
X82572219Y-51121913D01*
X82492464Y-51105018D01*
X82415666Y-51098033D01*
X82338713Y-51100391D01*
X82258488Y-51111526D01*
X82215215Y-51120423D01*
X82091612Y-51155998D01*
X81982882Y-51204017D01*
X81888339Y-51264932D01*
X81807297Y-51339193D01*
X81739070Y-51427252D01*
X81731918Y-51438437D01*
X81687727Y-51517833D01*
X81652103Y-51602411D01*
X81624377Y-51694903D01*
X81603881Y-51798042D01*
X81589946Y-51914560D01*
X81581903Y-52047190D01*
X81581715Y-52052320D01*
X81576843Y-52159997D01*
X81570298Y-52262460D01*
X81562324Y-52357743D01*
X81553165Y-52443883D01*
X81543066Y-52518914D01*
X81532272Y-52580873D01*
X81521026Y-52627796D01*
X81509574Y-52657718D01*
X81505614Y-52663747D01*
X81487728Y-52674562D01*
X81478407Y-52676024D01*
X81457837Y-52669525D01*
X81451019Y-52663747D01*
X81438113Y-52643972D01*
X81426934Y-52617010D01*
X81417228Y-52581128D01*
X81408740Y-52534595D01*
X81401217Y-52475677D01*
X81394402Y-52402642D01*
X81388043Y-52313757D01*
X81381885Y-52207290D01*
X81380716Y-52184918D01*
X81376333Y-52101874D01*
X81372480Y-52034774D01*
X81368843Y-51979936D01*
X81365108Y-51933679D01*
X81360963Y-51892320D01*
X81356093Y-51852178D01*
X81350186Y-51809571D01*
X81346838Y-51786806D01*
X81319986Y-51661749D01*
X81278640Y-51546808D01*
X81223652Y-51443268D01*
X81155875Y-51352414D01*
X81076163Y-51275533D01*
X80985369Y-51213909D01*
X80956652Y-51198861D01*
X80836733Y-51148412D01*
X80718981Y-51116365D01*
X80600767Y-51102072D01*
X80560039Y-51101142D01*
X80498484Y-51102754D01*
X80441966Y-51108114D01*
X80387025Y-51118243D01*
X80330200Y-51134158D01*
X80268028Y-51156878D01*
X80197049Y-51187421D01*
X80113802Y-51226808D01*
X80084957Y-51240975D01*
X80019784Y-51272283D01*
X79968981Y-51294097D01*
X79929970Y-51306852D01*
X79900171Y-51310985D01*
X79877005Y-51306931D01*
X79857893Y-51295125D01*
X79844741Y-51281533D01*
X79818891Y-51242246D01*
X79804389Y-51197103D01*
X79800090Y-51141427D01*
X79801609Y-51105331D01*
X79816693Y-51021087D01*
X79849192Y-50933195D01*
X79897669Y-50843520D01*
X79960685Y-50753929D01*
X80036803Y-50666290D01*
X80124585Y-50582468D01*
X80222592Y-50504332D01*
X80309763Y-50445697D01*
X80344201Y-50424647D01*
X80372018Y-50408224D01*
X80389266Y-50398729D01*
X80392783Y-50397293D01*
X80405836Y-50392419D01*
X80431848Y-50379226D01*
X80467150Y-50359853D01*
X80508072Y-50336439D01*
X80550946Y-50311125D01*
X80592102Y-50286050D01*
X80627871Y-50263354D01*
X80654585Y-50245178D01*
X80658260Y-50242467D01*
X80712720Y-50196539D01*
X80754558Y-50148563D01*
X80785566Y-50094887D01*
X80807534Y-50031855D01*
X80822252Y-49955814D01*
X80829120Y-49893821D01*
X80836366Y-49828523D01*
X80846479Y-49777807D01*
X80861376Y-49736635D01*
X80882973Y-49699967D01*
X80913186Y-49662765D01*
X80919692Y-49655617D01*
X80958738Y-49620958D01*
X81002507Y-49594522D01*
X81047017Y-49577545D01*
X81088289Y-49571259D01*
X81122341Y-49576899D01*
G37*
G36*
X80184382Y-51799990D02*
G01*
X80255886Y-51821651D01*
X80313708Y-51856275D01*
X80356888Y-51901853D01*
X80384463Y-51956379D01*
X80395471Y-52017842D01*
X80388950Y-52084236D01*
X80363937Y-52153552D01*
X80358687Y-52163784D01*
X80337166Y-52197999D01*
X80306968Y-52238292D01*
X80273725Y-52277283D01*
X80264978Y-52286608D01*
X80236087Y-52318360D01*
X80218046Y-52341885D01*
X80212385Y-52355079D01*
X80213841Y-52356962D01*
X80228546Y-52359153D01*
X80257849Y-52361362D01*
X80296704Y-52363252D01*
X80319397Y-52364008D01*
X80412707Y-52366628D01*
X80415576Y-52442749D01*
X80418444Y-52518870D01*
X79867579Y-52518870D01*
X79867579Y-52496180D01*
X79874214Y-52475225D01*
X79890802Y-52450340D01*
X79897691Y-52442690D01*
X79937139Y-52401476D01*
X79980037Y-52355192D01*
X80024138Y-52306421D01*
X80067193Y-52257749D01*
X80106957Y-52211758D01*
X80141182Y-52171034D01*
X80167620Y-52138158D01*
X80184025Y-52115716D01*
X80187807Y-52109112D01*
X80201134Y-52062579D01*
X80198961Y-52022884D01*
X80182049Y-51992510D01*
X80151157Y-51973942D01*
X80145968Y-51972478D01*
X80114228Y-51973287D01*
X80088183Y-51991012D01*
X80070333Y-52023190D01*
X80064022Y-52053298D01*
X80059111Y-52101430D01*
X79985560Y-52104363D01*
X79935860Y-52105780D01*
X79902509Y-52104212D01*
X79882259Y-52097983D01*
X79871857Y-52085419D01*
X79868055Y-52064844D01*
X79867579Y-52043559D01*
X79876673Y-51978672D01*
X79902258Y-51920593D01*
X79941790Y-51871279D01*
X79992726Y-51832685D01*
X80052520Y-51806768D01*
X80118629Y-51795484D01*
X80184382Y-51799990D01*
G37*
G36*
X81026589Y-52518870D02*
G01*
X80839969Y-52518870D01*
X80838419Y-52472215D01*
X80838070Y-52447534D01*
X80838042Y-52407281D01*
X80838315Y-52355522D01*
X80838866Y-52296327D01*
X80839633Y-52236642D01*
X80840560Y-52167443D01*
X80840508Y-52115720D01*
X80838682Y-52079303D01*
X80834289Y-52056024D01*
X80826533Y-52043716D01*
X80814621Y-52040210D01*
X80797757Y-52043337D01*
X80775149Y-52050930D01*
X80771998Y-52052043D01*
X80746006Y-52060981D01*
X80729110Y-52066354D01*
X80726125Y-52067053D01*
X80718842Y-52058413D01*
X80708547Y-52036027D01*
X80697040Y-52005195D01*
X80686117Y-51971216D01*
X80677578Y-51939392D01*
X80673220Y-51915022D01*
X80672993Y-51910436D01*
X80681859Y-51903668D01*
X80705933Y-51893072D01*
X80741435Y-51879838D01*
X80784582Y-51865161D01*
X80831590Y-51850231D01*
X80878679Y-51836242D01*
X80922065Y-51824385D01*
X80957966Y-51815853D01*
X80982600Y-51811837D01*
X80986310Y-51811678D01*
X81026589Y-51811678D01*
X81026589Y-52518870D01*
G37*
G36*
X82173156Y-51800146D02*
G01*
X82234335Y-51822619D01*
X82289255Y-51856662D01*
X82333018Y-51899479D01*
X82352914Y-51930207D01*
X82366174Y-51971018D01*
X82372000Y-52021780D01*
X82370039Y-52074118D01*
X82360820Y-52117153D01*
X82345438Y-52149732D01*
X82319953Y-52190825D01*
X82288176Y-52235076D01*
X82253915Y-52277131D01*
X82225601Y-52307233D01*
X82203788Y-52329624D01*
X82189259Y-52346874D01*
X82185599Y-52353544D01*
X82194736Y-52356905D01*
X82219409Y-52360068D01*
X82255512Y-52362614D01*
X82286276Y-52363828D01*
X82386953Y-52366628D01*
X82386953Y-52513959D01*
X81841825Y-52519181D01*
X81841825Y-52496719D01*
X81849358Y-52476391D01*
X81870803Y-52446644D01*
X81898931Y-52415531D01*
X81960842Y-52350689D01*
X82017869Y-52288682D01*
X82068302Y-52231518D01*
X82110430Y-52181205D01*
X82142542Y-52139750D01*
X82162928Y-52109160D01*
X82167371Y-52100517D01*
X82180625Y-52055063D01*
X82177751Y-52016898D01*
X82159009Y-51988154D01*
X82153170Y-51983577D01*
X82119488Y-51969166D01*
X82088599Y-51972845D01*
X82063055Y-51993061D01*
X82045410Y-52028262D01*
X82040153Y-52052320D01*
X82033161Y-52101430D01*
X81947861Y-52104260D01*
X81906412Y-52105259D01*
X81880186Y-52104337D01*
X81864793Y-52100643D01*
X81855842Y-52093327D01*
X81851010Y-52085507D01*
X81842168Y-52050066D01*
X81846250Y-52006327D01*
X81861428Y-51958967D01*
X81885873Y-51912658D01*
X81917756Y-51872076D01*
X81943213Y-51849802D01*
X81986406Y-51825035D01*
X82037488Y-51805333D01*
X82087495Y-51793788D01*
X82110616Y-51792034D01*
X82173156Y-51800146D01*
G37*
G36*
X82667552Y-51966740D02*
G01*
X82700834Y-51905730D01*
X82745903Y-51858002D01*
X82799904Y-51823740D01*
X82859983Y-51803128D01*
X82923288Y-51796349D01*
X82986965Y-51803587D01*
X83048160Y-51825025D01*
X83104020Y-51860848D01*
X83151691Y-51911238D01*
X83167274Y-51934591D01*
X83186629Y-51969657D01*
X83196898Y-51998895D01*
X83200841Y-52032150D01*
X83201314Y-52055962D01*
X83199266Y-52100074D01*
X83191124Y-52135674D01*
X83174374Y-52173569D01*
X83173587Y-52175096D01*
X83157363Y-52202391D01*
X83130640Y-52242474D01*
X83095234Y-52292826D01*
X83052960Y-52350930D01*
X83005632Y-52414267D01*
X82955066Y-52480317D01*
X82935909Y-52504927D01*
X82925468Y-52511491D01*
X82904410Y-52515776D01*
X82869788Y-52518121D01*
X82818656Y-52518869D01*
X82815588Y-52518870D01*
X82771874Y-52518435D01*
X82736465Y-52517255D01*
X82713300Y-52515517D01*
X82706172Y-52513678D01*
X82711727Y-52503968D01*
X82726454Y-52482889D01*
X82747447Y-52454562D01*
X82752915Y-52447378D01*
X82779943Y-52411913D01*
X82806368Y-52377021D01*
X82826588Y-52350098D01*
X82827025Y-52349512D01*
X82854392Y-52312751D01*
X82802382Y-52289325D01*
X82741332Y-52252174D01*
X82694833Y-52203665D01*
X82663959Y-52146373D01*
X82649788Y-52082872D01*
X82651502Y-52050980D01*
X82836485Y-52050980D01*
X82841554Y-52090460D01*
X82847517Y-52104261D01*
X82861732Y-52127051D01*
X82878515Y-52139135D01*
X82904530Y-52143997D01*
X82925160Y-52144854D01*
X82960061Y-52139753D01*
X82986549Y-52121521D01*
X83007584Y-52088131D01*
X83011563Y-52050854D01*
X82998743Y-52015081D01*
X82980437Y-51994260D01*
X82947865Y-51973851D01*
X82916304Y-51971009D01*
X82880539Y-51985426D01*
X82876136Y-51988044D01*
X82848391Y-52015304D01*
X82836485Y-52050980D01*
X82651502Y-52050980D01*
X82653395Y-52015740D01*
X82667552Y-51966740D01*
G37*
G36*
X84919770Y-51479658D02*
G01*
X84980164Y-51493298D01*
X85014618Y-51507319D01*
X85053288Y-51527047D01*
X85033007Y-51578508D01*
X85021526Y-51606996D01*
X85013077Y-51626770D01*
X85010154Y-51632543D01*
X85000531Y-51630480D01*
X84978915Y-51622346D01*
X84964321Y-51616166D01*
X84910942Y-51597866D01*
X84860391Y-51589734D01*
X84815424Y-51591117D01*
X84778797Y-51601365D01*
X84753265Y-51619824D01*
X84741582Y-51645844D01*
X84743191Y-51668488D01*
X84751101Y-51684114D01*
X84768165Y-51697817D01*
X84797223Y-51711014D01*
X84841118Y-51725123D01*
X84875753Y-51734614D01*
X84948340Y-51757459D01*
X85002955Y-51783687D01*
X85041170Y-51814698D01*
X85064555Y-51851891D01*
X85074684Y-51896666D01*
X85075379Y-51912357D01*
X85068608Y-51970021D01*
X85046375Y-52017372D01*
X85007502Y-52056109D01*
X84955437Y-52085872D01*
X84912568Y-52098551D01*
X84857695Y-52105163D01*
X84797506Y-52105679D01*
X84738689Y-52100073D01*
X84687932Y-52088315D01*
X84684167Y-52087017D01*
X84638542Y-52069829D01*
X84609652Y-52054981D01*
X84595417Y-52039169D01*
X84593754Y-52019091D01*
X84602585Y-51991444D01*
X84611338Y-51971421D01*
X84630227Y-51929811D01*
X84682333Y-51956450D01*
X84718445Y-51972166D01*
X84755669Y-51981384D01*
X84802411Y-51986042D01*
X84813016Y-51986569D01*
X84853659Y-51987741D01*
X84880015Y-51986261D01*
X84897367Y-51981221D01*
X84910995Y-51971711D01*
X84913693Y-51969236D01*
X84933104Y-51942580D01*
X84932966Y-51917619D01*
X84913303Y-51894381D01*
X84874140Y-51872893D01*
X84815502Y-51853182D01*
X84808105Y-51851187D01*
X84736622Y-51829535D01*
X84682549Y-51806330D01*
X84643651Y-51780014D01*
X84617694Y-51749031D01*
X84602443Y-51711824D01*
X84601267Y-51707039D01*
X84597150Y-51648523D01*
X84611107Y-51593363D01*
X84641611Y-51545281D01*
X84681436Y-51511460D01*
X84728917Y-51490700D01*
X84788338Y-51478431D01*
X84853892Y-51474726D01*
X84919770Y-51479658D01*
G37*
G36*
X87148164Y-51480228D02*
G01*
X87210351Y-51496623D01*
X87226391Y-51503203D01*
X87251649Y-51517976D01*
X87262148Y-51535710D01*
X87259251Y-51561300D01*
X87249768Y-51587025D01*
X87236878Y-51614709D01*
X87224549Y-51626509D01*
X87206495Y-51624954D01*
X87181074Y-51614634D01*
X87129181Y-51597067D01*
X87078844Y-51589630D01*
X87033442Y-51591815D01*
X86996352Y-51603114D01*
X86970953Y-51623017D01*
X86960895Y-51647751D01*
X86959520Y-51664786D01*
X86961522Y-51678040D01*
X86969414Y-51689004D01*
X86985709Y-51699169D01*
X87012918Y-51710025D01*
X87053554Y-51723062D01*
X87110129Y-51739772D01*
X87121621Y-51743117D01*
X87187561Y-51766185D01*
X87235797Y-51792784D01*
X87268203Y-51824822D01*
X87286653Y-51864209D01*
X87293020Y-51912852D01*
X87293065Y-51917753D01*
X87286461Y-51973549D01*
X87265495Y-52018559D01*
X87228562Y-52055011D01*
X87174059Y-52085134D01*
X87171966Y-52086036D01*
X87118454Y-52101059D01*
X87054269Y-52106866D01*
X86986037Y-52103551D01*
X86920383Y-52091210D01*
X86891489Y-52082018D01*
X86849483Y-52065518D01*
X86823914Y-52051528D01*
X86812523Y-52036524D01*
X86813053Y-52016985D01*
X86823243Y-51989387D01*
X86826858Y-51981213D01*
X86849903Y-51929750D01*
X86902071Y-51956242D01*
X86957134Y-51977306D01*
X87019552Y-51986653D01*
X87020714Y-51986724D01*
X87079493Y-51986056D01*
X87121163Y-51975934D01*
X87145862Y-51956312D01*
X87152105Y-51942100D01*
X87150799Y-51916985D01*
X87132846Y-51894665D01*
X87097321Y-51874466D01*
X87043300Y-51855712D01*
X87028035Y-51851498D01*
X86956462Y-51829709D01*
X86902311Y-51806366D01*
X86863358Y-51779916D01*
X86837381Y-51748809D01*
X86822157Y-51711493D01*
X86821066Y-51707039D01*
X86816968Y-51648865D01*
X86830704Y-51593854D01*
X86860683Y-51545927D01*
X86900124Y-51512161D01*
X86950532Y-51489866D01*
X87012506Y-51477007D01*
X87080300Y-51473742D01*
X87148164Y-51480228D01*
G37*
G36*
X88206210Y-51730887D02*
G01*
X88222958Y-51667809D01*
X88247101Y-51617817D01*
X88281783Y-51574819D01*
X88291670Y-51565195D01*
X88341562Y-51524224D01*
X88390973Y-51497463D01*
X88447368Y-51481156D01*
X88464982Y-51478023D01*
X88547595Y-51473153D01*
X88624334Y-51484804D01*
X88693174Y-51511693D01*
X88752090Y-51552537D01*
X88799058Y-51606052D01*
X88832053Y-51670956D01*
X88845108Y-51718962D01*
X88851907Y-51800538D01*
X88841530Y-51876854D01*
X88815080Y-51945784D01*
X88773663Y-52005200D01*
X88718380Y-52052976D01*
X88655055Y-52085259D01*
X88592441Y-52101056D01*
X88522674Y-52106259D01*
X88453810Y-52100842D01*
X88397346Y-52086138D01*
X88330503Y-52050493D01*
X88275904Y-52001112D01*
X88234985Y-51940660D01*
X88209180Y-51871803D01*
X88201897Y-51813121D01*
X88345226Y-51813121D01*
X88357556Y-51869934D01*
X88366887Y-51891028D01*
X88399647Y-51933422D01*
X88444718Y-51965015D01*
X88496556Y-51982870D01*
X88543914Y-51984824D01*
X88579935Y-51977570D01*
X88613329Y-51965921D01*
X88622458Y-51961285D01*
X88664783Y-51925969D01*
X88694060Y-51879586D01*
X88709775Y-51826194D01*
X88711418Y-51769849D01*
X88698475Y-51714609D01*
X88670435Y-51664531D01*
X88661301Y-51653619D01*
X88618231Y-51619163D01*
X88568335Y-51600284D01*
X88515565Y-51596399D01*
X88463871Y-51606926D01*
X88417207Y-51631283D01*
X88379523Y-51668888D01*
X88362859Y-51697583D01*
X88346941Y-51753137D01*
X88345226Y-51813121D01*
X88201897Y-51813121D01*
X88199922Y-51797205D01*
X88206210Y-51730887D01*
G37*
G36*
X89581509Y-51691467D02*
G01*
X89589983Y-51657762D01*
X89604757Y-51628270D01*
X89627508Y-51597859D01*
X89647887Y-51574597D01*
X89702694Y-51527921D01*
X89767633Y-51495483D01*
X89839153Y-51477423D01*
X89913705Y-51473882D01*
X89987739Y-51485002D01*
X90057705Y-51510924D01*
X90120053Y-51551789D01*
X90124546Y-51555657D01*
X90166829Y-51605193D01*
X90197266Y-51666983D01*
X90214884Y-51736920D01*
X90218711Y-51810898D01*
X90207774Y-51884810D01*
X90204960Y-51895088D01*
X90180214Y-51949884D01*
X90140825Y-52002238D01*
X90091639Y-52047249D01*
X90037503Y-52080009D01*
X90012965Y-52089403D01*
X89951691Y-52102107D01*
X89884950Y-52105729D01*
X89820324Y-52100388D01*
X89765396Y-52086208D01*
X89763364Y-52085401D01*
X89703952Y-52055465D01*
X89656728Y-52016851D01*
X89615307Y-51964257D01*
X89612714Y-51960307D01*
X89576744Y-51904988D01*
X89576744Y-51792034D01*
X89714254Y-51792034D01*
X89718462Y-51850714D01*
X89732554Y-51895255D01*
X89758731Y-51929597D01*
X89799193Y-51957680D01*
X89809865Y-51963228D01*
X89864238Y-51983391D01*
X89914597Y-51986213D01*
X89965782Y-51971888D01*
X89970769Y-51969685D01*
X90016675Y-51938996D01*
X90050086Y-51896746D01*
X90070791Y-51846700D01*
X90078577Y-51792628D01*
X90073236Y-51738296D01*
X90054556Y-51687472D01*
X90022325Y-51643922D01*
X89990397Y-51619057D01*
X89953991Y-51605382D01*
X89907957Y-51599478D01*
X89859668Y-51601206D01*
X89816499Y-51610430D01*
X89791068Y-51622778D01*
X89752405Y-51657933D01*
X89728032Y-51699844D01*
X89716145Y-51752484D01*
X89714254Y-51792034D01*
X89576744Y-51792034D01*
X89577655Y-51734514D01*
X89581509Y-51691467D01*
G37*
G36*
X91465245Y-51476532D02*
G01*
X91532762Y-51492866D01*
X91592909Y-51523106D01*
X91633828Y-51557868D01*
X91649564Y-51578603D01*
X91651408Y-51596013D01*
X91638246Y-51614752D01*
X91615520Y-51634336D01*
X91576918Y-51664909D01*
X91531193Y-51632706D01*
X91503747Y-51614968D01*
X91479922Y-51605256D01*
X91451528Y-51601232D01*
X91418418Y-51600540D01*
X91380635Y-51601521D01*
X91355078Y-51605846D01*
X91334362Y-51615665D01*
X91313669Y-51631047D01*
X91273727Y-51669784D01*
X91250081Y-51710717D01*
X91239774Y-51759932D01*
X91238705Y-51785237D01*
X91246420Y-51849535D01*
X91269563Y-51903617D01*
X91306724Y-51945701D01*
X91356490Y-51974005D01*
X91396438Y-51984414D01*
X91440408Y-51984328D01*
X91486105Y-51973003D01*
X91525396Y-51952982D01*
X91541487Y-51939012D01*
X91558532Y-51924459D01*
X91570163Y-51919721D01*
X91585694Y-51926794D01*
X91606169Y-51944481D01*
X91626976Y-51967486D01*
X91643505Y-51990515D01*
X91651145Y-52008270D01*
X91650826Y-52012366D01*
X91637977Y-52027897D01*
X91612548Y-52047584D01*
X91580060Y-52067955D01*
X91546035Y-52085534D01*
X91516952Y-52096587D01*
X91475889Y-52103544D01*
X91425317Y-52105798D01*
X91372686Y-52103617D01*
X91325445Y-52097270D01*
X91294622Y-52088604D01*
X91227481Y-52053380D01*
X91175510Y-52008153D01*
X91135413Y-51949628D01*
X91117617Y-51911526D01*
X91098806Y-51843256D01*
X91095302Y-51771481D01*
X91106189Y-51700504D01*
X91130551Y-51634624D01*
X91167472Y-51578144D01*
X91194339Y-51551337D01*
X91254904Y-51511506D01*
X91322673Y-51485798D01*
X91394000Y-51474158D01*
X91465245Y-51476532D01*
G37*
G36*
X92033782Y-51478082D02*
G01*
X92080391Y-51486204D01*
X92121587Y-51497301D01*
X92153372Y-51510389D01*
X92171750Y-51524483D01*
X92174695Y-51532425D01*
X92171043Y-51549906D01*
X92161944Y-51574583D01*
X92150181Y-51600487D01*
X92138539Y-51621652D01*
X92129801Y-51632112D01*
X92128119Y-51632249D01*
X92078115Y-51609086D01*
X92033778Y-51596340D01*
X91985931Y-51591559D01*
X91974952Y-51591341D01*
X91938358Y-51591690D01*
X91915296Y-51594834D01*
X91899679Y-51602574D01*
X91885418Y-51616712D01*
X91884097Y-51618239D01*
X91868393Y-51639687D01*
X91860580Y-51656622D01*
X91860387Y-51658460D01*
X91867780Y-51676673D01*
X91890797Y-51694373D01*
X91930693Y-51712244D01*
X91988726Y-51730969D01*
X91998793Y-51733816D01*
X92068575Y-51755934D01*
X92120937Y-51779002D01*
X92158102Y-51804344D01*
X92182291Y-51833281D01*
X92189326Y-51847327D01*
X92203885Y-51904544D01*
X92199924Y-51958930D01*
X92178558Y-52008275D01*
X92140903Y-52050366D01*
X92088073Y-52082992D01*
X92066065Y-52091815D01*
X92026167Y-52100675D01*
X91974525Y-52105001D01*
X91918500Y-52104830D01*
X91865453Y-52100197D01*
X91822746Y-52091140D01*
X91821098Y-52090600D01*
X91777324Y-52074170D01*
X91742565Y-52057685D01*
X91720250Y-52042985D01*
X91713635Y-52032897D01*
X91718559Y-52014932D01*
X91729625Y-51990625D01*
X91743496Y-51965852D01*
X91756837Y-51946490D01*
X91766309Y-51938415D01*
X91767208Y-51938548D01*
X91781313Y-51944773D01*
X91806222Y-51955972D01*
X91821098Y-51962710D01*
X91866108Y-51976966D01*
X91922889Y-51985450D01*
X91938964Y-51986540D01*
X91978773Y-51987784D01*
X92004995Y-51985865D01*
X92023570Y-51979747D01*
X92039640Y-51969033D01*
X92062051Y-51945591D01*
X92066937Y-51923765D01*
X92053833Y-51903025D01*
X92022275Y-51882838D01*
X91971798Y-51862673D01*
X91937236Y-51851819D01*
X91892444Y-51837935D01*
X91850301Y-51823601D01*
X91817479Y-51811133D01*
X91807661Y-51806813D01*
X91766837Y-51777513D01*
X91739435Y-51737417D01*
X91725803Y-51690390D01*
X91726287Y-51640299D01*
X91741238Y-51591010D01*
X91771002Y-51546388D01*
X91783125Y-51534258D01*
X91820336Y-51506204D01*
X91861899Y-51488040D01*
X91913942Y-51477446D01*
X91940313Y-51474702D01*
X91985757Y-51473920D01*
X92033782Y-51478082D01*
G37*
G36*
X85714034Y-51632036D02*
G01*
X85731533Y-51687702D01*
X85748455Y-51741720D01*
X85763217Y-51789024D01*
X85774237Y-51824553D01*
X85777073Y-51833778D01*
X85787034Y-51863618D01*
X85795449Y-51884087D01*
X85799804Y-51890255D01*
X85804299Y-51881348D01*
X85813795Y-51856440D01*
X85827336Y-51818249D01*
X85843965Y-51769494D01*
X85862726Y-51712892D01*
X85869741Y-51691357D01*
X85934236Y-51492459D01*
X85991320Y-51489473D01*
X86032205Y-51487976D01*
X86056120Y-51490910D01*
X86065706Y-51501531D01*
X86063601Y-51523090D01*
X86052445Y-51558842D01*
X86051021Y-51563064D01*
X86041169Y-51592781D01*
X86026658Y-51637266D01*
X86008767Y-51692562D01*
X85988774Y-51754714D01*
X85967959Y-51819763D01*
X85962707Y-51836233D01*
X85938391Y-51913135D01*
X85919332Y-51973457D01*
X85904302Y-52019164D01*
X85892074Y-52052218D01*
X85881420Y-52074584D01*
X85871111Y-52088226D01*
X85859920Y-52095107D01*
X85846619Y-52097190D01*
X85829981Y-52096439D01*
X85808776Y-52094819D01*
X85801242Y-52094453D01*
X85726473Y-52091608D01*
X85700466Y-52013031D01*
X85686066Y-51969072D01*
X85668483Y-51914725D01*
X85650411Y-51858347D01*
X85640402Y-51826852D01*
X85626212Y-51784053D01*
X85613316Y-51748834D01*
X85603207Y-51725044D01*
X85597654Y-51716563D01*
X85592091Y-51724600D01*
X85581748Y-51748575D01*
X85567689Y-51785674D01*
X85550977Y-51833080D01*
X85532675Y-51887977D01*
X85531073Y-51892920D01*
X85512484Y-51949535D01*
X85495346Y-52000092D01*
X85480766Y-52041455D01*
X85469851Y-52070489D01*
X85463707Y-52084059D01*
X85463571Y-52084242D01*
X85447495Y-52091550D01*
X85414868Y-52095716D01*
X85386164Y-52096519D01*
X85350243Y-52096043D01*
X85328934Y-52093458D01*
X85317211Y-52087033D01*
X85310046Y-52075033D01*
X85307807Y-52069509D01*
X85299475Y-52046641D01*
X85286798Y-52009870D01*
X85270695Y-51962030D01*
X85252085Y-51905956D01*
X85231885Y-51844480D01*
X85211013Y-51780437D01*
X85190389Y-51716662D01*
X85170931Y-51655988D01*
X85153556Y-51601248D01*
X85139184Y-51555278D01*
X85128732Y-51520911D01*
X85123119Y-51500982D01*
X85122413Y-51497367D01*
X85131545Y-51492410D01*
X85156230Y-51488957D01*
X85192398Y-51487555D01*
X85195417Y-51487548D01*
X85233078Y-51488036D01*
X85255618Y-51490337D01*
X85267552Y-51495711D01*
X85273397Y-51505416D01*
X85274720Y-51509648D01*
X85279717Y-51526313D01*
X85289426Y-51557981D01*
X85302689Y-51600904D01*
X85318351Y-51651337D01*
X85328527Y-51683990D01*
X85345090Y-51737155D01*
X85359971Y-51785080D01*
X85372011Y-51824020D01*
X85380049Y-51850228D01*
X85382484Y-51858333D01*
X85390369Y-51875476D01*
X85396707Y-51880433D01*
X85401985Y-51871546D01*
X85412294Y-51846717D01*
X85426608Y-51808691D01*
X85443904Y-51760213D01*
X85463158Y-51704030D01*
X85469042Y-51686446D01*
X85533604Y-51492459D01*
X85600943Y-51489615D01*
X85668283Y-51486771D01*
X85714034Y-51632036D01*
G37*
G36*
X86291245Y-51723279D02*
G01*
X86566265Y-51723279D01*
X86566265Y-51487548D01*
X86704058Y-51487548D01*
X86701461Y-51789578D01*
X86698863Y-52091608D01*
X86571176Y-52091608D01*
X86566265Y-51968832D01*
X86561353Y-51846055D01*
X86426299Y-51843323D01*
X86291245Y-51840590D01*
X86291245Y-52096519D01*
X86229038Y-52096519D01*
X86195696Y-52095556D01*
X86170687Y-52093045D01*
X86160284Y-52089971D01*
X86158648Y-52078866D01*
X86157162Y-52050576D01*
X86155878Y-52007557D01*
X86154849Y-51952268D01*
X86154127Y-51887168D01*
X86153767Y-51814713D01*
X86153736Y-51785486D01*
X86153736Y-51487548D01*
X86291245Y-51487548D01*
X86291245Y-51723279D01*
G37*
G36*
X87622142Y-51492459D02*
G01*
X87785672Y-51489770D01*
X87848210Y-51488999D01*
X87894977Y-51489248D01*
X87929837Y-51490831D01*
X87956649Y-51494056D01*
X87979275Y-51499236D01*
X88001577Y-51506681D01*
X88003201Y-51507286D01*
X88062533Y-51537606D01*
X88105527Y-51578522D01*
X88132989Y-51631038D01*
X88144456Y-51683234D01*
X88142950Y-51744230D01*
X88125143Y-51801417D01*
X88092864Y-51849811D01*
X88078123Y-51864061D01*
X88056181Y-51884543D01*
X88042222Y-51900841D01*
X88039582Y-51906544D01*
X88044823Y-51918149D01*
X88058980Y-51942031D01*
X88079710Y-51974372D01*
X88097804Y-52001359D01*
X88123457Y-52039348D01*
X88139085Y-52064273D01*
X88145905Y-52079180D01*
X88145133Y-52087114D01*
X88137987Y-52091119D01*
X88134112Y-52092180D01*
X88111845Y-52094783D01*
X88079181Y-52095359D01*
X88059060Y-52094644D01*
X88005922Y-52091608D01*
X87951169Y-52013031D01*
X87896417Y-51934454D01*
X87830894Y-51931559D01*
X87765372Y-51928664D01*
X87759652Y-52091608D01*
X87700719Y-52094148D01*
X87667170Y-52094285D01*
X87640925Y-52092027D01*
X87629909Y-52088905D01*
X87626330Y-52081377D01*
X87623571Y-52063013D01*
X87621583Y-52032265D01*
X87620316Y-51987585D01*
X87619718Y-51927423D01*
X87619741Y-51850232D01*
X87619951Y-51811678D01*
X87764563Y-51811678D01*
X87827179Y-51811678D01*
X87865865Y-51810704D01*
X87901203Y-51808183D01*
X87920350Y-51805567D01*
X87959663Y-51788888D01*
X87987310Y-51759128D01*
X87999886Y-51720294D01*
X88000294Y-51711472D01*
X87995467Y-51670148D01*
X87979714Y-51640172D01*
X87951128Y-51620254D01*
X87907800Y-51609102D01*
X87847824Y-51605425D01*
X87843628Y-51605413D01*
X87764563Y-51605413D01*
X87764563Y-51811678D01*
X87619951Y-51811678D01*
X87620087Y-51786790D01*
X87622142Y-51492459D01*
G37*
G36*
X88963256Y-51887124D02*
G01*
X88962894Y-51814633D01*
X88962862Y-51784913D01*
X88962862Y-51742923D01*
X89100371Y-51742923D01*
X89176493Y-51742369D01*
X89218537Y-51740558D01*
X89257508Y-51736314D01*
X89285405Y-51730530D01*
X89286735Y-51730091D01*
X89319827Y-51710317D01*
X89337350Y-51680681D01*
X89338251Y-51648276D01*
X89325981Y-51625204D01*
X89298574Y-51609009D01*
X89254853Y-51599289D01*
X89193640Y-51595641D01*
X89184175Y-51595591D01*
X89100371Y-51595591D01*
X89100371Y-51742923D01*
X88962862Y-51742923D01*
X88962862Y-51486403D01*
X89156848Y-51489431D01*
X89224128Y-51490624D01*
X89274998Y-51492048D01*
X89312694Y-51494053D01*
X89340450Y-51496991D01*
X89361503Y-51501213D01*
X89379085Y-51507070D01*
X89396433Y-51514914D01*
X89397819Y-51515594D01*
X89441133Y-51546592D01*
X89469409Y-51587419D01*
X89482111Y-51634652D01*
X89478701Y-51684870D01*
X89458644Y-51734650D01*
X89436860Y-51764656D01*
X89429040Y-51776685D01*
X89432272Y-51787825D01*
X89448742Y-51803848D01*
X89453130Y-51807570D01*
X89490227Y-51848610D01*
X89509355Y-51895414D01*
X89512864Y-51931511D01*
X89504172Y-51983066D01*
X89478469Y-52025165D01*
X89436164Y-52057430D01*
X89377667Y-52079482D01*
X89345691Y-52086051D01*
X89316138Y-52089396D01*
X89274802Y-52092137D01*
X89225448Y-52094232D01*
X89171838Y-52095644D01*
X89117737Y-52096333D01*
X89066909Y-52096260D01*
X89023118Y-52095385D01*
X88990127Y-52093669D01*
X88971701Y-52091074D01*
X88969410Y-52089971D01*
X88967776Y-52078868D01*
X88966291Y-52050576D01*
X88965007Y-52007551D01*
X88964652Y-51988476D01*
X89100371Y-51988476D01*
X89196137Y-51988461D01*
X89249006Y-51987288D01*
X89286932Y-51983384D01*
X89314502Y-51976139D01*
X89325448Y-51971272D01*
X89356497Y-51947929D01*
X89368682Y-51919463D01*
X89364446Y-51892274D01*
X89347697Y-51869830D01*
X89315925Y-51854079D01*
X89267901Y-51844651D01*
X89202396Y-51841178D01*
X89193997Y-51841144D01*
X89100371Y-51841144D01*
X89100371Y-51988476D01*
X88964652Y-51988476D01*
X88963978Y-51952248D01*
X88963256Y-51887124D01*
G37*
G36*
X90779954Y-51605413D02*
G01*
X90593677Y-51605413D01*
X90591049Y-51848511D01*
X90588422Y-52091608D01*
X90524162Y-52094466D01*
X90490219Y-52094942D01*
X90464453Y-52093385D01*
X90452952Y-52090374D01*
X90451021Y-52079006D01*
X90449297Y-52050765D01*
X90447857Y-52008419D01*
X90446780Y-51954740D01*
X90446143Y-51892498D01*
X90446002Y-51844418D01*
X90446002Y-51605413D01*
X90259381Y-51605413D01*
X90259381Y-51487548D01*
X90779954Y-51487548D01*
X90779954Y-51605413D01*
G37*
G36*
X90993727Y-51789578D02*
G01*
X90991129Y-52091608D01*
X90931793Y-52094479D01*
X90899192Y-52094933D01*
X90874892Y-52093193D01*
X90865494Y-52090387D01*
X90863755Y-52079175D01*
X90862174Y-52050782D01*
X90860808Y-52007670D01*
X90859714Y-51952301D01*
X90858947Y-51887139D01*
X90858564Y-51814645D01*
X90858531Y-51785486D01*
X90858531Y-51487548D01*
X90996324Y-51487548D01*
X90993727Y-51789578D01*
G37*
G36*
X85178204Y-50976654D02*
G01*
X85320434Y-50976761D01*
X85476931Y-50976948D01*
X85646731Y-50977209D01*
X85828873Y-50977543D01*
X86022393Y-50977945D01*
X86226328Y-50978411D01*
X86439716Y-50978939D01*
X86661594Y-50979523D01*
X86891000Y-50980162D01*
X87126970Y-50980850D01*
X87368542Y-50981585D01*
X87614754Y-50982362D01*
X87864641Y-50983178D01*
X88117242Y-50984030D01*
X88371595Y-50984914D01*
X88626735Y-50985825D01*
X88881701Y-50986762D01*
X89135529Y-50987719D01*
X89387258Y-50988693D01*
X89635923Y-50989681D01*
X89880563Y-50990679D01*
X90120215Y-50991683D01*
X90353916Y-50992690D01*
X90580703Y-50993696D01*
X90799614Y-50994697D01*
X91009685Y-50995690D01*
X91209954Y-50996671D01*
X91399459Y-50997637D01*
X91577236Y-50998583D01*
X91742324Y-50999506D01*
X91893758Y-51000403D01*
X92030576Y-51001270D01*
X92151816Y-51002104D01*
X92256516Y-51002899D01*
X92343711Y-51003654D01*
X92412439Y-51004364D01*
X92425159Y-51004516D01*
X92965375Y-51011175D01*
X92971363Y-51104485D01*
X91269142Y-51103346D01*
X91087612Y-51103206D01*
X90911296Y-51103036D01*
X90741205Y-51102836D01*
X90578348Y-51102610D01*
X90423736Y-51102361D01*
X90278380Y-51102090D01*
X90143290Y-51101801D01*
X90019477Y-51101496D01*
X89907951Y-51101178D01*
X89809723Y-51100848D01*
X89725802Y-51100510D01*
X89657200Y-51100166D01*
X89604926Y-51099819D01*
X89569992Y-51099471D01*
X89553408Y-51099125D01*
X89552189Y-51099028D01*
X89540895Y-51098645D01*
X89511004Y-51098207D01*
X89463560Y-51097723D01*
X89399610Y-51097195D01*
X89320200Y-51096632D01*
X89226375Y-51096037D01*
X89119182Y-51095417D01*
X88999666Y-51094778D01*
X88868873Y-51094124D01*
X88727850Y-51093462D01*
X88577642Y-51092798D01*
X88419295Y-51092136D01*
X88253856Y-51091483D01*
X88082369Y-51090845D01*
X87946272Y-51090364D01*
X87745669Y-51089657D01*
X87534811Y-51088883D01*
X87316093Y-51088055D01*
X87091909Y-51087180D01*
X86864654Y-51086271D01*
X86636723Y-51085335D01*
X86410510Y-51084385D01*
X86188410Y-51083430D01*
X85972817Y-51082480D01*
X85766126Y-51081545D01*
X85570731Y-51080635D01*
X85389028Y-51079760D01*
X85223409Y-51078931D01*
X85149424Y-51078548D01*
X83943759Y-51072218D01*
X83943759Y-50976798D01*
X85051203Y-50976629D01*
X85178204Y-50976654D01*
G37*
G36*
X84727769Y-49770785D02*
G01*
X84822838Y-49773588D01*
X84825990Y-50004408D01*
X84826526Y-50089255D01*
X84825797Y-50166516D01*
X84823887Y-50233004D01*
X84820880Y-50285536D01*
X84817831Y-50314748D01*
X84797418Y-50399895D01*
X84762348Y-50472109D01*
X84712819Y-50531142D01*
X84649030Y-50576745D01*
X84587656Y-50603462D01*
X84527953Y-50617028D01*
X84457963Y-50622566D01*
X84385322Y-50620092D01*
X84317664Y-50609623D01*
X84292444Y-50602806D01*
X84219334Y-50570089D01*
X84157939Y-50522258D01*
X84110036Y-50460751D01*
X84103877Y-50449984D01*
X84088729Y-50420258D01*
X84078174Y-50392806D01*
X84070776Y-50361898D01*
X84065095Y-50321805D01*
X84060700Y-50277937D01*
X84057558Y-50231075D01*
X84055163Y-50170231D01*
X84053646Y-50101054D01*
X84053136Y-50029198D01*
X84053598Y-49969871D01*
X84056713Y-49773588D01*
X84156835Y-49770795D01*
X84256956Y-49768002D01*
X84259967Y-50050726D01*
X84261002Y-50138462D01*
X84262343Y-50208879D01*
X84264443Y-50264304D01*
X84267759Y-50307060D01*
X84272744Y-50339474D01*
X84279855Y-50363871D01*
X84289546Y-50382575D01*
X84302272Y-50397912D01*
X84318488Y-50412207D01*
X84332901Y-50423405D01*
X84354882Y-50438170D01*
X84376709Y-50446461D01*
X84405413Y-50450111D01*
X84438499Y-50450924D01*
X84495576Y-50447086D01*
X84538635Y-50433379D01*
X84571744Y-50407604D01*
X84598971Y-50367565D01*
X84601412Y-50362914D01*
X84608763Y-50348192D01*
X84614539Y-50334224D01*
X84618961Y-50318474D01*
X84622253Y-50298402D01*
X84624635Y-50271469D01*
X84626329Y-50235137D01*
X84627559Y-50186868D01*
X84628546Y-50124122D01*
X84629511Y-50044362D01*
X84629547Y-50041193D01*
X84632699Y-49767983D01*
X84727769Y-49770785D01*
G37*
G36*
X89505564Y-50090699D02*
G01*
X89534066Y-50006127D01*
X89571665Y-49938241D01*
X89625428Y-49874483D01*
X89690752Y-49824209D01*
X89764952Y-49787378D01*
X89845341Y-49763950D01*
X89929232Y-49753883D01*
X90013941Y-49757139D01*
X90096779Y-49773675D01*
X90175062Y-49803453D01*
X90246103Y-49846430D01*
X90307216Y-49902568D01*
X90342764Y-49949853D01*
X90379570Y-50019603D01*
X90401077Y-50091404D01*
X90409005Y-50171508D01*
X90409097Y-50191007D01*
X90399597Y-50285898D01*
X90373293Y-50370783D01*
X90330574Y-50445164D01*
X90271826Y-50508541D01*
X90197436Y-50560416D01*
X90107792Y-50600291D01*
X90085649Y-50607531D01*
X90034942Y-50617696D01*
X89973174Y-50622037D01*
X89908015Y-50620646D01*
X89847138Y-50613611D01*
X89807564Y-50604266D01*
X89735684Y-50576859D01*
X89676473Y-50543047D01*
X89623104Y-50498814D01*
X89615360Y-50491211D01*
X89560467Y-50423041D01*
X89521829Y-50346218D01*
X89499657Y-50263430D01*
X89495934Y-50205092D01*
X89693082Y-50205092D01*
X89705045Y-50271217D01*
X89732563Y-50331536D01*
X89774737Y-50382843D01*
X89816101Y-50413873D01*
X89848635Y-50431573D01*
X89878417Y-50444863D01*
X89894616Y-50449860D01*
X89936133Y-50452638D01*
X89984691Y-50449356D01*
X90031672Y-50441091D01*
X90068461Y-50428918D01*
X90070555Y-50427884D01*
X90127071Y-50388280D01*
X90172678Y-50333652D01*
X90184247Y-50313933D01*
X90198153Y-50273693D01*
X90205442Y-50221916D01*
X90206134Y-50165552D01*
X90200251Y-50111552D01*
X90187816Y-50066866D01*
X90183444Y-50057500D01*
X90143747Y-50001659D01*
X90091892Y-49960708D01*
X90029440Y-49935475D01*
X89957950Y-49926787D01*
X89938222Y-49927332D01*
X89865377Y-49939263D01*
X89805022Y-49966275D01*
X89756759Y-50008623D01*
X89720187Y-50066568D01*
X89719404Y-50068252D01*
X89697569Y-50136368D01*
X89693082Y-50205092D01*
X89495934Y-50205092D01*
X89494165Y-50177362D01*
X89505564Y-50090699D01*
G37*
G36*
X85202380Y-50080529D02*
G01*
X85202755Y-50157956D01*
X85203159Y-50229928D01*
X85203574Y-50293861D01*
X85203981Y-50347171D01*
X85204361Y-50387272D01*
X85204695Y-50411579D01*
X85204836Y-50416937D01*
X85205901Y-50441492D01*
X85413791Y-50444141D01*
X85621682Y-50446789D01*
X85624967Y-50509321D01*
X85626872Y-50536048D01*
X85628119Y-50557182D01*
X85626692Y-50573394D01*
X85620577Y-50585355D01*
X85607757Y-50593735D01*
X85586219Y-50599206D01*
X85553948Y-50602438D01*
X85508927Y-50604103D01*
X85449142Y-50604870D01*
X85372578Y-50605412D01*
X85335379Y-50605729D01*
X85261276Y-50606325D01*
X85192765Y-50606664D01*
X85132535Y-50606748D01*
X85083276Y-50606581D01*
X85047680Y-50606167D01*
X85028436Y-50605509D01*
X85026647Y-50605330D01*
X85004548Y-50602191D01*
X85004548Y-49768677D01*
X85200990Y-49768677D01*
X85202380Y-50080529D01*
G37*
G36*
X86702740Y-49768677D02*
G01*
X86791432Y-49769277D01*
X86863378Y-49771428D01*
X86921447Y-49775654D01*
X86968510Y-49782481D01*
X87007437Y-49792432D01*
X87041100Y-49806034D01*
X87072367Y-49823810D01*
X87096659Y-49840703D01*
X87141736Y-49885561D01*
X87175592Y-49942926D01*
X87196964Y-50008374D01*
X87204590Y-50077478D01*
X87197210Y-50145814D01*
X87190501Y-50169782D01*
X87170868Y-50211744D01*
X87141501Y-50254714D01*
X87107556Y-50292172D01*
X87074186Y-50317595D01*
X87073288Y-50318082D01*
X87054876Y-50331181D01*
X87047548Y-50342570D01*
X87052854Y-50354242D01*
X87067381Y-50378644D01*
X87089039Y-50412441D01*
X87115742Y-50452300D01*
X87121865Y-50461231D01*
X87158068Y-50513358D01*
X87183776Y-50551055D01*
X87198785Y-50576626D01*
X87202890Y-50592375D01*
X87195889Y-50600605D01*
X87177576Y-50603621D01*
X87147748Y-50603726D01*
X87109282Y-50603229D01*
X87003349Y-50602901D01*
X86929683Y-50492731D01*
X86856017Y-50382560D01*
X86765162Y-50379735D01*
X86674308Y-50376911D01*
X86674308Y-50602005D01*
X86603097Y-50605237D01*
X86563481Y-50606439D01*
X86528168Y-50606482D01*
X86504876Y-50605360D01*
X86477865Y-50602252D01*
X86477865Y-50210672D01*
X86674308Y-50210672D01*
X86787908Y-50210672D01*
X86837774Y-50209715D01*
X86880191Y-50207084D01*
X86910706Y-50203144D01*
X86922962Y-50199623D01*
X86963048Y-50169953D01*
X86989245Y-50131967D01*
X87001873Y-50089373D01*
X87001251Y-50045879D01*
X86987696Y-50005194D01*
X86961528Y-49971025D01*
X86923066Y-49947081D01*
X86900679Y-49940381D01*
X86878781Y-49937815D01*
X86843164Y-49935729D01*
X86799748Y-49934268D01*
X86754456Y-49933576D01*
X86713210Y-49933794D01*
X86681932Y-49935066D01*
X86681674Y-49935086D01*
X86679026Y-49944534D01*
X86676800Y-49970091D01*
X86675185Y-50008224D01*
X86674369Y-50055400D01*
X86674308Y-50073163D01*
X86674308Y-50210672D01*
X86477865Y-50210672D01*
X86477865Y-49768677D01*
X86702740Y-49768677D01*
G37*
G36*
X89345902Y-50188573D02*
G01*
X89345879Y-50608468D01*
X89263941Y-50608468D01*
X89223954Y-50608102D01*
X89190293Y-50607127D01*
X89168796Y-50605734D01*
X89165743Y-50605293D01*
X89161769Y-50603179D01*
X89158496Y-50597383D01*
X89155856Y-50586177D01*
X89153782Y-50567832D01*
X89152207Y-50540619D01*
X89151065Y-50502812D01*
X89150289Y-50452680D01*
X89149811Y-50388495D01*
X89149565Y-50308530D01*
X89149484Y-50211056D01*
X89149482Y-50185397D01*
X89149482Y-49768677D01*
X89345924Y-49768677D01*
X89345902Y-50188573D01*
G37*
G36*
X90760309Y-50446403D02*
G01*
X91182660Y-50446403D01*
X91182660Y-50524980D01*
X91181812Y-50561495D01*
X91179558Y-50589023D01*
X91176333Y-50602902D01*
X91175294Y-50603709D01*
X91135327Y-50604359D01*
X91083840Y-50604938D01*
X91023768Y-50605437D01*
X90958042Y-50605849D01*
X90889594Y-50606166D01*
X90821358Y-50606380D01*
X90756267Y-50606482D01*
X90697251Y-50606467D01*
X90647246Y-50606325D01*
X90609182Y-50606049D01*
X90585992Y-50605630D01*
X90580352Y-50605293D01*
X90576326Y-50603257D01*
X90573010Y-50597694D01*
X90570336Y-50586870D01*
X90568235Y-50569053D01*
X90566641Y-50542511D01*
X90565483Y-50505512D01*
X90564696Y-50456323D01*
X90564210Y-50393213D01*
X90563958Y-50314449D01*
X90563871Y-50218300D01*
X90563867Y-50185397D01*
X90563867Y-49768677D01*
X90760309Y-49768677D01*
X90760309Y-50446403D01*
G37*
G36*
X92722747Y-49840772D02*
G01*
X92723830Y-49877710D01*
X92721450Y-49903726D01*
X92712777Y-49920652D01*
X92694981Y-49930323D01*
X92665234Y-49934574D01*
X92620704Y-49935238D01*
X92578113Y-49934529D01*
X92454625Y-49932099D01*
X92449459Y-50601365D01*
X92422575Y-50604917D01*
X92399243Y-50606311D01*
X92363951Y-50606549D01*
X92324482Y-50605582D01*
X92253271Y-50602697D01*
X92253271Y-49935653D01*
X92152595Y-49934558D01*
X92097730Y-49933758D01*
X92057151Y-49932587D01*
X92025500Y-49930808D01*
X91997419Y-49928182D01*
X91990117Y-49927340D01*
X91983470Y-49920864D01*
X91980141Y-49901559D01*
X91979774Y-49866600D01*
X91980295Y-49849710D01*
X91983163Y-49773588D01*
X92719822Y-49773588D01*
X92722747Y-49840772D01*
G37*
G36*
X86369822Y-49846203D02*
G01*
X86368940Y-49887545D01*
X86365856Y-49912947D01*
X86359917Y-49926051D01*
X86354869Y-49929467D01*
X86339516Y-49931553D01*
X86309059Y-49932901D01*
X86268026Y-49933390D01*
X86224726Y-49932974D01*
X86109536Y-49930742D01*
X86106952Y-50267150D01*
X86104367Y-50603557D01*
X85898360Y-50603557D01*
X85898360Y-50270424D01*
X85898200Y-50176082D01*
X85897681Y-50099807D01*
X85896745Y-50040025D01*
X85895336Y-49995160D01*
X85893396Y-49963639D01*
X85890868Y-49943886D01*
X85887695Y-49934326D01*
X85886083Y-49932944D01*
X85870015Y-49931346D01*
X85841655Y-49931836D01*
X85818440Y-49933389D01*
X85777092Y-49934870D01*
X85729081Y-49933622D01*
X85698119Y-49931224D01*
X85633163Y-49924267D01*
X85633163Y-49768677D01*
X86369822Y-49768677D01*
X86369822Y-49846203D01*
G37*
G36*
X87410170Y-50207109D02*
G01*
X87412992Y-50200850D01*
X87427694Y-50167955D01*
X87448293Y-50121458D01*
X87472844Y-50065771D01*
X87499403Y-50005303D01*
X87524356Y-49948284D01*
X87602498Y-49769383D01*
X87701515Y-49769030D01*
X87746678Y-49769153D01*
X87776178Y-49770432D01*
X87793994Y-49773657D01*
X87804103Y-49779616D01*
X87810483Y-49789095D01*
X87811319Y-49790777D01*
X87822771Y-49814874D01*
X87837686Y-49847108D01*
X87853994Y-49882889D01*
X87869625Y-49917625D01*
X87882508Y-49946726D01*
X87890573Y-49965601D01*
X87892251Y-49970221D01*
X87896060Y-49980122D01*
X87906074Y-50002977D01*
X87920170Y-50033945D01*
X87920955Y-50035645D01*
X87932605Y-50061195D01*
X87950842Y-50101635D01*
X87974290Y-50153897D01*
X88001575Y-50214911D01*
X88031323Y-50281610D01*
X88062032Y-50350638D01*
X88174406Y-50603557D01*
X87965143Y-50603557D01*
X87930850Y-50522525D01*
X87896558Y-50441492D01*
X87706925Y-50436581D01*
X87634195Y-50435221D01*
X87577100Y-50435273D01*
X87536765Y-50436710D01*
X87514317Y-50439504D01*
X87510081Y-50441492D01*
X87503084Y-50454613D01*
X87490788Y-50480920D01*
X87475474Y-50515476D01*
X87470325Y-50527436D01*
X87437781Y-50603557D01*
X87235900Y-50603557D01*
X87292887Y-50472265D01*
X87314564Y-50422404D01*
X87334684Y-50376276D01*
X87351358Y-50338200D01*
X87362697Y-50312499D01*
X87364821Y-50307744D01*
X87376129Y-50282632D01*
X87377573Y-50279427D01*
X87578814Y-50279427D01*
X87701155Y-50279427D01*
X87747576Y-50278766D01*
X87785906Y-50276961D01*
X87812422Y-50274279D01*
X87823396Y-50270989D01*
X87823496Y-50270634D01*
X87819816Y-50257878D01*
X87809796Y-50230946D01*
X87794969Y-50193661D01*
X87776866Y-50149844D01*
X87757017Y-50103319D01*
X87750289Y-50087896D01*
X87737992Y-50057884D01*
X87725418Y-50024387D01*
X87724432Y-50021597D01*
X87712509Y-49994402D01*
X87701924Y-49986433D01*
X87691608Y-49997420D01*
X87685540Y-50011775D01*
X87674878Y-50039210D01*
X87666579Y-50058430D01*
X87654639Y-50085534D01*
X87638502Y-50124120D01*
X87620959Y-50167311D01*
X87604798Y-50208229D01*
X87592809Y-50239996D01*
X87591880Y-50242594D01*
X87578814Y-50279427D01*
X87377573Y-50279427D01*
X87392312Y-50246719D01*
X87410170Y-50207109D01*
G37*
G36*
X88490772Y-50051063D02*
G01*
X88520704Y-50120906D01*
X88548392Y-50184963D01*
X88572844Y-50240984D01*
X88593071Y-50286722D01*
X88608083Y-50319930D01*
X88616888Y-50338360D01*
X88618606Y-50341282D01*
X88624406Y-50334993D01*
X88636606Y-50313038D01*
X88654012Y-50277868D01*
X88675432Y-50231935D01*
X88699673Y-50177690D01*
X88711817Y-50149751D01*
X88739917Y-50084605D01*
X88768199Y-50019162D01*
X88794762Y-49957812D01*
X88817703Y-49904946D01*
X88835122Y-49864955D01*
X88837494Y-49859532D01*
X88877268Y-49768677D01*
X88974087Y-49768677D01*
X89019861Y-49769219D01*
X89049140Y-49771151D01*
X89065051Y-49774929D01*
X89070720Y-49781010D01*
X89070905Y-49782831D01*
X89065621Y-49799092D01*
X89062171Y-49802382D01*
X89053299Y-49815216D01*
X89047348Y-49832040D01*
X89040592Y-49851522D01*
X89027629Y-49883263D01*
X89010733Y-49921805D01*
X89002060Y-49940757D01*
X88985112Y-49977788D01*
X88971852Y-50007739D01*
X88964107Y-50026430D01*
X88962862Y-50030412D01*
X88959052Y-50041311D01*
X88949065Y-50064895D01*
X88935060Y-50096064D01*
X88935029Y-50096129D01*
X88923211Y-50122411D01*
X88905130Y-50163359D01*
X88882269Y-50215584D01*
X88856107Y-50275699D01*
X88828124Y-50340315D01*
X88810961Y-50380104D01*
X88714725Y-50603557D01*
X88513221Y-50603557D01*
X88339259Y-50198395D01*
X88303153Y-50114289D01*
X88269363Y-50035547D01*
X88238692Y-49964047D01*
X88211946Y-49901665D01*
X88189929Y-49850278D01*
X88173444Y-49811762D01*
X88163298Y-49787996D01*
X88160322Y-49780955D01*
X88162761Y-49775317D01*
X88177106Y-49771587D01*
X88205761Y-49769477D01*
X88251132Y-49768698D01*
X88262795Y-49768677D01*
X88370245Y-49768677D01*
X88490772Y-50051063D01*
G37*
G36*
X91919319Y-49925455D02*
G01*
X91700777Y-49928099D01*
X91482235Y-49930742D01*
X91479400Y-50016477D01*
X91476565Y-50102211D01*
X91670932Y-50104876D01*
X91865298Y-50107540D01*
X91868163Y-50183453D01*
X91871028Y-50259365D01*
X91676631Y-50262030D01*
X91482235Y-50264694D01*
X91479413Y-50355367D01*
X91476592Y-50446039D01*
X91705322Y-50448677D01*
X91934053Y-50451314D01*
X91936921Y-50527436D01*
X91939790Y-50603557D01*
X91280882Y-50603557D01*
X91280882Y-49768677D01*
X91919319Y-49768677D01*
X91919319Y-49925455D01*
G37*
G36*
X80508745Y-49859210D02*
G01*
X80514362Y-49869147D01*
X80514394Y-49892191D01*
X80513948Y-49898735D01*
X80508718Y-49928869D01*
X80498399Y-49941162D01*
X80496195Y-49941561D01*
X80481044Y-49940788D01*
X80450886Y-49937813D01*
X80410175Y-49933117D01*
X80366052Y-49927533D01*
X80308762Y-49919071D01*
X80271040Y-49911337D01*
X80252825Y-49904308D01*
X80254053Y-49897961D01*
X80272742Y-49892622D01*
X80337010Y-49880949D01*
X80394725Y-49871039D01*
X80442637Y-49863414D01*
X80477493Y-49858591D01*
X80495151Y-49857076D01*
X80508745Y-49859210D01*
G37*
G36*
X82512395Y-49862132D02*
G01*
X82560245Y-49871135D01*
X82601740Y-49879052D01*
X82640967Y-49886275D01*
X82669339Y-49891224D01*
X82692967Y-49896807D01*
X82705542Y-49903120D01*
X82706172Y-49904570D01*
X82697046Y-49908515D01*
X82672265Y-49913703D01*
X82635720Y-49919433D01*
X82595673Y-49924507D01*
X82549012Y-49930071D01*
X82507798Y-49935412D01*
X82477024Y-49939859D01*
X82463074Y-49942367D01*
X82449609Y-49943866D01*
X82443120Y-49936897D01*
X82441097Y-49916911D01*
X82440974Y-49902341D01*
X82441730Y-49879863D01*
X82446096Y-49865429D01*
X82457228Y-49858212D01*
X82478277Y-49857388D01*
X82512395Y-49862132D01*
G37*
G36*
X81467014Y-49723325D02*
G01*
X81496075Y-49745847D01*
X81521043Y-49767229D01*
X81531671Y-49777662D01*
X81551135Y-49792648D01*
X81575772Y-49797144D01*
X81610056Y-49791356D01*
X81638567Y-49782540D01*
X81667706Y-49774167D01*
X81690053Y-49770507D01*
X81696453Y-49770967D01*
X81693502Y-49777292D01*
X81677731Y-49791310D01*
X81652996Y-49810333D01*
X81623155Y-49831675D01*
X81592063Y-49852646D01*
X81563578Y-49870558D01*
X81541556Y-49882724D01*
X81530629Y-49886543D01*
X81516489Y-49881079D01*
X81495293Y-49867685D01*
X81492009Y-49865269D01*
X81466588Y-49844786D01*
X81437625Y-49819554D01*
X81429296Y-49811909D01*
X81394919Y-49779822D01*
X81345808Y-49793436D01*
X81312706Y-49802687D01*
X81284264Y-49810761D01*
X81274598Y-49813564D01*
X81256165Y-49816742D01*
X81254663Y-49810521D01*
X81269893Y-49795118D01*
X81301654Y-49770748D01*
X81336875Y-49746262D01*
X81420893Y-49689469D01*
X81467014Y-49723325D01*
G37*
G36*
X80399201Y-49506349D02*
G01*
X80413878Y-49511640D01*
X80442438Y-49521569D01*
X80480150Y-49534499D01*
X80506017Y-49543293D01*
X80545778Y-49556995D01*
X80578057Y-49568551D01*
X80598656Y-49576432D01*
X80603807Y-49578872D01*
X80602621Y-49589081D01*
X80594204Y-49608428D01*
X80582391Y-49629815D01*
X80571011Y-49646147D01*
X80564963Y-49650812D01*
X80554919Y-49645121D01*
X80532986Y-49629728D01*
X80502655Y-49607152D01*
X80475655Y-49586365D01*
X80433922Y-49552787D01*
X80404897Y-49527247D01*
X80389428Y-49510634D01*
X80388364Y-49503835D01*
X80399201Y-49506349D01*
G37*
G36*
X82568415Y-49516130D02*
G01*
X82552951Y-49529093D01*
X82549293Y-49531564D01*
X82530185Y-49545306D01*
X82501375Y-49567236D01*
X82468387Y-49593132D01*
X82460894Y-49599121D01*
X82430840Y-49622688D01*
X82406695Y-49640608D01*
X82392429Y-49649970D01*
X82390538Y-49650687D01*
X82381289Y-49643462D01*
X82368438Y-49626602D01*
X82356858Y-49604897D01*
X82352592Y-49589769D01*
X82361434Y-49581431D01*
X82385739Y-49568852D01*
X82422199Y-49553581D01*
X82457614Y-49540565D01*
X82510463Y-49523087D01*
X82546796Y-49513163D01*
X82566238Y-49510832D01*
X82568415Y-49516130D01*
G37*
G36*
X80685739Y-49205799D02*
G01*
X80705713Y-49221309D01*
X80734202Y-49245498D01*
X80768303Y-49275982D01*
X80771374Y-49278794D01*
X80860904Y-49360897D01*
X80833248Y-49383029D01*
X80810840Y-49399596D01*
X80796427Y-49403034D01*
X80783025Y-49392927D01*
X80771927Y-49379379D01*
X80757974Y-49359268D01*
X80751609Y-49345411D01*
X80751570Y-49344824D01*
X80746780Y-49332813D01*
X80734100Y-49308879D01*
X80716063Y-49277749D01*
X80712042Y-49271085D01*
X80693941Y-49239819D01*
X80681503Y-49215445D01*
X80676905Y-49202320D01*
X80677180Y-49201356D01*
X80685739Y-49205799D01*
G37*
G36*
X82276344Y-49210556D02*
G01*
X82265474Y-49232852D01*
X82248803Y-49263569D01*
X82228719Y-49298641D01*
X82207609Y-49334002D01*
X82187861Y-49365584D01*
X82171864Y-49389322D01*
X82162005Y-49401150D01*
X82160996Y-49401723D01*
X82146564Y-49399064D01*
X82125119Y-49388531D01*
X82124211Y-49387973D01*
X82105614Y-49374748D01*
X82097238Y-49365421D01*
X82097200Y-49365072D01*
X82103933Y-49356117D01*
X82121881Y-49337787D01*
X82147672Y-49313132D01*
X82177933Y-49285200D01*
X82209289Y-49257040D01*
X82238368Y-49231701D01*
X82261796Y-49212231D01*
X82276201Y-49201679D01*
X82279024Y-49200746D01*
X82276344Y-49210556D01*
G37*
G36*
X81074807Y-49030497D02*
G01*
X81087145Y-49052617D01*
X81103388Y-49084380D01*
X81121548Y-49121611D01*
X81139638Y-49160133D01*
X81155669Y-49195773D01*
X81167655Y-49224353D01*
X81173606Y-49241698D01*
X81173921Y-49243937D01*
X81165863Y-49255838D01*
X81156732Y-49258061D01*
X81132714Y-49260737D01*
X81118874Y-49263744D01*
X81107013Y-49264824D01*
X81099026Y-49257583D01*
X81092504Y-49238057D01*
X81086695Y-49210795D01*
X81079897Y-49171710D01*
X81074019Y-49129741D01*
X81069493Y-49089345D01*
X81066755Y-49054984D01*
X81066236Y-49031114D01*
X81068362Y-49022196D01*
X81074807Y-49030497D01*
G37*
G36*
X81889220Y-49037428D02*
G01*
X81887877Y-49063604D01*
X81884483Y-49099331D01*
X81879644Y-49139698D01*
X81873969Y-49179796D01*
X81868064Y-49214715D01*
X81862537Y-49239544D01*
X81860771Y-49245030D01*
X81851545Y-49261867D01*
X81844524Y-49266587D01*
X81830254Y-49263867D01*
X81807448Y-49259124D01*
X81786899Y-49251921D01*
X81778227Y-49243289D01*
X81778226Y-49243097D01*
X81782404Y-49229525D01*
X81793279Y-49204105D01*
X81808835Y-49170831D01*
X81827057Y-49133697D01*
X81845931Y-49096696D01*
X81863441Y-49063822D01*
X81877572Y-49039070D01*
X81886310Y-49026431D01*
X81887904Y-49025712D01*
X81889220Y-49037428D01*
G37*
G36*
X81480781Y-48962744D02*
G01*
X81486588Y-48983594D01*
X81493488Y-49018123D01*
X81500943Y-49063406D01*
X81508416Y-49116522D01*
X81513988Y-49162161D01*
X81520424Y-49218638D01*
X81479771Y-49218638D01*
X81454366Y-49217046D01*
X81439508Y-49213056D01*
X81438031Y-49211272D01*
X81438169Y-49192279D01*
X81441199Y-49159747D01*
X81446366Y-49118624D01*
X81452915Y-49073862D01*
X81460091Y-49030410D01*
X81467138Y-48993217D01*
X81473301Y-48967235D01*
X81476601Y-48958495D01*
X81480781Y-48962744D01*
G37*
D11*
%TO.C,U4*%
X136408000Y-73279000D02*
X136408000Y-48641000D01*
X136408000Y-48641000D02*
X150632000Y-48641000D01*
X150632000Y-48641000D02*
X150632000Y-73279000D01*
X150632000Y-73279000D02*
X136408000Y-73279000D01*
D12*
X138440000Y-70231000D02*
X138440000Y-72771000D01*
X138440000Y-72771000D02*
X140980000Y-72771000D01*
X140980000Y-72771000D02*
X148600000Y-72771000D01*
X148600000Y-72771000D02*
X148600000Y-67691000D01*
X148600000Y-67691000D02*
X138440000Y-67691000D01*
X138440000Y-67691000D02*
X138440000Y-70231000D01*
D13*
%TO.C,U6*%
X100375000Y-75040000D02*
X100375000Y-73390000D01*
X100375000Y-69740000D02*
X79935000Y-69740000D01*
X79935000Y-75040000D02*
X100375000Y-75040000D01*
X79935000Y-69740000D02*
X79935000Y-75040000D01*
X100375000Y-71390000D02*
X100375000Y-69740000D01*
X100375000Y-71390000D02*
G75*
G03*
X100375000Y-73390000I0J-1000000D01*
G01*
%TO.C,U5*%
X100375000Y-61080000D02*
X100375000Y-59430000D01*
X100375000Y-55780000D02*
X79935000Y-55780000D01*
X79935000Y-61080000D02*
X100375000Y-61080000D01*
X79935000Y-55780000D02*
X79935000Y-61080000D01*
X100375000Y-57430000D02*
X100375000Y-55780000D01*
X100375000Y-57430000D02*
G75*
G03*
X100375000Y-59430000I0J-1000000D01*
G01*
%TO.C,U3*%
G36*
X113792000Y-69215000D02*
G01*
X113538000Y-69088000D01*
X113538000Y-65405000D01*
X113792000Y-65405000D01*
X113792000Y-69215000D01*
G37*
D14*
X113792000Y-69215000D02*
X113538000Y-69088000D01*
X113538000Y-65405000D01*
X113792000Y-65405000D01*
X113792000Y-69215000D01*
G36*
X114935000Y-65786000D02*
G01*
X114935000Y-66167000D01*
X113919000Y-66167000D01*
X113919000Y-65913000D01*
X114681000Y-65913000D01*
X113919000Y-65659000D01*
X113919000Y-65405000D01*
X114935000Y-65786000D01*
G37*
X114935000Y-65786000D02*
X114935000Y-66167000D01*
X113919000Y-66167000D01*
X113919000Y-65913000D01*
X114681000Y-65913000D01*
X113919000Y-65659000D01*
X113919000Y-65405000D01*
X114935000Y-65786000D01*
G36*
X115316000Y-65913000D02*
G01*
X115316000Y-68834000D01*
X115062000Y-68834000D01*
X115062000Y-66548000D01*
X113919000Y-66548000D01*
X113919000Y-66294000D01*
X115062000Y-66294000D01*
X115062000Y-65786000D01*
X115316000Y-65913000D01*
G37*
X115316000Y-65913000D02*
X115316000Y-68834000D01*
X115062000Y-68834000D01*
X115062000Y-66548000D01*
X113919000Y-66548000D01*
X113919000Y-66294000D01*
X115062000Y-66294000D01*
X115062000Y-65786000D01*
X115316000Y-65913000D01*
G36*
X114935000Y-67691000D02*
G01*
X113919000Y-67691000D01*
X113919000Y-67437000D01*
X114681000Y-67437000D01*
X114681000Y-67310000D01*
X113919000Y-67310000D01*
X113919000Y-67056000D01*
X114681000Y-67056000D01*
X114681000Y-66929000D01*
X113919000Y-66929000D01*
X113919000Y-66675000D01*
X114935000Y-66675000D01*
X114935000Y-67691000D01*
G37*
X114935000Y-67691000D02*
X113919000Y-67691000D01*
X113919000Y-67437000D01*
X114681000Y-67437000D01*
X114681000Y-67310000D01*
X113919000Y-67310000D01*
X113919000Y-67056000D01*
X114681000Y-67056000D01*
X114681000Y-66929000D01*
X113919000Y-66929000D01*
X113919000Y-66675000D01*
X114935000Y-66675000D01*
X114935000Y-67691000D01*
G36*
X114935000Y-68834000D02*
G01*
X114173000Y-68834000D01*
X114173000Y-69342000D01*
X113919000Y-69215000D01*
X113919000Y-68580000D01*
X114935000Y-68580000D01*
X114935000Y-68834000D01*
G37*
X114935000Y-68834000D02*
X114173000Y-68834000D01*
X114173000Y-69342000D01*
X113919000Y-69215000D01*
X113919000Y-68580000D01*
X114935000Y-68580000D01*
X114935000Y-68834000D01*
G36*
X114935000Y-68453000D02*
G01*
X114681000Y-68453000D01*
X114681000Y-68072000D01*
X114554000Y-68072000D01*
X114554000Y-68453000D01*
X114300000Y-68453000D01*
X114300000Y-68072000D01*
X114173000Y-68072000D01*
X114173000Y-68453000D01*
X113919000Y-68453000D01*
X113919000Y-67818000D01*
X114935000Y-67818000D01*
X114935000Y-68453000D01*
G37*
X114935000Y-68453000D02*
X114681000Y-68453000D01*
X114681000Y-68072000D01*
X114554000Y-68072000D01*
X114554000Y-68453000D01*
X114300000Y-68453000D01*
X114300000Y-68072000D01*
X114173000Y-68072000D01*
X114173000Y-68453000D01*
X113919000Y-68453000D01*
X113919000Y-67818000D01*
X114935000Y-67818000D01*
X114935000Y-68453000D01*
D10*
X104140000Y-49530000D02*
X121920000Y-49530000D01*
X104140000Y-80010000D02*
X104140000Y-49530000D01*
X121920000Y-80010000D02*
X104140000Y-80010000D01*
X121920000Y-49530000D02*
X121920000Y-80010000D01*
X116840000Y-57150000D02*
X109220000Y-57150000D01*
X116840000Y-48260000D02*
X116840000Y-57150000D01*
X109220000Y-48260000D02*
X116840000Y-48260000D01*
X109220000Y-57150000D02*
X109220000Y-48260000D01*
X116840000Y-63500000D02*
X109220000Y-63500000D01*
X116840000Y-71120000D02*
X116840000Y-63500000D01*
X109220000Y-71120000D02*
X116840000Y-71120000D01*
X109220000Y-63500000D02*
X109220000Y-71120000D01*
X111760000Y-77470000D02*
X115570000Y-77470000D01*
X111760000Y-73660000D02*
X111760000Y-77470000D01*
X113030000Y-73660000D02*
X111760000Y-73660000D01*
X115570000Y-73660000D02*
X113030000Y-73660000D01*
X115570000Y-77470000D02*
X115570000Y-73660000D01*
X107950000Y-77470000D02*
X110490000Y-77470000D01*
X107950000Y-73660000D02*
X107950000Y-77470000D01*
X110490000Y-73660000D02*
X107950000Y-73660000D01*
X110490000Y-77470000D02*
X110490000Y-73660000D01*
D13*
%TO.C,U2*%
X87440000Y-91480000D02*
X103330000Y-91480000D01*
X87440000Y-91480000D02*
X87440000Y-81240000D01*
X87440000Y-81240000D02*
X103330000Y-81240000D01*
X103330000Y-91480000D02*
X103330000Y-81240000D01*
X103330000Y-86360000D02*
X105870000Y-86360000D01*
X103330000Y-83820000D02*
X105870000Y-83820000D01*
X103330000Y-88900000D02*
X105870000Y-88900000D01*
%TO.C,U1*%
X136080000Y-81240000D02*
X120190000Y-81240000D01*
X136080000Y-81240000D02*
X136080000Y-91480000D01*
X136080000Y-91480000D02*
X120190000Y-91480000D01*
X120190000Y-81240000D02*
X120190000Y-91480000D01*
X120190000Y-86360000D02*
X117650000Y-86360000D01*
X120190000Y-88900000D02*
X117650000Y-88900000D01*
X120190000Y-83820000D02*
X117650000Y-83820000D01*
%TO.C,R1*%
X127620000Y-74010000D02*
X127620000Y-75850000D01*
X127620000Y-75850000D02*
X131460000Y-75850000D01*
X131460000Y-74010000D02*
X127620000Y-74010000D01*
X126670000Y-74930000D02*
X127620000Y-74930000D01*
X131460000Y-75850000D02*
X131460000Y-74010000D01*
X132410000Y-74930000D02*
X131460000Y-74930000D01*
%TO.C,J5A2*%
X148555000Y-91525000D02*
X151215000Y-91525000D01*
X148555000Y-78765000D02*
X148555000Y-91525000D01*
X151215000Y-76165000D02*
X151215000Y-77495000D01*
X151215000Y-78765000D02*
X151215000Y-91525000D01*
X148555000Y-78765000D02*
X151215000Y-78765000D01*
X149885000Y-76165000D02*
X151215000Y-76165000D01*
%TO.C,J5A1*%
X139700000Y-76140000D02*
X141030000Y-76140000D01*
X138370000Y-78740000D02*
X141030000Y-78740000D01*
X141030000Y-78740000D02*
X141030000Y-91500000D01*
X141030000Y-76140000D02*
X141030000Y-77470000D01*
X138370000Y-78740000D02*
X138370000Y-91500000D01*
X138370000Y-91500000D02*
X141030000Y-91500000D01*
%TO.C,J4*%
X129540000Y-77410000D02*
X126940000Y-77410000D01*
X129540000Y-80070000D02*
X126940000Y-80070000D01*
X129540000Y-77410000D02*
X129540000Y-80070000D01*
X132140000Y-78740000D02*
X132140000Y-80070000D01*
X132140000Y-80070000D02*
X130810000Y-80070000D01*
X126940000Y-77410000D02*
X126940000Y-80070000D01*
%TO.C,J3*%
X110430000Y-88960000D02*
X113090000Y-88960000D01*
X113090000Y-83760000D02*
X113090000Y-85090000D01*
X111760000Y-83760000D02*
X113090000Y-83760000D01*
X110430000Y-86360000D02*
X113090000Y-86360000D01*
X113090000Y-86360000D02*
X113090000Y-88960000D01*
X110430000Y-86360000D02*
X110430000Y-88960000D01*
%TO.C,J2*%
X83840000Y-79950000D02*
X85170000Y-79950000D01*
X82570000Y-79950000D02*
X82570000Y-82550000D01*
X79970000Y-90230000D02*
X85170000Y-90230000D01*
X85170000Y-79950000D02*
X85170000Y-81280000D01*
X82570000Y-82550000D02*
X85170000Y-82550000D01*
X79970000Y-79950000D02*
X82570000Y-79950000D01*
X79970000Y-79950000D02*
X79970000Y-90230000D01*
X85170000Y-82550000D02*
X85170000Y-90230000D01*
%TO.C,J1C1*%
X130725000Y-72430000D02*
X130725000Y-71100000D01*
X133385000Y-69830000D02*
X133385000Y-54530000D01*
X132055000Y-72430000D02*
X130725000Y-72430000D01*
X133385000Y-69830000D02*
X130725000Y-69830000D01*
X130725000Y-69830000D02*
X130725000Y-54530000D01*
X133385000Y-54530000D02*
X130725000Y-54530000D01*
%TO.C,J1B1*%
X130870000Y-54550000D02*
X128210000Y-54550000D01*
X128210000Y-69850000D02*
X128210000Y-54550000D01*
X130870000Y-69850000D02*
X128210000Y-69850000D01*
X129540000Y-72450000D02*
X128210000Y-72450000D01*
X130870000Y-69850000D02*
X130870000Y-54550000D01*
X128210000Y-72450000D02*
X128210000Y-71120000D01*
%TO.C,J1A1*%
X125670000Y-72450000D02*
X125670000Y-71120000D01*
X128330000Y-69850000D02*
X128330000Y-54550000D01*
X127000000Y-72450000D02*
X125670000Y-72450000D01*
X128330000Y-69850000D02*
X125670000Y-69850000D01*
X125670000Y-69850000D02*
X125670000Y-54550000D01*
X128330000Y-54550000D02*
X125670000Y-54550000D01*
%TD*%
D15*
%TO.C,U4*%
X139710000Y-71501000D03*
D16*
X139710000Y-68961000D03*
X142250000Y-71501000D03*
X142250000Y-68961000D03*
X144790000Y-71501000D03*
X144790000Y-68961000D03*
X147330000Y-71501000D03*
X147330000Y-68961000D03*
%TD*%
%LPC*%
D15*
%TO.C,U4*%
X139710000Y-71501000D03*
D16*
X139710000Y-68961000D03*
X142250000Y-71501000D03*
X142250000Y-68961000D03*
X144790000Y-71501000D03*
X144790000Y-68961000D03*
X147330000Y-71501000D03*
X147330000Y-68961000D03*
%TD*%
D17*
%TO.C,U6*%
X99045000Y-68580000D03*
D18*
X96505000Y-68580000D03*
X93965000Y-68580000D03*
X91425000Y-68580000D03*
X88885000Y-68580000D03*
X86345000Y-68580000D03*
X83805000Y-68580000D03*
X81265000Y-68580000D03*
X81265000Y-76200000D03*
X83805000Y-76200000D03*
X86345000Y-76200000D03*
X88885000Y-76200000D03*
X91425000Y-76200000D03*
X93965000Y-76200000D03*
X96505000Y-76200000D03*
X99045000Y-76200000D03*
%TD*%
D17*
%TO.C,U5*%
X99045000Y-54620000D03*
D18*
X96505000Y-54620000D03*
X93965000Y-54620000D03*
X91425000Y-54620000D03*
X88885000Y-54620000D03*
X86345000Y-54620000D03*
X83805000Y-54620000D03*
X81265000Y-54620000D03*
X81265000Y-62240000D03*
X83805000Y-62240000D03*
X86345000Y-62240000D03*
X88885000Y-62240000D03*
X91425000Y-62240000D03*
X93965000Y-62240000D03*
X96505000Y-62240000D03*
X99045000Y-62240000D03*
%TD*%
D19*
%TO.C,U3*%
X118110000Y-60960000D03*
X107950000Y-60960000D03*
X120650000Y-50800000D03*
X120650000Y-53340000D03*
X120650000Y-55880000D03*
X120650000Y-58420000D03*
X120650000Y-60960000D03*
X120650000Y-63500000D03*
X120650000Y-66040000D03*
X120650000Y-68580000D03*
X120650000Y-71120000D03*
X120650000Y-73660000D03*
X120650000Y-76200000D03*
X120650000Y-78740000D03*
X118110000Y-78740000D03*
X115570000Y-78740000D03*
X110490000Y-78740000D03*
X107950000Y-78740000D03*
X105410000Y-78740000D03*
X105410000Y-76200000D03*
X105410000Y-73660000D03*
X105410000Y-71120000D03*
X105410000Y-68580000D03*
X105410000Y-66040000D03*
X105410000Y-63500000D03*
X105410000Y-60960000D03*
X105410000Y-58420000D03*
X105410000Y-55880000D03*
X105410000Y-53340000D03*
D17*
X105410000Y-50800000D03*
D19*
X113030000Y-78740000D03*
%TD*%
D20*
%TO.C,U2*%
X90360000Y-86360000D03*
D21*
X107020000Y-88900000D03*
D22*
X107020000Y-86360000D03*
X107020000Y-83820000D03*
%TD*%
D20*
%TO.C,U1*%
X133160000Y-86360000D03*
D21*
X116500000Y-83820000D03*
D22*
X116500000Y-86360000D03*
X116500000Y-88900000D03*
%TD*%
D23*
%TO.C,R1*%
X133350000Y-74930000D03*
D24*
X125730000Y-74930000D03*
%TD*%
D25*
%TO.C,J5A2*%
X149885000Y-77495000D03*
D26*
X149885000Y-80035000D03*
X149885000Y-82575000D03*
X149885000Y-85115000D03*
X149885000Y-87655000D03*
X149885000Y-90195000D03*
%TD*%
%TO.C,J5A1*%
X139700000Y-90170000D03*
X139700000Y-87630000D03*
X139700000Y-85090000D03*
X139700000Y-82550000D03*
X139700000Y-80010000D03*
D25*
X139700000Y-77470000D03*
%TD*%
%TO.C,J4*%
X130810000Y-78740000D03*
D26*
X128270000Y-78740000D03*
%TD*%
%TO.C,J3*%
X111760000Y-87630000D03*
D25*
X111760000Y-85090000D03*
%TD*%
%TO.C,J2*%
X83840000Y-81280000D03*
D26*
X81300000Y-81280000D03*
X83840000Y-83820000D03*
X81300000Y-83820000D03*
X83840000Y-86360000D03*
X81300000Y-86360000D03*
X83840000Y-88900000D03*
X81300000Y-88900000D03*
%TD*%
D25*
%TO.C,J1C1*%
X132055000Y-71100000D03*
D26*
X132055000Y-68560000D03*
X132055000Y-66020000D03*
X132055000Y-63480000D03*
X132055000Y-60940000D03*
X132055000Y-58400000D03*
X132055000Y-55860000D03*
%TD*%
%TO.C,J1B1*%
X129540000Y-55880000D03*
X129540000Y-58420000D03*
X129540000Y-60960000D03*
X129540000Y-63500000D03*
X129540000Y-66040000D03*
X129540000Y-68580000D03*
D25*
X129540000Y-71120000D03*
%TD*%
%TO.C,J1A1*%
X127000000Y-71120000D03*
D26*
X127000000Y-68580000D03*
X127000000Y-66040000D03*
X127000000Y-63500000D03*
X127000000Y-60960000D03*
X127000000Y-58420000D03*
X127000000Y-55880000D03*
%TD*%
M02*
