M48
; DRILL file {KiCad 6.0.2+dfsg-1} date Fri 30 Sep 2022 01:12:36 PM CDT
; FORMAT={-:-/ absolute / metric / decimal}
; #@! TF.CreationDate,2022-09-30T13:12:36-05:00
; #@! TF.GenerationSoftware,Kicad,Pcbnew,6.0.2+dfsg-1
; #@! TF.FileFunction,Plated,1,2,PTH
FMAT,2
METRIC
; #@! TA.AperFunction,Plated,PTH,ViaDrill
T1C0.400
; #@! TA.AperFunction,Plated,PTH,ComponentDrill
T2C0.700
; #@! TA.AperFunction,Plated,PTH,ComponentDrill
T3C0.800
; #@! TA.AperFunction,Plated,PTH,ComponentDrill
T4C0.900
; #@! TA.AperFunction,Plated,PTH,ComponentDrill
T5C1.000
; #@! TA.AperFunction,Plated,PTH,ComponentDrill
T6C1.016
; #@! TA.AperFunction,Plated,PTH,ComponentDrill
T7C1.100
%
G90
G05
T1
X50.763Y6.313
X54.61Y6.35
T2
X48.26Y25.4
X48.26Y17.78
X58.42Y25.4
X58.42Y17.78
T3
X5.065Y39.36
X5.065Y31.74
X5.065Y25.4
X5.065Y17.78
X7.605Y39.36
X7.605Y31.74
X7.605Y25.4
X7.605Y17.78
X10.145Y39.36
X10.145Y31.74
X10.145Y25.4
X10.145Y17.78
X12.685Y39.36
X12.685Y31.74
X12.685Y25.4
X12.685Y17.78
X15.225Y39.36
X15.225Y31.74
X15.225Y25.4
X15.225Y17.78
X17.765Y39.36
X17.765Y31.74
X17.765Y25.4
X17.765Y17.78
X20.305Y39.36
X20.305Y31.74
X20.305Y25.4
X20.305Y17.78
X22.845Y39.36
X22.845Y31.74
X22.845Y25.4
X22.845Y17.78
T4
X52.07Y21.59
X54.61Y21.59
T5
X5.1Y12.7
X5.1Y10.16
X5.1Y7.62
X5.1Y5.08
X7.64Y12.7
X7.64Y10.16
X7.64Y7.62
X7.64Y5.08
X35.56Y8.89
X35.56Y6.35
X50.775Y43.2
X50.775Y40.66
X50.775Y38.12
X50.775Y35.58
X50.775Y33.04
X50.775Y30.5
X50.775Y27.96
X52.07Y15.24
X53.315Y43.2
X53.315Y40.66
X53.315Y38.12
X53.315Y35.58
X53.315Y33.04
X53.315Y30.5
X53.315Y27.96
X54.61Y15.24
X55.88Y43.2
X55.88Y40.66
X55.88Y38.12
X55.88Y35.58
X55.88Y33.04
X55.88Y30.5
X55.88Y27.96
X63.5Y16.51
X63.5Y13.97
X63.5Y11.43
X63.5Y8.89
X63.5Y6.35
X63.5Y3.81
X73.685Y16.485
X73.685Y13.945
X73.685Y11.405
X73.685Y8.865
X73.685Y6.325
X73.685Y3.785
T6
X63.51Y25.019
X63.51Y22.479
X66.05Y25.019
X66.05Y22.479
X68.59Y25.019
X68.59Y22.479
X71.13Y25.019
X71.13Y22.479
T7
X29.21Y43.18
X29.21Y40.64
X29.21Y38.1
X29.21Y35.56
X29.21Y33.02
X29.21Y30.48
X29.21Y27.94
X29.21Y25.4
X29.21Y22.86
X29.21Y20.32
X29.21Y17.78
X29.21Y15.24
X30.82Y10.16
X30.82Y7.62
X30.82Y5.08
X31.75Y33.02
X31.75Y15.24
X34.29Y15.24
X36.83Y15.24
X39.37Y15.24
X40.3Y10.16
X40.3Y7.62
X40.3Y5.08
X41.91Y33.02
X41.91Y15.24
X44.45Y43.18
X44.45Y40.64
X44.45Y38.1
X44.45Y35.56
X44.45Y33.02
X44.45Y30.48
X44.45Y27.94
X44.45Y25.4
X44.45Y22.86
X44.45Y20.32
X44.45Y17.78
X44.45Y15.24
T0
M30
