M48
; DRILL file {KiCad (6.0.4)} date Sat Sep 17 12:00:49 2022
; FORMAT={-:-/ absolute / metric / decimal}
; #@! TF.CreationDate,2022-09-17T12:00:49-05:00
; #@! TF.GenerationSoftware,Kicad,Pcbnew,(6.0.4)
; #@! TF.FileFunction,Plated,1,2,PTH
FMAT,2
METRIC
; #@! TA.AperFunction,Plated,PTH,ViaDrill
T1C0.400
; #@! TA.AperFunction,Plated,PTH,ComponentDrill
T2C0.700
; #@! TA.AperFunction,Plated,PTH,ComponentDrill
T3C0.800
; #@! TA.AperFunction,Plated,PTH,ComponentDrill
T4C1.000
; #@! TA.AperFunction,Plated,PTH,ComponentDrill
T5C1.016
; #@! TA.AperFunction,Plated,PTH,ComponentDrill
T6C1.100
%
G90
G05
T1
X121.873Y-82.503
X121.92Y-81.28
T2
X125.73Y-74.93
X133.35Y-74.93
T3
X81.265Y-54.62
X81.265Y-62.24
X81.265Y-68.58
X81.265Y-76.2
X83.805Y-54.62
X83.805Y-62.24
X83.805Y-68.58
X83.805Y-76.2
X86.345Y-54.62
X86.345Y-62.24
X86.345Y-68.58
X86.345Y-76.2
X88.885Y-54.62
X88.885Y-62.24
X88.885Y-68.58
X88.885Y-76.2
X91.425Y-54.62
X91.425Y-62.24
X91.425Y-68.58
X91.425Y-76.2
X93.965Y-54.62
X93.965Y-62.24
X93.965Y-68.58
X93.965Y-76.2
X96.505Y-54.62
X96.505Y-62.24
X96.505Y-68.58
X96.505Y-76.2
X99.045Y-54.62
X99.045Y-62.24
X99.045Y-68.58
X99.045Y-76.2
T4
X81.3Y-81.28
X81.3Y-83.82
X81.3Y-86.36
X81.3Y-88.9
X83.84Y-81.28
X83.84Y-83.82
X83.84Y-86.36
X83.84Y-88.9
X111.76Y-85.09
X111.76Y-87.63
X127.0Y-55.88
X127.0Y-58.42
X127.0Y-60.96
X127.0Y-63.5
X127.0Y-66.04
X127.0Y-68.58
X127.0Y-71.12
X128.27Y-78.74
X129.54Y-55.88
X129.54Y-58.42
X129.54Y-60.96
X129.54Y-63.5
X129.54Y-66.04
X129.54Y-68.58
X129.54Y-71.12
X130.81Y-78.74
X132.055Y-55.86
X132.055Y-58.4
X132.055Y-60.94
X132.055Y-63.48
X132.055Y-66.02
X132.055Y-68.56
X132.055Y-71.1
X139.7Y-77.47
X139.7Y-80.01
X139.7Y-82.55
X139.7Y-85.09
X139.7Y-87.63
X139.7Y-90.17
X149.885Y-77.495
X149.885Y-80.035
X149.885Y-82.575
X149.885Y-85.115
X149.885Y-87.655
X149.885Y-90.195
T5
X139.71Y-68.961
X139.71Y-71.501
X142.25Y-68.961
X142.25Y-71.501
X144.79Y-68.961
X144.79Y-71.501
X147.33Y-68.961
X147.33Y-71.501
T6
X105.41Y-50.8
X105.41Y-53.34
X105.41Y-55.88
X105.41Y-58.42
X105.41Y-60.96
X105.41Y-63.5
X105.41Y-66.04
X105.41Y-68.58
X105.41Y-71.12
X105.41Y-73.66
X105.41Y-76.2
X105.41Y-78.74
X107.02Y-83.82
X107.02Y-86.36
X107.02Y-88.9
X107.95Y-60.96
X107.95Y-78.74
X110.49Y-78.74
X113.03Y-78.74
X115.57Y-78.74
X116.5Y-83.82
X116.5Y-86.36
X116.5Y-88.9
X118.11Y-60.96
X118.11Y-78.74
X120.65Y-50.8
X120.65Y-53.34
X120.65Y-55.88
X120.65Y-58.42
X120.65Y-60.96
X120.65Y-63.5
X120.65Y-66.04
X120.65Y-68.58
X120.65Y-71.12
X120.65Y-73.66
X120.65Y-76.2
X120.65Y-78.74
T0
M30
