%TF.GenerationSoftware,KiCad,Pcbnew,6.0.2+dfsg-1*%
%TF.CreationDate,2022-09-30T13:12:16-05:00*%
%TF.ProjectId,WaterGame,57617465-7247-4616-9d65-2e6b69636164,rev?*%
%TF.SameCoordinates,PX48ab840PY59a0560*%
%TF.FileFunction,Soldermask,Top*%
%TF.FilePolarity,Negative*%
%FSLAX46Y46*%
G04 Gerber Fmt 4.6, Leading zero omitted, Abs format (unit mm)*
G04 Created by KiCad (PCBNEW 6.0.2+dfsg-1) date 2022-09-30 13:12:16*
%MOMM*%
%LPD*%
G01*
G04 APERTURE LIST*
%ADD10R,1.700000X1.700000*%
%ADD11O,1.700000X1.700000*%
%ADD12C,1.400000*%
%ADD13O,1.400000X1.400000*%
%ADD14R,1.800000X1.800000*%
%ADD15C,1.800000*%
%ADD16R,1.600000X1.600000*%
%ADD17O,1.600000X1.600000*%
%ADD18R,1.727200X1.727200*%
%ADD19O,1.727200X1.727200*%
%ADD20C,1.600000*%
%ADD21O,3.500000X3.500000*%
%ADD22R,2.000000X1.905000*%
%ADD23O,2.000000X1.905000*%
G04 APERTURE END LIST*
D10*
%TO.C,J4*%
X54610000Y15240000D03*
D11*
X52070000Y15240000D03*
%TD*%
D10*
%TO.C,J1B1*%
X53315000Y27960000D03*
D11*
X53315000Y30500000D03*
X53315000Y33040000D03*
X53315000Y35580000D03*
X53315000Y38120000D03*
X53315000Y40660000D03*
X53315000Y43200000D03*
%TD*%
D12*
%TO.C,R2*%
X48260000Y25400000D03*
D13*
X48260000Y17780000D03*
%TD*%
D10*
%TO.C,J3*%
X35560000Y8890000D03*
D11*
X35560000Y6350000D03*
%TD*%
D14*
%TO.C,D1*%
X54610000Y21590000D03*
D15*
X52070000Y21590000D03*
%TD*%
D10*
%TO.C,J2*%
X7640000Y12700000D03*
D11*
X5100000Y12700000D03*
X7640000Y10160000D03*
X5100000Y10160000D03*
X7640000Y7620000D03*
X5100000Y7620000D03*
X7640000Y5080000D03*
X5100000Y5080000D03*
%TD*%
D10*
%TO.C,J5A2*%
X73685000Y16485000D03*
D11*
X73685000Y13945000D03*
X73685000Y11405000D03*
X73685000Y8865000D03*
X73685000Y6325000D03*
X73685000Y3785000D03*
%TD*%
D10*
%TO.C,J1C1*%
X55880000Y27960000D03*
D11*
X55880000Y30500000D03*
X55880000Y33040000D03*
X55880000Y35580000D03*
X55880000Y38120000D03*
X55880000Y40660000D03*
X55880000Y43200000D03*
%TD*%
D10*
%TO.C,J5A1*%
X63500000Y16510000D03*
D11*
X63500000Y13970000D03*
X63500000Y11430000D03*
X63500000Y8890000D03*
X63500000Y6350000D03*
X63500000Y3810000D03*
%TD*%
D12*
%TO.C,R1*%
X58420000Y25400000D03*
D13*
X58420000Y17780000D03*
%TD*%
D10*
%TO.C,J1A1*%
X50775000Y27960000D03*
D11*
X50775000Y30500000D03*
X50775000Y33040000D03*
X50775000Y35580000D03*
X50775000Y38120000D03*
X50775000Y40660000D03*
X50775000Y43200000D03*
%TD*%
D16*
%TO.C,U5*%
X22845000Y39360000D03*
D17*
X20305000Y39360000D03*
X17765000Y39360000D03*
X15225000Y39360000D03*
X12685000Y39360000D03*
X10145000Y39360000D03*
X7605000Y39360000D03*
X5065000Y39360000D03*
X5065000Y31740000D03*
X7605000Y31740000D03*
X10145000Y31740000D03*
X12685000Y31740000D03*
X15225000Y31740000D03*
X17765000Y31740000D03*
X20305000Y31740000D03*
X22845000Y31740000D03*
%TD*%
D18*
%TO.C,U4*%
X63510000Y22479000D03*
D19*
X63510000Y25019000D03*
X66050000Y22479000D03*
X66050000Y25019000D03*
X68590000Y22479000D03*
X68590000Y25019000D03*
X71130000Y22479000D03*
X71130000Y25019000D03*
%TD*%
D16*
%TO.C,U3*%
X29210000Y43180000D03*
D20*
X29210000Y40640000D03*
X29210000Y38100000D03*
X29210000Y35560000D03*
X29210000Y33020000D03*
X29210000Y30480000D03*
X29210000Y27940000D03*
X29210000Y25400000D03*
X29210000Y22860000D03*
X29210000Y20320000D03*
X29210000Y17780000D03*
X29210000Y15240000D03*
X31750000Y15240000D03*
X34290000Y15240000D03*
X36830000Y15240000D03*
X39370000Y15240000D03*
X41910000Y15240000D03*
X44450000Y15240000D03*
X44450000Y17780000D03*
X44450000Y20320000D03*
X44450000Y22860000D03*
X44450000Y25400000D03*
X44450000Y27940000D03*
X44450000Y30480000D03*
X44450000Y33020000D03*
X44450000Y35560000D03*
X44450000Y38100000D03*
X44450000Y40640000D03*
X44450000Y43180000D03*
X31750000Y33020000D03*
X41910000Y33020000D03*
%TD*%
D21*
%TO.C,U1*%
X56960000Y7620000D03*
D22*
X40300000Y10160000D03*
D23*
X40300000Y7620000D03*
X40300000Y5080000D03*
%TD*%
D16*
%TO.C,U6*%
X22845000Y25400000D03*
D17*
X20305000Y25400000D03*
X17765000Y25400000D03*
X15225000Y25400000D03*
X12685000Y25400000D03*
X10145000Y25400000D03*
X7605000Y25400000D03*
X5065000Y25400000D03*
X5065000Y17780000D03*
X7605000Y17780000D03*
X10145000Y17780000D03*
X12685000Y17780000D03*
X15225000Y17780000D03*
X17765000Y17780000D03*
X20305000Y17780000D03*
X22845000Y17780000D03*
%TD*%
D21*
%TO.C,U2*%
X14160000Y7620000D03*
D22*
X30820000Y5080000D03*
D23*
X30820000Y7620000D03*
X30820000Y10160000D03*
%TD*%
M02*
