M48
; DRILL file {KiCad (6.0.4)} date Mon Sep 19 19:44:30 2022
; FORMAT={-:-/ absolute / metric / decimal}
; #@! TF.CreationDate,2022-09-19T19:44:30-05:00
; #@! TF.GenerationSoftware,Kicad,Pcbnew,(6.0.4)
; #@! TF.FileFunction,Plated,1,2,PTH
FMAT,2
METRIC
; #@! TA.AperFunction,Plated,PTH,ViaDrill
T1C0.400
; #@! TA.AperFunction,Plated,PTH,ComponentDrill
T2C0.700
; #@! TA.AperFunction,Plated,PTH,ComponentDrill
T3C0.800
; #@! TA.AperFunction,Plated,PTH,ComponentDrill
T4C0.900
; #@! TA.AperFunction,Plated,PTH,ComponentDrill
T5C1.000
; #@! TA.AperFunction,Plated,PTH,ComponentDrill
T6C1.016
; #@! TA.AperFunction,Plated,PTH,ComponentDrill
T7C1.100
%
G90
G05
T1
X44.403Y11.477
X44.45Y12.7
T2
X46.99Y25.4
X46.99Y17.78
X57.15Y25.4
X57.15Y17.78
T3
X3.795Y39.36
X3.795Y31.74
X3.795Y25.4
X3.795Y17.78
X6.335Y39.36
X6.335Y31.74
X6.335Y25.4
X6.335Y17.78
X8.875Y39.36
X8.875Y31.74
X8.875Y25.4
X8.875Y17.78
X11.415Y39.36
X11.415Y31.74
X11.415Y25.4
X11.415Y17.78
X13.955Y39.36
X13.955Y31.74
X13.955Y25.4
X13.955Y17.78
X16.495Y39.36
X16.495Y31.74
X16.495Y25.4
X16.495Y17.78
X19.035Y39.36
X19.035Y31.74
X19.035Y25.4
X19.035Y17.78
X21.575Y39.36
X21.575Y31.74
X21.575Y25.4
X21.575Y17.78
T4
X50.8Y21.59
X53.34Y21.59
T5
X3.83Y12.7
X3.83Y10.16
X3.83Y7.62
X3.83Y5.08
X6.37Y12.7
X6.37Y10.16
X6.37Y7.62
X6.37Y5.08
X34.29Y8.89
X34.29Y6.35
X49.505Y43.2
X49.505Y40.66
X49.505Y38.12
X49.505Y35.58
X49.505Y33.04
X49.505Y30.5
X49.505Y27.96
X50.8Y15.24
X52.045Y43.2
X52.045Y40.66
X52.045Y38.12
X52.045Y35.58
X52.045Y33.04
X52.045Y30.5
X52.045Y27.96
X53.34Y15.24
X54.61Y43.2
X54.61Y40.66
X54.61Y38.12
X54.61Y35.58
X54.61Y33.04
X54.61Y30.5
X54.61Y27.96
X62.23Y16.51
X62.23Y13.97
X62.23Y11.43
X62.23Y8.89
X62.23Y6.35
X62.23Y3.81
X72.415Y16.485
X72.415Y13.945
X72.415Y11.405
X72.415Y8.865
X72.415Y6.325
X72.415Y3.785
T6
X62.24Y25.019
X62.24Y22.479
X64.78Y25.019
X64.78Y22.479
X67.32Y25.019
X67.32Y22.479
X69.86Y25.019
X69.86Y22.479
T7
X27.94Y43.18
X27.94Y40.64
X27.94Y38.1
X27.94Y35.56
X27.94Y33.02
X27.94Y30.48
X27.94Y27.94
X27.94Y25.4
X27.94Y22.86
X27.94Y20.32
X27.94Y17.78
X27.94Y15.24
X29.55Y10.16
X29.55Y7.62
X29.55Y5.08
X30.48Y33.02
X30.48Y15.24
X33.02Y15.24
X35.56Y15.24
X38.1Y15.24
X39.03Y10.16
X39.03Y7.62
X39.03Y5.08
X40.64Y33.02
X40.64Y15.24
X43.18Y43.18
X43.18Y40.64
X43.18Y38.1
X43.18Y35.56
X43.18Y33.02
X43.18Y30.48
X43.18Y27.94
X43.18Y25.4
X43.18Y22.86
X43.18Y20.32
X43.18Y17.78
X43.18Y15.24
T0
M30
