%TF.GenerationSoftware,KiCad,Pcbnew,6.0.2+dfsg-1*%
%TF.CreationDate,2022-09-30T13:12:16-05:00*%
%TF.ProjectId,WaterGame,57617465-7247-4616-9d65-2e6b69636164,rev?*%
%TF.SameCoordinates,PX48ab840PY59a0560*%
%TF.FileFunction,Copper,L2,Bot*%
%TF.FilePolarity,Positive*%
%FSLAX46Y46*%
G04 Gerber Fmt 4.6, Leading zero omitted, Abs format (unit mm)*
G04 Created by KiCad (PCBNEW 6.0.2+dfsg-1) date 2022-09-30 13:12:16*
%MOMM*%
%LPD*%
G01*
G04 APERTURE LIST*
%TA.AperFunction,ComponentPad*%
%ADD10R,1.700000X1.700000*%
%TD*%
%TA.AperFunction,ComponentPad*%
%ADD11O,1.700000X1.700000*%
%TD*%
%TA.AperFunction,ComponentPad*%
%ADD12C,1.400000*%
%TD*%
%TA.AperFunction,ComponentPad*%
%ADD13O,1.400000X1.400000*%
%TD*%
%TA.AperFunction,ComponentPad*%
%ADD14R,1.800000X1.800000*%
%TD*%
%TA.AperFunction,ComponentPad*%
%ADD15C,1.800000*%
%TD*%
%TA.AperFunction,ComponentPad*%
%ADD16R,1.600000X1.600000*%
%TD*%
%TA.AperFunction,ComponentPad*%
%ADD17O,1.600000X1.600000*%
%TD*%
%TA.AperFunction,ComponentPad*%
%ADD18R,1.727200X1.727200*%
%TD*%
%TA.AperFunction,ComponentPad*%
%ADD19O,1.727200X1.727200*%
%TD*%
%TA.AperFunction,ComponentPad*%
%ADD20C,1.600000*%
%TD*%
%TA.AperFunction,ComponentPad*%
%ADD21R,2.000000X1.905000*%
%TD*%
%TA.AperFunction,ComponentPad*%
%ADD22O,2.000000X1.905000*%
%TD*%
%TA.AperFunction,ViaPad*%
%ADD23C,0.800000*%
%TD*%
%TA.AperFunction,Conductor*%
%ADD24C,0.250000*%
%TD*%
%TA.AperFunction,Conductor*%
%ADD25C,1.500000*%
%TD*%
%TA.AperFunction,Conductor*%
%ADD26C,0.500000*%
%TD*%
%TA.AperFunction,Conductor*%
%ADD27C,0.400000*%
%TD*%
G04 APERTURE END LIST*
D10*
%TO.P,J4,1,Pin_1*%
%TO.N,Net-(J4-Pad1)*%
X54610000Y15240000D03*
D11*
%TO.P,J4,2,Pin_2*%
%TO.N,Net-(J1C1-Pad7)*%
X52070000Y15240000D03*
%TD*%
D10*
%TO.P,J1B1,1,Pin_1*%
%TO.N,Net-(J1B1-Pad1)*%
X53315000Y27960000D03*
D11*
%TO.P,J1B1,2,Pin_2*%
X53315000Y30500000D03*
%TO.P,J1B1,3,Pin_3*%
X53315000Y33040000D03*
%TO.P,J1B1,4,Pin_4*%
X53315000Y35580000D03*
%TO.P,J1B1,5,Pin_5*%
X53315000Y38120000D03*
%TO.P,J1B1,6,Pin_6*%
X53315000Y40660000D03*
%TO.P,J1B1,7,Pin_7*%
X53315000Y43200000D03*
%TD*%
D12*
%TO.P,R2,1*%
%TO.N,Net-(R2-Pad1)*%
X48260000Y25400000D03*
D13*
%TO.P,R2,2*%
%TO.N,Net-(U3-Pad18)*%
X48260000Y17780000D03*
%TD*%
D10*
%TO.P,J3,1,Pin_1*%
%TO.N,Net-(J3-Pad1)*%
X35560000Y8890000D03*
D11*
%TO.P,J3,2,Pin_2*%
%TO.N,Net-(J1C1-Pad7)*%
X35560000Y6350000D03*
%TD*%
D14*
%TO.P,D1,1,K*%
%TO.N,Net-(J1C1-Pad7)*%
X54610000Y21590000D03*
D15*
%TO.P,D1,2,A*%
%TO.N,Net-(R2-Pad1)*%
X52070000Y21590000D03*
%TD*%
D10*
%TO.P,J2,1,Pin_1*%
%TO.N,Net-(U6-Pad3)*%
X7640000Y12700000D03*
D11*
%TO.P,J2,2,Pin_2*%
%TO.N,Net-(U6-Pad6)*%
X5100000Y12700000D03*
%TO.P,J2,3,Pin_3*%
%TO.N,Net-(U6-Pad11)*%
X7640000Y10160000D03*
%TO.P,J2,4,Pin_4*%
%TO.N,Net-(U6-Pad14)*%
X5100000Y10160000D03*
%TO.P,J2,5,Pin_5*%
%TO.N,Net-(J2-Pad5)*%
X7640000Y7620000D03*
%TO.P,J2,6,Pin_6*%
%TO.N,Net-(U5-Pad6)*%
X5100000Y7620000D03*
%TO.P,J2,7,Pin_7*%
%TO.N,Net-(J2-Pad7)*%
X7640000Y5080000D03*
%TO.P,J2,8,Pin_8*%
%TO.N,Net-(J2-Pad8)*%
X5100000Y5080000D03*
%TD*%
D10*
%TO.P,J5A2,1,Pin_1*%
%TO.N,unconnected-(J5A2-Pad1)*%
X73685000Y16485000D03*
D11*
%TO.P,J5A2,2,Pin_2*%
%TO.N,unconnected-(J5A2-Pad2)*%
X73685000Y13945000D03*
%TO.P,J5A2,3,Pin_3*%
%TO.N,Net-(J1C1-Pad7)*%
X73685000Y11405000D03*
%TO.P,J5A2,4,Pin_4*%
%TO.N,Net-(J5A2-Pad4)*%
X73685000Y8865000D03*
%TO.P,J5A2,5,Pin_5*%
%TO.N,Net-(J5A2-Pad5)*%
X73685000Y6325000D03*
%TO.P,J5A2,6,Pin_6*%
%TO.N,Net-(J5A2-Pad6)*%
X73685000Y3785000D03*
%TD*%
D10*
%TO.P,J1C1,1,Pin_1*%
%TO.N,Net-(J1C1-Pad7)*%
X55880000Y27960000D03*
D11*
%TO.P,J1C1,2,Pin_2*%
X55880000Y30500000D03*
%TO.P,J1C1,3,Pin_3*%
X55880000Y33040000D03*
%TO.P,J1C1,4,Pin_4*%
X55880000Y35580000D03*
%TO.P,J1C1,5,Pin_5*%
X55880000Y38120000D03*
%TO.P,J1C1,6,Pin_6*%
X55880000Y40660000D03*
%TO.P,J1C1,7,Pin_7*%
X55880000Y43200000D03*
%TD*%
D10*
%TO.P,J5A1,1,Pin_1*%
%TO.N,unconnected-(J5A1-Pad1)*%
X63500000Y16510000D03*
D11*
%TO.P,J5A1,2,Pin_2*%
%TO.N,unconnected-(J5A1-Pad2)*%
X63500000Y13970000D03*
%TO.P,J5A1,3,Pin_3*%
%TO.N,Net-(J1C1-Pad7)*%
X63500000Y11430000D03*
%TO.P,J5A1,4,Pin_4*%
%TO.N,Net-(J1B1-Pad1)*%
X63500000Y8890000D03*
%TO.P,J5A1,5,Pin_5*%
%TO.N,Net-(J5A1-Pad5)*%
X63500000Y6350000D03*
%TO.P,J5A1,6,Pin_6*%
%TO.N,Net-(J5A1-Pad6)*%
X63500000Y3810000D03*
%TD*%
D12*
%TO.P,R1,1*%
%TO.N,Net-(J4-Pad1)*%
X58420000Y25400000D03*
D13*
%TO.P,R1,2*%
%TO.N,Net-(J5A2-Pad4)*%
X58420000Y17780000D03*
%TD*%
D10*
%TO.P,J1A1,1,Pin_1*%
%TO.N,Net-(J1A1-Pad1)*%
X50775000Y27960000D03*
D11*
%TO.P,J1A1,2,Pin_2*%
%TO.N,Net-(J1A1-Pad2)*%
X50775000Y30500000D03*
%TO.P,J1A1,3,Pin_3*%
%TO.N,Net-(J1A1-Pad3)*%
X50775000Y33040000D03*
%TO.P,J1A1,4,Pin_4*%
%TO.N,Net-(J1A1-Pad4)*%
X50775000Y35580000D03*
%TO.P,J1A1,5,Pin_5*%
%TO.N,Net-(J1A1-Pad5)*%
X50775000Y38120000D03*
%TO.P,J1A1,6,Pin_6*%
%TO.N,Net-(J1A1-Pad6)*%
X50775000Y40660000D03*
%TO.P,J1A1,7,Pin_7*%
%TO.N,Net-(J1A1-Pad7)*%
X50775000Y43200000D03*
%TD*%
D16*
%TO.P,U5,1,EN1\u002C2*%
%TO.N,Net-(U3-Pad2)*%
X22845000Y39360000D03*
D17*
%TO.P,U5,2,1A*%
%TO.N,Net-(U3-Pad6)*%
X20305000Y39360000D03*
%TO.P,U5,3,1Y*%
%TO.N,Net-(J2-Pad5)*%
X17765000Y39360000D03*
%TO.P,U5,4,GND*%
%TO.N,Net-(J1C1-Pad7)*%
X15225000Y39360000D03*
%TO.P,U5,5,GND*%
X12685000Y39360000D03*
%TO.P,U5,6,2Y*%
%TO.N,Net-(U5-Pad6)*%
X10145000Y39360000D03*
%TO.P,U5,7,2A*%
%TO.N,Net-(U3-Pad4)*%
X7605000Y39360000D03*
%TO.P,U5,8,VCC2*%
%TO.N,Net-(J3-Pad1)*%
X5065000Y39360000D03*
%TO.P,U5,9,EN3\u002C4*%
%TO.N,Net-(U3-Pad3)*%
X5065000Y31740000D03*
%TO.P,U5,10,3A*%
%TO.N,Net-(U3-Pad7)*%
X7605000Y31740000D03*
%TO.P,U5,11,3Y*%
%TO.N,Net-(J2-Pad7)*%
X10145000Y31740000D03*
%TO.P,U5,12,GND*%
%TO.N,Net-(J1C1-Pad7)*%
X12685000Y31740000D03*
%TO.P,U5,13,GND*%
X15225000Y31740000D03*
%TO.P,U5,14,4Y*%
%TO.N,Net-(J2-Pad8)*%
X17765000Y31740000D03*
%TO.P,U5,15,4A*%
%TO.N,Net-(U3-Pad5)*%
X20305000Y31740000D03*
%TO.P,U5,16,VCC1*%
%TO.N,Net-(J1B1-Pad1)*%
X22845000Y31740000D03*
%TD*%
D18*
%TO.P,U4,1,UTXD*%
%TO.N,Net-(J5A2-Pad6)*%
X63510000Y22479000D03*
D19*
%TO.P,U4,2,GND*%
%TO.N,Net-(J1C1-Pad7)*%
X63510000Y25019000D03*
%TO.P,U4,3,CH_PD*%
%TO.N,Net-(J5A2-Pad4)*%
X66050000Y22479000D03*
%TO.P,U4,4,GPIO2*%
%TO.N,unconnected-(U4-Pad4)*%
X66050000Y25019000D03*
%TO.P,U4,5,RST*%
%TO.N,Net-(J5A2-Pad4)*%
X68590000Y22479000D03*
%TO.P,U4,6,GPIO0*%
%TO.N,Net-(J4-Pad1)*%
X68590000Y25019000D03*
%TO.P,U4,7,VCC*%
%TO.N,Net-(J5A2-Pad4)*%
X71130000Y22479000D03*
%TO.P,U4,8,URXD*%
%TO.N,Net-(J5A2-Pad5)*%
X71130000Y25019000D03*
%TD*%
D16*
%TO.P,U3,1,GND*%
%TO.N,Net-(J1C1-Pad7)*%
X29210000Y43180000D03*
D20*
%TO.P,U3,2,0*%
%TO.N,Net-(U3-Pad2)*%
X29210000Y40640000D03*
%TO.P,U3,3,1*%
%TO.N,Net-(U3-Pad3)*%
X29210000Y38100000D03*
%TO.P,U3,4,2*%
%TO.N,Net-(U3-Pad4)*%
X29210000Y35560000D03*
%TO.P,U3,5,3*%
%TO.N,Net-(U3-Pad5)*%
X29210000Y33020000D03*
%TO.P,U3,6,4_PWM*%
%TO.N,Net-(U3-Pad6)*%
X29210000Y30480000D03*
%TO.P,U3,7,5_INT0_PWM*%
%TO.N,Net-(U3-Pad7)*%
X29210000Y27940000D03*
%TO.P,U3,8,6_INT1*%
%TO.N,Net-(U3-Pad8)*%
X29210000Y25400000D03*
%TO.P,U3,9,7_INT2_RX*%
%TO.N,Net-(J5A1-Pad6)*%
X29210000Y22860000D03*
%TO.P,U3,10,8_INT3_TX*%
%TO.N,Net-(J5A1-Pad5)*%
X29210000Y20320000D03*
%TO.P,U3,11,9_PWM*%
%TO.N,Net-(U3-Pad11)*%
X29210000Y17780000D03*
%TO.P,U3,12,10_PWM*%
%TO.N,Net-(U3-Pad12)*%
X29210000Y15240000D03*
%TO.P,U3,13,23*%
%TO.N,unconnected-(U3-Pad13)*%
X31750000Y15240000D03*
%TO.P,U3,14,+5V*%
%TO.N,unconnected-(U3-Pad14)*%
X34290000Y15240000D03*
%TO.P,U3,15,GND*%
%TO.N,unconnected-(U3-Pad15)*%
X36830000Y15240000D03*
%TO.P,U3,16,RST*%
%TO.N,unconnected-(U3-Pad16)*%
X39370000Y15240000D03*
%TO.P,U3,17,22_A11*%
%TO.N,unconnected-(U3-Pad17)*%
X41910000Y15240000D03*
%TO.P,U3,18,11_A10_LED*%
%TO.N,Net-(U3-Pad18)*%
X44450000Y15240000D03*
%TO.P,U3,19,12_A9_PWM*%
%TO.N,Net-(U3-Pad19)*%
X44450000Y17780000D03*
%TO.P,U3,20,13_A8*%
%TO.N,Net-(U3-Pad20)*%
X44450000Y20320000D03*
%TO.P,U3,21,14_A7_PWM*%
%TO.N,Net-(J1A1-Pad1)*%
X44450000Y22860000D03*
%TO.P,U3,22,15_A6_PWM*%
%TO.N,Net-(J1A1-Pad2)*%
X44450000Y25400000D03*
%TO.P,U3,23,16_A5*%
%TO.N,Net-(J1A1-Pad3)*%
X44450000Y27940000D03*
%TO.P,U3,24,17_A4*%
%TO.N,Net-(J1A1-Pad4)*%
X44450000Y30480000D03*
%TO.P,U3,25,18_A3*%
%TO.N,Net-(J1A1-Pad5)*%
X44450000Y33020000D03*
%TO.P,U3,26,19_A2*%
%TO.N,Net-(J1A1-Pad6)*%
X44450000Y35560000D03*
%TO.P,U3,27,20_A1*%
%TO.N,Net-(J1A1-Pad7)*%
X44450000Y38100000D03*
%TO.P,U3,28,21_A0*%
%TO.N,Net-(U3-Pad28)*%
X44450000Y40640000D03*
%TO.P,U3,29,+5V*%
%TO.N,Net-(J1B1-Pad1)*%
X44450000Y43180000D03*
%TO.P,U3,30,24*%
%TO.N,unconnected-(U3-Pad30)*%
X31750000Y33020000D03*
%TO.P,U3,31,AREF*%
%TO.N,unconnected-(U3-Pad31)*%
X41910000Y33020000D03*
%TD*%
D21*
%TO.P,U1,1,VI*%
%TO.N,Net-(J3-Pad1)*%
X40300000Y10160000D03*
D22*
%TO.P,U1,2,GND*%
%TO.N,Net-(J1C1-Pad7)*%
X40300000Y7620000D03*
%TO.P,U1,3,VO*%
%TO.N,Net-(J1B1-Pad1)*%
X40300000Y5080000D03*
%TD*%
D16*
%TO.P,U6,1,EN1\u002C2*%
%TO.N,Net-(U3-Pad19)*%
X22845000Y25400000D03*
D17*
%TO.P,U6,2,1A*%
%TO.N,Net-(U3-Pad11)*%
X20305000Y25400000D03*
%TO.P,U6,3,1Y*%
%TO.N,Net-(U6-Pad3)*%
X17765000Y25400000D03*
%TO.P,U6,4,GND*%
%TO.N,Net-(J1C1-Pad7)*%
X15225000Y25400000D03*
%TO.P,U6,5,GND*%
X12685000Y25400000D03*
%TO.P,U6,6,2Y*%
%TO.N,Net-(U6-Pad6)*%
X10145000Y25400000D03*
%TO.P,U6,7,2A*%
%TO.N,Net-(U3-Pad8)*%
X7605000Y25400000D03*
%TO.P,U6,8,VCC2*%
%TO.N,Net-(J3-Pad1)*%
X5065000Y25400000D03*
%TO.P,U6,9,EN3\u002C4*%
%TO.N,Net-(U3-Pad28)*%
X5065000Y17780000D03*
%TO.P,U6,10,3A*%
%TO.N,Net-(U3-Pad12)*%
X7605000Y17780000D03*
%TO.P,U6,11,3Y*%
%TO.N,Net-(U6-Pad11)*%
X10145000Y17780000D03*
%TO.P,U6,12,GND*%
%TO.N,Net-(J1C1-Pad7)*%
X12685000Y17780000D03*
%TO.P,U6,13,GND*%
X15225000Y17780000D03*
%TO.P,U6,14,4Y*%
%TO.N,Net-(U6-Pad14)*%
X17765000Y17780000D03*
%TO.P,U6,15,4A*%
%TO.N,Net-(U3-Pad20)*%
X20305000Y17780000D03*
%TO.P,U6,16,VCC1*%
%TO.N,Net-(J1B1-Pad1)*%
X22845000Y17780000D03*
%TD*%
D21*
%TO.P,U2,1,VI*%
%TO.N,Net-(J1C1-Pad7)*%
X30820000Y5080000D03*
D22*
%TO.P,U2,2,GND*%
%TO.N,Net-(J5A2-Pad4)*%
X30820000Y7620000D03*
%TO.P,U2,3,VO*%
%TO.N,Net-(J3-Pad1)*%
X30820000Y10160000D03*
%TD*%
D23*
%TO.N,Net-(J5A1-Pad5)*%
X50762551Y6312551D03*
%TO.N,Net-(J5A1-Pad6)*%
X54610000Y6350000D03*
%TD*%
D24*
%TO.N,Net-(J5A1-Pad5)*%
X64770000Y5080000D02*
X63500000Y6350000D01*
X50762551Y6312551D02*
X54439613Y2635489D01*
X64770000Y3418990D02*
X64770000Y5080000D01*
X54439613Y2635489D02*
X63986499Y2635489D01*
X63986499Y2635489D02*
X64770000Y3418990D01*
%TO.N,Net-(J5A1-Pad6)*%
X57150000Y3810000D02*
X63500000Y3810000D01*
X54610000Y6350000D02*
X57150000Y3810000D01*
D25*
%TO.N,Net-(J1B1-Pad1)*%
X53315000Y27960000D02*
X53315000Y26695000D01*
X53315000Y26695000D02*
X61700489Y18309511D01*
X61700489Y18309511D02*
X61700489Y9487430D01*
X61700489Y9487430D02*
X62297919Y8890000D01*
X62297919Y8890000D02*
X63500000Y8890000D01*
%TO.N,Net-(J3-Pad1)*%
X30820000Y10160000D02*
X34290000Y10160000D01*
X34290000Y10160000D02*
X35560000Y8890000D01*
X35560000Y8890000D02*
X36830000Y10160000D01*
X36830000Y10160000D02*
X40300000Y10160000D01*
%TO.N,Net-(J1C1-Pad7)*%
X35560000Y6350000D02*
X36762081Y6350000D01*
X36762081Y6350000D02*
X38032081Y7620000D01*
X38032081Y7620000D02*
X40300000Y7620000D01*
X30820000Y5080000D02*
X34290000Y5080000D01*
X34290000Y5080000D02*
X35560000Y6350000D01*
X40300000Y7620000D02*
X44450000Y7620000D01*
X44450000Y7620000D02*
X52070000Y15240000D01*
D26*
%TO.N,Net-(J2-Pad5)*%
X7640000Y7620000D02*
X8939511Y6320489D01*
X3100970Y5241243D02*
X3100970Y39163046D01*
X8178276Y3780489D02*
X4561724Y3780489D01*
X3100970Y39163046D02*
X4547435Y40609511D01*
X4547435Y40609511D02*
X16515489Y40609511D01*
X8939511Y4541724D02*
X8178276Y3780489D01*
X4561724Y3780489D02*
X3100970Y5241243D01*
X8939511Y6320489D02*
X8939511Y4541724D01*
X16515489Y40609511D02*
X17765000Y39360000D01*
%TO.N,Net-(J2-Pad8)*%
X3800489Y25902565D02*
X8388413Y30490489D01*
X5100000Y5080000D02*
X3800489Y6379511D01*
X16515489Y30490489D02*
X17765000Y31740000D01*
X3800489Y6379511D02*
X3800489Y25902565D01*
X8388413Y30490489D02*
X16515489Y30490489D01*
D24*
%TO.N,Net-(J4-Pad1)*%
X67401889Y26207111D02*
X68590000Y25019000D01*
X59227111Y26207111D02*
X67401889Y26207111D01*
X58420000Y25400000D02*
X59227111Y26207111D01*
D26*
%TO.N,Net-(J5A2-Pad4)*%
X45364345Y16510000D02*
X47904345Y19050000D01*
X43180000Y15737076D02*
X43952924Y16510000D01*
X30820000Y7620000D02*
X29370480Y9069520D01*
X29370480Y10740735D02*
X32599745Y13970000D01*
X71130000Y22479000D02*
X71130000Y11420000D01*
X29370480Y9069520D02*
X29370480Y10740735D01*
X57150000Y19050000D02*
X58420000Y17780000D01*
X43952924Y16510000D02*
X45364345Y16510000D01*
X43180000Y14742924D02*
X43180000Y15737076D01*
X47904345Y19050000D02*
X57150000Y19050000D01*
X42407076Y13970000D02*
X43180000Y14742924D01*
X32599745Y13970000D02*
X42407076Y13970000D01*
X71130000Y11420000D02*
X73685000Y8865000D01*
D24*
%TO.N,Net-(J5A2-Pad6)*%
X67238111Y10231889D02*
X67238111Y22971133D01*
X67238111Y22971133D02*
X66378355Y23830889D01*
X73685000Y3785000D02*
X67238111Y10231889D01*
X64861889Y23830889D02*
X63510000Y22479000D01*
X66378355Y23830889D02*
X64861889Y23830889D01*
%TO.N,Net-(U3-Pad3)*%
X29675789Y34435489D02*
X30480000Y35239700D01*
X30480000Y35239700D02*
X30480000Y36830000D01*
X5065000Y31740000D02*
X7760489Y34435489D01*
X7760489Y34435489D02*
X29675789Y34435489D01*
X30480000Y36830000D02*
X29210000Y38100000D01*
%TO.N,Net-(U3-Pad4)*%
X29210000Y35560000D02*
X8890000Y35560000D01*
X7605000Y36845000D02*
X7605000Y39360000D01*
X8890000Y35560000D02*
X7605000Y36845000D01*
%TO.N,Net-(U3-Pad7)*%
X8729511Y32864511D02*
X24285489Y32864511D01*
X24285489Y32864511D02*
X29210000Y27940000D01*
X7605000Y31740000D02*
X8729511Y32864511D01*
%TO.N,Net-(U3-Pad8)*%
X26670000Y27940000D02*
X10145000Y27940000D01*
X10145000Y27940000D02*
X7605000Y25400000D01*
X29210000Y25400000D02*
X26670000Y27940000D01*
%TO.N,Net-(U3-Pad11)*%
X29210000Y17780000D02*
X27925000Y17780000D01*
X27925000Y17780000D02*
X20305000Y25400000D01*
%TO.N,Net-(U3-Pad12)*%
X19050000Y25705300D02*
X18085300Y26670000D01*
X8729511Y18904511D02*
X7605000Y17780000D01*
X19050000Y16510000D02*
X19050000Y25705300D01*
X16510000Y25735300D02*
X16510000Y25094700D01*
X17444700Y26670000D02*
X16510000Y25735300D01*
X29210000Y15240000D02*
X20320000Y15240000D01*
X10319811Y18904511D02*
X8729511Y18904511D01*
X18085300Y26670000D02*
X17444700Y26670000D01*
X20320000Y15240000D02*
X19050000Y16510000D01*
X16510000Y25094700D02*
X10319811Y18904511D01*
%TO.N,Net-(R2-Pad1)*%
X48260000Y25400000D02*
X52070000Y21590000D01*
%TO.N,Net-(U3-Pad19)*%
X45574511Y20785789D02*
X44624811Y21735489D01*
X44624811Y21735489D02*
X26509511Y21735489D01*
X44450000Y17780000D02*
X45574511Y18904511D01*
X26509511Y21735489D02*
X22845000Y25400000D01*
X45574511Y18904511D02*
X45574511Y20785789D01*
%TO.N,Net-(U3-Pad20)*%
X21429511Y16655489D02*
X40785489Y16655489D01*
X20305000Y17780000D02*
X21429511Y16655489D01*
X40785489Y16655489D02*
X44450000Y20320000D01*
%TO.N,Net-(U3-Pad28)*%
X6335000Y19050000D02*
X5065000Y17780000D01*
X23374502Y27119520D02*
X15354220Y27119520D01*
X30334511Y24934211D02*
X29675789Y24275489D01*
X44450000Y40640000D02*
X30334511Y26524511D01*
X13970000Y25094700D02*
X7925300Y19050000D01*
X13970000Y25735300D02*
X13970000Y25094700D01*
X7925300Y19050000D02*
X6335000Y19050000D01*
X30334511Y26524511D02*
X30334511Y24934211D01*
X26218533Y24275489D02*
X23374502Y27119520D01*
X15354220Y27119520D02*
X13970000Y25735300D01*
X29675789Y24275489D02*
X26218533Y24275489D01*
D26*
%TO.N,Net-(U6-Pad3)*%
X9372076Y12700000D02*
X7640000Y12700000D01*
X17765000Y25400000D02*
X13934511Y21569511D01*
X13934511Y17262435D02*
X9372076Y12700000D01*
X13934511Y21569511D02*
X13934511Y17262435D01*
D27*
%TO.N,Net-(U6-Pad14)*%
X5100000Y10160000D02*
X6390489Y11450489D01*
X6390489Y11450489D02*
X11435489Y11450489D01*
X11435489Y11450489D02*
X17765000Y17780000D01*
D24*
%TO.N,Net-(U3-Pad18)*%
X45720000Y15240000D02*
X48260000Y17780000D01*
X44450000Y15240000D02*
X45720000Y15240000D01*
%TD*%
M02*
