M48
; DRILL file {KiCad (6.0.4)} date Sat Sep 17 12:53:23 2022
; FORMAT={-:-/ absolute / metric / decimal}
; #@! TF.CreationDate,2022-09-17T12:53:23-05:00
; #@! TF.GenerationSoftware,Kicad,Pcbnew,(6.0.4)
; #@! TF.FileFunction,Plated,1,2,PTH
FMAT,2
METRIC
; #@! TA.AperFunction,Plated,PTH,ViaDrill
T1C0.400
; #@! TA.AperFunction,Plated,PTH,ComponentDrill
T2C0.700
; #@! TA.AperFunction,Plated,PTH,ComponentDrill
T3C0.800
; #@! TA.AperFunction,Plated,PTH,ComponentDrill
T4C1.000
; #@! TA.AperFunction,Plated,PTH,ComponentDrill
T5C1.016
; #@! TA.AperFunction,Plated,PTH,ComponentDrill
T6C1.100
%
G90
G05
T1
X44.403Y11.477
X44.45Y12.7
T2
X48.26Y19.05
X55.88Y19.05
T3
X3.795Y39.36
X3.795Y31.74
X3.795Y25.4
X3.795Y17.78
X6.335Y39.36
X6.335Y31.74
X6.335Y25.4
X6.335Y17.78
X8.875Y39.36
X8.875Y31.74
X8.875Y25.4
X8.875Y17.78
X11.415Y39.36
X11.415Y31.74
X11.415Y25.4
X11.415Y17.78
X13.955Y39.36
X13.955Y31.74
X13.955Y25.4
X13.955Y17.78
X16.495Y39.36
X16.495Y31.74
X16.495Y25.4
X16.495Y17.78
X19.035Y39.36
X19.035Y31.74
X19.035Y25.4
X19.035Y17.78
X21.575Y39.36
X21.575Y31.74
X21.575Y25.4
X21.575Y17.78
T4
X3.83Y12.7
X3.83Y10.16
X3.83Y7.62
X3.83Y5.08
X6.37Y12.7
X6.37Y10.16
X6.37Y7.62
X6.37Y5.08
X34.29Y8.89
X34.29Y6.35
X49.53Y38.1
X49.53Y35.56
X49.53Y33.02
X49.53Y30.48
X49.53Y27.94
X49.53Y25.4
X49.53Y22.86
X50.8Y15.24
X52.07Y38.1
X52.07Y35.56
X52.07Y33.02
X52.07Y30.48
X52.07Y27.94
X52.07Y25.4
X52.07Y22.86
X53.34Y15.24
X54.585Y38.12
X54.585Y35.58
X54.585Y33.04
X54.585Y30.5
X54.585Y27.96
X54.585Y25.42
X54.585Y22.88
X62.23Y16.51
X62.23Y13.97
X62.23Y11.43
X62.23Y8.89
X62.23Y6.35
X62.23Y3.81
X72.415Y16.485
X72.415Y13.945
X72.415Y11.405
X72.415Y8.865
X72.415Y6.325
X72.415Y3.785
T5
X62.24Y25.019
X62.24Y22.479
X64.78Y25.019
X64.78Y22.479
X67.32Y25.019
X67.32Y22.479
X69.86Y25.019
X69.86Y22.479
T6
X27.94Y43.18
X27.94Y40.64
X27.94Y38.1
X27.94Y35.56
X27.94Y33.02
X27.94Y30.48
X27.94Y27.94
X27.94Y25.4
X27.94Y22.86
X27.94Y20.32
X27.94Y17.78
X27.94Y15.24
X29.55Y10.16
X29.55Y7.62
X29.55Y5.08
X30.48Y33.02
X30.48Y15.24
X33.02Y15.24
X35.56Y15.24
X38.1Y15.24
X39.03Y10.16
X39.03Y7.62
X39.03Y5.08
X40.64Y33.02
X40.64Y15.24
X43.18Y43.18
X43.18Y40.64
X43.18Y38.1
X43.18Y35.56
X43.18Y33.02
X43.18Y30.48
X43.18Y27.94
X43.18Y25.4
X43.18Y22.86
X43.18Y20.32
X43.18Y17.78
X43.18Y15.24
T0
M30
